**ABCDEFGHIJKLMNOPQRSTUVWXYZabcdefghijklmnopqrstuvwxyz**************************
**PARASOLID !"#$%&'()*+,-./:;<=>?@[\]^_`{|}~0123456789**************************
**PART1;
MC=unknown;
MC_MODEL=unknown;
MC_ID=unknown;
OS=unknown;
OS_RELEASE=unknown;
FRU=Parasolid 37.1.212;
APPL=Onshape;
SITE=unknown;
USER=unknown;
FORMAT=text;
GUISE=transmit;
KEY=BTGapi::writeModels_.xmt;
FILE=BTGapi::writeModels_.xmt;
DATE=2026-04-23T08:39:17 (UTC);
**PART2;
SCH=SCH_3701212_37102;
USFLD_SIZE=0;
**PART3;
**END_OF_HEADER*****************************************************************
T51 : TRANSMIT FILE created by modeller version 370121223 SCH_3701212_37102_1300
6239 0 12 36 CCCI7 lattice222 0 CCCI4 mesh1006 0 I8 polyline1008 0 CCCCCCCDI5 ow
ner1040 0 CCCI16 boundary_lattice222 0 CCCI13 boundary_mesh1006 0 I17 boundary_p
olyline1008 0 CCCA16 index_map_offset0 0 1 dA9 index_map82 0 A17 node_id_index_m
ap82 0 A20 schema_embedding_map82 0 A5 child12 0 A14 lowest_node_id0 0 1 dA16 me
sh_offset_data206 0 Z1 1379 2 3 0 0 0 0 0 0 0 1e3 1e-8 0 4 5 1 0 1 2 6 0 7 8 9 0
 0 10 11 12 0 0 0 0 0 0 0 81 255 1 2 1327 13 1 14 0 0 0 15 70 11 CI9 list_type0
 0 1 uI10 notransmit0 0 1 lCCCDCCDI12 finger_index0 0 1 dI12 finger_block1012 0
 CZ3 0 4 T1 0 0 7 20 1 16 16 13 255 6 39 0 1 0 17 0 0 18 0 51 255 7 38 0 19 20 0
 0 --.03904 -.02781 0 0 0 -1 .00125 -1 0 0 31 255 8 9 0 11 21 0 0 +-.03904 -.027
81 0 0 0 1 1 0 0 .00125 29 255 9 800 0 12 22 0 .04322 .02716 -.0046 19 9 CCCCCCI
5 frame230 0 CA5 owner12 0 Z10 13 0 1 18 0 23 0 V0 16 255 11 7 24 ?25 0 27 8 0 0
 1 18 255 12 798 30 29 0 26 9 ?1 81 1 30 1297 28 12 0 0 34 35 32 17 255 29 0 33
 31 38 12 40 36 0 39 -18 26 761 37 41 12 45 22 ?1 81 1 37 1302 28 26 0 0 43 42 4
4 17 41 0 46 50 48 26 47 49 0 51 +18 45 433 55 52 26 53 54 ?1 29 22 763 0 26 54
 9 .03822 -.03258 -.0046 29 54 683 0 45 57 22 .03822 .03416 -.0056 29 57 684 0 5
3 60 54 .04522 .02716 -.0056 18 53 437 59 56 45 58 57 ?1 29 60 685 0 58 61 57 .0
4522 -.02718 -.0056 18 58 441 62 64 53 63 60 ?1 29 61 686 0 63 65 60 .03822 -.03
418 -.0056 18 63 445 67 70 58 69 61 ?1 29 65 687 0 69 66 61 -.03821 -.03418 -.00
56 18 69 417 68 75 63 71 65 ?1 29 66 688 0 71 73 65 -.04521 -.02718 -.0056 18 71
 421 72 74 69 76 66 ?1 29 73 689 0 76 80 66 -.04421 .02716 -.0066 18 76 403 77 7
8 71 79 73 ?1 29 80 690 0 79 82 73 -.04421 -.02718 -.0066 18 79 415 85 84 76 81
 80 ?1 29 82 691 0 81 83 80 -.03821 -.03318 -.0066 18 81 413 89 90 79 87 82 ?1 2
9 83 692 0 87 88 82 .03822 -.03318 -.0066 18 87 411 86 93 81 95 83 ?1 29 88 693
 0 95 91 83 .04422 -.02718 -.0066 18 95 409 94 92 87 96 88 ?1 29 91 694 0 96 100
 88 .04422 .02716 -.0066 18 96 407 98 97 95 99 91 ?1 29 100 695 0 99 101 91 .038
22 .03316 -.0066 18 99 405 105 103 96 102 100 ?1 29 101 696 0 102 104 100 -.0382
1 .03316 -.0066 18 102 399 106 110 99 107 101 ?1 29 104 697 0 107 108 101 -.0452
1 .02716 -.0056 18 107 401 109 112 102 115 104 ?1 29 108 698 0 115 114 104 -.038
21 .03416 -.0056 18 115 429 111 113 107 116 108 ?1 29 114 699 0 116 117 108 -.04
521 -.02718 -.0046 18 116 423 119 118 115 120 114 ?1 29 117 700 0 120 122 114 .0
3822 -.03418 -.0046 18 120 443 125 124 116 121 117 ?1 29 122 701 0 121 123 117 .
04522 -.02718 -.0046 18 121 439 130 126 120 128 122 ?1 29 123 702 0 128 127 122
 .04522 .02716 -.0046 18 128 435 129 131 121 135 123 ?1 29 127 703 0 135 132 123
 .03822 .03416 -.0046 18 135 431 133 134 128 137 127 ?1 29 132 704 0 137 140 127
 -.03821 .03416 -.0046 18 137 427 139 136 135 138 132 ?1 29 140 705 0 138 144 13
2 -.04521 .02716 -.0046 18 138 425 145 142 137 143 140 ?1 29 144 706 0 143 141 1
40 -.03821 -.03418 -.0046 18 143 419 148 150 138 146 144 ?1 29 141 1248 0 149 14
7 144 .04362 -.02718 -.0046 18 149 1044 43 151 155 153 141 ?1 29 147 1250 0 153
 152 141 -.03821 -.03258 -.0046 18 153 1100 42 48 149 154 147 ?1 29 152 1251 0 1
54 156 147 -.04361 -.02718 -.0046 18 154 1102 160 158 153 157 152 ?1 29 156 1252
 0 157 159 152 -.04361 .02716 -.0046 18 157 1104 161 165 154 162 156 ?1 29 159 1
253 0 162 163 156 -.03821 .03256 -.0046 18 162 1052 164 167 157 170 159 ?1 29 16
3 1254 0 170 169 159 .03822 .03256 -.0046 18 170 1050 166 168 162 171 163 ?1 29
 169 1255 0 171 172 163 .04362 .02716 -.0046 18 171 1046 174 173 170 175 169 ?1
 29 172 1256 0 175 177 169 .04322 -.02718 -.0046 18 175 1062 35 180 171 179 172
 ?1 29 177 1258 0 179 176 172 .03822 .03216 -.0046 18 179 1084 178 38 175 185 17
7 ?1 29 176 1259 0 185 181 177 -.03821 .03216 -.0046 18 185 1080 183 182 179 184
 176 ?1 29 181 1260 0 184 186 176 -.04321 .02716 -.0046 18 184 1078 190 187 185
 188 181 ?1 29 186 1261 0 188 189 181 -.04321 -.02718 -.0046 18 188 1074 34 192
 184 195 186 ?1 29 189 1262 0 195 194 186 -.03821 -.03218 -.0046 18 195 1070 191
 193 188 199 189 ?1 29 194 1263 0 199 200 189 .03822 -.03218 -.0046 18 199 1066
 197 198 195 0 194 ?1 29 200 1264 0 146 196 194 .04362 -.02718 -.0016 18 146 109
6 203 205 143 201 200 ?1 29 196 1265 0 201 204 200 .03822 -.03258 -.0016 18 201
 1088 202 206 146 210 196 ?1 29 204 1266 0 210 208 196 -.03821 -.03258 -.0016 18
 210 1058 207 209 201 211 204 ?1 29 208 1267 0 211 215 204 -.04361 -.02718 -.001
6 18 211 1056 213 212 210 214 208 ?1 29 215 1268 0 214 216 208 -.04361 .02716 -.
0016 18 214 1054 220 217 211 218 215 ?1 29 216 1269 0 218 219 215 -.03821 .03256
 -.0016 18 218 1048 222 225 214 224 216 ?1 29 219 1270 0 224 221 216 .03822 .032
56 -.0016 18 224 1094 223 226 218 227 219 ?1 29 221 1271 0 227 229 219 .04362 .0
2716 -.0016 18 227 1042 228 230 224 232 221 ?1 29 229 1272 0 232 235 221 .04322
 -.02718 -.0016 18 232 1092 234 231 227 233 229 ?1 29 235 1273 0 233 240 229 .04
322 .02716 -.0016 18 233 1082 236 31 232 238 235 ?1 29 240 1274 0 238 237 235 .0
3822 .03216 -.0016 18 238 1090 239 241 233 245 240 ?1 29 237 1275 0 245 242 240
 -.03821 .03216 -.0016 18 245 1076 243 244 238 247 237 ?1 29 242 1276 0 247 250
 237 -.04321 .02716 -.0016 18 247 1072 249 246 245 248 242 ?1 29 250 1277 0 248
 254 242 -.04321 -.02718 -.0016 18 248 1068 255 252 247 253 250 ?1 29 254 1278 0
 253 251 250 -.03821 -.03218 -.0016 18 253 1064 258 260 248 155 254 ?1 29 251 12
79 0 155 0 254 .03822 -.03218 -.0016 18 155 1060 256 259 253 149 251 ?1 81 1 256
 1061 28 155 0 0 207 258 257 17 259 0 261 265 263 155 198 262 0 264 -15 255 261
 1137 0 263 266 0 17 265 0 261 180 259 232 264 270 0 0 +17 263 0 261 259 180 199
 268 267 0 269 -17 198 0 271 275 272 199 259 262 0 263 +16 262 927 273 ?198 274
 277 280 0 0 1 17 264 0 279 276 231 155 265 270 0 272 -15 279 1173 0 264 278 281
 17 276 0 279 282 264 253 272 284 0 283 -17 231 0 279 264 285 232 287 290 0 289
 +16 270 918 286 ?265 284 288 295 0 0 1 17 272 0 271 198 260 155 276 284 0 0 +15
 271 1141 0 275 291 0 17 260 0 271 272 275 253 193 277 0 276 -16 284 924 293 ?27
2 292 270 294 0 0 1 81 1 293 926 28 284 0 0 296 273 300 16 292 930 297 ?283 298
 284 299 0 0 1 30 255 294 1246 0 284 295 299 0 +499999999999112e-20 -.03218 -.00
16 1 0 0 31 295 1247 0 270 0 294 0 +.03822 -.02718 -.0016 0 0 1 1 0 0 .005 31 29
9 1245 0 292 294 302 0 +-.03821 -.02718 -.0016 0 0 1 1 0 0 .005 30 302 1244 0 29
8 299 305 0 +-.04321 -999999999998571e-20 -.0016 0 -1 0 16 298 936 304 ?301 303
 292 302 0 0 1 31 305 1243 0 303 302 309 0 +-.03821 .02716 -.0016 0 0 1 1 0 0 .0
05 16 303 942 310 ?307 308 298 305 0 0 1 30 309 1242 0 308 305 306 0 +4999999999
99112e-20 .03216 -.0016 1 363150276274093e-30 0 16 308 978 313 ?241 315 303 309
 0 0 1 31 306 1241 0 315 309 311 0 +.03822 .02716 -.0016 0 0 1 1 0 0 .005 16 315
 956 314 ?312 290 308 306 0 0 1 30 311 1240 0 290 306 316 0 +.04322 -99999999999
8571e-20 -.0016 0 -1 0 16 290 981 320 ?231 318 315 311 0 0 1 30 316 1239 0 318 3
11 317 0 +.04362 -999999999998571e-20 -.0016 0 -1 0 16 318 866 319 ?321 325 290
 316 0 0 1 31 317 1238 0 325 316 323 0 +.03822 .02716 -.0016 0 0 1 1 0 0 .0054 1
6 325 984 322 ?226 324 318 317 0 0 1 30 323 1237 0 324 317 326 0 +49999999999911
2e-20 .03256 -.0016 1 363150276274093e-30 0 16 324 880 330 ?327 328 325 323 0 0
 1 31 326 1236 0 328 323 329 0 +-.03821 .02716 -.0016 0 0 1 1 0 0 .0054 16 328 9
87 332 ?335 334 324 326 0 0 1 30 329 1235 0 334 326 331 0 +-.04361 -999999999998
571e-20 -.0016 0 -1 0 16 334 990 333 ?336 337 328 329 0 0 1 31 331 1234 0 337 32
9 339 0 +-.03821 -.02718 -.0016 0 0 1 1 0 0 .0054 16 337 993 338 ?340 342 334 33
1 0 0 1 30 339 1233 0 342 331 345 0 +499999999999112e-20 -.03258 -.0016 1 0 0 16
 342 996 344 ?341 343 337 339 0 0 1 31 345 1232 0 343 339 350 0 +.03822 -.02718
 -.0016 0 0 1 1 0 0 .0054 16 343 999 346 ?205 348 342 345 0 0 1 31 350 1231 0 26
7 345 347 0 +.03822 -.02718 -.0046 0 0 1 1 0 0 .005 16 267 1002 349 ?268 351 0 3
50 0 0 1 30 347 1230 0 351 350 355 0 +499999999999112e-20 -.03218 -.0046 1 0 0 1
6 351 1027 352 ?269 353 267 347 0 0 1 31 355 1229 0 353 347 354 0 +-.03821 -.027
18 -.0046 0 0 1 1 0 0 .005 16 353 1022 357 ?360 359 351 355 0 0 1 30 354 1228 0
 359 355 356 0 +-.04321 -999999999998571e-20 -.0046 0 -1 0 16 359 1017 358 ?364
 365 353 354 0 0 1 31 356 1227 0 365 354 362 0 +-.03821 .02716 -.0046 0 0 1 1 0
 0 .005 16 365 1012 363 ?361 368 359 356 0 0 1 30 362 1226 0 368 356 370 0 +4999
99999999112e-20 .03216 -.0046 1 363150276274093e-30 0 16 368 948 366 ?369 36 365
 362 0 0 1 31 370 1225 0 36 362 367 0 +.03822 .02716 -.0046 0 0 1 1 0 0 .005 16
 36 1007 371 ?40 375 368 370 0 0 1 30 367 1224 0 375 370 373 0 +.04322 -99999999
9998571e-20 -.0046 0 -1 0 16 375 962 372 ?374 376 36 367 0 0 1 30 373 1223 0 376
 367 380 0 +.04362 -999999999998571e-20 -.0046 0 -1 0 16 376 1032 378 ?377 379 3
75 373 0 0 1 31 380 1222 0 379 373 381 0 +.03822 .02716 -.0046 0 0 1 1 0 0 .0054
 16 379 872 385 ?382 383 376 380 0 0 1 30 381 1221 0 383 380 384 0 +499999999999
112e-20 .03256 -.0046 1 363150276274093e-30 0 16 383 1037 387 ?390 389 379 381 0
 0 1 31 384 1220 0 389 381 386 0 +-.03821 .02716 -.0046 0 0 1 1 0 0 .0054 16 389
 886 388 ?391 392 383 384 0 0 1 30 386 1219 0 392 384 394 0 +-.04361 -9999999999
98571e-20 -.0046 0 -1 0 16 392 894 393 ?395 397 389 386 0 0 1 31 394 1218 0 397
 386 400 0 +-.03821 -.02718 -.0046 0 0 1 1 0 0 .0054 16 397 902 399 ?396 49 392
 394 0 0 1 30 400 1217 0 49 394 398 0 +499999999999112e-20 -.03258 -.0046 1 0 0
 16 49 910 405 ?41 288 397 400 0 0 1 31 398 1216 0 288 400 401 0 +.03822 -.02718
 -.0046 0 0 1 1 0 0 .0054 16 288 970 403 ?402 270 49 398 0 0 1 30 401 1215 0 274
 398 404 0 +.04362 -.02718 -.0016 0 0 -1 16 274 869 406 ?151 410 262 401 0 0 1 3
0 404 1214 0 410 401 407 0 +.03822 -.03258 -.0016 0 0 -1 16 410 975 408 ?51 409
 274 404 0 0 1 30 407 1213 0 409 404 412 0 +-.03821 -.03258 -.0016 0 0 -1 16 409
 915 415 ?48 414 410 407 0 0 1 30 412 1212 0 414 407 411 0 +-.04361 -.02718 -.00
16 0 0 -1 16 414 907 413 ?158 419 409 412 0 0 1 30 411 1211 0 419 412 420 0 +-.0
4361 .02716 -.0016 0 0 -1 16 419 899 417 ?165 418 414 411 0 0 1 30 420 1210 0 41
8 411 416 0 +-.03821 .03256 -.0016 0 0 -1 16 418 891 423 ?167 425 419 420 0 0 1
 30 416 1209 0 425 420 421 0 +.03822 .03256 -.0016 0 0 -1 16 425 883 424 ?168 42
2 418 416 0 0 1 30 421 1208 0 422 416 426 0 +.04362 .02716 -.0016 0 0 -1 16 422
 877 430 ?173 428 425 421 0 0 1 30 426 1207 0 348 421 427 0 +.04322 -.02718 -.00
16 0 0 -1 16 348 921 296 ?180 429 343 426 0 0 1 30 427 1206 0 429 426 431 0 +.04
322 .02716 -.0016 0 0 -1 16 429 967 435 ?39 433 348 427 0 0 1 30 431 1205 0 433
 427 432 0 +.03822 .03216 -.0016 0 0 -1 16 433 959 434 ?38 436 429 431 0 0 1 30
 432 1204 0 436 431 440 0 +-.03821 .03216 -.0016 0 0 -1 16 436 953 437 ?182 438
 433 432 0 0 1 30 440 1203 0 438 432 439 0 +-.04321 .02716 -.0016 0 0 -1 16 438
 945 442 ?187 445 436 440 0 0 1 30 439 1202 0 445 440 444 0 +-.04321 -.02718 -.0
016 0 0 -1 16 445 939 441 ?192 277 438 439 0 0 1 30 444 1201 0 277 439 280 0 +-.
03821 -.03218 -.0016 0 0 -1 16 277 933 443 ?193 262 445 444 0 0 1 30 280 1200 0
 262 444 446 0 +.03822 -.03218 -.0016 0 0 -1 31 446 682 0 447 280 449 0 +-.03821
 -.02718 -.0046 0 0 1 1 0 0 .007 16 447 298 448 ?450 452 455 446 0 0 1 30 449 68
1 0 452 446 454 0 +-.04521 -999999999998571e-20 -.0046 0 -1 0 16 452 313 451 ?45
3 460 447 449 0 0 1 31 454 680 0 460 449 456 0 +-.03821 .02716 -.0046 0 0 1 1 0
 0 .007 16 460 310 458 ?457 459 452 454 0 0 1 30 456 679 0 459 454 461 0 +499999
99999904e-19 .03416 -.0046 1 363150276274093e-30 0 16 459 364 465 ?134 462 460 4
56 0 0 1 31 461 678 0 462 456 463 0 +.03822 .02716 -.0046 0 0 1 1 0 0 .007 16 46
2 307 464 ?467 470 459 461 0 0 1 30 463 677 0 470 461 469 0 +.04522 -99999999999
8571e-20 -.0046 0 -1 0 16 470 379 466 ?126 468 462 463 0 0 1 31 469 676 0 468 46
3 474 0 +.03822 -.02718 -.0046 0 0 1 1 0 0 .007 16 468 304 475 ?472 473 470 469
 0 0 1 30 474 675 0 473 469 471 0 +499999999999112e-20 -.03418 -.0046 1 0 0 16 4
73 301 478 ?480 476 468 474 0 0 1 30 471 674 0 479 474 477 0 +.03822 -.03418 .01
28 0 0 -1 16 479 382 481 ?485 483 482 471 0 0 1 30 477 673 0 476 471 484 0 --.03
821 -.03418 .0128 0 0 1 16 476 388 486 ?490 488 473 477 0 0 1 30 484 672 0 482 4
77 487 0 +.04522 -.02718 .0128 0 0 -1 16 482 373 489 ?491 479 495 484 0 0 1 30 4
87 671 0 495 484 492 0 +.04522 .02716 .0128 0 0 -1 16 495 367 493 ?494 482 497 4
87 0 0 1 30 492 670 0 497 487 500 0 -.03822 .03416 .0128 0 0 1 16 497 358 499 ?4
96 495 498 492 0 0 1 30 500 669 0 498 492 501 0 +-.03821 .03416 .0128 0 0 -1 16
 498 352 502 ?504 497 503 500 0 0 1 30 501 668 0 503 500 505 0 +-.04521 .02716 .
0128 0 0 -1 16 503 346 507 ?510 498 488 501 0 0 1 30 505 667 0 488 501 509 0 +-.
04521 -.02718 .0128 0 0 -1 16 488 340 506 ?508 503 476 505 0 0 1 31 509 666 0 48
3 505 515 0 +-.03821 .02716 -.0056 0 0 1 1 0 0 .007 16 483 355 511 ?513 512 479
 509 0 0 1 30 515 665 0 512 509 514 0 +.03822 .03316 -.0066 1 363150276274093e-3
0 0 16 512 322 516 ?103 520 483 515 0 0 1 31 514 664 0 520 515 517 0 -.03822 .02
716 -.0066 0 0 1 1 0 0 .006 16 520 325 518 ?97 519 512 514 0 0 1 30 517 663 0 51
9 514 522 0 +.04422 -.02718 -.0066 0 -1 0 16 519 328 525 ?92 524 520 517 0 0 1 3
1 522 662 0 524 517 521 0 -.03822 -.02718 -.0066 0 0 1 1 0 0 .006 16 524 331 523
 ?93 529 519 522 0 0 1 30 521 661 0 529 522 530 0 +499999999999112e-20 -.03318 -
.0066 -1 0 0 16 529 334 527 ?90 528 524 521 0 0 1 31 530 660 0 528 521 526 0 --.
03821 -.02718 -.0066 0 0 1 1 0 0 .006 16 528 337 533 ?84 535 529 530 0 0 1 30 52
6 659 0 535 530 531 0 +-.04421 -999999999998225e-20 -.0066 0 1 0 16 535 316 534
 ?78 532 528 526 0 0 1 31 531 658 0 532 526 536 0 --.03821 .02716 -.0066 0 0 1 1
 0 0 .006 16 532 319 540 ?538 537 535 531 0 0 1 30 536 657 0 537 531 539 0 +-.04
521 -999999999998571e-20 -.0056 0 -1 0 16 537 349 541 ?74 545 532 536 0 0 1 31 5
39 656 0 545 536 543 0 +-.03821 -.02718 -.0056 0 0 1 1 0 0 .007 16 545 343 542 ?
75 544 537 539 0 0 1 30 543 655 0 544 539 546 0 +499999999999112e-20 -.03418 -.0
056 1 0 0 16 544 391 550 ?70 547 545 543 0 0 1 31 546 654 0 547 543 548 0 +.0382
2 -.02718 -.0056 0 0 1 1 0 0 .007 16 547 385 549 ?64 552 544 546 0 0 1 30 548 65
3 0 552 546 555 0 +.04522 .02716 -.0056 0 1 0 16 552 376 554 ?56 551 547 548 0 0
 1 31 555 652 0 551 548 553 0 +.03822 .02716 -.0056 0 0 1 1 0 0 .007 16 551 370
 556 ?52 557 552 555 0 0 1 30 553 651 0 557 555 559 0 +-.03821 .03416 -.0056 -1
 -363150276274093e-30 0 16 557 361 558 ?113 560 551 553 0 0 1 30 559 650 0 428 5
53 562 0 +-.04421 .02716 -.0066 -.707106781186548 0 .707106781186547 16 428 277
 565 ?112 564 422 559 0 0 1 30 562 649 0 564 559 561 0 +-.03821 .03416 -.0056 0
 -.707106781186548 -.707106781186547 16 564 274 563 ?110 570 428 562 0 0 1 30 56
1 648 0 570 562 566 0 +-.04421 -.02718 -.0066 -.707106781186548 0 .7071067811865
47 16 570 280 568 ?567 569 564 561 0 0 1 30 566 647 0 569 561 571 0 +.03822 .034
16 -.0056 0 -.707106781186548 -.707106781186547 16 569 283 575 ?572 573 570 566
 0 0 1 30 571 646 0 573 566 574 0 +-.03821 -.03318 -.0066 0 -.707106781186548 .7
07106781186547 16 573 286 577 ?580 579 569 571 0 0 1 30 574 645 0 579 571 576 0
 +.04522 .02716 -.0056 -.707106781186548 0 -.707106781186547 16 579 289 578 ?584
 585 573 574 0 0 1 30 576 644 0 585 574 582 0 +.03822 -.03318 -.0066 0 -.7071067
81186548 .707106781186547 16 585 292 583 ?581 455 579 576 0 0 1 30 582 643 0 455
 576 588 0 +.04522 -.02718 -.0056 -.707106781186548 0 -.707106781186547 16 455 2
95 590 ?586 447 585 582 0 0 1 31 588 642 0 589 582 587 0 +-.03906 .02789 0 0 0 1
 1 0 0 8e-4 16 589 271 591 ?595 593 560 588 0 0 1 31 587 641 0 593 588 592 0 +-.
03906 .02789 -.0046 0 0 1 1 0 0 8e-4 16 593 394 594 ?596 600 589 587 0 0 1 31 59
2 640 0 600 587 598 0 +-.03906 .02789 0 0 0 1 1 0 0 .00125 16 600 268 597 ?599 6
01 593 592 0 0 1 31 598 639 0 560 592 605 0 +-.03906 .02789 -.0046 0 0 1 1 0 0 .
00125 16 560 263 602 ?603 589 557 598 0 0 1 31 605 638 0 601 598 604 0 +.03912 -
.00794 -.0046 0 0 1 1 0 0 .00125 16 601 247 607 ?610 609 600 605 0 0 1 31 604 63
7 0 609 605 606 0 +.03912 -.00794 0 0 0 1 1 0 0 8e-4 16 609 255 608 ?611 612 601
 604 0 0 1 31 606 636 0 612 604 614 0 +.03912 -.00794 -.0046 0 0 1 1 0 0 8e-4 16
 612 258 613 ?615 617 609 606 0 0 1 31 614 635 0 617 606 620 0 +.03912 -.00794 0
 0 0 1 1 0 0 .00125 16 617 252 619 ?616 618 612 614 0 0 1 31 620 634 0 618 614 6
25 0 +.03907 -.02787 -.0046 0 0 1 1 0 0 .00125 16 618 231 621 ?623 622 617 620 0
 0 1 31 625 633 0 622 620 624 0 +.03907 -.02787 0 0 0 1 1 0 0 8e-4 16 622 239 62
6 ?630 627 618 625 0 0 1 31 624 632 0 627 625 628 0 +.03907 -.02787 -.0046 0 0 1
 1 0 0 8e-4 16 627 242 629 ?632 635 622 624 0 0 1 31 628 631 0 635 624 634 0 +.0
3907 -.02787 0 0 0 1 1 0 0 .00125 16 635 236 631 ?633 639 627 628 0 0 1 31 634 6
29 0 639 628 640 0 +-.03904 -.02781 -.0046 0 0 1 1 0 0 .00125 16 639 225 637 ?63
8 636 635 634 0 0 1 31 640 192 0 636 634 21 0 +-.03904 -.02781 0 0 0 1 1 0 0 8e-
4 16 636 74 643 ?645 27 639 640 0 0 1 31 21 191 0 27 640 8 0 +-.03904 -.02781 -.
0046 0 0 1 1 0 0 8e-4 16 27 79 641 ?644 11 636 21 0 0 1 81 1 641 723 28 27 0 0 5
94 642 646 17 644 0 650 644 644 0 648 27 0 0 +15 650 455 0 644 647 0 17 648 0 64
9 648 648 0 644 27 0 0 -15 649 95 0 648 651 0 14 255 651 91 655 ?647 653 652 6 6
54 +0 0 647 653 23 81 1 655 1331 656 651 660 0 657 658 659 14 647 452 658 ?662 6
51 650 6 665 +664 661 662 651 23 14 653 1 657 ?651 19 663 6 20 +0 0 651 19 23 15
 652 94 0 645 651 649 51 654 181 0 651 666 20 0 --.03904 -.02781 -.0046 0 0 1 8e
-4 1 0 0 13 23 14 0 0 0 0 0 0 10 17 14 17 829 667 ?19 0 669 6 665 +661 668 19 0
 23 81 1 667 1328 656 17 670 0 0 672 675 14 19 35 672 ?653 17 674 6 7 -0 0 653 1
7 23 15 669 550 0 671 17 673 50 255 665 619 0 17 680 676 0 +499999999999112e-20
 -999999999998225e-20 -.0046 0 0 1 1 0 0 14 661 544 678 ?0 677 679 6 665 +647 17
 0 677 23 14 668 588 681 ?685 682 683 6 665 +17 684 685 682 23 81 1 681 1344 656
 668 687 0 690 689 686 14 685 1106 689 ?688 668 694 6 695 +0 0 688 668 23 14 682
 506 690 ?668 692 693 6 691 +0 0 668 692 23 15 683 591 0 596 668 0 14 684 492 69
8 ?700 696 699 6 665 +668 664 700 696 23 81 1 698 1340 656 684 697 0 701 705 703
 14 700 496 705 ?692 684 702 6 704 -0 0 692 684 23 14 696 486 701 ?684 706 710 6
 708 +0 0 684 706 23 15 699 495 0 615 684 0 14 664 472 707 ?709 711 715 6 665 +6
84 647 709 711 23 81 1 707 1336 656 664 642 0 712 713 714 14 709 476 713 ?706 66
4 717 6 720 -0 0 706 664 23 14 711 466 712 ?664 719 716 6 718 +0 0 664 719 23 15
 715 475 0 632 664 0 17 632 0 715 632 632 0 721 627 0 0 +17 721 0 722 721 721 0
 632 627 0 0 -15 722 471 0 721 711 0 81 1 712 1335 656 711 724 0 723 707 725 14
 719 461 723 ?711 662 727 6 730 +0 0 711 662 23 15 716 470 0 630 711 722 51 718
 596 0 711 720 730 0 -.03907 -.02787 -.0046 0 0 1 8e-4 1 0 0 51 720 597 0 709 72
9 718 0 -.03912 -.00794 0 0 0 -1 .00125 -1 0 0 50 730 595 0 719 718 666 0 +29999
99999998835e-20 1000000000001e-17 0 0 0 1 1 0 0 51 666 594 0 662 730 654 0 -.039
07 -.02787 0 0 0 -1 .00125 -1 0 0 14 662 456 726 ?719 647 728 6 666 -0 0 719 647
 23 81 1 726 1333 656 662 735 0 658 723 731 15 728 459 0 733 662 732 17 733 0 72
8 733 733 0 633 635 0 0 -15 732 460 0 623 662 0 17 623 0 732 623 623 0 734 618 0
 0 +17 734 0 736 734 734 0 623 618 0 0 -15 736 548 0 734 17 740 15 740 547 0 737
 17 738 17 737 0 740 737 737 0 638 639 0 0 -15 738 827 0 268 17 0 17 268 0 738 7
39 269 175 263 267 0 0 +17 739 0 738 40 268 12 374 375 0 0 -17 269 0 738 268 360
 199 275 351 0 0 +17 360 0 738 269 364 195 742 353 0 0 +17 275 0 271 260 198 195
 269 351 0 360 -17 364 0 738 360 361 188 745 359 0 0 +17 742 0 744 252 193 188 3
60 353 0 364 -15 744 1145 0 742 741 0 17 252 0 744 283 742 248 192 445 0 282 -17
 193 0 744 742 283 195 260 277 0 275 +17 283 0 744 193 252 253 282 292 0 0 +17 2
82 0 279 743 276 248 283 292 0 301 -17 743 0 279 749 282 247 301 298 0 307 -17 3
01 0 750 192 246 248 743 298 0 0 +15 750 1149 0 745 747 0 17 192 0 750 745 301 1
88 252 445 0 742 +17 246 0 750 301 745 247 187 438 0 743 -17 745 0 750 246 192 1
84 364 359 0 361 -17 187 0 748 746 307 184 246 438 0 745 +15 748 1153 0 746 753
 0 17 746 0 748 244 187 185 361 365 0 755 -17 307 0 748 187 244 247 749 303 0 0
 +17 244 0 748 307 746 245 182 436 0 751 -17 749 0 279 241 743 245 307 303 0 0 -
17 241 0 279 285 749 238 751 308 0 754 +17 285 0 279 231 241 233 312 315 0 0 -17
 751 0 752 182 754 245 241 308 0 749 -17 754 0 752 751 369 238 38 433 0 312 -15
 752 1157 0 369 756 0 17 369 0 752 754 182 179 755 368 0 40 +17 38 0 33 29 312 1
79 754 433 0 369 +17 312 0 33 38 31 238 285 315 0 0 +15 33 1161 0 29 760 0 17 31
 0 33 312 29 233 39 429 0 287 -17 39 0 758 374 287 12 31 429 0 739 +17 287 0 758
 39 289 233 231 290 0 285 -15 758 1165 0 374 757 0 17 289 0 758 287 374 232 180
 348 0 265 -17 374 0 758 289 39 175 739 375 0 268 +17 180 0 261 263 265 175 289
 348 0 374 +14 757 1162 759 ?761 760 758 6 765 -0 0 761 760 23 81 1 759 1359 656
 757 763 0 762 764 766 14 761 1166 764 ?278 757 770 6 767 -0 0 278 757 23 14 760
 1158 762 ?757 756 33 6 768 +0 0 757 756 23 50 765 1189 0 757 695 768 0 +.04322
 -999999999998571e-20 -.0016 1 0 0 0 0 -1 50 695 1190 0 685 769 765 0 +.04362 -9
99999999998571e-20 -.0016 1 0 0 0 0 -1 51 768 1188 0 760 765 772 0 -.03822 .0271
6 -.0016 0 0 -1 .005 -1 0 0 50 772 1187 0 756 768 775 0 +499999999999112e-20 .03
216 -.0016 -363150276274093e-30 1 0 -1 -363150276274093e-30 0 14 756 1154 774 ?7
60 753 752 6 772 -0 0 760 753 23 51 775 1186 0 753 772 771 0 --.03821 .02716 -.0
016 0 0 -1 .005 -1 0 0 14 753 1150 773 ?756 747 748 6 775 +0 0 756 747 23 50 771
 1185 0 747 775 776 0 +-.04321 -999999999998571e-20 -.0016 1 0 0 0 0 -1 14 747 1
146 777 ?753 741 750 6 771 +0 0 753 741 23 51 776 1184 0 741 771 779 0 --.03821
 -.02718 -.0016 0 0 -1 .005 -1 0 0 14 741 1142 778 ?747 291 744 6 776 +0 0 747 2
91 23 50 779 1183 0 291 776 780 0 +499999999999112e-20 -.03218 -.0016 0 1 0 0 0
 1 14 291 1138 782 ?741 266 271 6 779 +0 0 741 266 23 51 780 1182 0 266 779 785
 0 -.03822 -.02718 -.0016 0 0 -1 .005 -1 0 0 14 266 1134 784 ?291 781 261 6 780
 +0 0 291 781 23 50 785 628 0 783 780 790 0 +499999999999112e-20 -.03418 .0128 0
 1 0 0 0 1 14 783 584 786 ?677 788 787 6 785 -0 0 677 788 23 51 790 627 0 788 78
5 789 0 -.03822 -.02718 .0128 0 0 -1 .007 -1 0 0 14 788 580 791 ?783 795 792 6 7
90 -0 0 783 795 23 50 789 626 0 795 790 793 0 +.04522 -999999999998571e-20 .0128
 1 0 0 0 0 -1 14 795 576 794 ?788 797 800 6 789 +0 0 788 797 23 51 793 625 0 797
 789 799 0 -.03822 .02716 .0128 0 0 -1 .007 -1 0 0 14 797 572 796 ?795 798 804 6
 793 -0 0 795 798 23 50 799 624 0 798 793 805 0 +49999999999904e-19 .03416 .0128
 -363150276274093e-30 1 0 -1 -363150276274093e-30 0 14 798 568 802 ?797 803 801
 6 799 +0 0 797 803 23 51 805 623 0 803 799 808 0 --.03821 .02716 .0128 0 0 -1 .
007 -1 0 0 14 803 564 810 ?798 806 809 6 805 -0 0 798 806 23 50 808 622 0 806 80
5 807 0 +-.04521 -999999999998571e-20 .0128 1 0 0 0 0 -1 14 806 560 811 ?803 815
 813 6 808 -0 0 803 815 23 51 807 621 0 677 808 680 0 --.03821 -.02718 .0128 0 0
 -1 .007 -1 0 0 14 677 556 812 ?661 783 814 6 807 -0 0 661 783 23 50 680 620 0 8
16 807 665 0 +499999999999112e-20 -999999999998225e-20 -.0066 0 0 1 1 0 0 14 816
 552 820 ?818 278 817 6 680 -0 0 818 278 23 81 1 820 1362 656 816 819 0 821 825
 822 14 818 516 825 ?823 816 824 6 827 +0 0 823 816 23 14 278 1170 821 ?816 761
 279 6 830 +0 0 816 761 23 15 817 555 0 78 816 0 17 78 0 817 538 84 76 829 535 0
 826 +17 538 0 817 103 78 102 826 532 0 0 +17 84 0 817 78 90 79 828 528 0 831 +1
7 829 0 824 567 832 79 78 535 0 0 -17 826 0 834 112 110 76 538 532 0 832 -15 834
 515 0 110 823 0 17 112 0 834 833 826 107 832 428 0 835 +17 110 0 834 826 833 10
2 837 564 0 840 +17 832 0 824 829 835 76 112 428 0 0 -15 824 519 0 567 818 0 17
 835 0 824 832 567 107 74 537 0 513 -17 567 0 824 835 829 71 831 570 0 0 +17 74
 0 813 118 510 71 835 537 0 508 +17 513 0 809 839 504 107 833 483 0 510 +15 809
 567 0 504 803 0 17 839 0 809 136 513 138 510 503 0 457 -17 504 0 809 513 136 11
5 836 498 0 837 +17 833 0 834 110 112 115 513 483 0 0 -17 510 0 813 74 142 107 8
39 503 0 0 +15 813 563 0 510 806 0 17 142 0 813 510 118 138 453 452 0 839 -17 11
8 0 813 142 74 116 508 488 0 838 -17 453 0 679 450 457 116 142 452 0 0 +15 679 5
51 0 450 661 845 17 450 0 679 480 453 143 838 447 0 0 +17 457 0 679 453 841 138
 136 460 0 0 +17 841 0 679 457 467 137 134 459 0 0 -17 136 0 809 504 839 137 457
 460 0 836 -17 836 0 801 134 113 137 504 498 0 841 -15 801 571 0 496 798 0 17 13
4 0 801 496 836 135 841 459 0 843 +17 113 0 801 836 496 115 842 557 0 504 +17 49
6 0 801 113 134 45 843 497 0 844 +17 842 0 846 572 837 45 113 557 0 0 -15 846 52
3 0 572 850 0 17 572 0 846 840 842 99 844 569 0 0 +17 837 0 846 842 840 115 110
 564 0 833 -17 840 0 846 837 572 102 103 512 0 538 -17 103 0 817 97 538 99 840 5
12 0 847 +17 97 0 817 92 103 96 847 520 0 848 +17 847 0 849 844 584 99 97 520 0
 572 -15 849 531 0 584 852 0 17 844 0 849 855 847 45 572 569 0 842 -17 584 0 849
 847 855 96 854 579 0 0 +17 855 0 849 584 844 53 52 551 0 0 -17 854 0 851 853 84
8 53 584 579 0 855 -15 851 539 0 586 859 0 17 853 0 851 586 854 58 56 552 0 0 -1
7 848 0 851 854 586 96 92 519 0 584 -17 586 0 851 848 853 95 860 455 0 0 +17 92
 0 817 93 97 95 848 519 0 857 +17 93 0 817 90 92 87 857 524 0 858 +17 857 0 856
 860 858 95 93 524 0 586 -15 856 543 0 858 863 0 17 860 0 856 865 857 58 586 455
 0 853 -17 858 0 856 857 865 87 581 585 0 861 -17 865 0 856 858 860 63 64 547 0
 581 -17 581 0 864 862 861 63 858 585 0 0 +17 861 0 864 581 866 87 90 529 0 0 -1
5 864 535 0 581 870 0 17 866 0 864 861 862 81 580 573 0 828 -17 90 0 817 84 93 8
1 861 529 0 866 +17 862 0 864 866 581 69 70 544 0 580 -17 580 0 868 867 828 69 8
66 573 0 0 +17 828 0 868 580 831 81 84 528 0 0 -15 868 527 0 580 815 0 17 831 0
 868 828 867 79 567 570 0 829 -17 867 0 868 831 580 71 75 545 0 567 -17 75 0 814
 150 508 69 867 545 0 490 +15 814 559 0 508 677 0 17 150 0 814 838 75 143 490 47
6 0 869 -17 508 0 814 75 838 71 118 488 0 867 +17 490 0 787 70 869 69 150 476 0
 862 +15 787 587 0 490 783 0 17 70 0 787 871 490 63 862 544 0 485 +17 869 0 787
 490 871 143 480 473 0 450 -17 871 0 787 869 70 120 485 479 0 480 -17 480 0 679
 472 450 120 869 473 0 0 +17 472 0 679 875 480 121 124 468 0 0 +17 875 0 679 467
 472 128 126 470 0 0 -17 124 0 792 485 873 120 472 468 0 871 -15 792 583 0 485 7
88 0 17 485 0 792 64 124 63 871 479 0 865 +17 873 0 792 124 64 121 491 482 0 472
 -17 64 0 792 873 485 58 865 547 0 491 +17 491 0 800 56 126 58 873 482 0 860 +15
 800 579 0 491 795 0 17 56 0 800 872 491 53 853 552 0 494 +17 126 0 800 491 872
 121 875 470 0 873 +17 872 0 800 126 56 128 494 495 0 875 -17 494 0 804 52 131 5
3 872 495 0 854 +15 804 575 0 494 797 0 17 52 0 804 843 494 45 855 551 0 496 +17
 131 0 804 494 843 128 467 462 0 872 -17 843 0 804 131 52 135 496 497 0 467 -17
 467 0 679 841 875 135 131 462 0 0 +17 838 0 814 508 150 116 450 447 0 453 -14 8
15 524 874 ?806 870 868 6 876 +0 0 806 870 23 81 1 874 1370 656 815 880 0 877 81
1 878 14 870 532 877 ?815 863 864 6 879 +0 0 815 863 23 52 255 876 611 882 815 8
85 884 0 +-.03821 -.02718 -.0056 0 0 1 .007 .707106781186547 .707106781186548 1
 0 0 81 2 882 612 881 876 0 0 883 886 887 889 50 885 613 886 850 827 876 0 +4999
99999997908e-20 .03316 -.0066 -256786022943179e-30 .707106781186547 -.7071067811
86548 -1 -363150276274093e-30 0 52 884 609 883 852 876 879 0 +.03822 .02716 -.00
56 0 0 1 .007 .707106781186547 .707106781186548 1 0 0 81 2 883 610 881 884 0 0 8
88 882 890 892 14 852 528 895 ?859 850 849 6 884 +0 0 859 850 23 50 879 607 888
 870 884 894 0 -499999999999112e-20 -.03418 -.0056 0 .707106781186547 .707106781
186548 1 0 0 81 2 888 608 881 879 0 0 891 883 893 900 50 894 605 891 859 879 896
 0 +.04422 -999999999998225e-20 -.0066 .707106781186547 0 -.707106781186548 0 1
 0 81 2 891 606 881 894 0 0 898 888 897 899 14 859 536 901 ?863 852 851 6 894 +0
 0 863 852 23 52 896 603 898 863 894 691 0 +.03822 -.02718 -.0056 0 0 1 .007 .70
7106781186547 .707106781186548 1 0 0 81 2 898 604 881 896 0 0 0 891 905 902 14 8
63 540 903 ?870 859 856 6 896 +0 0 870 859 23 51 691 602 0 682 896 904 0 --.0390
6 .02789 -.0046 0 0 1 8e-4 1 0 0 50 904 601 0 692 691 704 0 +2999999999998835e-2
0 1000000000001e-17 0 0 0 1 1 0 0 14 692 501 907 ?682 700 910 6 904 +0 0 682 700
 23 51 704 600 0 700 904 708 0 --.03906 .02789 0 0 0 -1 .00125 -1 0 0 51 708 599
 0 696 704 729 0 -.03912 -.00794 -.0046 0 0 1 8e-4 1 0 0 50 729 598 0 706 708 72
0 0 +2999999999998835e-20 1000000000001e-17 0 0 0 1 1 0 0 14 706 481 909 ?696 70
9 906 6 729 +0 0 696 709 23 81 1 909 1338 656 706 908 0 713 701 914 15 906 484 0
 915 706 912 17 915 0 906 915 915 0 611 609 0 0 -15 912 485 0 616 706 0 17 616 0
 912 616 616 0 913 617 0 0 +17 913 0 717 913 913 0 616 617 0 0 -15 717 479 0 913
 709 911 15 911 480 0 610 709 0 17 610 0 911 610 610 0 918 601 0 0 +17 918 0 673
 918 918 0 610 601 0 0 -15 673 549 0 918 17 736 17 611 0 710 611 611 0 915 609 0
 0 +15 710 490 0 611 696 920 15 920 491 0 916 696 0 17 916 0 920 916 916 0 615 6
12 0 0 -17 615 0 699 615 615 0 916 612 0 0 +80 7 CCCCCDI12 legal_owners0 17 1 lC
Z1 656 0 919 8001 0 0 0 0 3 5 0 0 0 FFFFTFTFFFFFFFFFF2 81 1 908 483 28 706 0 909
 917 921 925 81 1 713 1337 656 709 917 0 707 909 923 81 1 701 1339 656 696 922 0
 909 698 924 83 255 3 914 .647058823529412 .647058823529412 .647058823529412 81
 3 922 488 926 696 921 701 724 930 928 927 929 83 3 924 .647058823529412 .647058
823529412 .647058823529412 80 3 926 931 935 9000 2 2 2 2 3 6 0 0 0 FFFFTFTTFFFFF
FFFF3 7 6 81 1 921 489 28 696 0 922 908 932 933 81 3 724 468 926 711 934 712 660
 922 937 940 939 81 3 930 508 926 682 936 690 922 0 938 941 942 84 255 18 928 th
readOriginSystem87 255 2 927 .03912 -.00794 -.0046 0 0 1 89 255 2 929 1 0 0 0 1
 0 81 1 936 509 28 682 0 930 944 943 945 81 1 690 1343 656 682 930 0 907 681 947
 84 18 938 threadOriginSystem87 2 941 -.03906 .02789 -.0046 0 0 1 89 2 942 1 0 0
 0 1 0 81 1 907 1342 656 692 944 0 705 690 950 83 3 947 .647058823529412 .647058
823529412 .647058823529412 81 1 944 503 28 692 0 907 932 936 949 81 1 705 1341 6
56 700 932 0 698 907 946 83 3 950 .647058823529412 .647058823529412 .64705882352
9412 81 1 932 498 28 700 0 705 921 944 948 83 3 946 .647058823529412 .6470588235
29412 .647058823529412 80 1 28 955 951 9000 0 0 0 0 3 6 0 0 0 FFTFTFTTFFFFFFFFF1
 82 255 3 948 24 9 2 79 255 9 951 BTI/DetId82 3 949 26 11 2 81 1 943 514 28 823
 0 953 936 952 954 82 3 945 26 2 2 14 823 512 953 ?850 818 834 6 676 +0 0 850 81
8 23 81 1 953 1364 656 823 943 0 825 956 960 81 1 952 518 28 818 0 825 943 957 9
58 82 3 954 28 7 2 81 1 825 1363 656 818 952 0 820 953 959 81 1 957 522 28 850 0
 956 952 880 962 82 3 958 28 2 2 14 850 520 956 ?852 823 846 6 885 +0 0 852 823
 23 81 1 956 1365 656 850 957 0 953 895 965 81 1 880 526 28 815 0 874 957 964 96
1 82 3 962 28 0 2 81 1 964 530 28 852 0 895 880 963 969 82 3 961 28 4 2 81 1 895
 1366 656 852 964 0 956 901 970 81 1 963 534 28 870 0 877 964 967 968 82 3 969 2
8 6 2 81 1 877 1369 656 870 963 0 903 874 966 81 1 967 538 28 859 0 901 963 973
 975 82 3 968 28 1 2 81 1 901 1367 656 859 967 0 895 903 971 81 1 973 542 28 863
 0 903 967 819 974 82 3 975 28 3 2 81 1 903 1368 656 863 973 0 901 877 972 81 1
 819 554 28 816 0 820 973 976 980 82 3 974 28 5 2 81 1 976 558 28 677 0 812 819
 978 977 82 3 980 28 16 2 81 1 812 1378 656 677 976 0 786 678 979 81 1 978 562 2
8 806 0 811 976 981 985 82 3 977 28 12 2 81 1 811 1371 656 806 978 0 874 810 983
 81 1 981 566 28 803 0 810 978 982 984 82 3 985 28 10 2 81 1 810 1372 656 803 98
1 0 811 802 986 81 1 982 570 28 798 0 802 981 990 987 82 3 984 28 15 2 81 1 802
 1373 656 798 982 0 810 796 988 81 1 990 574 28 797 0 796 982 989 992 82 3 987 2
8 8 2 81 1 796 1374 656 797 990 0 802 794 995 81 1 989 578 28 795 0 794 990 994
 991 82 3 992 28 14 2 81 1 794 1375 656 795 989 0 796 791 993 81 1 994 582 28 78
8 0 791 989 996 997 82 3 991 28 11 2 81 1 791 1376 656 788 994 0 794 786 999 81
 1 996 586 28 783 0 786 994 637 998 82 3 997 28 13 2 81 1 786 1377 656 783 996 0
 791 812 1000 81 1 637 716 28 639 0 0 996 621 1002 82 3 998 28 9 2 81 1 621 717
 28 618 0 0 637 607 1005 82 3 1002 46 0 1 81 1 607 718 28 601 0 0 621 602 1004 8
2 3 1005 46 1 1 81 1 602 719 28 560 0 0 607 629 1001 82 3 1004 46 2 1 81 1 629 7
20 28 627 0 0 602 613 1003 82 3 1001 46 3 1 81 1 613 721 28 612 0 0 629 594 1010
 82 3 1003 46 4 1 81 1 594 722 28 593 0 0 613 641 1006 82 3 1010 46 5 1 82 3 100
6 46 6 1 83 3 1000 .647058823529412 .647058823529412 .647058823529412 83 3 999 .
647058823529412 .647058823529412 .647058823529412 83 3 993 .647058823529412 .647
058823529412 .647058823529412 83 3 995 .647058823529412 .647058823529412 .647058
823529412 83 3 988 .647058823529412 .647058823529412 .647058823529412 83 3 986 .
647058823529412 .647058823529412 .647058823529412 83 3 983 .647058823529412 .647
058823529412 .647058823529412 81 1 678 1379 656 661 1008 0 812 0 1007 83 3 979 .
647058823529412 .647058823529412 .647058823529412 81 1 1008 1323 28 661 0 678 38
7 670 1009 83 3 1007 .647058823529412 .647058823529412 .647058823529412 81 1 387
 1322 28 383 0 0 388 1008 1011 81 1 670 1324 28 17 0 667 1008 0 1015 82 3 1009 4
8 0 2 82 3 1015 48 1 2 81 1 388 1321 28 389 0 0 393 387 1012 82 3 1011 48 15 1 8
1 1 393 1320 28 392 0 0 399 388 1013 82 3 1012 48 14 1 81 1 399 1319 28 397 0 0
 405 393 1014 82 3 1013 48 13 1 81 1 405 1318 28 49 0 0 403 399 1017 82 3 1014 4
8 12 1 81 1 403 1317 28 288 0 0 378 405 1020 82 3 1017 48 11 1 81 1 378 1316 28
 376 0 0 385 403 1019 82 3 1020 48 10 1 81 1 385 1315 28 379 0 0 363 378 1016 82
 3 1019 48 9 1 81 1 363 1314 28 365 0 0 371 385 1018 82 3 1016 48 8 1 81 1 371 1
313 28 36 0 0 349 363 1024 82 3 1018 48 7 1 81 1 349 1312 28 267 0 0 357 371 102
5 82 3 1024 48 6 1 81 1 357 1311 28 353 0 0 372 349 1022 82 3 1025 48 5 1 81 1 3
72 1310 28 375 0 0 358 357 1023 82 3 1022 48 4 1 81 1 358 1309 28 359 0 0 352 37
2 1021 82 3 1023 48 3 1 81 1 352 1308 28 351 0 0 366 358 1028 82 3 1021 48 2 1 8
1 1 366 1307 28 368 0 0 164 352 1030 82 3 1028 48 1 1 81 1 164 1306 28 162 0 0 1
61 366 1026 82 3 1030 48 0 1 81 1 161 1305 28 157 0 0 160 164 1029 82 3 1026 48
 15 0 81 1 160 1304 28 154 0 0 42 161 1027 82 3 1029 48 14 0 81 1 42 1303 28 153
 0 0 37 160 1031 82 3 1027 48 13 0 82 3 1031 48 12 0 83 3 972 .647058823529412 .
647058823529412 .647058823529412 83 3 971 .647058823529412 .647058823529412 .647
058823529412 83 3 966 .647058823529412 .647058823529412 .647058823529412 83 3 97
0 .647058823529412 .647058823529412 .647058823529412 83 3 965 .647058823529412 .
647058823529412 .647058823529412 83 3 959 .647058823529412 .647058823529412 .647
058823529412 83 3 960 .647058823529412 .647058823529412 .647058823529412 52 676
 617 1035 823 665 827 0 +-.03821 .02716 -.0056 0 0 1 .007 .707106781186547 .7071
06781186548 1 0 0 81 2 1035 618 881 676 0 0 1033 0 1032 1034 50 827 615 1033 818
 676 885 0 --.04521 -999999999998571e-20 -.0056 .707106781186547 0 .707106781186
548 0 -1 0 81 2 1033 616 881 827 0 0 886 1035 1036 1040 80 2 881 1038 1037 8044
 0 0 0 0 3 5 0 0 0 FFFFTFFFTTFFFFFFF3 2 81 2 886 614 881 885 0 0 882 1033 1039 1
041 84 6 1036 BAOAAB83 3 1040 0 .001414213562373094 .001 84 6 1039 BAOAAB83 3 10
41 1300621206221304e-33 .001414213562373094 .001 79 17 1037 SDL/TYSA_BLEND_ID84
 6 1032 BAOAAB83 3 1034 -.001 0 .001 81 1 934 469 28 711 0 724 1045 917 1042 81
 3 660 207 926 651 1043 655 0 724 1044 1047 1050 84 18 937 threadOriginSystem87
 2 940 .03907 -.02787 -.0046 0 0 1 89 2 939 1 0 0 0 1 0 81 1 1043 204 28 651 0 6
60 643 1049 1046 84 18 1044 threadOriginSystem87 2 1047 -.03904 -.02781 -.0046 0
 0 1 89 2 1050 1 0 0 0 1 0 81 1 643 203 28 636 0 0 1048 1043 1051 81 1 1049 206
 28 653 0 657 1043 631 1052 82 3 1046 26 3 2 81 1 657 1330 656 653 1049 0 672 65
5 1054 81 1 631 238 28 635 0 0 1049 626 1053 82 3 1052 26 5 2 81 1 626 241 28 62
2 0 0 631 619 1055 82 3 1053 24 3 1 81 1 619 254 28 617 0 0 626 608 1057 82 3 10
55 26 3 1 81 1 608 257 28 609 0 0 619 597 1060 82 3 1057 24 5 1 81 1 597 270 28
 600 0 0 608 591 1059 82 3 1060 26 5 1 81 1 591 273 28 589 0 0 597 563 1056 82 3
 1059 24 7 1 81 1 563 276 28 564 0 0 591 565 1058 82 3 1056 26 7 1 81 1 565 279
 28 428 0 0 563 568 1065 82 3 1058 28 1 1 81 1 568 282 28 570 0 0 565 575 1061 8
2 3 1065 28 9 1 81 1 575 285 28 569 0 0 568 577 1063 82 3 1061 28 8 1 81 1 577 2
88 28 573 0 0 575 578 1062 82 3 1063 28 0 1 81 1 578 291 28 579 0 0 577 583 1064
 82 3 1062 28 4 1 81 1 583 294 28 585 0 0 578 590 1066 82 3 1064 28 13 1 81 1 59
0 297 28 455 0 0 583 448 1070 82 3 1066 28 5 1 81 1 448 300 28 447 0 0 590 478 1
067 82 3 1070 28 12 1 81 1 478 303 28 473 0 0 448 475 1068 82 3 1067 18 9 1 81 1
 475 306 28 468 0 0 478 464 1069 82 3 1068 18 3 1 81 1 464 309 28 462 0 0 475 45
8 1072 82 3 1069 18 11 1 81 1 458 312 28 460 0 0 464 451 1075 82 3 1072 18 13 1
 81 1 451 315 28 452 0 0 458 534 1074 82 3 1075 18 15 1 81 1 534 318 28 535 0 0
 451 540 1071 82 3 1074 18 5 1 81 1 540 321 28 532 0 0 534 516 1073 82 3 1071 28
 11 1 81 1 516 324 28 512 0 0 540 518 1079 82 3 1073 28 23 1 81 1 518 327 28 520
 0 0 516 525 1080 82 3 1079 28 3 1 81 1 525 330 28 519 0 0 518 523 1077 82 3 108
0 28 21 1 81 1 523 333 28 524 0 0 525 527 1078 82 3 1077 28 15 1 81 1 527 336 28
 529 0 0 523 533 1076 82 3 1078 28 19 1 81 1 533 339 28 528 0 0 527 506 1083 82
 3 1076 28 7 1 81 1 506 342 28 488 0 0 533 542 1085 82 3 1083 28 17 1 81 1 542 3
45 28 545 0 0 506 507 1081 82 3 1085 28 29 1 81 1 507 348 28 503 0 0 542 541 108
4 82 3 1081 28 16 1 81 1 541 351 28 537 0 0 507 502 1082 82 3 1084 28 28 1 81 1
 502 354 28 498 0 0 541 511 1086 82 3 1082 28 10 1 81 1 511 357 28 483 0 0 502 4
99 1090 82 3 1086 28 24 1 81 1 499 360 28 497 0 0 511 558 1088 82 3 1090 28 22 1
 81 1 558 363 28 557 0 0 499 465 1087 82 3 1088 28 25 1 81 1 465 366 28 459 0 0
 558 493 1089 82 3 1087 28 2 1 81 1 493 369 28 495 0 0 465 556 1091 82 3 1089 18
 1 1 81 1 556 372 28 551 0 0 493 489 1095 82 3 1091 28 30 1 81 1 489 375 28 482
 0 0 556 554 1093 82 3 1095 28 20 1 81 1 554 378 28 552 0 0 489 466 1092 82 3 10
93 28 31 1 81 1 466 381 28 470 0 0 554 481 1094 82 3 1092 28 14 1 81 1 481 384 2
8 479 0 0 466 549 1096 82 3 1094 18 7 1 81 1 549 387 28 547 0 0 481 486 1100 82
 3 1096 28 27 1 81 1 486 390 28 476 0 0 549 550 1097 82 3 1100 28 18 1 81 1 550
 393 28 544 0 0 486 106 1098 82 3 1097 28 26 1 81 1 106 400 28 102 0 0 550 109 1
099 82 3 1098 28 6 1 81 1 109 402 28 107 0 0 106 77 1102 82 3 1099 28 3 0 81 1 7
7 404 28 76 0 0 109 105 1105 82 3 1102 28 10 0 81 1 105 406 28 99 0 0 77 98 1104
 82 3 1105 28 11 0 81 1 98 408 28 96 0 0 105 94 1101 82 3 1104 28 1 0 81 1 94 41
0 28 95 0 0 98 86 1103 82 3 1101 28 15 0 81 1 86 412 28 87 0 0 94 89 1106 82 3 1
103 28 13 0 81 1 89 414 28 81 0 0 86 85 1107 82 3 1106 28 7 0 81 1 85 416 28 79
 0 0 89 68 1109 82 3 1107 28 5 0 81 1 68 418 28 69 0 0 85 148 1108 82 3 1109 28
 9 0 81 1 148 420 28 143 0 0 68 72 1110 82 3 1108 28 4 0 81 1 72 422 28 71 0 0 1
48 119 1112 82 3 1110 18 5 0 81 1 119 424 28 116 0 0 72 145 1115 82 3 1112 28 8
 0 81 1 145 426 28 138 0 0 119 139 1114 82 3 1115 18 9 0 81 1 139 428 28 137 0 0
 145 111 1111 82 3 1114 18 11 0 81 1 111 430 28 115 0 0 139 133 1113 82 3 1111 1
8 3 0 81 1 133 432 28 135 0 0 111 55 1120 82 3 1113 28 2 0 81 1 55 434 28 45 0 0
 133 129 1116 82 3 1120 18 1 0 81 1 129 436 28 128 0 0 55 59 1118 82 3 1116 28 0
 0 81 1 59 438 28 53 0 0 129 130 1117 82 3 1118 18 15 0 81 1 130 440 28 121 0 0
 59 62 1119 82 3 1117 28 14 0 81 1 62 442 28 58 0 0 130 125 1121 82 3 1119 18 13
 0 81 1 125 444 28 120 0 0 62 67 1125 82 3 1121 28 12 0 81 1 67 446 28 63 0 0 12
5 735 1122 82 3 1125 18 7 0 81 1 735 458 28 662 0 726 67 1045 1123 82 3 1122 28
 6 0 81 1 1045 463 28 719 0 723 735 934 1124 82 3 1123 24 3 2 81 1 723 1334 656
 719 1045 0 726 712 1127 82 3 1124 26 7 2 83 3 1127 .647058823529412 .6470588235
29412 .647058823529412 81 1 672 1329 656 19 1048 0 667 657 1130 83 3 1054 .64705
8823529412 .647058823529412 .647058823529412 81 1 1048 46 28 19 0 672 24 643 112
9 83 3 1130 .647058823529412 .647058823529412 .647058823529412 81 1 24 45 28 11
 0 0 0 1048 1126 82 3 1129 24 0 2 82 3 1126 24 1 1 82 3 1051 26 1 1 81 1 917 478
 28 709 0 713 934 908 1128 82 3 1042 26 0 2 82 3 1128 24 6 2 82 3 933 26 1 2 79
 17 935 BTI/Named_CSysTop83 3 923 .647058823529412 .647058823529412 .64705882352
9412 82 3 925 26 9 2 79 15 919 SDL/TYSA_COLOUR15 910 504 0 1134 692 1135 17 1134
 0 910 1134 1134 0 595 589 0 0 -15 1135 505 0 599 692 0 17 599 0 1135 599 599 0
 1132 600 0 0 +17 1132 0 702 1132 1132 0 599 600 0 0 -15 702 499 0 1132 700 1133
 15 1133 500 0 603 700 0 17 603 0 1133 603 603 0 671 560 0 0 +17 671 0 669 671 6
71 0 603 560 0 0 -17 595 0 693 595 595 0 1134 589 0 0 +15 693 510 0 595 682 1131
 15 1131 511 0 1138 682 0 17 1138 0 1131 1138 1138 0 596 593 0 0 -17 596 0 683 5
96 596 0 1138 593 0 0 +84 6 905 BAOAAB83 3 902 -.001 0 .001 84 6 897 BAOAAB83 3
 899 0 .001414213562373094 .001 84 6 893 BAOAAB83 3 900 0 .001414213562373094 .0
01 84 6 890 BAOAAB83 3 892 -.001 0 .001 84 6 887 BAOAAB83 3 889 -.001 0 .001 83
 3 878 .647058823529412 .647058823529412 .647058823529412 15 845 790 0 377 661 0
 17 377 0 845 1140 1136 149 1139 376 0 0 +17 1140 0 845 47 377 26 402 288 0 0 -1
7 1136 0 845 377 390 171 382 379 0 0 -17 1139 0 694 230 151 171 377 376 0 1136 -
15 694 1109 0 1139 685 0 17 230 0 694 321 1139 227 173 422 0 1137 -17 151 0 694
 1139 321 149 1141 274 0 402 +17 321 0 694 151 230 146 1145 318 0 0 +17 1141 0 7
70 206 402 146 151 274 0 321 -17 402 0 770 1141 51 149 1140 288 0 377 +15 770 11
69 0 402 761 0 17 51 0 770 402 206 26 50 410 0 1140 +17 206 0 770 51 1141 201 20
5 343 0 341 -17 50 0 46 209 41 201 51 410 0 0 -15 46 1133 0 41 781 0 17 209 0 46
 48 50 210 341 342 0 340 -17 48 0 46 41 209 153 1143 409 0 396 +17 341 0 281 205
 340 201 209 342 0 50 +17 340 0 281 341 336 210 212 337 0 1143 +15 281 1174 0 11
45 278 0 17 336 0 281 340 335 211 217 334 0 1142 +17 212 0 1144 158 1143 211 340
 337 0 336 -17 1143 0 1144 212 396 210 48 409 0 0 -15 1144 1129 0 396 1146 0 17
 396 0 1144 1143 158 153 1150 397 0 47 +17 158 0 1144 396 212 154 1142 414 0 395
 +17 1150 0 845 1148 47 154 396 397 0 0 -17 47 0 845 1150 1140 153 41 49 0 0 -17
 1148 0 845 1147 1150 157 395 392 0 0 -17 1147 0 845 390 1148 162 391 389 0 0 -1
7 395 0 1149 1142 165 154 1148 392 0 1150 +15 1149 1125 0 395 1151 0 17 1142 0 1
149 217 395 211 158 414 0 0 -17 165 0 1149 395 217 157 1155 419 0 391 +17 217 0
 1149 165 1142 214 336 334 0 335 -17 1155 0 1152 1153 391 214 165 419 0 0 -17 39
1 0 1152 1155 167 157 1147 389 0 1148 +15 1152 1121 0 391 1154 0 17 167 0 1152 3
91 1153 162 225 418 0 1157 +17 1153 0 1152 167 1155 218 335 328 0 1160 -17 225 0
 1159 327 1157 218 167 418 0 1153 -17 1157 0 1159 225 168 162 390 383 0 1147 -15
 1159 1117 0 1157 1156 0 17 168 0 1159 1157 327 170 1158 425 0 382 +17 390 0 845
 1136 1147 170 1157 383 0 0 +17 327 0 1159 168 225 224 1160 324 0 0 +17 1158 0 1
161 1137 382 224 168 425 0 327 -17 382 0 1161 1158 173 170 1136 379 0 390 +15 11
61 1113 0 382 688 0 17 173 0 1161 382 1137 171 230 422 0 1139 +17 1137 0 1161 17
3 1158 227 226 325 0 1145 -17 226 0 281 1160 1145 224 1137 325 0 1158 +17 1145 0
 281 226 205 227 321 318 0 0 -17 205 0 281 1145 341 146 206 343 0 1141 +17 1160
 0 281 335 226 218 327 324 0 0 -17 335 0 281 336 1160 214 1153 328 0 1155 +14 68
8 1110 1162 ?1156 685 1161 6 769 -0 0 1156 685 23 81 1 1162 1346 656 688 1164 0
 689 1163 1165 14 1156 1114 1163 ?1154 688 1159 6 1167 +0 0 1154 688 23 51 769 1
191 0 688 1167 695 0 -.03822 .02716 -.0016 0 0 -1 .0054 -1 0 0 50 1167 1192 0 11
56 1170 769 0 +499999999999112e-20 .03256 -.0016 -363150276274093e-30 1 0 -1 -36
3150276274093e-30 0 51 1170 1193 0 1154 1169 1167 0 --.03821 .02716 -.0016 0 0 -
1 .0054 -1 0 0 14 1154 1118 1166 ?1151 1156 1152 6 1170 -0 0 1151 1156 23 50 116
9 1194 0 1151 1168 1170 0 +-.04361 -999999999998571e-20 -.0016 1 0 0 0 0 -1 14 1
151 1122 1175 ?1146 1154 1149 6 1169 -0 0 1146 1154 23 51 1168 1195 0 1146 1171
 1169 0 --.03821 -.02718 -.0016 0 0 -1 .0054 -1 0 0 14 1146 1126 1173 ?781 1151
 1144 6 1168 -0 0 781 1151 23 50 1171 1196 0 781 767 1168 0 +499999999999112e-20
 -.03258 -.0016 0 1 0 0 0 1 14 781 1130 1172 ?266 1146 46 6 1171 -0 0 266 1146 2
3 51 767 1197 0 761 830 1171 0 -.03822 -.02718 -.0016 0 0 -1 .0054 -1 0 0 50 830
 1199 0 278 0 767 0 +499999999999112e-20 -999999999998225e-20 -.0016 0 0 1 1 0 0
 81 1 1172 1351 656 781 1174 0 1173 784 1176 81 1 1174 1132 28 781 0 1172 1180 1
177 1178 81 1 1173 1350 656 1146 1180 0 1175 1172 1179 81 1 784 1352 656 266 117
7 0 1172 782 1182 83 3 1176 .647058823529412 .647058823529412 .647058823529412 8
1 1 1177 1136 28 266 0 784 1174 1185 1184 81 1 782 1353 656 291 1185 0 784 778 1
181 83 3 1182 .647058823529412 .647058823529412 .647058823529412 81 1 1185 1140
 28 291 0 782 1177 1183 1189 81 1 778 1354 656 741 1183 0 782 777 1190 83 3 1181
 .647058823529412 .647058823529412 .647058823529412 81 1 1183 1144 28 741 0 778
 1185 1187 1188 81 1 777 1355 656 747 1187 0 778 773 1186 83 3 1190 .64705882352
9412 .647058823529412 .647058823529412 81 1 1187 1148 28 747 0 777 1183 1193 119
5 81 1 773 1356 656 753 1193 0 777 774 1191 83 3 1186 .647058823529412 .64705882
3529412 .647058823529412 81 1 1193 1152 28 753 0 773 1187 1194 1192 81 1 774 135
7 656 756 1194 0 773 762 1196 83 3 1191 .647058823529412 .647058823529412 .64705
8823529412 81 1 1194 1156 28 756 0 774 1193 1200 1198 81 1 762 1358 656 760 1200
 0 774 759 1197 83 3 1196 .647058823529412 .647058823529412 .647058823529412 81
 1 1200 1160 28 760 0 762 1194 763 1199 83 3 1197 .647058823529412 .647058823529
412 .647058823529412 81 1 763 1164 28 757 0 759 1200 1201 1205 82 3 1199 47 8 2
 81 1 1201 1168 28 761 0 764 763 1203 1202 82 3 1205 47 5 2 81 1 764 1360 656 76
1 1201 0 759 821 1204 81 1 1203 1172 28 278 0 821 1201 1206 1210 82 3 1202 47 12
 2 81 1 821 1361 656 278 1203 0 764 820 1207 81 1 1206 1290 28 1 0 1208 1203 183
 1209 82 3 1210 47 2 2 81 1 1208 1325 1212 1 1206 14 0 0 1215 81 1 183 1291 28 1
85 0 0 1206 178 1214 82 3 1209 24 0 3 81 1 178 1292 28 179 0 0 183 191 1211 82 3
 1214 48 0 0 81 1 191 1293 28 195 0 0 178 197 1213 82 3 1211 48 1 0 81 1 197 129
4 28 199 0 0 191 190 1216 82 3 1213 48 2 0 81 1 190 1295 28 184 0 0 197 34 1217
 82 3 1216 48 3 0 81 1 34 1296 28 188 0 0 190 30 1219 82 3 1217 48 4 0 82 3 1219
 48 5 0 80 1 1212 1218 1220 8038 0 0 0 0 0 0 0 0 0 TTTTTTTTTTTTTFTFT10 81 1 14 1
326 1218 1 1208 2 0 0 1222 98 255 6 1215 66 111 116 116 111 109 80 1 1218 1225 1
224 8017 0 0 0 0 0 0 0 0 0 TTTTTTTTTTTTTFTFT3 84 6 1222 Bottom79 13 1224 SDL/TYS
A_NAME79 14 1220 SDL/TYSA_UNAME83 3 1207 .647058823529412 .647058823529412 .6470
58823529412 83 3 1204 .647058823529412 .647058823529412 .647058823529412 82 3 11
98 47 0 2 82 3 1192 47 9 2 82 3 1195 47 4 2 82 3 1188 47 6 2 82 3 1189 47 3 2 82
 3 1184 47 7 2 81 1 1180 1128 28 1146 0 1173 1221 1174 1223 81 1 1175 1349 656 1
151 1221 0 1166 1173 1230 83 3 1179 .647058823529412 .647058823529412 .647058823
529412 81 1 1221 1124 28 1151 0 1175 1226 1180 1228 81 1 1166 1348 656 1154 1226
 0 1163 1175 1227 83 3 1230 .647058823529412 .647058823529412 .647058823529412 8
1 1 1226 1120 28 1154 0 1166 1229 1221 1231 81 1 1163 1347 656 1156 1229 0 1162
 1166 1235 83 3 1227 .647058823529412 .647058823529412 .647058823529412 81 1 122
9 1116 28 1156 0 1163 1164 1226 1232 83 3 1235 .647058823529412 .647058823529412
 .647058823529412 81 1 1164 1112 28 688 0 1162 1233 1229 1234 82 3 1232 47 17 2
 81 1 1233 1108 28 685 0 689 203 1164 1237 82 3 1234 47 10 2 81 1 689 1345 656 6
85 1233 0 681 1162 1240 81 1 203 1097 28 146 0 0 223 1233 1239 82 3 1237 47 11 2
 81 1 223 1095 28 224 0 0 234 203 1236 82 3 1239 47 21 0 81 1 234 1093 28 232 0
 0 239 223 1238 82 3 1236 47 19 0 81 1 239 1091 28 238 0 0 202 234 1244 82 3 123
8 47 15 0 81 1 202 1089 28 201 0 0 236 239 1245 82 3 1244 47 3 0 81 1 236 1083 2
8 233 0 0 243 202 1242 82 3 1245 47 23 0 81 1 243 1077 28 245 0 0 249 236 1243 8
2 3 1242 47 13 0 81 1 249 1073 28 247 0 0 255 243 1241 82 3 1243 47 1 0 81 1 255
 1069 28 248 0 0 258 249 1248 82 3 1241 47 9 0 81 1 258 1065 28 253 0 0 256 255
 1250 82 3 1248 47 11 0 82 3 1250 47 5 0 83 3 1240 .647058823529412 .64705882352
9412 .647058823529412 82 3 1231 47 16 2 82 3 1228 47 15 2 82 3 1223 47 14 2 82 3
 1178 47 13 2 83 3 1165 .647058823529412 .647058823529412 .647058823529412 83 3
 822 .647058823529412 .647058823529412 .647058823529412 83 3 766 .64705882352941
2 .647058823529412 .647058823529412 17 182 0 752 369 751 185 244 436 0 746 +17 7
55 0 738 361 40 185 369 368 0 0 -17 40 0 738 755 739 179 29 36 0 0 +17 361 0 738
 364 755 184 746 365 0 0 +17 638 0 1246 638 638 0 737 639 0 0 +15 1246 36 0 638
 19 0 17 633 0 1249 633 633 0 733 635 0 0 +15 1249 465 0 633 719 0 81 1 658 1332
 656 647 1247 0 655 726 1251 83 3 731 .647058823529412 .647058823529412 .6470588
23529412 81 1 1247 728 28 647 0 658 687 319 1255 83 3 1251 .647058823529412 .647
058823529412 .647058823529412 81 1 687 727 28 668 0 681 697 1247 1253 81 1 319 8
68 28 318 0 0 1247 406 1252 82 3 1255 46 4 2 81 1 406 871 28 274 0 0 319 430 125
4 82 3 1252 47 35 1 81 1 430 879 28 422 0 0 406 330 1256 82 3 1254 47 10 1 81 1
 330 882 28 324 0 0 430 424 1260 82 3 1256 47 8 1 81 1 424 885 28 425 0 0 330 42
3 1258 82 3 1260 47 47 1 81 1 423 893 28 418 0 0 424 417 1257 82 3 1258 47 9 1 8
1 1 417 901 28 419 0 0 423 413 1259 82 3 1257 47 15 1 81 1 413 909 28 414 0 0 41
7 415 1261 82 3 1259 47 14 1 81 1 415 917 28 409 0 0 413 286 1265 82 3 1261 47 1
3 1 81 1 286 920 28 270 0 0 415 296 1262 82 3 1265 47 12 1 81 1 296 923 28 348 0
 0 286 293 1263 82 3 1262 47 27 1 82 3 1263 47 7 1 81 1 697 726 28 684 0 698 642
 687 1264 82 3 1253 46 3 2 81 1 642 725 28 664 0 707 641 697 1267 82 3 1264 46 2
 2 82 3 1267 46 1 2 17 630 0 716 630 630 0 1270 622 0 0 +17 1270 0 727 1270 1270
 0 630 622 0 0 -15 727 464 0 1270 719 1249 83 3 725 .647058823529412 .6470588235
29412 .647058823529412 83 3 714 .647058823529412 .647058823529412 .6470588235294
12 83 3 703 .647058823529412 .647058823529412 .647058823529412 83 3 686 .6470588
23529412 .647058823529412 .647058823529412 15 674 34 0 1269 19 1246 17 1269 0 67
4 1269 1269 0 25 11 0 0 -17 25 0 1266 25 25 0 1269 11 0 0 +15 1266 6 0 25 653 0
 83 3 675 .647058823529412 .647058823529412 .647058823529412 50 20 3 0 653 654 7
 0 +2999999999998835e-20 1000000000001e-17 0 0 0 1 1 0 0 17 645 0 652 645 645 0
 1268 636 0 0 +17 1268 0 663 1268 1268 0 645 636 0 0 -15 663 63 0 1268 653 1266
 83 3 659 .647058823529412 .647058823529412 .647058823529412 82 3 646 46 7 1 81
 1 443 935 28 277 0 0 297 304 1271 81 1 297 932 28 292 0 0 273 443 1272 81 1 304
 938 28 298 0 0 443 441 1274 82 3 1271 47 2 1 81 1 441 941 28 445 0 0 304 310 12
73 82 3 1274 47 21 1 81 1 310 944 28 303 0 0 441 442 1275 82 3 1273 47 5 1 81 1
 442 947 28 438 0 0 310 437 1277 82 3 1275 47 31 1 81 1 437 955 28 436 0 0 442 3
14 1280 82 3 1277 47 4 1 81 1 314 958 28 315 0 0 437 434 1279 82 3 1280 47 0 1 8
1 1 434 961 28 433 0 0 314 435 1276 82 3 1279 47 29 1 81 1 435 969 28 429 0 0 43
4 408 1278 82 3 1276 47 1 1 81 1 408 977 28 410 0 0 435 313 1285 82 3 1278 47 6
 1 81 1 313 980 28 308 0 0 408 320 1281 82 3 1285 47 11 1 81 1 320 983 28 290 0
 0 313 322 1283 82 3 1281 47 17 1 81 1 322 986 28 325 0 0 320 332 1282 82 3 1283
 47 23 1 81 1 332 989 28 328 0 0 322 333 1284 82 3 1282 47 33 1 81 1 333 992 28
 334 0 0 332 338 1286 82 3 1284 47 45 1 81 1 338 995 28 337 0 0 333 344 1290 82
 3 1286 47 43 1 81 1 344 998 28 342 0 0 338 346 1287 82 3 1290 47 41 1 81 1 346
 1001 28 343 0 0 344 228 1288 82 3 1287 47 39 1 81 1 228 1043 28 227 0 0 346 222
 1289 82 3 1288 47 37 1 81 1 222 1049 28 218 0 0 228 220 1292 82 3 1289 47 17 0
 81 1 220 1055 28 214 0 0 222 213 1295 82 3 1292 47 31 0 81 1 213 1057 28 211 0
 0 220 207 1294 82 3 1295 47 29 0 81 1 207 1059 28 210 0 0 213 256 1291 82 3 129
4 47 27 0 82 3 1291 47 25 0 81 1 273 929 28 262 0 0 293 297 1293 82 3 1272 47 25
 1 82 3 1293 47 3 1 82 3 300 47 19 1 82 3 257 47 7 0 81 1 35 1298 28 175 0 0 30
 174 1299 81 1 174 1299 28 171 0 0 35 166 1300 82 3 1299 48 7 0 81 1 166 1300 28
 170 0 0 174 43 1297 82 3 1300 48 8 0 81 1 43 1301 28 149 0 0 166 37 1298 82 3 1
297 48 9 0 82 3 1298 48 10 0 82 3 44 48 11 0 82 3 32 48 6 0 19 18 40 0 1 0 10 6
 0 S0 74 4 CI16 index_map_offset0 0 1 dCCZ20 16 7 0 0 670 930 1035 1208 14 2 678
 0 0 0 0 0 0 0 0 0 0 0 0 0 80 1 13 656 1296 8040 0 0 0 0 3 5 0 0 0 TTTFFFFFFFFFF
FFFF2 83 3 15 .647058823529412 .647058823529412 .647058823529412 79 17 1296 SDL/
TYSA_COLOUR_21 0 
