**ABCDEFGHIJKLMNOPQRSTUVWXYZabcdefghijklmnopqrstuvwxyz**************************
**PARASOLID !"#$%&'()*+,-./:;<=>?@[\]^_`{|}~0123456789**************************
**PART1;
MC=unknown;
MC_MODEL=unknown;
MC_ID=unknown;
OS=unknown;
OS_RELEASE=unknown;
FRU=Parasolid 37.1.212;
APPL=Onshape;
SITE=unknown;
USER=unknown;
FORMAT=text;
GUISE=transmit;
KEY=BTGapi::writeModels_.xmt;
FILE=BTGapi::writeModels_.xmt;
DATE=2026-04-21T08:27:49 (UTC);
**PART2;
SCH=SCH_3701212_37102;
USFLD_SIZE=0;
**PART3;
**END_OF_HEADER*****************************************************************
T51 : TRANSMIT FILE created by modeller version 370121223 SCH_3701212_37102_1300
6239 0 12 36 CCCI7 lattice222 0 CCCI4 mesh1006 0 I8 polyline1008 0 CCCCCCCDI5 ow
ner1040 0 CCCI16 boundary_lattice222 0 CCCI13 boundary_mesh1006 0 I17 boundary_p
olyline1008 0 CCCA16 index_map_offset0 0 1 dA9 index_map82 0 A17 node_id_index_m
ap82 0 A20 schema_embedding_map82 0 A5 child12 0 A14 lowest_node_id0 0 1 dA16 me
sh_offset_data206 0 Z1 765 2 3 0 0 0 0 0 0 0 1e3 1e-8 0 4 5 1 0 1 2 6 0 7 8 9 0
 0 10 11 12 0 0 0 0 0 0 0 81 255 1 2 731 13 1 14 0 0 0 15 70 11 CI9 list_type0 0
 1 uI10 notransmit0 0 1 lCCCDCCDI12 finger_index0 0 1 dI12 finger_block1012 0 CZ
3 0 4 T1 0 0 7 20 1 16 16 13 255 6 39 0 1 0 17 0 0 18 0 51 255 7 38 0 17 19 0 0
 --.03904 -.02781 0 0 0 -1 .00125 -1 0 0 31 255 8 9 0 11 20 0 0 +-.03904 -.02781
 0 0 0 1 1 0 0 .00125 29 255 9 683 0 12 21 0 .03822 .03416 -.0056 19 9 CCCCCCI5
 frame230 0 CA5 owner12 0 Z10 13 0 1 18 0 22 0 V0 16 255 11 7 23 ?24 0 25 8 0 0
 1 18 255 12 433 27 30 0 29 9 ?1 81 1 27 434 26 12 0 0 28 34 35 17 255 30 0 32 3
3 31 12 38 40 0 36 +18 29 437 39 37 12 41 21 ?1 81 1 39 438 26 29 0 0 34 45 43 1
7 37 0 42 44 46 29 50 48 0 31 +18 41 441 47 49 29 51 55 ?1 29 21 684 0 29 55 9 .
04522 .02716 -.0056 29 55 685 0 41 52 21 .04522 -.02718 -.0056 29 52 686 0 51 53
 55 .03822 -.03418 -.0056 18 51 445 54 57 41 60 52 ?1 29 53 687 0 60 59 52 -.038
21 -.03418 -.0056 18 60 417 56 58 51 61 53 ?1 29 59 688 0 61 62 53 -.04521 -.027
18 -.0056 18 61 421 64 63 60 65 59 ?1 29 62 689 0 65 67 59 -.04421 .02716 -.0066
 18 65 403 70 69 61 66 62 ?1 29 67 690 0 66 68 62 -.04421 -.02718 -.0066 18 66 4
15 75 71 65 73 67 ?1 29 68 691 0 73 72 67 -.03821 -.03318 -.0066 18 73 413 74 76
 66 80 68 ?1 29 72 692 0 80 77 68 .03822 -.03318 -.0066 18 80 411 78 79 73 82 72
 ?1 29 77 693 0 82 85 72 .04422 -.02718 -.0066 18 82 409 84 81 80 83 77 ?1 29 85
 694 0 83 89 77 .04422 .02716 -.0066 18 83 407 90 87 82 88 85 ?1 29 89 695 0 88
 86 85 .03822 .03316 -.0066 18 88 405 93 95 83 91 89 ?1 29 86 696 0 91 94 89 -.0
3821 .03316 -.0066 18 91 399 92 96 88 100 86 ?1 29 94 697 0 100 98 86 -.04521 .0
2716 -.0056 18 100 401 97 99 91 101 94 ?1 29 98 698 0 101 105 94 -.03821 .03416
 -.0056 18 101 429 103 102 100 104 98 ?1 29 105 699 0 104 106 98 -.04521 -.02718
 -.0046 18 104 423 110 107 101 108 105 ?1 29 106 700 0 108 109 105 .03822 -.0341
8 -.0046 18 108 443 112 115 104 114 106 ?1 29 109 701 0 114 111 106 .04522 -.027
18 -.0046 18 114 439 45 113 108 116 109 ?1 29 111 702 0 116 117 109 .04522 .0271
6 -.0046 18 116 435 34 119 114 118 111 ?1 29 117 703 0 118 120 111 .03822 .03416
 -.0046 18 118 431 28 122 116 125 117 ?1 29 120 704 0 125 124 117 -.03821 .03416
 -.0046 18 125 427 121 123 118 130 120 ?1 29 124 705 0 130 126 120 -.04521 .0271
6 -.0046 18 130 425 128 127 125 129 124 ?1 29 126 706 0 129 0 124 -.03821 -.0341
8 -.0046 18 129 419 131 135 130 0 126 ?1 81 1 131 420 26 129 0 0 56 64 132 17 13
5 0 133 134 58 129 137 140 0 139 -15 255 133 559 0 136 138 0 17 134 0 133 136 13
5 104 144 145 0 142 -17 58 0 133 135 136 60 143 141 0 137 +17 137 0 148 57 139 6
0 135 140 0 150 +16 140 388 146 ?137 149 147 151 0 0 1 17 139 0 148 137 155 129
 153 147 0 144 -15 148 587 0 137 152 0 17 155 0 148 139 57 108 154 156 0 153 -17
 153 0 160 158 144 108 139 147 0 0 +16 147 301 157 ?153 140 159 161 0 0 1 17 144
 0 160 153 142 129 134 145 0 0 +15 160 551 0 144 165 0 17 142 0 160 144 162 104
 127 163 0 0 +16 145 298 164 ?144 163 167 170 0 0 1 81 1 164 300 26 145 0 0 169
 157 166 16 163 313 168 ?142 171 145 172 0 0 1 16 167 295 169 ?174 145 173 175 0
 0 1 31 170 682 0 145 0 172 0 +-.03821 -.02718 -.0046 0 0 1 1 0 0 .007 30 255 17
2 681 0 163 170 177 0 +-.04521 -999999999998571e-20 -.0046 0 -1 0 31 177 680 0 1
71 172 180 0 +-.03821 .02716 -.0046 0 0 1 1 0 0 .007 16 171 310 179 ?162 176 163
 177 0 0 1 30 180 679 0 176 177 178 0 +49999999999904e-19 .03416 -.0046 1 363150
276274093e-30 0 16 176 364 185 ?122 181 171 180 0 0 1 31 178 678 0 181 180 183 0
 +.03822 .02716 -.0046 0 0 1 1 0 0 .007 16 181 307 182 ?184 186 176 178 0 0 1 30
 183 677 0 186 178 190 0 +.04522 -999999999998571e-20 -.0046 0 -1 0 16 186 379 1
87 ?113 159 181 183 0 0 1 31 190 676 0 159 183 161 0 +.03822 -.02718 -.0046 0 0
 1 1 0 0 .007 16 159 304 188 ?158 147 186 190 0 0 1 30 161 675 0 147 190 189 0 +
499999999999112e-20 -.03418 -.0046 1 0 0 30 189 674 0 156 161 151 0 +.03822 -.03
418 .0128 0 0 -1 16 156 382 192 ?154 195 194 189 0 0 1 30 151 673 0 140 189 191
 0 --.03821 -.03418 .0128 0 0 1 30 191 672 0 194 151 193 0 +.04522 -.02718 .0128
 0 0 -1 16 194 373 199 ?46 156 200 191 0 0 1 30 193 671 0 200 191 197 0 +.04522
 .02716 .0128 0 0 -1 16 200 367 198 ?31 194 196 193 0 0 1 30 197 670 0 196 193 2
03 0 -.03822 .03416 .0128 0 0 1 16 196 358 205 ?36 200 201 197 0 0 1 30 203 669
 0 201 197 204 0 +-.03821 .03416 .0128 0 0 -1 16 201 352 202 ?206 196 210 203 0
 0 1 30 204 668 0 210 203 208 0 +-.04521 .02716 .0128 0 0 -1 16 210 346 207 ?209
 201 149 204 0 0 1 30 208 667 0 149 204 211 0 +-.04521 -.02718 .0128 0 0 -1 16 1
49 340 215 ?136 210 140 208 0 0 1 31 211 666 0 195 208 213 0 +-.03821 .02716 -.0
056 0 0 1 1 0 0 .007 16 195 355 212 ?214 216 156 211 0 0 1 30 213 665 0 216 211
 220 0 +.03822 .03316 -.0066 1 363150276274093e-30 0 16 216 322 217 ?95 218 195
 213 0 0 1 31 220 664 0 218 213 219 0 -.03822 .02716 -.0066 0 0 1 1 0 0 .006 16
 218 325 222 ?87 225 216 220 0 0 1 30 219 663 0 225 220 224 0 +.04422 -.02718 -.
0066 0 -1 0 16 225 328 221 ?81 223 218 219 0 0 1 31 224 662 0 223 219 226 0 -.03
822 -.02718 -.0066 0 0 1 1 0 0 .006 16 223 331 227 ?79 229 225 224 0 0 1 30 226
 661 0 229 224 228 0 +499999999999112e-20 -.03318 -.0066 -1 0 0 16 229 334 230 ?
76 232 223 226 0 0 1 31 228 660 0 232 226 235 0 --.03821 -.02718 -.0066 0 0 1 1
 0 0 .006 16 232 337 234 ?71 231 229 228 0 0 1 30 235 659 0 231 228 233 0 +-.044
21 -999999999998225e-20 -.0066 0 1 0 16 231 316 240 ?69 236 232 235 0 0 1 31 233
 658 0 236 235 238 0 --.03821 .02716 -.0066 0 0 1 1 0 0 .006 16 236 319 237 ?239
 241 231 233 0 0 1 30 238 657 0 241 233 245 0 +-.04521 -999999999998571e-20 -.00
56 0 -1 0 16 241 349 242 ?63 141 236 238 0 0 1 31 245 656 0 141 238 243 0 +-.038
21 -.02718 -.0056 0 0 1 1 0 0 .007 16 141 343 244 ?58 247 241 245 0 0 1 30 243 6
55 0 247 245 250 0 +499999999999112e-20 -.03418 -.0056 1 0 0 16 247 391 249 ?57
 246 141 243 0 0 1 31 250 654 0 246 243 248 0 +.03822 -.02718 -.0056 0 0 1 1 0 0
 .007 16 246 385 254 ?49 48 247 250 0 0 1 30 248 653 0 48 250 255 0 +.04522 .027
16 -.0056 0 1 0 16 48 376 252 ?37 40 246 248 0 0 1 31 255 652 0 40 248 253 0 +.0
3822 .02716 -.0056 0 0 1 1 0 0 .007 16 40 370 251 ?30 258 48 255 0 0 1 30 253 65
1 0 258 255 260 0 +-.03821 .03416 -.0056 -1 -363150276274093e-30 0 16 258 361 25
6 ?102 259 40 253 0 0 1 30 260 650 0 257 253 261 0 +-.04421 .02716 -.0066 -.7071
06781186548 0 .707106781186547 16 257 277 265 ?99 263 0 260 0 0 1 30 261 649 0 2
63 260 262 0 +-.03821 .03416 -.0056 0 -.707106781186548 -.707106781186547 16 263
 274 264 ?96 266 257 261 0 0 1 30 262 648 0 266 261 270 0 +-.04421 -.02718 -.006
6 -.707106781186548 0 .707106781186547 16 266 280 268 ?267 269 263 262 0 0 1 30
 270 647 0 269 262 271 0 +.03822 .03416 -.0056 0 -.707106781186548 -.70710678118
6547 16 269 283 275 ?272 273 266 270 0 0 1 30 271 646 0 273 270 274 0 +-.03821 -
.03318 -.0066 0 -.707106781186548 .707106781186547 16 273 286 277 ?280 279 269 2
71 0 0 1 30 274 645 0 279 271 276 0 +.04522 .02716 -.0056 -.707106781186548 0 -.
707106781186547 16 279 289 278 ?281 173 273 274 0 0 1 30 276 644 0 173 274 175 0
 +.03822 -.03318 -.0066 0 -.707106781186548 .707106781186547 16 173 292 282 ?284
 167 279 276 0 0 1 30 175 643 0 167 276 283 0 +.04522 -.02718 -.0056 -.707106781
186548 0 -.707106781186547 31 283 642 0 285 175 287 0 +-.03906 .02789 0 0 0 1 1
 0 0 8e-4 16 285 271 290 ?289 286 259 283 0 0 1 31 287 641 0 286 283 288 0 +-.03
906 .02789 -.0046 0 0 1 1 0 0 8e-4 16 286 394 295 ?291 293 285 287 0 0 1 31 288
 640 0 293 287 292 0 +-.03906 .02789 0 0 0 1 1 0 0 .00125 16 293 268 294 ?296 30
0 286 288 0 0 1 31 292 639 0 259 288 297 0 +-.03906 .02789 -.0046 0 0 1 1 0 0 .0
0125 16 259 263 298 ?299 285 258 292 0 0 1 31 297 638 0 300 292 302 0 +.03912 -.
00794 -.0046 0 0 1 1 0 0 .00125 16 300 247 305 ?304 301 293 297 0 0 1 31 302 637
 0 301 297 303 0 +.03912 -.00794 0 0 0 1 1 0 0 8e-4 16 301 255 309 ?310 307 300
 302 0 0 1 31 303 636 0 307 302 308 0 +.03912 -.00794 -.0046 0 0 1 1 0 0 8e-4 16
 307 258 306 ?313 315 301 303 0 0 1 31 308 635 0 315 303 311 0 +.03912 -.00794 0
 0 0 1 1 0 0 .00125 16 315 252 314 ?312 316 307 308 0 0 1 31 311 634 0 316 308 3
20 0 +.03907 -.02787 -.0046 0 0 1 1 0 0 .00125 16 316 231 318 ?317 319 315 311 0
 0 1 31 320 633 0 319 311 321 0 +.03907 -.02787 0 0 0 1 1 0 0 8e-4 16 319 239 32
5 ?323 322 316 320 0 0 1 31 321 632 0 322 320 324 0 +.03907 -.02787 -.0046 0 0 1
 1 0 0 8e-4 16 322 242 326 ?330 327 319 321 0 0 1 31 324 631 0 327 321 328 0 +.0
3907 -.02787 0 0 0 1 1 0 0 .00125 16 327 236 329 ?332 335 322 324 0 0 1 31 328 6
29 0 335 324 334 0 +-.03904 -.02781 -.0046 0 0 1 1 0 0 .00125 16 335 225 331 ?33
3 336 327 328 0 0 1 31 334 192 0 336 328 20 0 +-.03904 -.02781 0 0 0 1 1 0 0 8e-
4 16 336 74 337 ?339 25 335 334 0 0 1 31 20 191 0 25 334 8 0 +-.03904 -.02781 -.
0046 0 0 1 1 0 0 8e-4 16 25 79 338 ?340 11 336 20 0 0 1 81 1 338 723 26 25 0 0 2
95 342 345 17 340 0 344 340 340 0 341 25 0 0 +15 344 455 0 340 343 0 17 341 0 35
0 341 341 0 340 25 0 0 -15 350 95 0 341 346 0 14 255 346 91 348 ?343 347 349 6 3
51 +0 0 343 347 22 81 1 348 734 355 346 352 0 353 354 357 14 343 452 354 ?360 34
6 344 6 359 +356 165 360 346 22 14 347 1 353 ?346 17 358 6 19 +0 0 346 17 22 15
 349 94 0 339 346 350 51 351 181 0 346 364 19 0 --.03904 -.02781 -.0046 0 0 1 8e
-4 1 0 0 13 22 14 0 0 0 0 0 0 10 17 14 17 35 365 ?347 0 362 6 7 -0 0 347 0 22 81
 1 365 732 355 17 363 0 0 353 361 15 362 34 0 368 17 370 17 368 0 362 368 368 0
 24 11 0 0 -15 370 36 0 333 17 0 17 333 0 370 333 333 0 366 335 0 0 +17 366 0 36
9 366 366 0 333 335 0 0 -15 369 547 0 366 165 367 14 165 544 371 ?375 373 369 6
 359 +343 372 375 373 22 15 367 548 0 374 165 376 17 374 0 367 374 374 0 317 316
 0 0 -15 376 549 0 380 165 378 17 380 0 376 380 380 0 304 300 0 0 -15 378 550 0
 377 165 160 17 377 0 378 377 377 0 299 259 0 0 -17 299 0 379 299 299 0 377 259
 0 0 +15 379 500 0 299 381 0 14 381 496 385 ?382 383 384 6 387 -0 0 382 383 22 8
1 1 385 744 355 381 390 0 389 386 388 14 382 501 386 ?391 381 392 6 394 +0 0 391
 381 22 14 383 492 389 ?381 393 395 6 359 +372 356 381 393 22 15 384 499 0 397 3
81 379 51 387 600 0 381 394 400 0 --.03906 .02789 0 0 0 -1 .00125 -1 0 0 50 255
 394 601 0 382 399 387 0 +2999999999998835e-20 1000000000001e-17 0 0 0 1 1 0 0 5
1 400 599 0 393 387 396 0 -.03912 -.00794 -.0046 0 0 1 8e-4 1 0 0 14 393 486 398
 ?383 405 401 6 400 +0 0 383 405 22 50 396 598 0 405 400 403 0 +2999999999998835
e-20 1000000000001e-17 0 0 0 1 1 0 0 14 405 481 402 ?393 404 406 6 396 +0 0 393
 404 22 51 403 597 0 404 396 410 0 -.03912 -.00794 0 0 0 -1 .00125 -1 0 0 14 404
 476 407 ?405 356 408 6 403 -0 0 405 356 22 51 410 596 0 409 403 412 0 -.03907 -
.02787 -.0046 0 0 1 8e-4 1 0 0 14 409 466 415 ?356 414 411 6 410 +0 0 356 414 22
 50 412 595 0 414 410 364 0 +2999999999998835e-20 1000000000001e-17 0 0 0 1 1 0
 0 14 414 461 413 ?409 360 419 6 412 +0 0 409 360 22 51 364 594 0 360 412 351 0
 -.03907 -.02787 0 0 0 -1 .00125 -1 0 0 14 360 456 420 ?414 343 417 6 364 -0 0 4
14 343 22 81 1 420 736 355 360 418 0 354 413 416 15 417 459 0 423 360 425 17 423
 0 417 423 423 0 332 327 0 0 -15 425 460 0 317 360 0 17 317 0 425 317 317 0 374
 316 0 0 +17 332 0 421 332 332 0 423 327 0 0 +15 421 465 0 332 414 0 80 7 CCCCCD
I12 legal_owners0 17 1 lCZ1 355 0 424 8001 0 0 0 0 3 5 0 0 0 FFFFTFTFFFFFFFFFF2
 81 1 418 458 26 360 0 420 54 422 426 81 1 354 735 355 343 430 0 348 420 428 81
 1 413 737 355 414 422 0 420 415 427 83 255 3 416 .647058823529412 .647058823529
412 .647058823529412 81 1 422 463 26 414 0 413 418 429 431 81 1 415 738 355 409
 435 0 413 433 432 83 3 427 .647058823529412 .647058823529412 .647058823529412 8
1 3 435 468 434 409 429 415 352 436 440 437 438 81 1 433 739 355 356 439 0 415 4
07 442 83 3 432 .647058823529412 .647058823529412 .647058823529412 14 356 472 43
3 ?404 409 445 6 359 +383 343 404 409 22 81 1 439 725 26 356 0 433 342 444 441 8
1 1 407 740 355 404 443 0 433 402 446 83 3 442 .647058823529412 .647058823529412
 .647058823529412 81 1 443 478 26 404 0 407 429 447 449 81 1 402 741 355 405 447
 0 407 398 448 83 3 446 .647058823529412 .647058823529412 .647058823529412 81 1
 447 483 26 405 0 402 443 450 452 81 1 398 742 355 393 436 0 402 389 455 83 3 44
8 .647058823529412 .647058823529412 .647058823529412 81 3 436 488 434 393 450 39
8 435 454 451 453 460 81 1 389 743 355 383 444 0 398 385 456 83 3 455 .647058823
529412 .647058823529412 .647058823529412 81 1 444 726 26 383 0 389 439 458 457 8
3 3 456 .647058823529412 .647058823529412 .647058823529412 80 1 26 459 461 9000
 0 0 0 0 3 6 0 0 0 FFTFTFTTFFFFFFFFF1 81 1 458 727 26 372 0 465 444 430 462 82 2
55 3 457 46 2 2 14 372 588 465 ?0 152 463 6 359 +165 383 0 152 22 81 1 465 765 3
55 372 458 0 464 0 467 81 1 430 728 26 343 0 354 458 0 470 82 3 462 46 3 2 82 3
 470 46 4 2 81 1 464 764 355 152 469 0 466 465 468 83 3 467 .647058823529412 .64
7058823529412 .647058823529412 14 152 584 464 ?372 474 148 6 475 -0 0 372 474 22
 81 1 469 586 26 152 0 464 472 473 471 81 1 466 763 355 474 472 0 478 464 480 83
 3 468 .647058823529412 .647058823529412 .647058823529412 14 474 580 466 ?152 47
6 479 6 477 -0 0 152 476 22 81 1 472 582 26 474 0 466 481 469 485 81 1 478 762 3
55 476 481 0 483 466 482 83 3 480 .647058823529412 .647058823529412 .64705882352
9412 14 476 576 478 ?474 484 42 6 486 +0 0 474 484 22 81 1 481 578 26 476 0 478
 490 472 488 81 1 483 761 355 484 490 0 487 478 489 83 3 482 .647058823529412 .6
47058823529412 .647058823529412 14 484 572 483 ?476 491 32 6 495 -0 0 476 491 22
 81 1 490 574 26 484 0 483 492 481 493 81 1 487 760 355 491 492 0 494 483 497 83
 3 489 .647058823529412 .647058823529412 .647058823529412 14 491 568 487 ?484 50
0 499 6 496 +0 0 484 500 22 81 1 492 570 26 491 0 487 498 490 501 81 1 494 759 3
55 500 498 0 502 487 504 83 3 497 .647058823529412 .647058823529412 .64705882352
9412 14 500 564 494 ?491 503 505 6 507 -0 0 491 503 22 81 1 498 566 26 500 0 494
 510 492 509 81 1 502 758 355 503 510 0 506 494 508 83 3 504 .647058823529412 .6
47058823529412 .647058823529412 14 503 560 502 ?500 138 515 6 511 -0 0 500 138 2
2 81 1 510 562 26 503 0 502 513 498 512 81 1 506 757 355 138 513 0 514 502 516 8
3 3 508 .647058823529412 .647058823529412 .647058823529412 14 138 556 506 ?503 3
75 133 6 520 -0 0 503 375 22 81 1 513 558 26 138 0 506 517 510 518 81 1 514 756
 355 375 517 0 371 506 519 83 3 516 .647058823529412 .647058823529412 .647058823
529412 14 375 552 514 ?138 165 522 6 525 -0 0 138 165 22 81 1 517 554 26 375 0 5
14 524 513 521 81 1 371 755 355 165 342 0 523 514 529 83 3 519 .647058823529412
 .647058823529412 .647058823529412 81 1 342 724 26 165 0 371 338 439 530 81 1 52
3 754 355 373 524 0 527 371 528 83 3 529 .647058823529412 .647058823529412 .6470
58823529412 14 373 540 523 ?165 526 533 6 535 +0 0 165 526 22 81 1 524 542 26 37
3 0 523 531 517 534 81 1 527 753 355 526 531 0 532 523 536 83 3 528 .64705882352
9412 .647058823529412 .647058823529412 14 526 536 527 ?373 540 538 6 537 +0 0 37
3 540 22 81 1 531 538 26 526 0 527 539 524 541 81 1 532 752 355 540 539 0 545 52
7 543 83 3 536 .647058823529412 .647058823529412 .647058823529412 14 540 532 532
 ?526 542 544 6 546 +0 0 526 542 22 81 1 539 534 26 540 0 532 550 531 547 81 1 5
45 751 355 542 550 0 548 532 549 83 3 543 .647058823529412 .647058823529412 .647
058823529412 14 542 528 545 ?540 552 555 6 554 +0 0 540 552 22 81 1 550 530 26 5
42 0 545 551 539 553 81 1 548 750 355 552 551 0 556 545 557 83 3 549 .6470588235
29412 .647058823529412 .647058823529412 14 552 524 548 ?542 559 558 6 560 +0 0 5
42 559 22 81 1 551 526 26 552 0 548 562 550 565 81 1 556 749 355 559 562 0 564 5
48 561 83 3 557 .647058823529412 .647058823529412 .647058823529412 14 559 520 55
6 ?552 563 570 6 566 +0 0 552 563 22 81 1 562 522 26 559 0 556 568 551 567 81 1
 564 748 355 563 568 0 569 556 571 83 3 561 .647058823529412 .647058823529412 .6
47058823529412 14 563 516 564 ?559 575 572 6 573 +0 0 559 575 22 81 1 568 518 26
 563 0 564 574 562 577 81 1 569 747 355 575 574 0 580 564 579 83 3 571 .64705882
3529412 .647058823529412 .647058823529412 14 575 512 569 ?563 391 576 6 578 +0 0
 563 391 22 81 1 574 514 26 575 0 569 584 568 585 81 1 580 746 355 391 454 0 386
 569 582 83 3 579 .647058823529412 .647058823529412 .647058823529412 14 391 506
 580 ?575 382 583 6 399 +0 0 575 382 22 81 3 454 508 434 391 584 580 436 0 581 5
88 590 81 1 386 745 355 382 586 0 385 580 589 83 3 582 .647058823529412 .6470588
23529412 .647058823529412 81 1 586 503 26 382 0 386 390 584 587 83 3 589 .647058
823529412 .647058823529412 .647058823529412 81 1 390 498 26 381 0 385 450 586 59
1 81 1 584 509 26 391 0 454 586 574 595 82 3 587 26 11 2 82 3 595 26 2 2 81 1 45
0 489 26 393 0 436 447 390 593 82 3 591 24 9 2 82 3 593 26 1 2 80 3 434 592 594
 9000 2 2 2 2 3 6 0 0 0 FFFFTFTTFFFFFFFFF3 7 6 84 255 18 581 threadOriginSystem8
7 255 2 588 -.03906 .02789 -.0046 0 0 1 89 255 2 590 1 0 0 0 1 0 79 255 17 594 B
TI/Named_CSysTop15 583 510 0 289 391 596 51 399 602 0 391 535 394 0 --.03906 .02
789 -.0046 0 0 1 8e-4 1 0 0 52 255 535 603 600 373 537 399 0 +.03822 -.02718 -.0
056 0 0 1 .007 .707106781186547 .707106781186548 1 0 0 81 2 600 604 598 535 0 0
 0 597 599 601 50 537 605 597 526 546 535 0 +.04422 -999999999998225e-20 -.0066
 .707106781186547 0 -.707106781186548 0 1 0 81 2 597 606 598 537 0 0 600 605 602
 603 50 546 607 605 540 554 537 0 -499999999999112e-20 -.03418 -.0056 0 .7071067
81186547 .707106781186548 1 0 0 81 2 605 608 598 546 0 0 597 604 607 610 52 554
 609 604 542 560 546 0 +.03822 .02716 -.0056 0 0 1 .007 .707106781186547 .707106
781186548 1 0 0 81 2 604 610 598 554 0 0 605 609 606 608 52 560 611 609 552 566
 554 0 +-.03821 -.02718 -.0056 0 0 1 .007 .707106781186547 .707106781186548 1 0
 0 81 2 609 612 598 560 0 0 604 611 612 614 50 566 613 611 559 573 560 0 +499999
999997908e-20 .03316 -.0066 -256786022943179e-30 .707106781186547 -.707106781186
548 -1 -363150276274093e-30 0 81 2 611 614 598 566 0 0 609 613 615 617 50 573 61
5 613 563 578 566 0 --.04521 -999999999998571e-20 -.0056 .707106781186547 0 .707
106781186548 0 -1 0 81 2 613 616 598 573 0 0 611 620 619 616 52 578 617 620 575
 359 573 0 +-.03821 .02716 -.0056 0 0 1 .007 .707106781186547 .707106781186548 1
 0 0 81 2 620 618 598 578 0 0 613 0 618 625 50 359 619 0 165 525 578 0 +49999999
9999112e-20 -999999999998225e-20 -.0046 0 0 1 1 0 0 50 525 620 0 375 520 359 0 +
499999999999112e-20 -999999999998225e-20 -.0066 0 0 1 1 0 0 51 520 621 0 138 511
 525 0 --.03821 -.02718 .0128 0 0 -1 .007 -1 0 0 50 511 622 0 503 507 520 0 +-.0
4521 -999999999998571e-20 .0128 1 0 0 0 0 -1 51 507 623 0 500 496 511 0 --.03821
 .02716 .0128 0 0 -1 .007 -1 0 0 50 496 624 0 491 495 507 0 +49999999999904e-19
 .03416 .0128 -363150276274093e-30 1 0 -1 -363150276274093e-30 0 51 495 625 0 48
4 486 496 0 -.03822 .02716 .0128 0 0 -1 .007 -1 0 0 50 486 626 0 476 477 495 0 +
.04522 -999999999998571e-20 .0128 1 0 0 0 0 -1 51 477 627 0 474 475 486 0 -.0382
2 -.02718 .0128 0 0 -1 .007 -1 0 0 50 475 628 0 152 0 477 0 +499999999999112e-20
 -.03418 .0128 0 1 0 0 0 1 80 2 598 621 623 8044 0 0 0 0 3 5 0 0 0 FFFFTFFFTTFFF
FFFF3 2 84 6 618 BAOAAB83 3 625 -.001 0 .001 79 17 623 SDL/TYSA_BLEND_ID84 6 619
 BAOAAB83 3 616 0 .001414213562373094 .001 84 6 615 BAOAAB83 3 617 1300621206221
304e-33 .001414213562373094 .001 84 6 612 BAOAAB83 3 614 -.001 0 .001 84 6 606 B
AOAAB83 3 608 -.001 0 .001 84 6 607 BAOAAB83 3 610 0 .001414213562373094 .001 84
 6 602 BAOAAB83 3 603 0 .001414213562373094 .001 84 6 599 BAOAAB83 3 601 -.001 0
 .001 17 289 0 583 289 289 0 622 285 0 0 +15 596 511 0 624 391 0 17 624 0 596 62
4 624 0 291 286 0 0 -17 291 0 463 291 291 0 624 286 0 0 +15 463 591 0 291 372 0
 17 622 0 392 622 622 0 289 285 0 0 -15 392 504 0 622 382 626 15 626 505 0 296 3
82 0 17 296 0 626 296 296 0 397 293 0 0 +17 397 0 384 397 397 0 296 293 0 0 -82
 3 585 28 7 2 15 576 515 0 96 575 0 17 96 0 576 630 627 91 628 263 0 629 +17 630
 0 576 99 96 65 239 236 0 632 -17 627 0 576 96 99 101 214 195 0 0 -17 628 0 570
 635 629 101 96 263 0 627 -17 629 0 570 628 272 91 95 216 0 239 -15 570 523 0 27
2 559 0 17 272 0 570 629 635 88 634 269 0 0 +17 95 0 522 87 239 88 629 216 0 631
 +17 239 0 522 95 69 91 630 236 0 0 +15 522 555 0 69 375 0 17 69 0 522 239 71 65
 633 231 0 630 +17 71 0 522 69 76 66 639 232 0 640 +17 633 0 572 267 632 66 69 2
31 0 0 -15 572 519 0 267 563 0 17 267 0 572 637 633 61 640 266 0 0 +17 632 0 572
 633 637 65 99 257 0 0 -17 637 0 572 632 267 100 63 241 0 214 -17 99 0 576 627 6
30 100 632 257 0 637 +17 63 0 515 107 209 61 637 241 0 136 +17 214 0 505 638 206
 100 627 195 0 209 +15 505 567 0 206 500 0 17 638 0 505 123 214 130 209 210 0 16
2 -17 206 0 505 214 123 101 636 201 0 628 +17 209 0 515 63 127 100 638 210 0 0 +
15 515 563 0 209 503 0 17 127 0 515 209 107 130 142 163 0 638 -17 107 0 515 127
 63 104 136 149 0 134 -17 136 0 133 58 134 61 107 149 0 143 +17 143 0 558 640 28
0 61 58 141 0 267 -15 558 527 0 280 552 0 17 640 0 558 639 143 66 267 266 0 633
 -17 280 0 558 143 639 60 643 273 0 0 +17 639 0 558 280 640 73 71 232 0 0 -17 64
3 0 544 645 150 73 280 273 0 639 -15 544 535 0 284 540 0 17 645 0 544 284 643 80
 76 229 0 0 -17 150 0 544 643 284 60 57 247 0 280 -17 284 0 544 150 645 51 641 1
73 0 0 +17 57 0 148 155 137 51 150 247 0 154 +17 154 0 479 49 115 51 155 156 0 6
44 +15 479 583 0 154 474 0 17 49 0 479 642 154 41 644 246 0 46 +17 115 0 479 154
 642 108 158 159 0 155 -17 644 0 533 641 646 51 49 246 0 284 -15 533 543 0 641 3
73 0 17 641 0 533 650 644 80 284 173 0 645 -17 646 0 533 644 650 41 174 167 0 50
 -17 650 0 533 646 641 82 79 223 0 174 -17 174 0 538 648 50 82 646 167 0 0 +17 5
0 0 538 174 647 41 37 48 0 0 -15 538 539 0 174 526 0 17 647 0 538 50 648 29 281
 279 0 38 -17 648 0 538 647 174 83 81 225 0 281 -17 281 0 555 631 38 83 647 279
 0 0 +17 38 0 555 281 634 29 30 40 0 0 -15 555 531 0 281 542 0 17 634 0 555 38 6
31 12 272 269 0 635 -17 631 0 555 634 281 88 87 218 0 272 -17 635 0 570 272 628
 12 102 258 0 0 -17 102 0 499 636 36 101 635 258 0 206 +15 499 571 0 36 491 0 17
 636 0 499 122 102 125 206 201 0 649 -17 36 0 499 102 122 12 33 196 0 634 +17 12
2 0 499 36 636 118 649 176 0 33 +17 33 0 32 119 30 118 36 196 0 184 -15 32 575 0
 31 484 0 17 119 0 32 31 33 116 184 181 0 44 -17 184 0 160 649 651 118 119 181 0
 0 +17 649 0 160 162 184 125 122 176 0 0 -17 651 0 160 184 158 116 113 186 0 0 -
17 158 0 160 651 153 114 115 159 0 0 +17 113 0 42 46 44 114 651 186 0 642 +15 42
 579 0 46 476 0 17 46 0 42 37 113 41 642 194 0 646 +17 44 0 42 113 37 116 31 200
 0 651 -17 642 0 479 115 49 114 46 194 0 158 -17 31 0 32 30 119 29 44 200 0 647
 +17 162 0 160 142 649 130 123 171 0 0 +17 123 0 505 206 638 125 162 171 0 636 -
17 87 0 522 81 95 83 631 218 0 648 +17 81 0 522 79 87 82 648 225 0 650 +17 79 0
 522 76 81 80 650 223 0 641 +17 76 0 522 71 79 73 645 229 0 643 +82 3 577 28 2 2
 82 3 567 28 0 2 82 3 565 28 4 2 82 3 553 28 6 2 82 3 547 28 1 2 82 3 541 28 3 2
 82 3 534 28 5 2 82 3 530 46 0 2 82 3 521 28 16 2 82 3 518 28 12 2 82 3 512 28 1
0 2 82 3 509 28 15 2 82 3 501 28 8 2 82 3 493 28 14 2 82 3 488 28 11 2 82 3 485
 28 13 2 81 1 473 715 26 1 0 655 469 331 653 82 3 471 28 9 2 81 1 655 729 652 1
 473 14 0 0 654 81 1 331 716 26 335 0 0 473 318 656 82 3 653 24 0 3 81 1 318 717
 26 316 0 0 331 305 660 82 3 656 46 0 1 81 1 305 718 26 300 0 0 318 298 657 82 3
 660 46 1 1 81 1 298 719 26 259 0 0 305 326 658 82 3 657 46 2 1 81 1 326 720 26
 322 0 0 298 306 659 82 3 658 46 3 1 81 1 306 721 26 307 0 0 326 295 662 82 3 65
9 46 4 1 81 1 295 722 26 286 0 0 306 338 665 82 3 662 46 5 1 82 3 665 46 6 1 80
 1 652 664 661 8038 0 0 0 0 0 0 0 0 0 TTTTTTTTTTTTTFTFT10 81 1 14 730 664 1 655
 2 0 0 663 98 255 6 654 66 111 116 116 111 109 80 1 664 666 667 8017 0 0 0 0 0 0
 0 0 0 TTTTTTTTTTTTTFTFT3 84 6 663 Bottom79 13 667 SDL/TYSA_NAME79 14 661 SDL/TY
SA_UNAME79 9 461 BTI/DetId84 18 451 threadOriginSystem87 2 453 .03912 -.00794 -.
0046 0 0 1 89 2 460 1 0 0 0 1 0 82 3 452 26 9 2 81 1 429 469 26 409 0 435 422 44
3 669 82 3 449 24 6 2 82 3 669 26 0 2 82 3 441 46 1 2 15 445 475 0 330 356 0 17
 330 0 445 330 330 0 668 322 0 0 +17 668 0 670 668 668 0 330 322 0 0 -15 670 471
 0 668 409 0 81 3 352 207 434 346 672 348 0 435 675 674 671 84 18 440 threadOrig
inSystem87 2 437 .03907 -.02787 -.0046 0 0 1 89 2 438 1 0 0 0 1 0 81 1 672 204 2
6 346 0 352 337 673 680 84 18 675 threadOriginSystem87 2 674 -.03904 -.02781 -.0
046 0 0 1 89 2 671 1 0 0 0 1 0 81 1 337 203 26 336 0 0 363 672 676 81 1 673 206
 26 347 0 353 672 329 678 82 3 680 26 3 2 81 1 353 733 355 347 673 0 365 348 677
 81 1 329 238 26 327 0 0 673 325 679 82 3 678 26 5 2 81 1 325 241 26 319 0 0 329
 314 681 82 3 679 24 3 1 81 1 314 254 26 315 0 0 325 309 685 82 3 681 26 3 1 81
 1 309 257 26 301 0 0 314 294 682 82 3 685 24 5 1 81 1 294 270 26 293 0 0 309 29
0 683 82 3 682 26 5 1 81 1 290 273 26 285 0 0 294 264 684 82 3 683 24 7 1 81 1 2
64 276 26 263 0 0 290 265 687 82 3 684 26 7 1 81 1 265 279 26 257 0 0 264 268 69
0 82 3 687 28 1 1 81 1 268 282 26 266 0 0 265 275 689 82 3 690 28 9 1 81 1 275 2
85 26 269 0 0 268 277 686 82 3 689 28 8 1 81 1 277 288 26 273 0 0 275 278 688 82
 3 686 28 0 1 81 1 278 291 26 279 0 0 277 282 694 82 3 688 28 4 1 81 1 282 294 2
6 173 0 0 278 169 695 82 3 694 28 13 1 81 1 169 297 26 167 0 0 282 164 692 82 3
 695 28 5 1 82 3 692 28 12 1 83 3 677 .647058823529412 .647058823529412 .6470588
23529412 81 1 363 46 26 17 0 365 23 337 693 82 3 676 26 1 1 81 1 23 45 26 11 0 0
 0 363 691 82 3 693 24 0 2 82 3 691 24 1 1 82 3 431 26 7 2 83 3 428 .64705882352
9412 .647058823529412 .647058823529412 81 1 54 446 26 51 0 0 112 418 698 82 3 42
6 24 3 2 81 1 112 444 26 108 0 0 47 54 700 82 3 698 28 6 0 81 1 47 442 26 41 0 0
 45 112 696 82 3 700 18 7 0 81 1 45 440 26 114 0 0 39 47 699 82 3 696 28 12 0 82
 3 699 18 13 0 79 15 424 SDL/TYSA_COLOUR15 419 464 0 697 414 421 17 697 0 419 69
7 697 0 323 319 0 0 -17 323 0 411 323 323 0 697 319 0 0 +15 411 470 0 323 409 67
0 15 408 479 0 701 404 705 17 701 0 408 701 701 0 312 315 0 0 -15 705 480 0 304
 404 0 17 304 0 705 304 304 0 380 300 0 0 +17 312 0 703 312 312 0 701 315 0 0 +1
5 703 485 0 312 405 0 15 406 484 0 702 405 703 17 702 0 406 702 702 0 310 301 0
 0 -17 310 0 401 310 310 0 702 301 0 0 +15 401 490 0 310 393 704 15 704 491 0 70
6 393 0 17 706 0 704 706 706 0 313 307 0 0 -17 313 0 395 313 313 0 706 307 0 0 +
15 395 495 0 313 383 0 83 3 388 .647058823529412 .647058823529412 .6470588235294
12 17 24 0 710 24 24 0 368 11 0 0 +15 710 6 0 24 347 0 83 3 361 .647058823529412
 .647058823529412 .647058823529412 50 19 3 0 347 351 7 0 +2999999999998835e-20 1
000000000001e-17 0 0 0 1 1 0 0 17 339 0 349 339 339 0 708 336 0 0 +17 708 0 358
 708 708 0 339 336 0 0 -15 358 63 0 708 347 710 83 3 357 .647058823529412 .64705
8823529412 .647058823529412 82 3 345 46 7 1 81 1 256 363 26 258 0 0 205 185 707
 81 1 205 360 26 196 0 0 212 256 709 81 1 185 366 26 176 0 0 256 198 711 82 3 70
7 28 2 1 81 1 198 369 26 200 0 0 185 251 715 82 3 711 18 1 1 81 1 251 372 26 40
 0 0 198 199 712 82 3 715 28 30 1 81 1 199 375 26 194 0 0 251 252 713 82 3 712 2
8 20 1 81 1 252 378 26 48 0 0 199 187 714 82 3 713 28 31 1 81 1 187 381 26 186 0
 0 252 192 717 82 3 714 28 14 1 81 1 192 384 26 156 0 0 187 254 720 82 3 717 18
 7 1 81 1 254 387 26 246 0 0 192 146 719 82 3 720 28 27 1 81 1 146 390 26 140 0
 0 254 249 716 82 3 719 28 18 1 81 1 249 393 26 247 0 0 146 92 718 82 3 716 28 2
6 1 81 1 92 400 26 91 0 0 249 97 721 82 3 718 28 6 1 81 1 97 402 26 100 0 0 92 7
0 722 82 3 721 28 3 0 81 1 70 404 26 65 0 0 97 93 724 82 3 722 28 10 0 81 1 93 4
06 26 88 0 0 70 90 723 82 3 724 28 11 0 81 1 90 408 26 83 0 0 93 84 725 82 3 723
 28 1 0 81 1 84 410 26 82 0 0 90 78 727 82 3 725 28 15 0 81 1 78 412 26 80 0 0 8
4 74 730 82 3 727 28 13 0 81 1 74 414 26 73 0 0 78 75 729 82 3 730 28 7 0 81 1 7
5 416 26 66 0 0 74 56 726 82 3 729 28 5 0 81 1 56 418 26 60 0 0 75 131 728 82 3
 726 28 9 0 82 3 728 28 4 0 81 1 212 357 26 195 0 0 202 205 735 82 3 709 28 25 1
 81 1 202 354 26 201 0 0 242 212 731 82 3 735 28 22 1 81 1 242 351 26 241 0 0 20
7 202 733 82 3 731 28 24 1 81 1 207 348 26 210 0 0 244 242 732 82 3 733 28 10 1
 81 1 244 345 26 141 0 0 215 207 734 82 3 732 28 28 1 81 1 215 342 26 149 0 0 23
4 244 736 82 3 734 28 16 1 81 1 234 339 26 232 0 0 230 215 740 82 3 736 28 29 1
 81 1 230 336 26 229 0 0 227 234 737 82 3 740 28 17 1 81 1 227 333 26 223 0 0 22
1 230 738 82 3 737 28 7 1 81 1 221 330 26 225 0 0 222 227 739 82 3 738 28 19 1 8
1 1 222 327 26 218 0 0 217 221 742 82 3 739 28 15 1 81 1 217 324 26 216 0 0 237
 222 745 82 3 742 28 21 1 81 1 237 321 26 236 0 0 240 217 744 82 3 745 28 3 1 81
 1 240 318 26 231 0 0 168 237 741 82 3 744 28 23 1 81 1 168 315 26 163 0 0 179 2
40 743 82 3 741 28 11 1 81 1 179 312 26 171 0 0 182 168 749 82 3 743 18 5 1 81 1
 182 309 26 181 0 0 188 179 750 82 3 749 18 15 1 81 1 188 306 26 159 0 0 157 182
 747 82 3 750 18 13 1 81 1 157 303 26 147 0 0 164 188 748 82 3 747 18 11 1 82 3
 748 18 3 1 82 3 166 18 9 1 81 1 64 422 26 61 0 0 131 110 746 82 3 132 18 5 0 81
 1 110 424 26 104 0 0 64 128 753 82 3 746 28 8 0 81 1 128 426 26 130 0 0 110 121
 755 82 3 753 18 9 0 81 1 121 428 26 125 0 0 128 103 751 82 3 755 18 11 0 81 1 1
03 430 26 101 0 0 121 28 754 82 3 751 18 3 0 81 1 28 432 26 118 0 0 103 27 752 8
2 3 754 28 2 0 82 3 752 18 1 0 81 1 34 436 26 116 0 0 27 39 756 82 3 756 18 15 0
 82 3 43 28 14 0 82 3 35 28 0 0 19 18 40 0 1 0 10 6 0 S0 74 4 CI16 index_map_off
set0 0 1 dCCZ20 16 7 0 0 430 454 620 655 14 2 465 0 0 0 0 0 0 0 0 0 0 0 0 0 80 1
 13 355 760 8040 0 0 0 0 3 5 0 0 0 TTTFFFFFFFFFFFFFF2 83 3 15 .647058823529412 .
647058823529412 .647058823529412 79 17 760 SDL/TYSA_COLOUR_21 0 
