**ABCDEFGHIJKLMNOPQRSTUVWXYZabcdefghijklmnopqrstuvwxyz**************************
**PARASOLID !"#$%&'()*+,-./:;<=>?@[\]^_`{|}~0123456789**************************
**PART1;
MC=unknown;
MC_MODEL=unknown;
MC_ID=unknown;
OS=unknown;
OS_RELEASE=unknown;
FRU=Parasolid 37.1.212;
APPL=Onshape;
SITE=unknown;
USER=unknown;
FORMAT=text;
GUISE=transmit;
KEY=BTGapi::writeModels_.xmt;
FILE=BTGapi::writeModels_.xmt;
DATE=2026-04-21T08:27:49 (UTC);
**PART2;
SCH=SCH_3701212_37102;
USFLD_SIZE=0;
**PART3;
**END_OF_HEADER*****************************************************************
T51 : TRANSMIT FILE created by modeller version 370121223 SCH_3701212_37102_1300
6239 0 12 36 CCCI7 lattice222 0 CCCI4 mesh1006 0 I8 polyline1008 0 CCCCCCCDI5 ow
ner1040 0 CCCI16 boundary_lattice222 0 CCCI13 boundary_mesh1006 0 I17 boundary_p
olyline1008 0 CCCA16 index_map_offset0 0 1 dA9 index_map82 0 A17 node_id_index_m
ap82 0 A20 schema_embedding_map82 0 A5 child12 0 A14 lowest_node_id0 0 1 dA16 me
sh_offset_data206 0 Z1 1115 2 3 0 0 0 0 0 0 0 1e3 1e-8 0 4 5 1 0 1 2 6 0 7 8 9 0
 0 10 11 12 0 0 0 0 0 0 0 81 255 1 2 1075 13 1 14 0 0 0 15 70 11 CI9 list_type0
 0 1 uI10 notransmit0 0 1 lCCCDCCDI12 finger_index0 0 1 dI12 finger_block1012 0
 CZ3 0 4 T1 0 0 6 20 1 16 16 13 255 6 5 0 1 0 17 0 0 18 0 52 255 7 886 19 20 21
 0 0 +.03822 -.02718 .0148 0 0 -1 .006 .707106781186548 .707106781186548 -1 0 0
 30 255 8 902 0 22 23 0 0 +.04422 -.02718 .0148 .707106781186548 0 -.70710678118
6547 29 255 9 743 0 12 24 0 .03822 .03416 .0138 19 9 CCCCCCI5 frame230 0 CA5 own
er12 0 Z10 3 0 1 18 0 25 0 V0 16 255 11 749 27 ?30 0 29 26 0 0 1 18 255 12 740 2
8 30 0 34 9 ?1 81 1 28 977 35 12 0 0 32 33 31 17 255 30 0 38 40 36 12 39 11 0 37
 +18 34 731 41 45 12 43 24 ?1 81 1 41 991 35 34 0 0 42 44 46 17 45 0 50 48 37 34
 47 29 0 49 +18 43 722 51 55 34 52 53 ?1 29 24 734 0 34 53 9 .04522 .02716 .0138
 29 53 725 0 43 54 24 .04522 -.02718 .0138 29 54 716 0 52 57 53 .03822 -.03418 .
0138 18 52 713 60 59 43 56 54 ?1 29 57 707 0 56 58 54 -.03821 -.03418 .0138 18 5
6 704 61 62 52 64 57 ?1 29 58 698 0 64 63 57 -.04521 -.02718 .0138 18 64 695 65
 69 56 66 58 ?1 29 63 689 0 66 70 58 -.04521 .02716 .0138 18 66 686 68 67 64 75
 63 ?1 29 70 685 0 75 71 63 -.03821 .03416 .0138 18 75 682 73 72 66 74 70 ?1 29
 71 671 0 74 76 70 -.03969015280949815 -.02850073732025755 .0138 18 74 668 80 77
 75 78 71 ?1 29 76 662 0 78 79 71 -.03969015280949815 .028666214630414 .0138 18
 78 659 81 85 74 83 76 ?1 29 79 653 0 83 82 76 .01747634958115215 -.028500737320
25755 .0138 18 83 650 84 89 78 90 79 ?1 29 82 649 0 90 87 79 .01747634958115215
 .028666214630414 .0138 18 90 646 88 86 83 93 82 ?1 29 87 639 0 93 95 82 .018476
34958115215 .02966621463041405 .0148 18 93 637 91 94 90 92 87 ?1 29 95 635 0 92
 96 87 -.04069015280949815 .02966621463041405 .0148 18 92 633 44 100 93 98 95 ?1
 29 96 631 0 98 97 95 -.04069015280949815 -.02950073732025755 .0148 18 98 629 99
 101 92 105 96 ?1 29 97 628 0 105 103 96 .01847634958115215 -.02950073732025755
 .0148 18 105 626 102 104 98 106 97 ?1 29 103 619 0 106 110 97 -.04421 .02716 .0
148 18 106 617 107 108 105 109 103 ?1 29 110 615 0 109 112 103 -.04421 -.02718 .
0148 18 109 613 115 114 106 111 110 ?1 29 112 611 0 111 113 110 -.03821 -.03318
 .0148 18 111 609 116 117 109 119 112 ?1 29 113 607 0 119 118 112 .03822 -.03318
 .0148 18 119 605 120 124 111 121 113 ?1 29 118 603 0 121 125 113 .04422 -.02718
 .0148 18 121 601 123 122 119 130 118 ?1 29 125 599 0 130 126 118 .04422 .02716
 .0148 18 130 597 42 128 121 127 125 ?1 29 126 595 0 127 129 125 -.03821 .03316
 .0148 18 127 593 33 131 130 135 126 ?1 29 129 592 0 135 132 126 .03822 .03316 .
0148 18 135 590 32 133 127 134 129 ?1 29 132 540 0 136 140 129 .0194763495811521
5 .030666214630414 .001512 18 136 190 138 137 139 144 132 ?1 29 140 539 0 139 14
5 132 .01947634958115215 -.0305007373202576 .001512 18 139 192 142 143 141 136 1
40 ?1 29 145 538 0 141 148 140 -.04169015280949815 -.03050073732025755 .001512 1
8 141 194 150 146 134 139 145 ?1 29 148 537 0 134 149 145 -.04169015280949815 .0
30666214630414 .001512 18 134 196 147 151 135 141 148 ?1 29 149 536 0 155 153 14
8 -.03969015280949815 -.02850073732025755 .001512 18 155 186 152 154 156 160 149
 ?1 29 153 535 0 156 158 149 .01747634958115215 -.02850073732025755 .001512 18 1
56 187 157 159 161 155 153 ?1 29 158 534 0 161 165 153 .01747634958115215 .02866
6214630414 .001512 18 161 188 162 163 144 156 158 ?1 29 165 533 0 144 164 158 -.
03969015280949815 .028666214630414 .001512 18 144 189 167 170 136 161 165 ?1 29
 164 393 0 169 166 165 -.03821 -.03218 .0128 18 169 158 168 171 172 174 164 ?1 2
9 166 392 0 173 175 164 -.04321 -.02718 .0128 18 173 148 179 176 180 178 166 ?1
 29 175 391 0 178 177 166 -.04321 .02716 .0128 18 178 146 185 181 173 183 175 ?1
 29 177 390 0 182 184 175 .03822 .03216 .0128 18 182 142 186 190 183 187 177 ?1
 29 184 389 0 188 189 177 .04322 -.02718 .0128 18 188 138 191 195 187 0 184 ?1 2
9 189 388 0 174 193 184 .01947634958115215 -.0305007373202576 .0128 18 174 156 1
92 194 169 199 189 ?1 29 193 387 0 199 200 189 .01947634958115215 .0306662146304
14 .0128 18 199 154 197 198 174 196 193 ?1 29 200 386 0 180 203 193 -.0416901528
0949815 -.03050073732025755 .0128 18 180 150 205 201 196 173 200 ?1 29 203 385 0
 196 204 200 -.04169015280949815 .030666214630414 .0128 18 196 152 202 206 199 1
80 203 ?1 29 204 384 0 183 210 203 -.03821 .03216 .0128 18 183 144 208 207 178 1
82 204 ?1 29 210 383 0 187 209 204 .04322 .02716 .0128 18 187 140 211 215 182 18
8 210 ?1 29 209 382 0 172 213 210 .03822 -.03218 .0128 18 172 160 212 214 216 16
9 209 ?1 29 213 381 0 220 217 209 -.04321 -.02718 -.0046 18 220 174 218 219 222
 225 213 ?1 29 217 379 0 160 224 213 -.03821 -.03418 -.0046 18 160 185 221 223 1
55 226 217 ?1 29 224 377 0 227 229 217 .04522 -.02718 -.0046 18 227 183 228 230
 226 234 224 ?1 29 229 376 0 234 231 224 .04522 .02716 -.0046 18 234 182 235 48
 227 233 229 ?1 29 231 375 0 233 232 229 .03822 .03416 -.0046 18 233 181 240 40
 234 236 231 ?1 29 232 374 0 236 238 231 -.03821 .03416 -.0046 18 236 180 237 23
9 233 241 232 ?1 29 238 373 0 226 245 232 .03822 -.03418 -.0046 18 226 184 242 2
43 160 227 238 ?1 29 245 372 0 241 244 238 -.04521 .02716 -.0046 18 241 179 246
 250 236 248 245 ?1 29 244 371 0 248 247 245 -.04521 -.02718 -.0046 18 248 178 2
49 254 241 222 244 ?1 29 247 370 0 222 255 244 -.03821 -.03218 -.0046 18 222 176
 252 253 248 220 247 ?1 29 255 369 0 251 258 247 .04322 -.02718 -.0046 18 251 16
4 260 256 259 216 255 ?1 29 258 368 0 216 257 255 .03822 -.03218 -.0046 18 216 1
62 261 265 251 172 258 ?1 29 257 367 0 259 263 258 .04322 .02716 -.0046 18 259 1
66 262 264 266 251 257 ?1 29 263 366 0 266 270 257 .03822 .03216 -.0046 18 266 1
68 268 267 269 259 263 ?1 29 270 365 0 269 271 263 -.03821 .03216 -.0046 18 269
 170 275 272 225 266 270 ?1 29 271 364 0 225 0 270 -.04321 .02716 -.0046 18 225
 172 273 274 220 269 271 ?1 81 1 273 471 35 225 0 0 261 218 277 17 274 0 280 219
 272 225 279 276 0 278 +15 255 280 263 0 265 281 282 17 219 0 280 253 274 220 28
4 283 0 285 +17 272 0 280 274 267 269 289 286 0 290 -17 279 0 288 207 278 269 27
4 276 0 0 -16 276 68 287 ?274 283 295 291 0 0 1 17 278 0 288 279 181 225 293 292
 0 284 +15 288 239 0 279 294 0 17 181 0 288 278 207 178 296 300 0 293 +17 293 0
 297 176 284 178 278 292 0 298 -16 292 28 299 ?278 301 300 305 0 0 1 17 284 0 29
7 293 285 225 219 283 0 0 -15 297 242 0 284 303 0 17 285 0 297 284 176 220 302 3
04 0 309 +16 283 70 310 ?219 307 276 308 0 0 1 81 1 310 493 35 283 0 0 306 313 3
15 16 307 72 311 ?253 314 283 312 0 0 1 30 308 454 0 283 291 316 0 +-.04321 -999
999999998571e-20 -.0046 0 -1 0 31 255 291 453 0 276 320 308 0 +-.03821 .02716 -.
0046 0 0 1 1 0 0 .005 30 316 541 0 318 308 317 0 +-.03969015280949815 8273865507
82232e-19 .001512 0 -1 0 16 318 76 319 ?321 325 323 316 0 0 1 30 317 542 0 322 3
16 324 0 +-.011106901614173 .028666214630414 .001512 1 0 0 16 322 91 326 ?330 32
7 328 317 0 0 1 30 324 543 0 329 317 332 0 +.01747634958115215 827386550782229e-
19 .001512 113441878050473e-30 -1 0 16 329 88 335 ?334 328 331 324 0 0 1 30 332
 544 0 325 324 333 0 +-.011106901614173 -.02850073732025755 .001512 1 0 0 16 325
 77 336 ?337 339 318 332 0 0 1 30 333 545 0 339 332 338 0 +-.011106901614173 .03
0666214630414 .001512 1 0 0 16 339 78 340 ?137 344 325 333 0 0 1 30 338 546 0 34
1 333 345 0 +-.04169015280949815 827386550782232e-19 .001512 0 -1 0 16 341 34 34
3 ?342 350 304 338 0 0 1 30 345 547 0 346 338 348 0 +-.011106901614173 -.0305007
3732025755 .001512 1 0 0 16 346 46 347 ?349 351 355 345 0 0 1 30 348 548 0 344 3
45 352 0 +.01947634958115215 827386550782232e-19 .001512 113441878050473e-30 -1
 0 16 344 80 353 ?143 354 339 348 0 0 1 30 352 596 0 356 348 360 0 +499999999997
908e-20 .03316 .0148 -1 -363150276274093e-30 0 16 356 594 358 ?131 357 359 352 0
 0 1 31 360 600 0 357 352 364 0 +.03822 .02716 .0148 0 0 1 1 0 0 .006 16 357 598
 365 ?133 362 356 360 0 0 1 30 364 604 0 362 360 363 0 +.04422 -999999999998225e
-20 .0148 0 1 0 16 362 602 361 ?128 368 357 364 0 0 1 31 363 608 0 368 364 370 0
 +.03822 -.02718 .0148 0 0 1 1 0 0 .006 16 368 606 366 ?122 369 362 363 0 0 1 30
 370 612 0 369 363 367 0 +.03822 -.03318 .0148 1 0 0 16 369 610 371 ?124 375 368
 370 0 0 1 31 367 616 0 375 370 373 0 +-.03821 -.02718 .0148 0 0 1 1 0 0 .006 16
 375 614 372 ?117 374 369 367 0 0 1 30 373 620 0 374 367 376 0 +-.04421 -.02718
 .0148 0 -1 0 16 374 618 380 ?114 378 375 373 0 0 1 31 376 623 0 378 373 377 0 +
-.03821 .02716 .0148 0 0 1 1 0 0 .006 16 378 621 379 ?381 385 374 376 0 0 1 30 3
77 632 0 385 376 382 0 +499999999999112e-20 -.02950073732025755 .0148 -1 0 0 16
 385 630 383 ?101 384 378 377 0 0 1 30 382 636 0 384 377 387 0 +-.04069015280949
815 -999999999998225e-20 .0148 0 1 0 16 384 634 390 ?100 389 385 382 0 0 1 30 38
7 640 0 389 382 386 0 +.01747634958115215 .02966621463041405 .0148 1 0 0 16 389
 638 388 ?94 391 384 387 0 0 1 30 386 643 0 391 387 392 0 +.01847634958115215 -.
02850073732025755 .0148 113441878050473e-30 -1 0 16 391 641 394 ?393 395 389 386
 0 0 1 30 392 656 0 395 386 399 0 +.01747634958115215 .028666214630414 .0138 -11
3441878050473e-30 1 0 16 395 654 396 ?400 398 391 392 0 0 1 30 399 665 0 398 392
 397 0 +-.03969015280949815 .028666214630414 .0138 -1 0 0 16 398 663 405 ?85 401
 395 399 0 0 1 30 397 674 0 401 399 403 0 +-.03969015280949815 827386550782232e-
19 .0138 0 -1 0 16 401 672 402 ?77 404 398 397 0 0 1 30 403 679 0 404 397 406 0
 +-.011106901614173 -.02850073732025755 .0138 1 0 0 16 404 677 410 ?89 407 401 4
03 0 0 1 31 406 692 0 407 403 408 0 --.03821 .02716 .0138 0 0 1 1 0 0 .007 16 40
7 690 409 ?411 415 404 406 0 0 1 30 408 701 0 415 406 413 0 +-.04521 .02716 .013
8 0 1 0 16 415 699 412 ?67 414 407 408 0 0 1 31 413 710 0 414 408 419 0 --.03821
 -.02718 .0138 0 0 1 1 0 0 .007 16 414 708 420 ?69 417 415 413 0 0 1 30 419 719
 0 417 413 418 0 +-.03821 -.03418 .0138 -1 0 0 16 417 717 416 ?62 423 414 419 0
 0 1 31 418 728 0 423 419 425 0 -.03822 -.02718 .0138 0 0 1 1 0 0 .007 16 423 72
6 421 ?59 424 417 418 0 0 1 30 425 737 0 424 418 422 0 +.04522 -999999999998571e
-20 .0138 0 -1 0 16 424 735 426 ?55 29 423 425 0 0 1 31 422 746 0 29 425 26 0 -.
03822 .02716 .0138 0 0 1 1 0 0 .007 16 29 744 430 ?45 11 424 422 0 0 1 30 26 751
 0 11 422 428 0 +49999999999904e-19 .03416 .0138 1 363150276274093e-30 0 30 428
 812 0 427 26 429 0 +.00864610380773293 -.01967049154683835 .00496975422658081 .
577350269189626 -.577350269189626 .577350269189625 16 427 792 431 ?104 435 22 42
8 0 0 1 30 429 811 0 435 428 433 0 -.00858427803768079 .0197741430869427 .004907
92845652867 .577350269189626 .577350269189626 .577350269189625 16 435 790 432 ?8
6 434 427 429 0 0 1 30 433 810 0 434 429 436 0 +-.0301623274843862 -.01897291199
514565 .004272174674888075 -.577350269189626 -.577350269189626 .577350269189625
 16 434 787 440 ?437 438 435 433 0 0 1 30 436 809 0 438 433 439 0 +-.02712510187
299875 .01610116369391465 .001234949063500626 .577350269189626 -.577350269189626
 -.577350269189625 16 438 784 442 ?445 444 434 436 0 0 1 30 439 909 0 441 436 44
3 0 +-.04521 .02716 .0138 .707106781186548 0 .707106781186547 16 441 869 446 ?10
8 447 0 439 0 0 1 30 443 908 0 447 439 449 0 +-.03821 .03316 .0148 0 .7071067811
86548 -.707106781186547 16 447 867 448 ?72 450 441 443 0 0 1 30 449 907 0 450 44
3 454 0 +-.04521 -.02718 .0138 .707106781186548 0 .707106781186547 16 450 864 45
1 ?455 453 447 449 0 0 1 30 454 906 0 453 449 452 0 +.03822 .03316 .0148 0 .7071
06781186548 -.707106781186547 16 453 861 460 ?456 458 450 454 0 0 1 30 452 905 0
 458 454 457 0 +-.03821 -.03418 .0138 0 .707106781186548 .707106781186547 16 458
 858 459 ?461 465 453 452 0 0 1 30 457 904 0 465 452 23 0 +.04422 .02716 .0148 .
707106781186548 0 -.707106781186547 16 465 855 462 ?463 464 458 457 0 0 1 30 23
 903 0 464 457 8 0 +.03822 -.03418 .0138 0 .707106781186548 .707106781186547 16
 464 852 466 ?470 22 465 23 0 0 1 81 1 466 1005 35 464 0 0 459 371 468 17 470 0
 467 469 474 119 475 464 0 0 +16 22 849 472 ?473 427 464 8 0 0 1 81 1 472 1012 3
5 22 0 0 412 462 471 17 473 0 478 480 476 43 479 22 0 0 +15 478 831 0 473 477 0
 17 480 0 478 481 473 34 55 424 0 463 -17 476 0 478 473 481 121 128 362 0 0 -17
 479 0 485 483 482 121 473 22 0 476 -15 485 829 0 475 20 0 17 483 0 485 475 479
 119 122 368 0 470 -17 482 0 485 479 475 43 59 423 0 473 -17 475 0 485 482 483 5
2 470 464 0 474 -17 59 0 484 243 486 52 482 423 0 490 +15 484 304 0 486 488 0 17
 243 0 484 487 59 226 490 489 0 491 +17 486 0 484 59 487 43 230 495 0 482 -17 49
0 0 492 62 493 52 243 489 0 475 -15 492 307 0 490 494 0 17 62 0 492 223 490 56 4
74 417 0 497 +17 493 0 492 490 223 226 500 359 0 0 +16 489 714 499 ?243 496 495
 498 0 0 1 81 1 499 1039 35 489 0 0 501 502 504 16 496 134 503 ?487 505 489 509
 0 0 1 16 495 723 506 ?230 489 510 508 0 0 1 30 498 423 0 489 312 508 0 +.03822
 -.03418 .0128 0 0 -1 31 312 420 0 307 507 498 0 +-.03821 -.02718 -.0046 0 0 1 1
 0 0 .005 30 508 424 0 495 498 515 0 +.04522 -.02718 .0128 0 0 -1 30 515 425 0 5
11 508 513 0 +.04522 .02716 .0128 0 0 -1 16 511 732 512 ?48 510 514 515 0 0 1 30
 513 426 0 514 515 516 0 -.03822 .03416 .0128 0 0 1 16 514 741 520 ?40 511 517 5
13 0 0 1 30 516 427 0 518 513 519 0 +-.03821 .03416 .0128 0 0 -1 16 518 683 521
 ?239 517 525 516 0 0 1 30 519 428 0 523 516 522 0 +-.04521 .02716 .0128 0 0 -1
 16 523 687 502 ?250 525 524 519 0 0 1 30 522 429 0 529 519 530 0 +-.04521 -.027
18 .0128 0 0 -1 16 529 696 527 ?254 524 327 522 0 0 1 30 530 430 0 505 522 528 0
 --.03821 -.03418 .0128 0 0 1 16 505 705 501 ?223 359 496 530 0 0 1 30 528 431 0
 328 530 526 0 +-.03969015280949815 .028666214630414 .0128 0 0 -1 16 328 660 533
 ?170 322 329 528 0 0 1 30 526 432 0 331 528 535 0 +.01747634958115215 .02866621
4630414 .0128 0 0 -1 16 331 647 531 ?163 329 354 526 0 0 1 30 535 433 0 354 526
 534 0 +.01747634958115215 -.02850073732025755 .0128 0 0 -1 16 354 651 532 ?159
 331 344 535 0 0 1 30 534 434 0 327 535 536 0 +-.03969015280949815 -.02850073732
025755 .0128 0 0 -1 16 327 669 540 ?154 529 322 534 0 0 1 30 536 439 0 359 534 5
09 0 +499999999999112e-20 -.03418 -.0046 1 0 0 16 359 137 538 ?493 356 505 536 0
 0 1 31 509 440 0 496 536 537 0 +.03822 -.02718 -.0046 0 0 1 1 0 0 .007 30 537 4
41 0 323 509 539 0 +.04522 -999999999998571e-20 -.0046 0 -1 0 16 323 75 541 ?545
 318 314 537 0 0 1 31 539 442 0 510 537 543 0 +.03822 .02716 -.0046 0 0 1 1 0 0
 .007 16 510 127 542 ?544 495 511 539 0 0 1 30 543 443 0 314 539 546 0 +49999999
999904e-19 .03416 -.0046 1 363150276274093e-30 0 16 314 74 550 ?547 323 307 543
 0 0 1 31 546 444 0 517 543 548 0 +-.03821 .02716 -.0046 0 0 1 1 0 0 .007 16 517
 120 549 ?552 514 518 546 0 0 1 30 548 445 0 525 546 555 0 +-.04521 -99999999999
8571e-20 -.0046 0 -1 0 16 525 117 554 ?551 518 523 548 0 0 1 31 555 446 0 524 54
8 553 0 +-.03821 -.02718 -.0046 0 0 1 1 0 0 .007 16 524 114 556 ?557 523 529 555
 0 0 1 30 553 448 0 559 555 558 0 +499999999999112e-20 -.03218 -.0046 1 0 0 16 5
59 62 306 ?265 560 564 553 0 0 1 31 558 449 0 560 553 561 0 +.03822 -.02718 -.00
46 0 0 1 1 0 0 .005 16 560 64 565 ?256 295 559 558 0 0 1 30 561 450 0 563 558 56
2 0 +.04322 -999999999998571e-20 -.0046 0 -1 0 16 563 14 313 ?570 566 568 561 0
 0 1 31 562 451 0 295 561 320 0 +.03822 .02716 -.0046 0 0 1 1 0 0 .005 16 295 66
 567 ?267 276 560 562 0 0 1 30 320 452 0 286 562 291 0 +499999999999112e-20 .032
16 -.0046 1 363150276274093e-30 0 16 286 22 569 ?289 571 575 320 0 0 1 81 1 569
 491 35 286 0 0 335 306 572 17 289 0 573 574 290 266 272 286 0 0 +16 571 24 576
 ?290 300 286 580 0 0 1 16 575 20 578 ?577 286 579 584 0 0 1 81 1 578 21 35 575
 0 0 585 576 582 17 577 0 583 581 190 266 574 575 0 289 +16 579 18 585 ?190 575
 566 588 0 0 1 30 584 328 0 575 590 580 0 +.03822 .03216 .0128 0 0 -1 30 590 327
 0 586 589 584 0 +499999999999112e-20 .03216 .0128 1 363150276274093e-30 0 30 58
0 329 0 571 584 305 0 +-.03821 .03216 .0128 0 0 -1 30 305 330 0 292 580 587 0 +-
.04321 .02716 .0128 0 0 -1 30 587 331 0 591 305 595 0 +-.04169015280949815 82738
6550782232e-19 .0128 0 -1 0 16 591 54 593 ?592 594 596 587 0 0 1 30 595 332 0 35
1 587 600 0 +-.04169015280949815 -.03050073732025755 .0128 0 0 -1 16 351 48 598
 ?597 599 346 595 0 0 1 30 600 333 0 350 595 601 0 +-.04169015280949815 .0306662
14630414 .0128 0 0 -1 16 350 36 605 ?602 603 341 600 0 0 1 30 601 334 0 604 600
 607 0 +.01947634958115215 .030666214630414 .0128 0 0 -1 16 604 40 610 ?609 606
 603 601 0 0 1 30 607 335 0 594 601 608 0 +-.011106901614173 -.03050073732025755
 .0128 1 0 0 16 594 56 611 ?612 586 591 607 0 0 1 30 608 336 0 355 607 614 0 +.0
1947634958115215 -.0305007373202576 .0128 0 0 -1 16 355 44 613 ?615 346 606 608
 0 0 1 30 614 337 0 304 608 619 0 +-.04321 -.02718 .0128 0 0 -1 16 304 32 616 ?2
85 341 301 614 0 0 1 30 619 338 0 603 614 620 0 +-.011106901614173 .030666214630
414 .0128 1 0 0 16 603 38 618 ?198 604 350 619 0 0 1 30 620 339 0 606 619 617 0
 +.01947634958115215 827386550782232e-19 .0128 113441878050473e-30 -1 0 16 606 4
2 625 ?194 355 604 620 0 0 1 30 617 340 0 444 620 621 0 +499999999999112e-20 -.0
3218 .0128 1 0 0 16 444 6 623 ?622 624 438 617 0 0 1 31 621 341 0 626 617 588 0
 +.03822 -.02718 .0128 0 0 1 1 0 0 .005 16 626 10 630 ?195 568 624 621 0 0 1 31
 588 342 0 579 621 627 0 +.03822 .02716 .0128 0 0 1 1 0 0 .005 31 627 343 0 300
 588 628 0 +-.03821 .02716 .0128 0 0 1 1 0 0 .005 16 300 26 629 ?181 292 571 627
 0 0 1 30 628 344 0 301 627 507 0 +-.04321 -999999999998571e-20 .0128 0 -1 0 16
 301 30 631 ?176 304 292 628 0 0 1 31 507 345 0 599 628 312 0 +-.03821 -.02718 .
0128 0 0 1 1 0 0 .005 16 599 50 635 ?171 596 351 507 0 0 1 81 1 635 51 35 599 0
 0 598 633 632 17 171 0 634 639 302 169 640 599 0 637 +16 596 52 633 ?639 591 59
9 638 0 0 1 81 1 633 53 35 596 0 0 635 593 636 17 639 0 634 309 171 222 637 596
 0 643 +30 638 322 0 596 0 645 0 +-.03821 -.03218 .0128 0 0 -1 30 645 323 0 624
 638 641 0 +.03822 -.03218 .0128 0 0 -1 16 624 8 644 ?642 626 444 645 0 0 1 30 6
41 324 0 564 645 646 0 +.04322 -999999999998571e-20 .0128 0 -1 0 16 564 60 650 ?
648 559 586 641 0 0 1 30 646 325 0 568 641 589 0 +.04322 -.02718 .0128 0 0 -1 16
 568 12 647 ?649 563 626 646 0 0 1 30 589 326 0 566 646 590 0 +.04322 .02716 .01
28 0 0 -1 16 566 16 651 ?655 579 563 589 0 0 1 81 1 651 17 35 566 0 0 647 585 65
3 17 655 0 652 570 654 259 215 566 0 581 +15 652 230 0 570 656 0 17 570 0 652 66
0 655 251 264 563 0 0 +17 654 0 652 655 660 187 648 564 0 0 -17 215 0 583 190 58
1 187 655 566 0 657 -17 581 0 583 215 577 259 267 295 0 0 -15 583 233 0 581 658
 0 17 267 0 280 272 264 266 581 295 0 577 +17 264 0 280 267 256 259 570 563 0 65
5 -17 256 0 280 264 265 251 659 560 0 649 +17 265 0 280 256 253 216 643 559 0 65
9 +17 659 0 662 665 649 216 256 560 0 642 -17 649 0 662 659 195 251 660 568 0 57
0 +15 662 227 0 659 664 0 17 195 0 662 649 665 188 214 626 0 660 +17 660 0 652 6
54 570 188 649 568 0 648 -17 648 0 661 214 657 188 654 564 0 0 +15 661 261 0 663
 666 0 17 214 0 661 663 648 172 195 626 0 622 -17 657 0 661 648 667 187 190 579
 0 654 -17 667 0 661 657 296 182 669 586 0 0 +17 190 0 583 577 215 182 657 579 0
 574 +17 574 0 573 669 289 182 577 575 0 667 -15 573 236 0 289 668 0 17 669 0 57
3 290 574 183 667 586 0 0 -17 290 0 573 289 669 269 207 571 0 279 +16 586 58 670
 ?667 564 594 590 0 0 1 81 1 670 59 35 586 0 0 611 650 674 80 7 CCCCCDI12 legal_
owners0 17 1 lCZ1 35 671 675 9000 0 0 0 0 3 6 0 0 0 FFTFTFTTFFFFFFFFF1 81 1 611
 57 35 594 0 0 593 670 673 81 1 650 61 35 564 0 0 670 191 672 82 255 3 674 17 13
 1 81 1 191 139 35 188 0 0 650 211 680 82 3 672 17 19 1 81 1 211 141 35 187 0 0
 191 186 676 82 3 680 17 15 0 81 1 186 143 35 182 0 0 211 208 678 82 3 676 17 13
 0 81 1 208 145 35 183 0 0 186 185 677 82 3 678 17 3 0 81 1 185 147 35 178 0 0 2
08 179 679 82 3 677 17 1 0 81 1 179 149 35 173 0 0 185 205 681 82 3 679 17 9 0 8
1 1 205 151 35 180 0 0 179 202 685 82 3 681 17 11 0 81 1 202 153 35 196 0 0 205
 197 682 82 3 685 17 21 0 81 1 197 155 35 199 0 0 202 192 683 82 3 682 17 17 0 8
1 1 192 157 35 174 0 0 197 168 684 82 3 683 17 19 0 81 1 168 159 35 169 0 0 192
 212 686 82 3 684 17 23 0 81 1 212 161 35 172 0 0 168 690 688 82 3 686 17 5 0 81
 1 690 223 35 17 0 687 212 689 694 82 3 688 17 7 0 14 255 17 222 687 ?664 0 695
 6 692 +0 0 664 0 25 81 1 687 1076 693 17 690 0 0 691 698 81 1 689 226 35 664 0
 691 690 700 696 82 3 694 17 3 2 14 664 225 691 ?656 17 662 6 699 +0 0 656 17 25
 81 1 691 1077 693 664 689 0 687 697 701 81 1 700 229 35 656 0 697 689 705 703 8
2 3 696 17 7 2 14 656 228 697 ?658 664 652 6 702 -0 0 658 664 25 81 1 697 1078 6
93 656 700 0 691 704 706 81 1 705 232 35 658 0 704 700 710 708 82 3 703 17 5 2 1
4 658 231 704 ?668 656 583 6 707 +0 0 668 656 25 81 1 704 1079 693 658 705 0 697
 709 711 81 1 710 235 35 668 0 709 705 715 712 82 3 708 17 8 2 14 668 234 709 ?2
94 658 573 6 713 -0 0 294 658 25 81 1 709 1080 693 668 710 0 704 714 717 81 1 71
5 238 35 294 0 714 710 720 719 82 3 712 17 0 2 14 294 237 714 ?303 668 288 6 716
 +0 0 303 668 25 81 1 714 1081 693 294 715 0 709 718 721 81 1 720 241 35 303 0 7
18 715 722 724 82 3 719 17 9 2 14 303 240 718 ?723 294 297 6 725 +0 0 723 294 25
 81 1 718 1082 693 303 720 0 714 729 726 81 1 722 244 35 723 0 729 720 730 728 8
2 3 724 17 4 2 14 723 243 729 ?727 303 735 6 731 -0 0 727 303 25 81 1 729 1083 6
93 723 722 0 718 733 732 81 1 730 247 35 727 0 733 722 734 736 82 3 728 17 12 2
 14 727 246 733 ?740 723 737 6 738 +0 0 740 723 25 81 1 733 1084 693 727 730 0 7
29 739 741 81 1 734 250 35 740 0 739 730 745 743 82 3 736 17 10 2 14 740 249 739
 ?742 727 744 6 749 +0 0 742 727 25 81 1 739 1085 693 740 734 0 733 750 747 81 1
 745 253 35 742 0 750 734 748 746 82 3 743 17 13 2 14 742 252 750 ?753 740 755 6
 751 -0 0 753 740 25 81 1 750 1086 693 742 745 0 739 754 752 81 1 748 256 35 753
 0 754 745 756 760 82 3 746 17 11 2 14 753 255 754 ?666 742 634 6 758 +0 0 666 7
42 25 81 1 754 1087 693 753 748 0 750 757 759 81 1 756 259 35 666 0 757 748 240
 761 82 3 760 17 6 2 14 666 258 757 ?281 753 765 6 763 -0 0 281 753 25 81 1 757
 1088 693 666 756 0 754 762 764 81 1 240 455 35 233 0 0 756 237 766 82 3 761 17
 2 2 81 1 237 456 35 236 0 0 240 221 770 82 3 766 18 0 0 81 1 221 457 35 160 0 0
 237 242 767 82 3 770 18 2 0 81 1 242 458 35 226 0 0 221 249 768 82 3 767 18 4 0
 81 1 249 459 35 248 0 0 242 246 769 82 3 768 18 6 0 81 1 246 460 35 241 0 0 249
 228 772 82 3 769 18 8 0 81 1 228 461 35 227 0 0 246 235 775 82 3 772 18 10 0 81
 1 235 462 35 234 0 0 228 167 774 82 3 775 18 12 0 81 1 167 463 35 144 0 0 235 1
62 771 82 3 774 18 14 0 81 1 162 464 35 161 0 0 167 152 773 82 3 771 18 16 0 81
 1 152 465 35 155 0 0 162 157 776 82 3 773 18 18 0 81 1 157 466 35 156 0 0 152 2
75 777 82 3 776 18 20 0 81 1 275 467 35 269 0 0 157 268 779 82 3 777 18 22 0 81
 1 268 468 35 266 0 0 275 252 778 82 3 779 18 24 0 81 1 252 469 35 222 0 0 268 2
61 780 82 3 778 18 25 0 81 1 261 470 35 216 0 0 252 273 784 82 3 780 18 26 0 82
 3 784 18 27 0 80 1 693 0 781 8001 0 0 0 0 3 5 0 0 0 FFFFTFTFFFFFFFFFF2 81 1 762
 1089 693 281 785 0 757 783 782 83 255 3 764 .615686274509804 .811764705882353 .
929411764705882 14 281 262 762 ?790 666 280 6 786 -0 0 790 666 25 81 1 785 503 3
5 281 0 762 353 788 787 81 1 783 1090 693 790 789 0 762 791 795 83 3 782 .615686
274509804 .811764705882353 .929411764705882 14 790 265 783 ?792 281 793 6 794 -0
 0 792 281 25 81 1 789 549 35 790 0 783 788 32 796 81 1 791 1091 693 792 800 0 7
83 798 797 83 3 795 .615686274509804 .811764705882353 .929411764705882 14 792 26
8 791 ?799 790 804 6 805 +0 0 799 790 25 81 1 800 1070 35 792 0 791 802 803 801
 81 1 798 1092 693 799 808 0 791 810 806 83 3 797 .615686274509804 .811764705882
353 .929411764705882 14 799 271 798 ?809 792 807 6 811 -0 0 809 792 25 81 1 808
 1072 35 799 0 798 803 0 815 81 1 810 1093 693 809 802 0 798 813 812 83 3 806 .6
15686274509804 .811764705882353 .929411764705882 14 809 274 810 ?814 799 816 6 8
20 -0 0 814 799 25 81 1 802 1069 35 809 0 810 818 800 817 81 1 813 1094 693 814
 803 0 810 819 821 83 3 812 .615686274509804 .811764705882353 .929411764705882 1
4 814 277 813 ?825 809 822 6 823 +0 0 825 809 25 81 1 803 1071 35 814 0 813 800
 808 824 81 1 819 1095 693 825 827 0 813 830 829 83 3 821 .615686274509804 .8117
64705882353 .929411764705882 14 825 280 819 ?826 814 828 6 831 +0 0 826 814 25 8
1 1 827 1060 35 825 0 819 832 834 833 81 1 830 1096 693 826 835 0 819 839 836 83
 3 829 .615686274509804 .811764705882353 .929411764705882 14 826 284 830 ?840 82
5 838 6 837 -0 0 840 825 25 81 1 835 1065 35 826 0 830 845 841 843 81 1 839 1097
 693 840 842 0 830 844 846 83 3 836 .615686274509804 .811764705882353 .929411764
705882 14 840 287 839 ?850 826 847 6 848 -0 0 850 826 25 81 1 842 1063 35 840 0
 839 849 845 851 81 1 844 1098 693 850 818 0 839 855 853 83 3 846 .6156862745098
04 .811764705882353 .929411764705882 14 850 290 844 ?852 840 854 6 859 -0 0 852
 840 25 81 1 818 1068 35 850 0 844 860 802 857 81 1 855 1099 693 852 834 0 844 8
58 856 83 3 853 .615686274509804 .811764705882353 .929411764705882 14 852 293 85
5 ?863 850 38 6 865 +0 0 863 850 25 81 1 834 1061 35 852 0 855 827 849 861 81 1
 858 1100 693 863 860 0 855 864 862 83 3 856 .615686274509804 .811764705882353 .
929411764705882 14 863 296 858 ?866 852 50 6 870 -0 0 866 852 25 81 1 860 1067 3
5 863 0 858 841 818 868 81 1 864 1101 693 866 845 0 858 867 869 83 3 862 .615686
274509804 .811764705882353 .929411764705882 14 866 299 864 ?488 863 871 6 875 +0
 0 488 863 25 81 1 845 1064 35 866 0 864 842 835 873 81 1 867 1102 693 488 841 0
 864 872 874 83 3 869 .615686274509804 .811764705882353 .929411764705882 14 488
 302 867 ?494 866 484 6 876 -0 0 494 866 25 81 1 841 1066 35 488 0 867 835 860 8
80 81 1 872 1103 693 494 849 0 867 877 878 83 3 874 .615686274509804 .8117647058
82353 .929411764705882 14 494 305 872 ?879 488 492 6 882 -0 0 879 488 25 81 1 84
9 1062 35 494 0 872 834 842 885 81 1 877 1104 693 879 884 0 872 881 883 83 3 878
 .615686274509804 .811764705882353 .929411764705882 14 879 771 877 ?886 494 887
 6 889 +0 0 886 494 25 81 1 884 1058 35 879 0 877 888 832 890 81 1 881 1105 693
 886 894 0 877 891 895 83 3 883 .615686274509804 .811764705882353 .9294117647058
82 14 886 773 881 ?893 879 892 6 900 +0 0 893 879 25 81 1 894 1056 35 886 0 881
 896 888 898 81 1 891 1106 693 893 888 0 881 897 899 83 3 895 .615686274509804 .
811764705882353 .929411764705882 14 893 775 891 ?901 886 905 6 902 +0 0 901 886
 25 81 1 888 1057 35 893 0 891 894 884 903 81 1 897 1107 693 901 832 0 891 904 9
06 83 3 899 .615686274509804 .811764705882353 .929411764705882 14 901 777 897 ?2
0 893 910 6 908 +0 0 20 893 25 81 1 832 1059 35 901 0 897 884 827 907 81 1 904 1
108 693 20 909 0 897 914 915 83 3 906 .615686274509804 .811764705882353 .9294117
64705882 14 20 828 904 ?477 901 485 6 7 +0 0 477 901 25 81 1 909 1053 35 20 0 90
4 912 913 911 81 1 914 1109 693 477 918 0 904 920 916 83 3 915 .615686274509804
 .811764705882353 .929411764705882 14 477 830 914 ?919 20 478 6 21 +0 0 919 20 2
5 81 1 918 1051 35 477 0 914 917 912 921 81 1 920 1110 693 919 925 0 914 923 922
 83 3 916 .615686274509804 .811764705882353 .929411764705882 14 919 832 920 ?924
 477 467 6 926 +0 0 924 477 25 81 1 925 1049 35 919 0 920 930 917 928 81 1 923 1
111 693 924 913 0 920 927 929 83 3 922 .615686274509804 .811764705882353 .929411
764705882 14 924 834 923 ?931 919 935 6 932 +0 0 931 919 25 81 1 913 1054 35 924
 0 923 909 896 933 81 1 927 1112 693 931 912 0 923 934 937 83 3 929 .61568627450
9804 .811764705882353 .929411764705882 14 931 836 927 ?940 924 939 6 936 +0 0 94
0 924 25 81 1 912 1052 35 931 0 927 918 909 938 81 1 934 1113 693 940 930 0 927
 941 942 83 3 937 .615686274509804 .811764705882353 .929411764705882 14 940 838
 934 ?944 931 943 6 945 +0 0 944 931 25 81 1 930 1048 35 940 0 934 532 925 949 8
1 1 941 1114 693 944 917 0 934 946 950 83 3 942 .615686274509804 .81176470588235
3 .929411764705882 14 944 840 941 ?948 940 947 6 955 +0 0 948 940 25 81 1 917 10
50 35 944 0 941 925 918 951 81 1 946 1115 693 948 896 0 941 0 953 83 3 950 .6156
86274509804 .811764705882353 .929411764705882 14 948 842 946 ?0 944 952 6 954 +0
 0 0 944 25 81 1 896 1055 35 948 0 946 913 894 956 83 3 953 .615686274509804 .81
1764705882353 .929411764705882 82 3 956 27 7 2 15 952 843 0 72 948 0 52 954 900
 960 948 889 955 0 +-.03821 .02716 .0148 0 0 -1 .006 .707106781186548 .707106781
186548 -1 0 0 13 25 4 0 0 0 0 0 0 10 17 81 2 960 901 957 954 0 0 958 0 959 961 5
0 255 889 801 965 879 900 954 0 --.03969015280949815 827386550782232e-19 .0138 -
.707106781186547 0 -.707106781186548 0 -1 0 50 955 898 958 944 954 945 0 +-.0442
1 -999999999998225e-20 .0148 -.707106781186547 0 .707106781186548 0 1 0 81 2 958
 899 957 955 0 0 963 960 962 964 50 945 896 963 940 955 936 0 -49999999999904e-1
9 .03416 .0138 256786022943179e-30 -.707106781186547 -.707106781186548 1 3631502
76274093e-30 0 81 2 963 897 957 945 0 0 969 958 970 967 52 936 894 969 931 945 9
32 0 +-.03821 -.02718 .0148 0 0 -1 .006 .707106781186548 .707106781186548 -1 0 0
 81 2 969 895 957 936 0 0 968 963 966 973 52 932 892 968 924 936 926 0 +.03822 .
02716 .0148 0 0 -1 .006 .707106781186548 .707106781186548 -1 0 0 81 2 968 893 95
7 932 0 0 975 969 971 974 50 926 890 975 919 932 21 0 +499999999999112e-20 -.033
18 .0148 0 -.707106781186547 .707106781186548 -1 0 0 81 2 975 891 957 926 0 0 97
2 968 976 980 50 21 888 972 477 926 7 0 -.04522 -999999999998571e-20 .0138 -.707
106781186547 0 -.707106781186548 0 -1 0 81 2 972 889 957 21 0 0 19 975 978 977 8
0 2 957 979 981 8044 0 0 0 0 3 5 0 0 0 FFFFTFFFTTFFFFFFF3 2 81 2 19 887 957 7 0
 0 985 972 983 982 84 255 6 978 BAOAAB83 3 977 0 .001414213562373094 .001 81 2 9
85 808 957 908 0 0 984 19 986 990 84 6 983 BAOAAB83 3 982 0 .001 .001 50 908 807
 985 901 794 902 0 +.01847634958115215 -999999999998015e-20 .0148 -.707106781186
547 -802155212400268e-31 .707106781186548 -113441878050473e-30 1 0 81 2 984 806
 957 902 0 0 987 985 988 989 84 6 986 BAOAAB83 3 990 -742693112167103e-33 .00141
4213562373096 .001 50 902 805 984 893 908 900 0 --.011106901614173 -.02850073732
025755 .0138 0 -.707106781186547 -.707106781186548 1 0 0 81 2 987 804 957 900 0
 0 965 984 992 995 84 6 988 BAOAAB83 3 989 0 .001414213562373094 .001 50 900 803
 987 886 902 889 0 +499999999999112e-20 .02966621463041405 .0148 0 -.70710678118
6547 .707106781186548 -1 0 0 81 2 965 802 957 889 0 0 0 987 994 991 84 6 992 BAO
AAB83 3 995 0 .001414213562373094 .001 84 6 994 BAOAAB83 3 991 0 .00141421356237
3094 .001 50 794 532 0 790 786 908 0 +0 0 .001512 0 0 1 1 0 0 50 786 418 0 281 8
37 794 0 +0 0 -.0046 0 0 1 1 0 0 51 255 837 417 0 826 805 786 0 --.03821 -.02718
 .0128 0 0 -1 .007 -1 0 0 50 805 416 0 792 811 837 0 +-.011106901614173 -.028500
73732025755 .0128 0 1 0 0 0 1 50 811 415 0 799 820 805 0 +.01747634958115215 827
386550782229e-19 .0128 1 113441878050473e-30 0 -113441878050473e-30 1 0 50 820 4
14 0 809 823 811 0 +-.011106901614173 .028666214630414 .0128 0 1 0 0 0 1 50 823
 413 0 814 848 820 0 +-.03969015280949815 827386550782232e-19 .0128 1 0 0 0 0 -1
 50 848 412 0 840 859 823 0 +-.04521 -999999999998571e-20 .0128 1 0 0 0 0 -1 51
 859 411 0 850 865 848 0 --.03821 .02716 .0128 0 0 -1 .007 -1 0 0 50 865 410 0 8
52 870 859 0 +49999999999904e-19 .03416 .0128 -363150276274093e-30 1 0 -1 -36315
0276274093e-30 0 51 870 409 0 863 875 865 0 -.03822 .02716 .0128 0 0 -1 .007 -1
 0 0 50 875 408 0 866 876 870 0 +.04522 -999999999998571e-20 .0128 1 0 0 0 0 -1
 51 876 407 0 488 882 875 0 -.03822 -.02718 .0128 0 0 -1 .007 -1 0 0 50 882 406
 0 494 831 876 0 +499999999999112e-20 -.03418 .0128 0 1 0 0 0 1 50 831 321 0 825
 692 882 0 +499999999999112e-20 -999999999998225e-20 .0148 0 0 1 1 0 0 50 692 32
0 0 17 699 831 0 +499999999999112e-20 -.03218 .0128 0 1 0 0 0 1 51 699 319 0 664
 702 692 0 -.03822 -.02718 .0128 0 0 -1 .005 -1 0 0 50 702 318 0 656 707 699 0 +
.04322 -999999999998571e-20 .0128 1 0 0 0 0 -1 51 707 317 0 658 713 702 0 -.0382
2 .02716 .0128 0 0 -1 .005 -1 0 0 50 713 316 0 668 716 707 0 +499999999999112e-2
0 .03216 .0128 -363150276274093e-30 1 0 -1 -363150276274093e-30 0 51 716 315 0 2
94 725 713 0 --.03821 .02716 .0128 0 0 -1 .005 -1 0 0 50 725 314 0 303 731 716 0
 +-.04321 -999999999998571e-20 .0128 1 0 0 0 0 -1 50 731 313 0 723 738 725 0 +-.
04169015280949815 827386550782232e-19 .0128 1 0 0 0 0 -1 50 738 312 0 727 749 73
1 0 +-.011106901614173 .030666214630414 .0128 0 1 0 0 0 1 50 749 311 0 740 751 7
38 0 +.01947634958115215 827386550782232e-19 .0128 1 113441878050473e-30 0 -1134
41878050473e-30 1 0 50 751 310 0 742 758 749 0 +-.011106901614173 -.030500737320
25755 .0128 0 1 0 0 0 1 51 758 309 0 753 763 751 0 --.03821 -.02718 .0128 0 0 -1
 .005 -1 0 0 50 763 308 0 666 0 758 0 +499999999999112e-20 -999999999998225e-20
 .0128 0 0 1 1 0 0 79 255 17 981 SDL/TYSA_BLEND_ID84 6 976 BAOAAB83 3 980 0 .001
414213562373094 .001 84 6 971 BAOAAB83 3 974 0 .001 .001 84 6 966 BAOAAB83 3 973
 0 .001 .001 84 6 970 BAOAAB83 3 967 1298053346011706e-33 .001414213562373094 .0
01 84 6 962 BAOAAB83 3 964 0 .001414213562373094 .001 84 6 959 BAOAAB83 3 961 0
 .001 .001 17 72 0 952 993 996 75 997 447 0 39 +17 993 0 952 108 72 66 411 407 0
 999 -17 996 0 952 72 108 127 381 378 0 0 -17 997 0 943 998 39 127 72 447 0 996
 -17 39 0 943 997 456 75 30 11 0 411 -15 943 839 0 456 940 0 17 456 0 943 39 998
 12 1000 453 0 0 +17 411 0 854 239 1004 75 993 407 0 36 +15 854 292 0 1004 850 0
 17 239 0 854 552 411 236 36 518 0 1001 +17 1004 0 854 411 552 66 250 523 0 993
 -17 36 0 38 30 1005 75 239 518 0 0 -15 38 295 0 36 852 0 17 1005 0 38 36 40 236
 547 314 0 0 -17 40 0 38 1005 30 233 37 514 0 547 +17 547 0 282 1003 1001 233 10
05 314 0 544 +15 282 264 0 1002 281 0 17 1003 0 282 545 547 234 544 510 0 1010 -
17 1001 0 282 547 1006 236 552 517 0 1005 -17 544 0 50 37 48 233 1003 510 0 0 +1
5 50 298 0 37 863 0 17 37 0 50 45 544 12 40 514 0 47 -17 48 0 50 544 45 234 49 5
11 0 1003 +17 49 0 871 55 1010 34 48 511 0 480 -15 871 301 0 49 866 0 17 55 0 87
1 230 49 43 480 424 0 486 +17 1010 0 871 49 230 234 545 323 0 0 -17 230 0 871 10
10 55 227 486 495 0 545 +17 545 0 282 491 1003 227 1010 323 0 487 +17 491 0 282
 500 545 226 487 496 0 493 -17 487 0 484 486 243 227 491 496 0 0 +17 500 0 282 1
002 491 160 493 359 0 557 -17 1002 0 282 1006 500 248 557 524 0 551 -17 557 0 83
8 497 254 160 1002 524 0 0 +15 838 286 0 497 826 0 17 497 0 838 69 557 56 223 50
5 0 1008 -17 254 0 838 557 69 248 1007 529 0 1002 +17 69 0 838 254 497 64 1009 4
14 0 1007 +17 1007 0 847 67 551 64 254 529 0 1011 -15 847 289 0 1007 840 0 17 67
 0 847 250 1007 66 1015 415 0 1004 +17 551 0 847 1007 250 248 1006 525 0 0 +17 1
011 0 939 1009 1012 64 455 450 0 1015 -15 939 837 0 461 931 0 17 1009 0 939 461
 1011 56 69 414 0 0 -17 1012 0 939 1011 461 109 117 375 0 455 -17 455 0 947 1013
 1015 109 1011 450 0 0 +17 1015 0 947 455 999 64 67 415 0 0 -15 947 841 0 455 94
4 0 17 999 0 947 1015 1013 66 108 441 0 0 -17 1013 0 947 999 455 106 114 374 0 3
81 -17 108 0 952 996 993 106 999 441 0 1013 +17 114 0 1014 117 381 109 1013 374
 0 1012 +17 381 0 1014 114 131 106 996 378 0 0 +15 1014 591 0 131 825 0 17 131 0
 1014 381 133 127 998 356 0 997 +17 133 0 1014 131 128 135 1016 357 0 1000 +17 9
98 0 943 456 997 135 131 356 0 0 -17 128 0 1014 133 122 130 476 362 0 481 +17 10
16 0 935 463 1000 130 133 357 0 0 -17 1000 0 935 1016 47 135 456 453 0 998 -15 9
35 835 0 463 924 0 17 47 0 935 1000 463 12 45 29 0 456 -17 463 0 935 47 1016 34
 481 465 0 0 +17 481 0 478 476 480 130 463 465 0 1016 -17 122 0 1014 128 124 121
 483 368 0 479 +17 124 0 1014 122 117 119 469 369 0 483 +17 117 0 1014 124 114 1
11 1012 375 0 469 +17 469 0 467 1008 470 111 124 369 0 461 -15 467 833 0 470 919
 0 17 1008 0 467 474 469 56 461 458 0 1009 -17 461 0 939 1012 1009 111 1008 458
 0 0 +17 474 0 467 470 1008 52 62 417 0 0 -17 250 0 847 551 67 241 1004 523 0 10
06 +17 1006 0 282 1001 1002 241 551 525 0 552 -17 552 0 854 1004 239 241 1001 51
7 0 0 +17 223 0 492 493 62 160 497 505 0 500 +82 3 951 27 2 2 81 1 532 1047 35 3
54 0 0 540 930 1020 82 3 949 27 0 2 81 1 540 1046 35 327 0 0 531 532 1018 82 3 1
020 27 47 1 81 1 531 1045 35 331 0 0 533 540 1017 82 3 1018 27 46 1 81 1 533 104
4 35 328 0 0 506 531 1019 82 3 1017 27 45 1 81 1 506 1043 35 495 0 0 512 533 102
4 82 3 1019 27 44 1 81 1 512 1042 35 511 0 0 527 506 1025 82 3 1024 27 43 1 81 1
 527 1041 35 529 0 0 502 512 1022 82 3 1025 27 42 1 81 1 502 1040 35 523 0 0 499
 527 1023 82 3 1022 27 41 1 82 3 1023 27 40 1 82 3 938 27 4 2 82 3 933 27 6 2 82
 3 928 27 1 2 82 3 921 27 3 2 82 3 911 27 5 2 82 3 907 27 11 2 15 910 778 0 86 9
01 0 17 86 0 910 1021 1028 90 1030 435 0 1026 +17 1021 0 910 104 86 83 400 395 0
 1029 -17 1028 0 910 86 104 93 393 391 0 0 -17 1030 0 892 1027 1026 93 86 435 0
 1028 -17 1026 0 892 1030 445 90 85 398 0 400 -15 892 774 0 445 886 0 17 445 0 8
92 1026 1027 78 1031 438 0 0 +17 85 0 816 170 1035 78 1026 398 0 1033 +17 400 0
 807 163 1032 90 1021 395 0 1035 +15 807 273 0 1032 799 0 17 163 0 807 334 400 1
61 1035 331 0 1034 +17 1032 0 807 400 334 83 159 354 0 1021 -17 1035 0 816 85 33
0 90 163 331 0 0 -15 816 276 0 1035 809 0 17 330 0 816 1035 170 161 1036 322 0 0
 +17 170 0 816 330 85 144 1033 328 0 1036 +17 1036 0 793 321 1034 144 330 322 0
 1040 -15 793 266 0 321 790 1038 17 321 0 793 337 1036 155 1040 318 0 1037 +17 1
034 0 793 1036 337 161 334 329 0 330 -17 1040 0 822 1033 154 144 321 318 0 0 -15
 822 279 0 1033 814 0 17 1033 0 822 77 1040 78 170 328 0 1039 -17 154 0 822 1040
 77 155 1041 327 0 321 +17 77 0 822 154 1033 74 1039 401 0 1041 +17 1041 0 804 8
9 1037 74 154 327 0 1045 -15 804 270 0 1041 792 0 17 89 0 804 159 1041 83 1042 4
04 0 1032 +17 1037 0 804 1041 159 155 337 325 0 0 -17 1045 0 887 1039 1043 74 43
7 434 0 1042 -15 887 772 0 1045 879 0 17 1039 0 887 1031 1045 78 77 401 0 445 -1
7 1043 0 887 1045 1031 98 100 384 0 437 -17 437 0 905 1044 1042 98 1045 434 0 0
 +17 1042 0 905 437 1029 74 89 404 0 0 -15 905 776 0 437 893 0 17 1029 0 905 104
2 1044 83 104 427 0 0 -17 1044 0 905 1029 437 105 101 385 0 393 -17 104 0 910 10
28 1021 105 1029 427 0 1044 +17 101 0 828 100 393 98 1044 385 0 1043 +17 393 0 8
28 101 94 105 1028 391 0 0 +15 828 627 0 94 825 1014 17 94 0 828 393 100 93 1027
 389 0 1030 +17 100 0 828 94 101 92 1043 384 0 1031 +17 1027 0 892 445 1030 92 9
4 389 0 0 -17 1031 0 887 1043 1039 92 445 438 0 1027 -17 159 0 804 1037 89 156 1
032 354 0 337 +17 337 0 793 1034 321 156 1037 325 0 334 +17 334 0 807 1032 163 1
56 1034 329 0 0 +15 1038 267 0 137 790 0 17 137 0 1038 143 151 136 1047 339 0 60
9 +17 143 0 1038 146 137 139 1050 344 0 615 +17 151 0 1038 137 146 134 342 341 0
 602 -17 1047 0 737 206 609 134 137 339 0 0 -17 609 0 737 1047 198 136 1049 604
 0 1050 +15 737 248 0 1047 727 0 17 198 0 737 609 206 199 1046 603 0 1049 +17 10
49 0 744 194 1050 199 609 604 0 1048 -17 1050 0 744 1049 615 136 143 344 0 0 -15
 744 251 0 1050 740 0 17 615 0 744 1050 194 139 1051 355 0 349 +17 194 0 744 615
 1049 174 1048 606 0 1051 +17 1051 0 755 1052 349 174 615 355 0 612 -17 349 0 75
5 1051 597 139 146 346 0 0 +15 755 254 0 349 742 0 17 597 0 755 349 1052 141 201
 351 0 342 +17 146 0 1038 151 143 141 349 346 0 597 -17 1052 0 755 597 1051 180
 612 594 0 0 -17 201 0 735 1054 342 180 597 351 0 592 -17 342 0 735 201 602 141
 151 341 0 0 +15 735 245 0 342 723 0 17 602 0 735 342 1054 134 206 350 0 1047 +1
7 1054 0 735 602 201 196 592 591 0 0 -17 206 0 737 198 1047 196 602 350 0 1046 -
17 1046 0 765 592 1048 196 198 603 0 1054 -15 765 260 0 592 666 661 17 592 0 765
 612 1046 180 1054 591 0 1052 +17 1048 0 765 1046 612 199 194 606 0 0 -17 612 0
 765 1048 592 174 1052 594 0 0 +82 3 903 27 9 2 82 3 898 27 8 2 82 3 890 27 10 2
 82 3 885 27 14 2 82 3 880 27 18 2 82 3 873 27 16 2 82 3 868 27 19 2 82 3 861 27
 13 2 82 3 857 27 20 2 82 3 851 27 15 2 82 3 843 27 17 2 82 3 833 27 12 2 82 3 8
24 27 23 2 82 3 817 27 21 2 82 3 815 27 24 2 82 3 801 27 22 2 81 1 788 529 35 1
 0 1053 785 789 1055 81 1 32 976 35 135 0 0 789 28 1059 82 3 796 21 0 2 82 3 105
9 27 0 0 81 1 1053 1073 1056 1 788 14 0 0 1060 82 3 1055 18 1 3 80 1 1056 1058 1
057 8038 0 0 0 0 0 0 0 0 0 TTTTTTTTTTTTTFTFT10 81 1 14 1074 1058 1 1053 2 0 0 10
65 98 255 3 1060 84 111 112 80 1 1058 1061 1063 8017 0 0 0 0 0 0 0 0 0 TTTTTTTTT
TTTTFTFT3 84 3 1065 Top79 13 1063 SDL/TYSA_NAME79 14 1057 SDL/TYSA_UNAME81 1 353
 502 35 344 0 0 343 785 1062 82 3 787 18 0 2 81 1 343 501 35 341 0 0 347 353 106
4 82 3 1062 18 35 1 81 1 347 500 35 346 0 0 340 343 1066 82 3 1064 18 34 1 81 1
 340 499 35 339 0 0 287 347 1070 82 3 1066 18 33 1 81 1 287 498 35 276 0 0 567 3
40 1067 82 3 1070 18 32 1 81 1 567 497 35 295 0 0 565 287 1068 82 3 1067 18 31 1
 81 1 565 496 35 560 0 0 311 567 1069 82 3 1068 18 30 1 81 1 311 495 35 307 0 0
 313 565 1071 82 3 1069 18 29 1 81 1 313 494 35 563 0 0 310 311 1075 82 3 1071 1
8 28 1 82 3 1075 18 27 1 79 15 781 SDL/TYSA_COLOUR83 3 759 .615686274509804 .811
764705882353 .929411764705882 15 634 257 0 309 753 0 17 309 0 634 302 639 220 25
3 307 0 0 -17 302 0 634 171 309 173 285 304 0 640 -17 253 0 280 265 219 222 309
 307 0 639 +17 640 0 661 298 663 173 171 599 0 0 -17 298 0 661 296 640 178 176 3
01 0 0 -17 663 0 661 640 214 169 622 444 0 0 -17 622 0 695 642 637 172 663 444 0
 665 +15 695 224 0 643 17 0 17 642 0 695 643 622 216 665 624 0 0 +17 637 0 695 6
22 643 169 639 596 0 663 -17 665 0 662 195 659 172 642 624 0 0 -17 643 0 695 637
 642 222 265 559 0 0 -17 296 0 661 667 298 183 181 300 0 669 -17 176 0 297 285 2
93 173 298 301 0 302 +83 3 752 .615686274509804 .811764705882353 .92941176470588
2 83 3 747 .615686274509804 .811764705882353 .929411764705882 83 3 741 .61568627
4509804 .811764705882353 .929411764705882 83 3 732 .615686274509804 .81176470588
2353 .929411764705882 83 3 726 .615686274509804 .811764705882353 .92941176470588
2 83 3 721 .615686274509804 .811764705882353 .929411764705882 83 3 717 .61568627
4509804 .811764705882353 .929411764705882 83 3 711 .615686274509804 .81176470588
2353 .929411764705882 83 3 706 .615686274509804 .811764705882353 .92941176470588
2 83 3 701 .615686274509804 .811764705882353 .929411764705882 83 3 698 .61568627
4509804 .811764705882353 .929411764705882 81 1 593 55 35 591 0 0 633 611 1073 82
 3 673 17 31 1 82 3 1073 17 33 1 79 9 675 BTI/DetId17 207 0 288 181 279 183 290
 571 0 296 -81 1 647 13 35 568 0 0 630 651 1072 81 1 585 19 35 579 0 0 651 578 1
074 82 3 653 17 6 1 82 3 1074 17 25 1 81 1 630 11 35 626 0 0 644 647 1079 82 3 1
072 17 7 1 81 1 644 9 35 624 0 0 623 630 1080 82 3 1079 17 23 1 81 1 623 7 35 44
4 0 0 0 644 1077 82 3 1080 17 3 1 82 3 1077 17 15 1 82 3 636 17 2 1 81 1 598 49
 35 351 0 0 613 635 1078 82 3 632 17 21 1 81 1 613 45 35 355 0 0 625 598 1076 82
 3 1078 17 10 1 81 1 625 43 35 606 0 0 610 613 1083 82 3 1076 17 11 1 81 1 610 4
1 35 604 0 0 618 625 1085 82 3 1083 17 35 1 81 1 618 39 35 603 0 0 605 610 1081
 82 3 1085 17 9 1 81 1 605 37 35 350 0 0 616 618 1084 82 3 1081 17 29 1 81 1 616
 33 35 304 0 0 631 605 1082 82 3 1084 17 8 1 81 1 631 31 35 301 0 0 299 616 1086
 82 3 1082 17 5 1 81 1 299 29 35 292 0 0 629 631 1090 82 3 1086 17 17 1 81 1 629
 27 35 300 0 0 576 299 1088 82 3 1090 17 4 1 81 1 576 25 35 571 0 0 578 629 1087
 82 3 1088 17 27 1 82 3 1087 17 0 1 82 3 582 17 1 1 81 1 335 490 35 329 0 0 319
 569 1089 81 1 306 492 35 559 0 0 569 310 1091 82 3 572 18 24 1 82 3 1091 18 25
 1 81 1 319 489 35 318 0 0 336 335 1095 82 3 1089 18 22 1 81 1 336 488 35 325 0
 0 326 319 1093 82 3 1095 18 20 1 81 1 326 487 35 322 0 0 549 336 1092 82 3 1093
 18 18 1 81 1 549 486 35 517 0 0 542 326 1094 82 3 1092 18 16 1 81 1 542 485 35
 510 0 0 503 549 1096 82 3 1094 18 14 1 81 1 503 484 35 496 0 0 556 542 1100 82
 3 1096 18 12 1 81 1 556 483 35 524 0 0 541 503 1097 82 3 1100 18 10 1 81 1 541
 482 35 323 0 0 554 556 1098 82 3 1097 18 8 1 81 1 554 481 35 525 0 0 538 541 10
99 82 3 1098 18 6 1 81 1 538 480 35 359 0 0 550 554 1102 82 3 1099 18 4 1 81 1 5
50 479 35 314 0 0 142 538 1105 82 3 1102 18 2 1 81 1 142 478 35 139 0 0 150 550
 1104 82 3 1105 18 0 1 81 1 150 477 35 141 0 0 138 142 1101 82 3 1104 18 35 0 81
 1 138 476 35 136 0 0 147 150 1103 82 3 1101 18 34 0 81 1 147 475 35 134 0 0 260
 138 1106 82 3 1103 18 33 0 81 1 260 474 35 251 0 0 262 147 1107 82 3 1106 18 32
 0 81 1 262 473 35 259 0 0 218 260 1109 82 3 1107 18 31 0 81 1 218 472 35 220 0
 0 273 262 1108 82 3 1109 18 30 0 82 3 1108 18 29 0 81 1 501 1038 35 505 0 0 520
 499 1110 81 1 520 1037 35 514 0 0 521 501 1114 82 3 1110 27 38 1 81 1 521 1036
 35 518 0 0 396 520 1111 82 3 1114 27 37 1 81 1 396 1035 35 395 0 0 394 521 1115
 82 3 1111 27 36 1 81 1 394 1034 35 391 0 0 402 396 1113 82 3 1115 27 35 1 81 1
 402 1033 35 401 0 0 390 394 1112 82 3 1113 27 34 1 81 1 390 1032 35 384 0 0 410
 402 1120 82 3 1112 27 33 1 81 1 410 1031 35 404 0 0 383 390 1116 82 3 1120 27 3
2 1 81 1 383 1030 35 385 0 0 431 410 1118 82 3 1116 27 31 1 81 1 431 1029 35 427
 0 0 440 383 1117 82 3 1118 27 30 1 81 1 440 1028 35 434 0 0 405 431 1119 82 3 1
117 27 29 1 81 1 405 1027 35 398 0 0 388 440 1121 82 3 1119 27 28 1 81 1 388 102
6 35 389 0 0 432 405 1125 82 3 1121 27 27 1 81 1 432 1025 35 435 0 0 442 388 112
2 82 3 1125 27 26 1 81 1 442 1024 35 438 0 0 409 432 1123 82 3 1122 27 25 1 81 1
 409 1023 35 407 0 0 379 442 1124 82 3 1123 27 24 1 81 1 379 1022 35 378 0 0 430
 409 1126 82 3 1124 27 23 1 81 1 430 1021 35 29 0 0 365 379 1130 82 3 1126 27 22
 1 81 1 365 1020 35 357 0 0 421 430 1128 82 3 1130 27 21 1 81 1 421 1019 35 423
 0 0 366 365 1127 82 3 1128 27 20 1 81 1 366 1018 35 368 0 0 420 421 1129 82 3 1
127 27 19 1 81 1 420 1017 35 414 0 0 372 366 1134 82 3 1129 27 18 1 81 1 372 101
6 35 375 0 0 426 420 1135 82 3 1134 27 17 1 81 1 426 1015 35 424 0 0 361 372 113
2 82 3 1135 27 16 1 81 1 361 1014 35 362 0 0 462 426 1133 82 3 1132 27 15 1 81 1
 462 1013 35 465 0 0 472 361 1131 82 3 1133 27 14 1 82 3 1131 27 13 1 82 3 504 2
7 39 1 81 1 412 1011 35 415 0 0 380 472 1138 82 3 471 27 12 1 81 1 380 1010 35 3
74 0 0 446 412 1140 82 3 1138 27 11 1 81 1 446 1009 35 441 0 0 451 380 1136 82 3
 1140 27 10 1 81 1 451 1008 35 450 0 0 416 446 1139 82 3 1136 27 9 1 81 1 416 10
07 35 417 0 0 371 451 1137 82 3 1139 27 8 1 81 1 371 1006 35 369 0 0 466 416 114
1 82 3 1137 27 7 1 82 3 1141 27 6 1 81 1 459 1004 35 458 0 0 27 466 1145 82 3 46
8 27 5 1 81 1 27 1003 35 11 0 0 358 459 1143 82 3 1145 27 4 1 81 1 358 1002 35 3
56 0 0 448 27 1142 82 3 1143 27 3 1 81 1 448 1001 35 447 0 0 460 358 1144 82 3 1
142 27 2 1 81 1 460 1000 35 453 0 0 84 448 1146 82 3 1144 27 1 1 81 1 84 999 35
 83 0 0 102 460 1150 82 3 1146 27 0 1 81 1 102 998 35 105 0 0 80 84 1148 82 3 11
50 27 23 0 81 1 80 997 35 74 0 0 99 102 1147 82 3 1148 27 22 0 81 1 99 996 35 98
 0 0 88 80 1149 82 3 1147 27 21 0 81 1 88 995 35 90 0 0 91 99 1151 82 3 1149 27
 20 0 81 1 91 994 35 93 0 0 81 88 1155 82 3 1151 27 19 0 81 1 81 993 35 78 0 0 4
4 91 1152 82 3 1155 27 18 0 81 1 44 992 35 92 0 0 41 81 1153 82 3 1152 27 17 0 8
2 3 1153 27 16 0 82 3 315 18 26 1 82 3 277 18 28 0 81 1 33 978 35 127 0 0 28 73
 1154 81 1 73 979 35 75 0 0 33 116 1157 82 3 1154 27 2 0 81 1 116 980 35 111 0 0
 73 61 1160 82 3 1157 27 3 0 81 1 61 981 35 56 0 0 116 120 1159 82 3 1160 27 4 0
 81 1 120 982 35 119 0 0 61 60 1156 82 3 1159 27 5 0 81 1 60 983 35 52 0 0 120 1
15 1158 82 3 1156 27 6 0 81 1 115 984 35 109 0 0 60 65 1161 82 3 1158 27 7 0 81
 1 65 985 35 64 0 0 115 107 1162 82 3 1161 27 8 0 81 1 107 986 35 106 0 0 65 68
 1164 82 3 1162 27 9 0 81 1 68 987 35 66 0 0 107 123 1163 82 3 1164 27 10 0 81 1
 123 988 35 121 0 0 68 51 1165 82 3 1163 27 11 0 81 1 51 989 35 43 0 0 123 42 11
69 82 3 1165 27 12 0 81 1 42 990 35 130 0 0 51 41 1166 82 3 1169 27 13 0 82 3 11
66 27 14 0 82 3 46 27 15 0 82 3 31 27 1 0 19 18 1 0 1 0 10 6 0 S0 74 4 CI16 inde
x_map_offset0 0 1 dCCZ20 16 6 0 0 808 960 1053 14 2 946 0 0 0 0 0 0 0 0 0 0 0 0
 0 0 80 1 13 693 1170 8040 0 0 0 0 3 5 0 0 0 TTTFFFFFFFFFFFFFF2 83 3 15 .6156862
74509804 .811764705882353 .929411764705882 79 17 1170 SDL/TYSA_COLOUR_21 0 
