**ABCDEFGHIJKLMNOPQRSTUVWXYZabcdefghijklmnopqrstuvwxyz**************************
**PARASOLID !"#$%&'()*+,-./:;<=>?@[\]^_`{|}~0123456789**************************
**PART1;
MC=unknown;
MC_MODEL=unknown;
MC_ID=unknown;
OS=unknown;
OS_RELEASE=unknown;
FRU=Parasolid 37.1.212;
APPL=Onshape;
SITE=unknown;
USER=unknown;
FORMAT=text;
GUISE=transmit;
KEY=BTGapi::writeModels_.xmt;
FILE=BTGapi::writeModels_.xmt;
DATE=2026-04-23T08:39:03 (UTC);
**PART2;
SCH=SCH_3701212_37102;
USFLD_SIZE=0;
**PART3;
**END_OF_HEADER*****************************************************************
T51 : TRANSMIT FILE created by modeller version 370121223 SCH_3701212_37102_1300
6239 0 12 36 CCCI7 lattice222 0 CCCI4 mesh1006 0 I8 polyline1008 0 CCCCCCCDI5 ow
ner1040 0 CCCI16 boundary_lattice222 0 CCCI13 boundary_mesh1006 0 I17 boundary_p
olyline1008 0 CCCA16 index_map_offset0 0 1 dA9 index_map82 0 A17 node_id_index_m
ap82 0 A20 schema_embedding_map82 0 A5 child12 0 A14 lowest_node_id0 0 1 dA16 me
sh_offset_data206 0 Z1 1826 2 3 0 0 0 0 0 0 0 1e3 1e-8 0 4 5 1 0 1 2 6 0 7 8 9 0
 0 10 11 12 0 0 0 0 0 0 0 81 255 1 2 1786 13 1 14 0 0 0 15 70 11 CI9 list_type0
 0 1 uI10 notransmit0 0 1 lCCCDCCDI12 finger_index0 0 1 dI12 finger_block1012 0
 CZ3 0 4 T1 0 0 6 20 1 16 16 13 255 6 5 0 1 0 17 0 0 18 0 52 255 7 886 19 20 21
 0 0 +.03822 -.02718 .0148 0 0 -1 .006 .707106781186548 .707106781186548 -1 0 0
 30 255 8 902 0 22 23 0 0 +.04422 -.02718 .0148 .707106781186548 0 -.70710678118
6547 29 255 9 743 0 12 24 0 .03822 .03416 .0138 19 9 CCCCCCI5 frame230 0 CA5 own
er12 0 Z10 3 0 1 18 0 25 0 V0 16 255 11 749 27 ?30 0 29 26 0 0 1 18 255 12 740 2
8 30 0 34 9 ?1 81 1 28 977 35 12 0 0 32 33 31 17 255 30 0 38 40 36 12 39 11 0 37
 +18 34 731 41 45 12 43 24 ?1 81 1 41 991 35 34 0 0 42 44 46 17 45 0 50 48 37 34
 47 29 0 49 +18 43 722 51 55 34 52 53 ?1 29 24 734 0 34 53 9 .04522 .02716 .0138
 29 53 725 0 43 54 24 .04522 -.02718 .0138 29 54 716 0 52 57 53 .03822 -.03418 .
0138 18 52 713 60 59 43 56 54 ?1 29 57 707 0 56 58 54 -.03821 -.03418 .0138 18 5
6 704 61 62 52 64 57 ?1 29 58 698 0 64 63 57 -.04521 -.02718 .0138 18 64 695 65
 69 56 66 58 ?1 29 63 689 0 66 70 58 -.04521 .02716 .0138 18 66 686 68 67 64 75
 63 ?1 29 70 685 0 75 71 63 -.03821 .03416 .0138 18 75 682 73 72 66 74 70 ?1 29
 71 671 0 74 76 70 -.03969015280949815 -.02850073732025755 .0138 18 74 668 80 77
 75 78 71 ?1 29 76 662 0 78 79 71 -.03969015280949815 .028666214630414 .0138 18
 78 659 81 85 74 83 76 ?1 29 79 653 0 83 82 76 .01747634958115215 -.028500737320
25755 .0138 18 83 650 84 89 78 90 79 ?1 29 82 649 0 90 87 79 .01747634958115215
 .028666214630414 .0138 18 90 646 88 86 83 93 82 ?1 29 87 639 0 93 95 82 .018476
34958115215 .02966621463041405 .0148 18 93 637 91 94 90 92 87 ?1 29 95 635 0 92
 96 87 -.04069015280949815 .02966621463041405 .0148 18 92 633 44 100 93 98 95 ?1
 29 96 631 0 98 97 95 -.04069015280949815 -.02950073732025755 .0148 18 98 629 99
 101 92 105 96 ?1 29 97 628 0 105 103 96 .01847634958115215 -.02950073732025755
 .0148 18 105 626 102 104 98 106 97 ?1 29 103 619 0 106 110 97 -.04421 .02716 .0
148 18 106 617 107 108 105 109 103 ?1 29 110 615 0 109 112 103 -.04421 -.02718 .
0148 18 109 613 115 114 106 111 110 ?1 29 112 611 0 111 113 110 -.03821 -.03318
 .0148 18 111 609 116 117 109 119 112 ?1 29 113 607 0 119 118 112 .03822 -.03318
 .0148 18 119 605 120 124 111 121 113 ?1 29 118 603 0 121 125 113 .04422 -.02718
 .0148 18 121 601 123 122 119 130 118 ?1 29 125 599 0 130 126 118 .04422 .02716
 .0148 18 130 597 42 128 121 127 125 ?1 29 126 595 0 127 129 125 -.03821 .03316
 .0148 18 127 593 33 131 130 135 126 ?1 29 129 592 0 135 132 126 .03822 .03316 .
0148 18 135 590 32 133 127 134 129 ?1 29 132 540 0 136 140 129 .0194763495811521
5 .030666214630414 .001512 18 136 190 138 137 139 144 132 ?1 29 140 539 0 139 14
5 132 .01947634958115215 -.0305007373202576 .001512 18 139 192 142 143 141 136 1
40 ?1 29 145 538 0 141 148 140 -.04169015280949815 -.03050073732025755 .001512 1
8 141 194 150 146 134 139 145 ?1 29 148 537 0 134 149 145 -.04169015280949815 .0
30666214630414 .001512 18 134 196 147 151 135 141 148 ?1 29 149 536 0 155 153 14
8 -.03969015280949815 -.02850073732025755 .001512 18 155 186 152 154 156 160 149
 ?1 29 153 535 0 156 158 149 .01747634958115215 -.02850073732025755 .001512 18 1
56 187 157 159 161 155 153 ?1 29 158 534 0 161 165 153 .01747634958115215 .02866
6214630414 .001512 18 161 188 162 163 144 156 158 ?1 29 165 533 0 144 164 158 -.
03969015280949815 .028666214630414 .001512 18 144 189 167 170 136 161 165 ?1 29
 164 393 0 169 166 165 -.03821 -.03218 .0128 18 169 158 168 171 172 174 164 ?1 2
9 166 392 0 173 175 164 -.04321 -.02718 .0128 18 173 148 179 176 180 178 166 ?1
 29 175 391 0 178 177 166 -.04321 .02716 .0128 18 178 146 185 181 173 183 175 ?1
 29 177 390 0 182 184 175 .03822 .03216 .0128 18 182 142 186 190 183 187 177 ?1
 29 184 389 0 188 189 177 .04322 -.02718 .0128 18 188 138 191 195 187 0 184 ?1 2
9 189 388 0 174 193 184 .01947634958115215 -.0305007373202576 .0128 18 174 156 1
92 194 169 199 189 ?1 29 193 387 0 199 200 189 .01947634958115215 .0306662146304
14 .0128 18 199 154 197 198 174 196 193 ?1 29 200 386 0 180 203 193 -.0416901528
0949815 -.03050073732025755 .0128 18 180 150 205 201 196 173 200 ?1 29 203 385 0
 196 204 200 -.04169015280949815 .030666214630414 .0128 18 196 152 202 206 199 1
80 203 ?1 29 204 384 0 183 210 203 -.03821 .03216 .0128 18 183 144 208 207 178 1
82 204 ?1 29 210 383 0 187 209 204 .04322 .02716 .0128 18 187 140 211 215 182 18
8 210 ?1 29 209 382 0 172 213 210 .03822 -.03218 .0128 18 172 160 212 214 216 16
9 209 ?1 29 213 381 0 220 217 209 -.04321 -.02718 -.0046 18 220 174 218 219 222
 225 213 ?1 29 217 379 0 160 224 213 -.03821 -.03418 -.0046 18 160 185 221 223 1
55 226 217 ?1 29 224 377 0 227 229 217 .04522 -.02718 -.0046 18 227 183 228 230
 226 234 224 ?1 29 229 376 0 234 231 224 .04522 .02716 -.0046 18 234 182 235 48
 227 233 229 ?1 29 231 375 0 233 232 229 .03822 .03416 -.0046 18 233 181 240 40
 234 236 231 ?1 29 232 374 0 236 238 231 -.03821 .03416 -.0046 18 236 180 237 23
9 233 241 232 ?1 29 238 373 0 226 245 232 .03822 -.03418 -.0046 18 226 184 242 2
43 160 227 238 ?1 29 245 372 0 241 244 238 -.04521 .02716 -.0046 18 241 179 246
 250 236 248 245 ?1 29 244 371 0 248 247 245 -.04521 -.02718 -.0046 18 248 178 2
49 254 241 222 244 ?1 29 247 370 0 222 255 244 -.03821 -.03218 -.0046 18 222 176
 252 253 248 220 247 ?1 29 255 369 0 251 258 247 .04322 -.02718 -.0046 18 251 16
4 260 256 259 216 255 ?1 29 258 368 0 216 257 255 .03822 -.03218 -.0046 18 216 1
62 261 265 251 172 258 ?1 29 257 367 0 259 263 258 .04322 .02716 -.0046 18 259 1
66 262 264 266 251 257 ?1 29 263 366 0 266 270 257 .03822 .03216 -.0046 18 266 1
68 268 267 269 259 263 ?1 29 270 365 0 269 271 263 -.03821 .03216 -.0046 18 269
 170 275 272 225 266 270 ?1 29 271 364 0 225 0 270 -.04321 .02716 -.0046 18 225
 172 273 274 220 269 271 ?1 81 1 273 471 35 225 0 0 261 218 277 17 274 0 280 279
 181 225 276 278 0 281 +15 255 280 1176 0 274 282 0 17 279 0 280 207 274 269 281
 284 0 0 -17 181 0 280 274 207 178 283 285 0 276 +17 276 0 289 176 286 178 274 2
78 0 290 -16 278 28 288 ?274 287 285 295 0 0 1 17 281 0 291 293 292 225 279 284
 0 286 +15 291 263 0 294 296 300 17 293 0 291 297 281 220 286 298 0 299 +17 292
 0 291 281 301 269 305 303 0 279 -16 284 68 302 ?281 298 304 309 0 0 1 17 286 0
 289 276 219 225 293 298 0 0 -15 289 1165 0 219 310 0 17 219 0 289 286 176 220 3
07 308 0 293 +16 298 70 306 ?293 313 284 315 0 0 1 81 1 306 493 35 298 0 0 311 3
14 312 16 313 72 316 ?297 320 298 318 0 0 1 30 315 454 0 298 309 317 0 +-.04321
 -999999999998571e-20 -.0046 0 -1 0 31 255 309 453 0 284 319 315 0 +-.03821 .027
16 -.0046 0 0 1 1 0 0 .005 30 317 541 0 321 315 325 0 +-.03969015280949815 82738
6550782232e-19 .001512 0 -1 0 16 321 76 323 ?322 324 326 317 0 0 1 30 325 542 0
 330 317 327 0 +-.011106901614173 .028666214630414 .001512 1 0 0 16 330 91 328 ?
329 332 335 325 0 0 1 30 327 543 0 334 325 331 0 +.01747634958115215 82738655078
2229e-19 .001512 113441878050473e-30 -1 0 16 334 88 333 ?336 335 337 327 0 0 1 3
0 331 544 0 324 327 339 0 +-.011106901614173 -.02850073732025755 .001512 1 0 0 1
6 324 77 338 ?340 344 321 331 0 0 1 30 339 545 0 344 331 341 0 +-.01110690161417
3 .030666214630414 .001512 1 0 0 16 344 78 345 ?137 343 324 339 0 0 1 30 341 546
 0 342 339 350 0 +-.04169015280949815 827386550782232e-19 .001512 0 -1 0 16 342
 34 346 ?348 347 308 341 0 0 1 30 350 547 0 349 341 351 0 +-.011106901614173 -.0
3050073732025755 .001512 1 0 0 16 349 46 355 ?352 353 354 350 0 0 1 30 351 548 0
 343 350 356 0 +.01947634958115215 827386550782232e-19 .001512 113441878050473e-
30 -1 0 16 343 80 360 ?143 358 344 351 0 0 1 30 356 596 0 357 351 359 0 +4999999
99997908e-20 .03316 .0148 -1 -363150276274093e-30 0 16 357 594 364 ?131 365 362
 356 0 0 1 31 359 600 0 365 356 363 0 +.03822 .02716 .0148 0 0 1 1 0 0 .006 16 3
65 598 361 ?133 368 357 359 0 0 1 30 363 604 0 368 359 370 0 +.04422 -9999999999
98225e-20 .0148 0 1 0 16 368 602 366 ?128 369 365 363 0 0 1 31 370 608 0 369 363
 367 0 +.03822 -.02718 .0148 0 0 1 1 0 0 .006 16 369 606 371 ?122 375 368 370 0
 0 1 30 367 612 0 375 370 373 0 +.03822 -.03318 .0148 1 0 0 16 375 610 372 ?124
 374 369 367 0 0 1 31 373 616 0 374 367 376 0 +-.03821 -.02718 .0148 0 0 1 1 0 0
 .006 16 374 614 380 ?117 378 375 373 0 0 1 30 376 620 0 378 373 377 0 +-.04421
 -.02718 .0148 0 -1 0 16 378 618 379 ?114 381 374 376 0 0 1 31 377 623 0 381 376
 385 0 +-.03821 .02716 .0148 0 0 1 1 0 0 .006 16 381 621 382 ?383 384 378 377 0
 0 1 30 385 632 0 384 377 387 0 +499999999999112e-20 -.02950073732025755 .0148 -
1 0 0 16 384 630 390 ?101 389 381 385 0 0 1 30 387 636 0 389 385 386 0 +-.040690
15280949815 -999999999998225e-20 .0148 0 1 0 16 389 634 388 ?100 391 384 387 0 0
 1 30 386 640 0 391 387 392 0 +.01747634958115215 .02966621463041405 .0148 1 0 0
 16 391 638 394 ?94 393 389 386 0 0 1 30 392 643 0 393 386 395 0 +.0184763495811
5215 -.02850073732025755 .0148 113441878050473e-30 -1 0 16 393 641 399 ?396 400
 391 392 0 0 1 30 395 656 0 400 392 398 0 +.01747634958115215 .028666214630414 .
0138 -113441878050473e-30 1 0 16 400 654 397 ?405 401 393 395 0 0 1 30 398 665 0
 401 395 403 0 +-.03969015280949815 .028666214630414 .0138 -1 0 0 16 401 663 402
 ?85 404 400 398 0 0 1 30 403 674 0 404 398 406 0 +-.03969015280949815 827386550
782232e-19 .0138 0 -1 0 16 404 672 410 ?77 407 401 403 0 0 1 30 406 679 0 407 40
3 408 0 +-.011106901614173 -.02850073732025755 .0138 1 0 0 16 407 677 409 ?89 41
1 404 406 0 0 1 31 408 692 0 411 406 415 0 --.03821 .02716 .0138 0 0 1 1 0 0 .00
7 16 411 690 413 ?412 414 407 408 0 0 1 30 415 701 0 414 408 419 0 +-.04521 .027
16 .0138 0 1 0 16 414 699 420 ?67 417 411 415 0 0 1 31 419 710 0 417 415 418 0 -
-.03821 -.02718 .0138 0 0 1 1 0 0 .007 16 417 708 416 ?69 423 414 419 0 0 1 30 4
18 719 0 423 419 425 0 +-.03821 -.03418 .0138 -1 0 0 16 423 717 421 ?62 424 417
 418 0 0 1 31 425 728 0 424 418 422 0 -.03822 -.02718 .0138 0 0 1 1 0 0 .007 16
 424 726 426 ?59 430 423 425 0 0 1 30 422 737 0 430 425 428 0 +.04522 -999999999
998571e-20 .0138 0 -1 0 16 430 735 427 ?55 29 424 422 0 0 1 31 428 746 0 29 422
 26 0 -.03822 .02716 .0138 0 0 1 1 0 0 .007 16 29 744 429 ?45 11 430 428 0 0 1 3
0 26 751 0 11 428 431 0 +49999999999904e-19 .03416 .0138 1 363150276274093e-30 0
 30 431 812 0 435 26 433 0 +.00864610380773293 -.01967049154683835 .004969754226
58081 .577350269189626 -.577350269189626 .577350269189625 16 435 792 432 ?104 43
4 22 431 0 0 1 30 433 811 0 434 431 436 0 -.00858427803768079 .0197741430869427
 .00490792845652867 .577350269189626 .577350269189626 .577350269189625 16 434 79
0 440 ?86 437 435 433 0 0 1 30 436 810 0 437 433 438 0 +-.0301623274843862 -.018
97291199514565 .004272174674888075 -.577350269189626 -.577350269189626 .57735026
9189625 16 437 787 439 ?442 445 434 436 0 0 1 30 438 809 0 445 436 444 0 +-.0271
2510187299875 .01610116369391465 .001234949063500626 .577350269189626 -.57735026
9189626 -.577350269189625 16 445 784 441 ?443 446 437 438 0 0 1 30 444 909 0 447
 438 449 0 +-.04521 .02716 .0138 .707106781186548 0 .707106781186547 16 447 869
 448 ?108 450 0 444 0 0 1 30 449 908 0 450 444 454 0 +-.03821 .03316 .0148 0 .70
7106781186548 -.707106781186547 16 450 867 451 ?72 455 447 449 0 0 1 30 454 907
 0 455 449 453 0 +-.04521 -.02718 .0138 .707106781186548 0 .707106781186547 16 4
55 864 452 ?460 456 450 454 0 0 1 30 453 906 0 456 454 458 0 +.03822 .03316 .014
8 0 .707106781186548 -.707106781186547 16 456 861 457 ?459 461 455 453 0 0 1 30
 458 905 0 461 453 465 0 +-.03821 -.03418 .0138 0 .707106781186548 .707106781186
547 16 461 858 462 ?463 464 456 458 0 0 1 30 465 904 0 464 458 23 0 +.04422 .027
16 .0148 .707106781186548 0 -.707106781186547 16 464 855 466 ?470 468 461 465 0
 0 1 30 23 903 0 468 465 8 0 +.03822 -.03418 .0138 0 .707106781186548 .707106781
186547 16 468 852 467 ?469 22 464 23 0 0 1 81 1 467 1005 35 468 0 0 462 372 474
 17 469 0 475 472 473 119 471 468 0 0 +16 22 849 478 ?480 435 468 8 0 0 1 81 1 4
78 1012 35 22 0 0 420 466 476 17 480 0 479 477 481 43 485 22 0 0 +15 479 831 0 4
80 483 0 17 477 0 479 482 480 34 55 430 0 470 -17 481 0 479 480 482 121 128 368
 0 0 -17 485 0 484 486 490 121 480 22 0 481 -15 484 829 0 471 20 0 17 486 0 484
 471 485 119 122 369 0 469 -17 490 0 484 485 471 43 59 424 0 480 -17 471 0 484 4
90 486 52 469 468 0 473 -17 59 0 488 243 487 52 490 424 0 489 +15 488 304 0 487
 491 0 17 243 0 488 495 59 226 489 492 0 493 +17 487 0 488 59 495 43 230 494 0 4
90 -17 489 0 497 62 500 52 243 492 0 471 -15 497 307 0 489 499 0 17 62 0 497 223
 489 56 473 423 0 496 +17 500 0 497 489 223 226 498 362 0 0 +16 492 714 501 ?243
 502 494 504 0 0 1 81 1 501 1039 35 492 0 0 503 505 509 16 502 134 506 ?495 510
 492 508 0 0 1 16 494 723 507 ?230 492 515 511 0 0 1 30 504 423 0 492 318 511 0
 +.03822 -.03418 .0128 0 0 -1 31 318 420 0 313 513 504 0 +-.03821 -.02718 -.0046
 0 0 1 1 0 0 .005 30 511 424 0 494 504 512 0 +.04522 -.02718 .0128 0 0 -1 30 512
 425 0 514 511 516 0 +.04522 .02716 .0128 0 0 -1 16 514 732 520 ?48 515 517 512
 0 0 1 30 516 426 0 517 512 518 0 -.03822 .03416 .0128 0 0 1 16 517 741 519 ?40
 514 521 516 0 0 1 30 518 427 0 525 516 523 0 +-.03821 .03416 .0128 0 0 -1 16 52
5 683 522 ?239 521 524 518 0 0 1 30 523 428 0 529 518 530 0 +-.04521 .02716 .012
8 0 0 -1 16 529 687 505 ?250 524 527 523 0 0 1 30 530 429 0 528 523 526 0 +-.045
21 -.02718 .0128 0 0 -1 16 528 696 533 ?254 527 332 530 0 0 1 30 526 430 0 510 5
30 535 0 --.03821 -.03418 .0128 0 0 1 16 510 705 503 ?223 362 502 526 0 0 1 30 5
35 431 0 335 526 531 0 +-.03969015280949815 .028666214630414 .0128 0 0 -1 16 335
 660 534 ?170 330 334 535 0 0 1 30 531 432 0 337 535 532 0 +.01747634958115215 .
028666214630414 .0128 0 0 -1 16 337 647 536 ?163 334 358 531 0 0 1 30 532 433 0
 358 531 540 0 +.01747634958115215 -.02850073732025755 .0128 0 0 -1 16 358 651 5
38 ?159 337 343 532 0 0 1 30 540 434 0 332 532 537 0 +-.03969015280949815 -.0285
0073732025755 .0128 0 0 -1 16 332 669 539 ?154 528 330 540 0 0 1 30 537 439 0 36
2 540 508 0 +499999999999112e-20 -.03418 -.0046 1 0 0 16 362 137 541 ?500 357 51
0 537 0 0 1 31 508 440 0 502 537 545 0 +.03822 -.02718 -.0046 0 0 1 1 0 0 .007 3
0 545 441 0 326 508 543 0 +.04522 -999999999998571e-20 -.0046 0 -1 0 16 326 75 5
42 ?544 321 320 545 0 0 1 31 543 442 0 515 545 546 0 +.03822 .02716 -.0046 0 0 1
 1 0 0 .007 16 515 127 550 ?547 494 514 543 0 0 1 30 546 443 0 320 543 548 0 +49
999999999904e-19 .03416 -.0046 1 363150276274093e-30 0 16 320 74 549 ?552 326 31
3 546 0 0 1 31 548 444 0 521 546 555 0 +-.03821 .02716 -.0046 0 0 1 1 0 0 .007 1
6 521 120 554 ?551 517 525 548 0 0 1 30 555 445 0 524 548 553 0 +-.04521 -999999
999998571e-20 -.0046 0 -1 0 16 524 117 556 ?557 525 529 555 0 0 1 31 553 446 0 5
27 555 559 0 +-.03821 -.02718 -.0046 0 0 1 1 0 0 .007 16 527 114 558 ?560 529 52
8 553 0 0 1 30 559 448 0 564 553 561 0 +499999999999112e-20 -.03218 -.0046 1 0 0
 16 564 62 311 ?294 565 563 559 0 0 1 31 561 449 0 565 559 562 0 +.03822 -.02718
 -.0046 0 0 1 1 0 0 .005 16 565 64 570 ?566 304 564 561 0 0 1 30 562 450 0 568 5
61 567 0 +.04322 -999999999998571e-20 -.0046 0 -1 0 16 568 14 314 ?569 571 575 5
62 0 0 1 31 567 451 0 304 562 319 0 +.03822 .02716 -.0046 0 0 1 1 0 0 .005 16 30
4 66 572 ?301 284 565 567 0 0 1 30 319 452 0 303 567 309 0 +499999999999112e-20
 .03216 -.0046 1 363150276274093e-30 0 16 303 22 573 ?305 574 576 319 0 0 1 81 1
 573 491 35 303 0 0 333 311 580 17 305 0 578 577 272 266 292 303 0 0 +16 574 24
 579 ?272 285 303 584 0 0 1 16 576 20 585 ?267 303 582 583 0 0 1 81 1 585 1768 3
5 576 0 0 579 581 588 17 267 0 590 586 190 266 577 576 0 301 +16 582 18 589 ?190
 576 571 587 0 0 1 30 583 328 0 576 591 584 0 +.03822 .03216 .0128 0 0 -1 30 591
 327 0 595 593 583 0 +499999999999112e-20 .03216 .0128 1 363150276274093e-30 0 3
0 584 329 0 574 583 295 0 +-.03821 .03216 .0128 0 0 -1 30 295 330 0 278 584 592
 0 +-.04321 .02716 .0128 0 0 -1 30 592 331 0 594 295 596 0 +-.04169015280949815
 827386550782232e-19 .0128 0 -1 0 16 594 54 600 ?598 597 599 592 0 0 1 30 596 33
2 0 353 592 601 0 +-.04169015280949815 -.03050073732025755 .0128 0 0 -1 16 353 4
8 605 ?602 603 349 596 0 0 1 30 601 333 0 347 596 604 0 +-.04169015280949815 .03
0666214630414 .0128 0 0 -1 16 347 36 607 ?610 609 342 601 0 0 1 30 604 334 0 606
 601 608 0 +.01947634958115215 .030666214630414 .0128 0 0 -1 16 606 40 611 ?612
 614 609 604 0 0 1 30 608 335 0 597 604 613 0 +-.011106901614173 -.0305007373202
5755 .0128 1 0 0 16 597 56 615 ?619 595 594 608 0 0 1 30 613 336 0 354 608 616 0
 +.01947634958115215 -.0305007373202576 .0128 0 0 -1 16 354 44 620 ?618 349 614
 613 0 0 1 30 616 337 0 308 613 617 0 +-.04321 -.02718 .0128 0 0 -1 16 308 32 62
5 ?219 342 287 616 0 0 1 30 617 338 0 609 616 621 0 +-.011106901614173 .03066621
4630414 .0128 1 0 0 16 609 38 623 ?198 606 347 617 0 0 1 30 621 339 0 614 617 62
2 0 +.01947634958115215 827386550782232e-19 .0128 113441878050473e-30 -1 0 16 61
4 42 624 ?194 354 606 621 0 0 1 30 622 340 0 446 621 626 0 +499999999999112e-20
 -.03218 .0128 1 0 0 16 446 6 630 ?627 628 445 622 0 0 1 31 626 341 0 629 622 58
7 0 +.03822 -.02718 .0128 0 0 1 1 0 0 .005 16 629 10 631 ?195 575 628 626 0 0 1
 31 587 342 0 582 626 635 0 +.03822 .02716 .0128 0 0 1 1 0 0 .005 31 635 343 0 2
85 587 633 0 +-.03821 .02716 .0128 0 0 1 1 0 0 .005 16 285 26 632 ?181 278 574 6
35 0 0 1 30 633 344 0 287 635 513 0 +-.04321 -999999999998571e-20 .0128 0 -1 0 1
6 287 30 634 ?176 308 278 633 0 0 1 31 513 345 0 603 633 318 0 +-.03821 -.02718
 .0128 0 0 1 1 0 0 .005 16 603 50 639 ?171 599 353 513 0 0 1 81 1 639 51 35 603
 0 0 605 600 640 17 171 0 637 253 307 169 638 603 0 636 +16 599 52 581 ?253 594
 603 643 0 0 1 81 1 581 1769 35 599 0 0 585 645 641 17 253 0 637 299 171 222 636
 599 0 297 +30 643 322 0 599 0 644 0 +-.03821 -.03218 .0128 0 0 -1 30 644 323 0
 628 643 642 0 +.03822 -.03218 .0128 0 0 -1 16 628 8 645 ?265 629 446 644 0 0 1
 30 642 324 0 563 644 646 0 +.04322 -999999999998571e-20 .0128 0 -1 0 16 563 60
 650 ?648 564 595 642 0 0 1 30 646 325 0 575 642 593 0 +.04322 -.02718 .0128 0 0
 -1 16 575 12 647 ?256 568 629 646 0 0 1 30 593 326 0 571 646 591 0 +.04322 .027
16 .0128 0 0 -1 16 571 16 649 ?264 582 568 593 0 0 1 81 1 649 1773 35 571 0 0 62
5 647 651 17 264 0 655 569 653 259 215 571 0 652 +15 655 230 0 264 654 0 17 569
 0 655 656 264 251 652 568 0 0 +17 653 0 655 264 656 187 648 563 0 0 -17 215 0 5
90 190 586 187 264 571 0 660 -17 652 0 291 301 566 259 569 568 0 586 -17 301 0 2
91 292 652 266 586 304 0 305 +17 566 0 291 652 294 251 657 565 0 569 +17 586 0 5
90 215 267 259 301 304 0 0 -15 590 1198 0 267 658 0 14 255 658 231 659 ?662 654
 590 6 665 +0 0 662 654 25 81 1 659 1790 664 658 661 0 663 666 667 14 662 234 66
6 ?282 658 578 6 669 -0 0 282 658 25 14 654 228 663 ?658 668 655 6 670 -0 0 658
 668 25 51 255 665 317 0 658 669 670 0 -.03822 .02716 .0128 0 0 -1 .005 -1 0 0 1
3 25 4 0 0 0 0 0 0 10 17 14 17 222 674 ?668 0 671 6 675 +0 0 668 0 25 81 1 674 1
787 664 17 673 0 0 672 680 14 668 225 672 ?654 17 676 6 678 +0 0 654 17 25 15 67
1 1226 0 265 17 0 50 255 675 320 0 17 678 677 0 +499999999999112e-20 -.03218 .01
28 0 1 0 0 0 1 51 678 319 0 668 670 675 0 -.03822 -.02718 .0128 0 0 -1 .005 -1 0
 0 50 677 321 0 679 675 681 0 +499999999999112e-20 -999999999998225e-20 .0148 0
 0 1 1 0 0 14 679 280 685 ?682 683 684 6 677 +0 0 682 683 25 50 681 406 0 499 67
7 686 0 +499999999999112e-20 -.03418 .0128 0 1 0 0 0 1 14 499 305 690 ?688 491 4
97 6 681 -0 0 688 491 25 51 686 407 0 491 681 687 0 -.03822 -.02718 .0128 0 0 -1
 .007 -1 0 0 14 491 302 689 ?499 694 488 6 686 -0 0 499 694 25 50 687 408 0 694
 686 695 0 +.04522 -999999999998571e-20 .0128 1 0 0 0 0 -1 14 694 299 692 ?491 6
93 691 6 687 +0 0 491 693 25 51 695 409 0 693 687 698 0 -.03822 .02716 .0128 0 0
 -1 .007 -1 0 0 14 693 296 700 ?694 696 50 6 695 -0 0 694 696 25 50 698 410 0 69
6 695 699 0 +49999999999904e-19 .03416 .0128 -363150276274093e-30 1 0 -1 -363150
276274093e-30 0 14 696 293 697 ?693 701 38 6 698 +0 0 693 701 25 51 699 411 0 70
1 698 705 0 --.03821 .02716 .0128 0 0 -1 .007 -1 0 0 14 701 290 703 ?696 702 704
 6 699 -0 0 696 702 25 50 705 412 0 702 699 706 0 +-.04521 -999999999998571e-20
 .0128 1 0 0 0 0 -1 14 702 287 710 ?701 682 708 6 705 -0 0 701 682 25 50 706 413
 0 683 705 707 0 +-.03969015280949815 827386550782232e-19 .0128 1 0 0 0 0 -1 14
 683 277 709 ?679 711 715 6 706 +0 0 679 711 25 50 707 414 0 711 706 712 0 +-.01
1106901614173 .028666214630414 .0128 0 1 0 0 0 1 14 711 274 713 ?683 714 717 6 7
07 -0 0 683 714 25 50 712 415 0 714 707 720 0 +.01747634958115215 82738655078222
9e-19 .0128 1 113441878050473e-30 0 -113441878050473e-30 1 0 14 714 271 719 ?711
 716 718 6 712 -0 0 711 716 25 50 720 416 0 716 712 721 0 +-.011106901614173 -.0
2850073732025755 .0128 0 1 0 0 0 1 14 716 268 722 ?714 724 723 6 720 +0 0 714 72
4 25 51 721 417 0 682 720 725 0 --.03821 -.02718 .0128 0 0 -1 .007 -1 0 0 14 682
 284 729 ?702 679 726 6 721 -0 0 702 679 25 50 725 418 0 296 721 730 0 +0 0 -.00
46 0 0 1 1 0 0 14 296 262 728 ?724 727 291 6 725 -0 0 724 727 25 50 730 532 0 72
4 725 735 0 +0 0 .001512 0 0 1 1 0 0 14 724 265 731 ?716 296 733 6 730 -0 0 716
 296 25 50 735 807 732 734 730 736 0 +.01847634958115215 -999999999998015e-20 .0
148 -.707106781186547 -802155212400268e-31 .707106781186548 -113441878050473e-30
 1 0 81 2 732 808 740 735 0 0 737 19 738 739 14 734 777 741 ?20 745 743 6 735 +0
 0 20 745 25 50 736 805 737 745 735 742 0 --.011106901614173 -.02850073732025755
 .0138 0 -.707106781186547 -.707106781186548 1 0 0 81 2 737 806 740 736 0 0 744
 732 749 750 14 745 775 747 ?734 748 746 6 736 +0 0 734 748 25 50 742 803 744 74
8 736 753 0 +499999999999112e-20 .02966621463041405 .0148 0 -.707106781186547 .7
07106781186548 -1 0 0 81 2 744 804 740 742 0 0 755 737 751 754 14 748 773 752 ?7
45 688 756 6 742 +0 0 745 688 25 50 753 801 755 688 742 760 0 --.039690152809498
15 827386550782232e-19 .0138 -.707106781186547 0 -.707106781186548 0 -1 0 81 2 7
55 802 740 753 0 0 0 744 758 757 14 688 771 759 ?748 499 761 6 753 +0 0 748 499
 25 52 760 900 765 763 753 762 0 +-.03821 .02716 .0148 0 0 -1 .006 .707106781186
548 .707106781186548 -1 0 0 81 2 765 901 740 760 0 0 764 0 766 770 14 763 842 76
7 ?0 768 769 6 760 +0 0 0 768 25 50 762 898 764 768 760 772 0 +-.04421 -99999999
9998225e-20 .0148 -.707106781186547 0 .707106781186548 0 1 0 81 2 764 899 740 76
2 0 0 775 765 774 771 14 768 840 773 ?763 776 777 6 762 +0 0 763 776 25 50 772 8
96 775 776 762 779 0 -49999999999904e-19 .03416 .0138 256786022943179e-30 -.7071
06781186547 -.707106781186548 1 363150276274093e-30 0 81 2 775 897 740 772 0 0 7
78 764 780 784 14 776 838 781 ?768 785 783 6 772 +0 0 768 785 25 52 779 894 778
 785 772 782 0 +-.03821 -.02718 .0148 0 0 -1 .006 .707106781186548 .707106781186
548 -1 0 0 81 2 778 895 740 779 0 0 790 775 786 788 14 785 836 787 ?776 789 791
 6 779 +0 0 776 789 25 52 782 892 790 789 779 795 0 +.03822 .02716 .0148 0 0 -1
 .006 .707106781186548 .707106781186548 -1 0 0 81 2 790 893 740 782 0 0 792 778
 793 794 14 789 834 796 ?785 800 798 6 782 +0 0 785 800 25 50 795 890 792 800 78
2 21 0 +499999999999112e-20 -.03318 .0148 0 -.707106781186547 .707106781186548 -
1 0 0 81 2 792 891 740 795 0 0 797 790 799 804 14 800 832 805 ?789 483 475 6 795
 +0 0 789 483 25 50 21 888 797 483 795 7 0 -.04522 -999999999998571e-20 .0138 -.
707106781186547 0 -.707106781186548 0 -1 0 81 2 797 889 740 21 0 0 19 792 802 80
3 14 483 830 801 ?800 20 479 6 21 +0 0 800 20 25 81 1 801 1820 664 483 808 0 810
 805 806 14 20 828 810 ?483 734 484 6 7 +0 0 483 734 25 81 1 810 1819 664 20 809
 0 741 801 807 80 7 CCCCCDI12 legal_owners0 17 1 lCZ1 664 0 811 8001 0 0 0 0 3 5
 0 0 0 FFFFTFTFFFFFFFFFF2 81 1 809 1053 35 20 0 810 815 813 812 81 1 741 1818 66
4 734 814 0 747 810 816 83 255 3 807 .615686274509804 .811764705882353 .92941176
4705882 81 1 814 1059 35 734 0 741 820 818 817 81 1 747 1817 664 745 819 0 752 7
41 821 83 3 816 .615686274509804 .811764705882353 .929411764705882 81 1 819 1057
 35 745 0 747 825 820 822 81 1 752 1816 664 748 825 0 759 747 823 83 3 821 .6156
86274509804 .811764705882353 .929411764705882 81 1 825 1056 35 748 0 752 824 819
 827 81 1 759 1815 664 688 820 0 690 752 830 83 3 823 .615686274509804 .81176470
5882353 .929411764705882 81 1 820 1058 35 688 0 759 819 814 829 81 1 690 1814 66
4 499 826 0 689 759 828 83 3 830 .615686274509804 .811764705882353 .929411764705
882 81 1 826 1062 35 499 0 690 831 832 834 81 1 689 1813 664 491 833 0 692 690 8
35 83 3 828 .615686274509804 .811764705882353 .929411764705882 81 1 833 1066 35
 491 0 689 839 836 840 81 1 692 1812 664 694 838 0 700 689 837 83 3 835 .6156862
74509804 .811764705882353 .929411764705882 81 1 838 1064 35 694 0 692 832 839 84
5 81 1 700 1811 664 693 836 0 697 692 841 83 3 837 .615686274509804 .81176470588
2353 .929411764705882 81 1 836 1067 35 693 0 700 833 843 842 81 1 697 1810 664 6
96 831 0 703 700 844 83 3 841 .615686274509804 .811764705882353 .929411764705882
 81 1 831 1061 35 696 0 697 818 826 846 81 1 703 1809 664 701 843 0 710 697 850
 83 3 844 .615686274509804 .811764705882353 .929411764705882 81 1 843 1068 35 70
1 0 703 836 847 848 81 1 710 1808 664 702 832 0 729 703 849 83 3 850 .6156862745
09804 .811764705882353 .929411764705882 81 1 832 1063 35 702 0 710 826 838 851 8
1 1 729 1807 664 682 839 0 685 710 855 83 3 849 .615686274509804 .81176470588235
3 .929411764705882 81 1 839 1065 35 682 0 729 838 833 853 81 1 685 1806 664 679
 818 0 709 729 852 83 3 855 .615686274509804 .811764705882353 .929411764705882 8
1 1 818 1060 35 679 0 685 814 831 854 81 1 709 1805 664 683 859 0 713 685 860 83
 3 852 .615686274509804 .811764705882353 .929411764705882 81 1 859 1071 35 683 0
 709 857 858 856 81 1 713 1804 664 711 847 0 719 709 863 83 3 860 .6156862745098
04 .811764705882353 .929411764705882 81 1 847 1069 35 711 0 713 843 857 865 81 1
 719 1803 664 714 858 0 722 713 861 83 3 863 .615686274509804 .811764705882353 .
929411764705882 81 1 858 1072 35 714 0 719 859 864 862 81 1 722 1802 664 716 857
 0 731 719 866 83 3 861 .615686274509804 .811764705882353 .929411764705882 81 1
 857 1070 35 716 0 722 847 859 870 81 1 731 1801 664 724 868 0 728 722 867 83 3
 866 .615686274509804 .811764705882353 .929411764705882 81 1 868 549 35 724 0 73
1 360 32 869 81 1 728 1800 664 296 871 0 875 731 873 83 3 867 .615686274509804 .
811764705882353 .929411764705882 81 1 871 1783 35 296 0 728 872 0 874 81 1 875 1
799 664 727 876 0 880 728 877 83 3 873 .615686274509804 .811764705882353 .929411
764705882 14 727 258 875 ?296 878 879 6 882 -0 0 296 878 25 81 1 876 259 35 727
 0 875 885 240 884 81 1 880 1798 664 878 881 0 883 875 886 83 3 877 .61568627450
9804 .811764705882353 .929411764705882 14 878 255 880 ?727 887 637 6 889 +0 0 72
7 887 25 81 1 881 1779 35 878 0 880 888 890 894 81 1 883 1797 664 887 885 0 891
 880 895 83 3 886 .615686274509804 .811764705882353 .929411764705882 14 887 252
 883 ?878 893 892 6 900 -0 0 878 893 25 81 1 885 253 35 887 0 883 896 876 898 81
 1 891 1796 664 893 896 0 897 883 899 83 3 895 .615686274509804 .811764705882353
 .929411764705882 14 893 249 891 ?887 901 905 6 902 +0 0 887 901 25 81 1 896 250
 35 893 0 891 903 885 904 81 1 897 1795 664 901 903 0 906 891 910 83 3 899 .6156
86274509804 .811764705882353 .929411764705882 14 901 246 897 ?893 908 907 6 909
 +0 0 893 908 25 81 1 903 247 35 901 0 897 914 896 915 81 1 906 1794 664 908 914
 0 912 897 913 83 3 910 .615686274509804 .811764705882353 .929411764705882 14 90
8 243 906 ?901 310 911 6 918 -0 0 901 310 25 81 1 914 244 35 908 0 906 212 903 9
20 81 1 912 1793 664 310 916 0 919 906 917 83 3 913 .615686274509804 .8117647058
82353 .929411764705882 14 310 240 912 ?908 282 289 6 921 +0 0 908 282 25 81 1 91
6 1777 35 310 0 912 673 888 925 81 1 919 1792 664 282 872 0 666 912 923 83 3 917
 .615686274509804 .811764705882353 .929411764705882 14 282 237 919 ?310 662 280
 6 922 +0 0 310 662 25 81 1 872 1782 35 282 0 919 661 871 924 81 1 666 1791 664
 662 926 0 659 919 930 83 3 923 .615686274509804 .811764705882353 .9294117647058
82 81 1 926 1775 35 662 0 666 647 673 928 83 3 930 .615686274509804 .81176470588
2353 .929411764705882 80 1 35 927 929 9000 0 0 0 0 3 6 0 0 0 FFTFTFTTFFFFFFFFF1
 81 1 647 1774 35 575 0 0 649 926 931 81 1 673 1776 35 17 0 674 926 916 935 82 2
55 3 928 50 0 2 82 3 935 50 1 2 82 3 931 50 7 1 79 255 9 929 BTI/DetId81 1 661 1
781 35 658 0 659 890 872 932 82 3 924 50 7 2 81 1 890 1780 35 668 0 672 881 661
 933 82 3 932 50 6 2 81 1 672 1788 664 668 890 0 674 663 934 82 3 933 50 5 2 81
 1 663 1789 664 654 888 0 672 659 937 83 3 934 .615686274509804 .811764705882353
 .929411764705882 81 1 888 1778 35 654 0 663 916 881 940 83 3 937 .6156862745098
04 .811764705882353 .929411764705882 82 3 940 50 3 2 51 922 315 0 282 921 669 0
 --.03821 .02716 .0128 0 0 -1 .005 -1 0 0 50 921 314 0 310 918 922 0 +-.04321 -9
99999999998571e-20 .0128 1 0 0 0 0 -1 50 669 316 0 662 922 665 0 +49999999999911
2e-20 .03216 .0128 -363150276274093e-30 1 0 -1 -363150276274093e-30 0 50 918 313
 0 908 909 921 0 +-.04169015280949815 827386550782232e-19 .0128 1 0 0 0 0 -1 50
 909 312 0 901 902 918 0 +-.011106901614173 .030666214630414 .0128 0 1 0 0 0 1 5
0 902 311 0 893 900 909 0 +.01947634958115215 827386550782232e-19 .0128 1 113441
878050473e-30 0 -113441878050473e-30 1 0 50 900 310 0 887 889 902 0 +-.011106901
614173 -.03050073732025755 .0128 0 1 0 0 0 1 51 889 309 0 878 882 900 0 --.03821
 -.02718 .0128 0 0 -1 .005 -1 0 0 50 882 308 0 727 0 889 0 +499999999999112e-20
 -999999999998225e-20 .0128 0 0 1 1 0 0 82 3 925 50 2 2 81 1 212 161 35 172 0 0
 168 914 939 82 3 920 17 12 2 81 1 168 159 35 169 0 0 192 212 936 82 3 939 17 7
 0 81 1 192 157 35 174 0 0 197 168 938 82 3 936 17 5 0 81 1 197 155 35 199 0 0 2
02 192 941 82 3 938 17 23 0 81 1 202 153 35 196 0 0 205 197 942 82 3 941 17 19 0
 81 1 205 151 35 180 0 0 179 202 944 82 3 942 17 17 0 81 1 179 149 35 173 0 0 18
5 205 943 82 3 944 17 21 0 81 1 185 147 35 178 0 0 208 179 945 82 3 943 17 11 0
 81 1 208 145 35 183 0 0 186 185 949 82 3 945 17 9 0 81 1 186 143 35 182 0 0 211
 208 946 82 3 949 17 1 0 81 1 211 141 35 187 0 0 191 186 950 82 3 946 17 3 0 81
 1 191 139 35 188 0 0 650 211 948 82 3 950 17 13 0 81 1 650 61 35 563 0 0 947 19
1 955 82 3 948 17 15 0 81 1 947 59 35 595 0 0 615 650 951 82 3 955 17 19 1 16 59
5 58 947 ?953 563 597 591 0 0 1 81 1 615 57 35 597 0 0 600 947 952 82 3 951 17 1
3 1 81 1 600 55 35 594 0 0 639 615 954 82 3 952 17 31 1 82 3 954 17 33 1 17 953
 0 956 660 283 182 960 595 0 0 +15 956 261 0 957 727 0 17 660 0 956 648 953 187
 190 582 0 653 -17 283 0 956 953 290 183 181 285 0 960 -17 960 0 578 272 577 183
 953 595 0 0 -15 578 236 0 272 662 0 17 272 0 578 305 960 269 207 574 0 292 +17
 577 0 578 960 305 182 267 576 0 953 -17 207 0 280 181 279 183 272 574 0 283 -17
 290 0 956 283 638 178 176 287 0 0 -17 638 0 956 290 957 173 171 603 0 0 -17 176
 0 289 219 276 173 290 287 0 307 +17 307 0 637 171 299 173 219 308 0 638 -15 637
 1154 0 253 878 0 17 299 0 637 307 253 220 297 313 0 0 -17 297 0 291 294 293 222
 299 313 0 958 +17 294 0 291 566 297 216 958 564 0 657 +17 958 0 671 636 265 222
 294 564 0 0 -17 636 0 671 627 958 169 253 599 0 957 -17 265 0 671 958 627 216 9
59 628 0 294 +17 627 0 671 265 636 172 957 446 0 959 +17 959 0 676 195 657 172 2
65 628 0 0 -15 676 1220 0 256 668 0 17 195 0 676 256 959 188 214 629 0 656 +17 6
57 0 676 959 256 216 566 565 0 0 -17 256 0 676 657 195 251 656 575 0 566 +17 656
 0 655 653 569 188 256 575 0 648 -17 648 0 956 214 660 188 653 563 0 0 +17 214 0
 956 957 648 172 195 629 0 627 -17 957 0 956 638 214 169 627 446 0 0 -17 190 0 5
90 267 215 182 660 582 0 577 +15 911 245 0 348 908 0 17 348 0 911 201 610 141 15
1 342 0 0 +17 201 0 911 961 348 180 602 353 0 598 -17 610 0 911 348 961 134 206
 347 0 965 +17 151 0 963 137 146 134 348 342 0 610 -15 963 267 0 137 724 0 17 13
7 0 963 143 151 136 965 344 0 612 +17 146 0 963 151 143 141 352 349 0 602 -17 14
3 0 963 146 137 139 962 343 0 618 +17 352 0 892 964 602 139 146 349 0 0 +17 602
 0 892 352 969 141 201 353 0 348 +15 892 254 0 352 887 0 17 969 0 892 602 964 18
0 619 597 0 0 -17 964 0 892 969 352 174 618 354 0 619 -17 619 0 879 970 598 174
 969 597 0 0 +15 879 260 0 598 727 956 17 970 0 879 967 619 199 194 614 0 0 -17
 598 0 879 619 967 180 961 594 0 969 +17 967 0 879 598 970 196 198 609 0 961 -17
 961 0 911 610 201 196 598 594 0 0 -17 198 0 907 612 206 199 967 609 0 968 +15 9
07 248 0 965 901 0 17 612 0 907 965 198 136 968 606 0 962 +17 206 0 907 198 965
 196 610 347 0 967 -17 968 0 905 194 962 199 612 606 0 970 -15 905 251 0 962 893
 0 17 194 0 905 618 968 174 970 614 0 964 +17 962 0 905 968 618 136 143 343 0 0
 -17 618 0 905 962 194 139 964 354 0 352 +17 965 0 907 206 612 134 137 344 0 0 -
82 3 915 17 10 2 82 3 904 17 13 2 82 3 898 17 11 2 82 3 894 50 4 2 81 1 240 455
 35 233 0 0 876 237 966 82 3 884 17 2 2 81 1 237 456 35 236 0 0 240 221 973 82 3
 966 18 0 0 81 1 221 457 35 160 0 0 237 242 975 82 3 973 18 2 0 81 1 242 458 35
 226 0 0 221 249 971 82 3 975 18 4 0 81 1 249 459 35 248 0 0 242 246 974 82 3 97
1 18 6 0 81 1 246 460 35 241 0 0 249 228 972 82 3 974 18 8 0 81 1 228 461 35 227
 0 0 246 235 976 82 3 972 18 10 0 81 1 235 462 35 234 0 0 228 167 980 82 3 976 1
8 12 0 81 1 167 463 35 144 0 0 235 162 978 82 3 980 18 14 0 81 1 162 464 35 161
 0 0 167 152 977 82 3 978 18 16 0 81 1 152 465 35 155 0 0 162 157 979 82 3 977 1
8 18 0 81 1 157 466 35 156 0 0 152 275 981 82 3 979 18 20 0 81 1 275 467 35 269
 0 0 157 268 985 82 3 981 18 22 0 81 1 268 468 35 266 0 0 275 252 983 82 3 985 1
8 24 0 81 1 252 469 35 222 0 0 268 261 982 82 3 983 18 25 0 81 1 261 470 35 216
 0 0 252 273 984 82 3 982 18 26 0 82 3 984 18 27 0 82 3 874 50 8 2 81 1 360 502
 35 343 0 0 346 868 986 81 1 32 976 35 135 0 0 868 28 990 82 3 869 21 0 2 82 3 9
90 27 0 0 81 1 346 501 35 342 0 0 355 360 987 82 3 986 18 35 1 81 1 355 500 35 3
49 0 0 345 346 988 82 3 987 18 34 1 81 1 345 499 35 344 0 0 302 355 989 82 3 988
 18 33 1 81 1 302 498 35 284 0 0 572 345 992 82 3 989 18 32 1 81 1 572 497 35 30
4 0 0 570 302 995 82 3 992 18 31 1 81 1 570 496 35 565 0 0 316 572 994 82 3 995
 18 30 1 81 1 316 495 35 313 0 0 314 570 991 82 3 994 18 29 1 81 1 314 494 35 56
8 0 0 306 316 993 82 3 991 18 28 1 82 3 993 18 27 1 82 3 870 27 22 2 81 1 864 17
66 35 1 0 996 858 579 997 82 3 862 27 24 2 81 1 996 1784 999 1 864 14 0 0 998 81
 1 579 1767 35 574 0 0 864 585 1000 82 3 997 18 1 3 82 3 1000 50 0 1 80 1 999 10
04 1001 8038 0 0 0 0 0 0 0 0 0 TTTTTTTTTTTTTFTFT10 81 1 14 1785 1004 1 996 2 0 0
 1005 98 255 3 998 84 111 112 80 1 1004 1003 1002 8017 0 0 0 0 0 0 0 0 0 TTTTTTT
TTTTTTFTFT3 84 255 3 1005 Top79 13 1002 SDL/TYSA_NAME79 14 1001 SDL/TYSA_UNAME82
 3 865 27 21 2 82 3 856 27 23 2 82 3 854 27 12 2 82 3 853 27 17 2 82 3 851 27 15
 2 82 3 848 27 20 2 82 3 846 27 13 2 82 3 842 27 19 2 82 3 845 27 16 2 82 3 840
 27 18 2 82 3 834 27 14 2 82 3 829 27 10 2 81 1 824 1055 35 763 0 767 813 825 10
10 82 3 827 27 8 2 81 1 767 1826 664 763 824 0 773 0 1006 81 1 813 1054 35 789 0
 796 809 824 1008 82 3 1010 27 7 2 81 1 796 1822 664 789 813 0 805 787 1007 82 3
 1008 27 6 2 81 1 805 1821 664 800 1009 0 801 796 1011 81 1 787 1823 664 785 815
 0 796 781 1015 83 3 1007 .615686274509804 .811764705882353 .929411764705882 81
 1 815 1052 35 785 0 787 808 809 1012 81 1 781 1824 664 776 1013 0 787 773 1014
 83 3 1015 .615686274509804 .811764705882353 .929411764705882 81 1 1013 1048 35
 776 0 781 538 1009 1016 81 1 773 1825 664 768 1020 0 781 767 1018 83 3 1014 .61
5686274509804 .811764705882353 .929411764705882 81 1 1020 1050 35 768 0 773 1009
 808 1017 83 3 1018 .615686274509804 .811764705882353 .929411764705882 81 1 1009
 1049 35 800 0 805 1013 1020 1019 81 1 808 1051 35 483 0 801 1020 815 1024 82 3
 1017 27 2 2 82 3 1024 27 3 2 82 3 1019 27 1 2 81 1 538 1047 35 358 0 0 539 1013
 1025 82 3 1016 27 0 2 81 1 539 1046 35 332 0 0 536 538 1022 82 3 1025 27 47 1 8
1 1 536 1045 35 337 0 0 534 539 1023 82 3 1022 27 46 1 81 1 534 1044 35 335 0 0
 507 536 1021 82 3 1023 27 45 1 81 1 507 1043 35 494 0 0 520 534 1028 82 3 1021
 27 44 1 81 1 520 1042 35 514 0 0 533 507 1030 82 3 1028 27 43 1 81 1 533 1041 3
5 528 0 0 505 520 1026 82 3 1030 27 42 1 81 1 505 1040 35 529 0 0 501 533 1029 8
2 3 1026 27 41 1 82 3 1029 27 40 1 82 3 1012 27 4 2 83 3 1011 .615686274509804 .
811764705882353 .929411764705882 83 3 1006 .615686274509804 .811764705882353 .92
9411764705882 82 3 822 27 9 2 82 3 817 27 11 2 82 3 812 27 5 2 79 15 811 SDL/TYS
A_COLOUR83 3 806 .615686274509804 .811764705882353 .929411764705882 80 2 740 102
7 1031 8044 0 0 0 0 3 5 0 0 0 FFFFTFFFTTFFFFFFF3 2 81 2 19 887 740 7 0 0 732 797
 1035 1033 84 6 802 BAOAAB83 3 803 0 .001414213562373094 .001 84 6 1035 BAOAAB83
 3 1033 0 .001 .001 79 17 1031 SDL/TYSA_BLEND_ID15 475 833 0 469 800 0 84 6 799
 BAOAAB83 3 804 0 .001414213562373094 .001 15 798 835 0 470 789 0 17 470 0 798 4
7 1032 34 482 464 0 0 +17 47 0 798 1034 470 12 45 29 0 459 -17 1032 0 798 470 10
34 130 133 365 0 0 -17 482 0 479 481 477 130 470 464 0 1032 -17 1034 0 798 1032
 47 135 459 456 0 1036 -17 133 0 1040 131 128 135 1032 365 0 1034 +15 1040 591 0
 131 679 0 17 131 0 1040 383 133 127 1036 357 0 1038 +17 128 0 1040 133 122 130
 481 368 0 482 +17 122 0 1040 128 124 121 486 369 0 485 +17 124 0 1040 122 117 1
19 472 375 0 486 +17 117 0 1040 124 114 111 1037 374 0 472 +17 472 0 475 1039 46
9 111 124 375 0 463 -17 1039 0 475 473 472 56 463 461 0 1041 -17 463 0 791 1037
 1041 111 1039 461 0 0 +15 791 837 0 463 785 0 17 1037 0 791 1045 463 109 117 37
4 0 460 -17 1041 0 791 463 1045 56 69 417 0 0 -17 1045 0 791 1041 1037 64 460 45
5 0 1042 -17 69 0 726 254 496 64 1041 417 0 1043 +15 726 286 0 496 682 0 17 254
 0 726 560 69 248 1043 528 0 1044 +17 496 0 726 69 560 56 223 510 0 1039 -17 104
3 0 708 67 557 64 254 528 0 1045 -15 708 289 0 1043 702 0 17 67 0 708 250 1043 6
6 1042 414 0 1047 +17 557 0 708 1043 250 248 1050 524 0 0 +17 250 0 708 557 67 2
41 1047 529 0 1050 +17 1050 0 300 1049 1044 241 557 524 0 551 -15 300 264 0 1044
 296 0 17 1049 0 300 552 1050 236 551 521 0 1046 -17 1044 0 300 1050 498 248 560
 527 0 557 -17 551 0 704 1047 239 241 1049 521 0 0 +15 704 292 0 1047 701 0 17 1
047 0 704 412 551 66 250 529 0 1048 -17 239 0 704 551 412 236 36 525 0 1049 +17
 412 0 704 239 1047 75 1048 411 0 36 +17 36 0 38 30 1046 75 239 525 0 0 -15 38 2
95 0 36 696 0 17 1046 0 38 36 40 236 552 320 0 0 -17 40 0 38 1046 30 233 37 517
 0 552 +17 552 0 300 1051 1049 233 1046 320 0 547 +17 1051 0 300 544 552 234 547
 515 0 1052 -17 547 0 50 37 48 233 1051 515 0 0 +15 50 298 0 37 693 0 17 37 0 50
 45 547 12 40 517 0 47 -17 48 0 50 547 45 234 49 514 0 1051 +17 49 0 691 55 1052
 34 48 514 0 477 -15 691 301 0 49 694 0 17 55 0 691 230 49 43 477 430 0 487 +17
 1052 0 691 49 230 234 544 326 0 0 -17 230 0 691 1052 55 227 487 494 0 544 +17 5
44 0 300 493 1051 227 1052 326 0 495 +17 493 0 300 498 544 226 495 502 0 500 -17
 495 0 488 487 243 227 493 502 0 0 +17 498 0 300 1044 493 160 500 362 0 560 -17
 560 0 726 496 254 160 1044 527 0 0 +17 1048 0 769 108 72 66 412 411 0 1054 -15
 769 843 0 72 763 0 17 108 0 769 1053 1048 106 1054 447 0 1055 +17 72 0 769 1048
 1053 75 1038 450 0 39 +17 1054 0 777 1042 1055 66 108 447 0 0 -15 777 841 0 460
 768 0 17 1042 0 777 460 1054 64 67 414 0 0 -17 1055 0 777 1054 460 106 114 378
 0 383 -17 460 0 777 1055 1042 109 1045 455 0 0 +17 114 0 1040 117 383 109 1055
 378 0 1037 +17 383 0 1040 114 131 106 1053 381 0 0 +17 1053 0 769 72 108 127 38
3 381 0 0 -17 1038 0 783 1036 39 127 72 450 0 1053 -17 39 0 783 1038 459 75 30 1
1 0 412 -15 783 839 0 459 776 0 17 459 0 783 39 1036 12 1034 456 0 0 +17 1036 0
 783 459 1038 135 131 357 0 0 -17 223 0 497 500 62 160 496 510 0 498 +17 473 0 4
75 469 1039 52 62 423 0 0 -84 6 793 BAOAAB83 3 794 0 .001 .001 84 6 786 BAOAAB83
 3 788 0 .001 .001 84 6 780 BAOAAB83 3 784 1298053346011706e-33 .001414213562373
094 .001 84 6 774 BAOAAB83 3 771 0 .001414213562373094 .001 84 6 766 BAOAAB83 3
 770 0 .001 .001 15 761 772 0 1059 688 0 17 1059 0 761 1056 1060 74 442 437 0 10
58 -17 1056 0 761 1057 1059 78 77 404 0 443 -17 1060 0 761 1059 1057 98 100 389
 0 442 -17 442 0 746 1065 1058 98 1059 437 0 0 +17 1058 0 746 442 1061 74 89 407
 0 0 -15 746 776 0 442 745 0 17 1061 0 746 1058 1065 83 104 435 0 0 -17 89 0 723
 159 1063 83 1058 407 0 1062 +15 723 270 0 1063 716 0 17 159 0 723 1064 89 156 1
062 358 0 340 +17 1063 0 723 89 1064 74 154 332 0 1059 -17 1062 0 718 405 336 83
 159 358 0 1066 -15 718 273 0 1062 714 0 17 405 0 718 163 1062 90 1066 400 0 107
0 +17 336 0 718 1062 163 156 1067 334 0 0 +17 1066 0 743 104 86 83 405 400 0 106
1 -15 743 778 0 86 734 0 17 104 0 743 1068 1066 105 1061 435 0 1065 +17 86 0 743
 1066 1068 90 1069 434 0 1071 +17 1068 0 743 86 104 93 396 393 0 0 -17 1069 0 75
6 1075 1071 93 86 434 0 1068 -17 1071 0 756 1069 443 90 85 401 0 405 -15 756 774
 0 443 748 0 17 443 0 756 1071 1075 78 1057 445 0 0 +17 85 0 717 170 1070 78 107
1 401 0 1073 +15 717 276 0 1070 711 0 17 170 0 717 329 85 144 1073 335 0 1072 +1
7 1070 0 717 85 329 90 163 337 0 0 -17 1073 0 715 77 1074 78 170 335 0 1056 -15
 715 279 0 1073 683 0 17 77 0 715 154 1073 74 1056 404 0 1063 +17 1074 0 715 107
3 154 144 322 321 0 0 -17 154 0 715 1074 77 155 1063 332 0 322 +17 322 0 733 340
 1072 155 1074 321 0 1064 +15 733 266 0 322 724 963 17 340 0 733 1067 322 156 10
64 324 0 336 +17 1072 0 733 322 1067 144 329 330 0 1074 -17 1064 0 723 1063 159
 155 340 324 0 0 -17 1067 0 733 1072 340 161 336 334 0 329 -17 329 0 717 1070 17
0 161 1072 330 0 0 +17 163 0 718 336 405 161 1070 337 0 1067 +17 1075 0 756 443
 1069 92 94 391 0 0 -17 1057 0 761 1060 1056 92 443 445 0 1075 -17 94 0 684 396
 100 93 1075 391 0 1069 +15 684 627 0 94 679 1040 17 396 0 684 101 94 105 1068 3
93 0 0 +17 100 0 684 94 101 92 1060 389 0 1057 +17 101 0 684 100 396 98 1065 384
 0 1060 +17 1065 0 746 1061 442 105 101 384 0 396 -84 6 758 BAOAAB83 3 757 0 .00
1414213562373094 .001 84 6 751 BAOAAB83 3 754 0 .001414213562373094 .001 84 6 74
9 BAOAAB83 3 750 0 .001414213562373094 .001 84 6 738 BAOAAB83 3 739 -74269311216
7103e-33 .001414213562373096 .001 50 670 318 0 654 665 678 0 +.04322 -9999999999
98571e-20 .0128 1 0 0 0 0 -1 83 3 680 .615686274509804 .811764705882353 .9294117
64705882 83 3 667 .615686274509804 .811764705882353 .929411764705882 81 1 625 17
72 35 308 0 0 288 649 1079 82 3 651 50 6 1 81 1 288 1771 35 278 0 0 645 625 1080
 82 3 1079 50 5 1 81 1 645 1770 35 628 0 0 581 288 1077 82 3 1080 50 4 1 82 3 10
77 50 3 1 82 3 641 50 2 1 81 1 605 49 35 353 0 0 620 639 1078 82 3 640 17 21 1 8
1 1 620 45 35 354 0 0 624 605 1076 82 3 1078 17 10 1 81 1 624 43 35 614 0 0 611
 620 1083 82 3 1076 17 11 1 81 1 611 41 35 606 0 0 623 624 1085 82 3 1083 17 35
 1 81 1 623 39 35 609 0 0 607 611 1081 82 3 1085 17 9 1 81 1 607 37 35 347 0 0 6
34 623 1084 82 3 1081 17 29 1 81 1 634 31 35 287 0 0 632 607 1082 82 3 1084 17 8
 1 81 1 632 27 35 285 0 0 589 634 1086 82 3 1082 17 17 1 81 1 589 19 35 582 0 0
 631 632 1090 82 3 1086 17 27 1 81 1 631 11 35 629 0 0 630 589 1088 82 3 1090 17
 25 1 81 1 630 7 35 446 0 0 0 631 1087 82 3 1088 17 23 1 82 3 1087 17 15 1 82 3
 588 50 1 1 81 1 333 490 35 334 0 0 323 573 1089 81 1 311 492 35 564 0 0 573 306
 1091 82 3 580 18 24 1 82 3 1091 18 25 1 81 1 323 489 35 321 0 0 338 333 1095 82
 3 1089 18 22 1 81 1 338 488 35 324 0 0 328 323 1093 82 3 1095 18 20 1 81 1 328
 487 35 330 0 0 554 338 1092 82 3 1093 18 18 1 81 1 554 486 35 521 0 0 550 328 1
094 82 3 1092 18 16 1 81 1 550 485 35 515 0 0 506 554 1096 82 3 1094 18 14 1 81
 1 506 484 35 502 0 0 558 550 1100 82 3 1096 18 12 1 81 1 558 483 35 527 0 0 542
 506 1097 82 3 1100 18 10 1 81 1 542 482 35 326 0 0 556 558 1098 82 3 1097 18 8
 1 81 1 556 481 35 524 0 0 541 542 1099 82 3 1098 18 6 1 81 1 541 480 35 362 0 0
 549 556 1102 82 3 1099 18 4 1 81 1 549 479 35 320 0 0 142 541 1105 82 3 1102 18
 2 1 81 1 142 478 35 139 0 0 150 549 1104 82 3 1105 18 0 1 81 1 150 477 35 141 0
 0 138 142 1101 82 3 1104 18 35 0 81 1 138 476 35 136 0 0 147 150 1103 82 3 1101
 18 34 0 81 1 147 475 35 134 0 0 260 138 1106 82 3 1103 18 33 0 81 1 260 474 35
 251 0 0 262 147 1107 82 3 1106 18 32 0 81 1 262 473 35 259 0 0 218 260 1109 82
 3 1107 18 31 0 81 1 218 472 35 220 0 0 273 262 1108 82 3 1109 18 30 0 82 3 1108
 18 29 0 81 1 503 1038 35 510 0 0 519 501 1110 81 1 519 1037 35 517 0 0 522 503
 1114 82 3 1110 27 38 1 81 1 522 1036 35 525 0 0 397 519 1111 82 3 1114 27 37 1
 81 1 397 1035 35 400 0 0 399 522 1115 82 3 1111 27 36 1 81 1 399 1034 35 393 0
 0 410 397 1113 82 3 1115 27 35 1 81 1 410 1033 35 404 0 0 388 399 1112 82 3 111
3 27 34 1 81 1 388 1032 35 389 0 0 409 410 1120 82 3 1112 27 33 1 81 1 409 1031
 35 407 0 0 390 388 1116 82 3 1120 27 32 1 81 1 390 1030 35 384 0 0 432 409 1118
 82 3 1116 27 31 1 81 1 432 1029 35 435 0 0 439 390 1117 82 3 1118 27 30 1 81 1
 439 1028 35 437 0 0 402 432 1119 82 3 1117 27 29 1 81 1 402 1027 35 401 0 0 394
 439 1121 82 3 1119 27 28 1 81 1 394 1026 35 391 0 0 440 402 1125 82 3 1121 27 2
7 1 81 1 440 1025 35 434 0 0 441 394 1122 82 3 1125 27 26 1 81 1 441 1024 35 445
 0 0 413 440 1123 82 3 1122 27 25 1 81 1 413 1023 35 411 0 0 382 441 1124 82 3 1
123 27 24 1 81 1 382 1022 35 381 0 0 429 413 1126 82 3 1124 27 23 1 81 1 429 102
1 35 29 0 0 361 382 1130 82 3 1126 27 22 1 81 1 361 1020 35 365 0 0 426 429 1128
 82 3 1130 27 21 1 81 1 426 1019 35 424 0 0 371 361 1127 82 3 1128 27 20 1 81 1
 371 1018 35 369 0 0 416 426 1129 82 3 1127 27 19 1 81 1 416 1017 35 417 0 0 380
 371 1134 82 3 1129 27 18 1 81 1 380 1016 35 374 0 0 427 416 1135 82 3 1134 27 1
7 1 81 1 427 1015 35 430 0 0 366 380 1132 82 3 1135 27 16 1 81 1 366 1014 35 368
 0 0 466 427 1133 82 3 1132 27 15 1 81 1 466 1013 35 464 0 0 478 366 1131 82 3 1
133 27 14 1 82 3 1131 27 13 1 82 3 509 27 39 1 81 1 420 1011 35 414 0 0 379 478
 1138 82 3 476 27 12 1 81 1 379 1010 35 378 0 0 448 420 1140 82 3 1138 27 11 1 8
1 1 448 1009 35 447 0 0 452 379 1136 82 3 1140 27 10 1 81 1 452 1008 35 455 0 0
 421 448 1139 82 3 1136 27 9 1 81 1 421 1007 35 423 0 0 372 452 1137 82 3 1139 2
7 8 1 81 1 372 1006 35 375 0 0 467 421 1141 82 3 1137 27 7 1 82 3 1141 27 6 1 81
 1 462 1004 35 461 0 0 27 467 1145 82 3 474 27 5 1 81 1 27 1003 35 11 0 0 364 46
2 1143 82 3 1145 27 4 1 81 1 364 1002 35 357 0 0 451 27 1142 82 3 1143 27 3 1 81
 1 451 1001 35 450 0 0 457 364 1144 82 3 1142 27 2 1 81 1 457 1000 35 456 0 0 84
 451 1146 82 3 1144 27 1 1 81 1 84 999 35 83 0 0 102 457 1150 82 3 1146 27 0 1 8
1 1 102 998 35 105 0 0 80 84 1148 82 3 1150 27 23 0 81 1 80 997 35 74 0 0 99 102
 1147 82 3 1148 27 22 0 81 1 99 996 35 98 0 0 88 80 1149 82 3 1147 27 21 0 81 1
 88 995 35 90 0 0 91 99 1151 82 3 1149 27 20 0 81 1 91 994 35 93 0 0 81 88 1155
 82 3 1151 27 19 0 81 1 81 993 35 78 0 0 44 91 1152 82 3 1155 27 18 0 81 1 44 99
2 35 92 0 0 41 81 1153 82 3 1152 27 17 0 82 3 1153 27 16 0 82 3 312 18 26 1 82 3
 277 18 28 0 81 1 33 978 35 127 0 0 28 73 1154 81 1 73 979 35 75 0 0 33 116 1157
 82 3 1154 27 2 0 81 1 116 980 35 111 0 0 73 61 1160 82 3 1157 27 3 0 81 1 61 98
1 35 56 0 0 116 120 1159 82 3 1160 27 4 0 81 1 120 982 35 119 0 0 61 60 1156 82
 3 1159 27 5 0 81 1 60 983 35 52 0 0 120 115 1158 82 3 1156 27 6 0 81 1 115 984
 35 109 0 0 60 65 1161 82 3 1158 27 7 0 81 1 65 985 35 64 0 0 115 107 1162 82 3
 1161 27 8 0 81 1 107 986 35 106 0 0 65 68 1164 82 3 1162 27 9 0 81 1 68 987 35
 66 0 0 107 123 1163 82 3 1164 27 10 0 81 1 123 988 35 121 0 0 68 51 1165 82 3 1
163 27 11 0 81 1 51 989 35 43 0 0 123 42 1169 82 3 1165 27 12 0 81 1 42 990 35 1
30 0 0 51 41 1166 82 3 1169 27 13 0 82 3 1166 27 14 0 82 3 46 27 15 0 82 3 31 27
 1 0 19 18 1 0 1 0 10 6 0 S0 74 4 CI16 index_map_offset0 0 1 dCCZ20 16 6 0 0 871
 765 996 14 2 767 0 0 0 0 0 0 0 0 0 0 0 0 0 0 80 1 13 664 1170 8040 0 0 0 0 3 5
 0 0 0 TTTFFFFFFFFFFFFFF2 83 3 15 .615686274509804 .811764705882353 .92941176470
5882 79 17 1170 SDL/TYSA_COLOUR_21 0 
