%TF.GenerationSoftware,KiCad,Pcbnew,10.0.0*%
%TF.CreationDate,2026-04-23T12:43:52+05:30*%
%TF.ProjectId,Mech,4d656368-2e6b-4696-9361-645f70636258,rev?*%
%TF.SameCoordinates,Original*%
%TF.FileFunction,Legend,Top*%
%TF.FilePolarity,Positive*%
%FSLAX46Y46*%
G04 Gerber Fmt 4.6, Leading zero omitted, Abs format (unit mm)*
G04 Created by KiCad (PCBNEW 10.0.0) date 2026-04-23 12:43:52*
%MOMM*%
%LPD*%
G01*
G04 APERTURE LIST*
%ADD10C,0.200000*%
%ADD11C,0.150000*%
%ADD12C,0.120000*%
%ADD13R,1.752600X1.752600*%
%ADD14C,1.752600*%
G04 APERTURE END LIST*
D10*
G36*
X97631792Y-99503782D02*
G01*
X98932226Y-96995806D01*
X99862279Y-95399436D01*
X100507461Y-94466258D01*
X100940974Y-93986880D01*
X101225307Y-93792488D01*
X101423347Y-93742247D01*
X101559459Y-93770405D01*
X101659401Y-93866316D01*
X101729122Y-94056767D01*
X101751745Y-94317716D01*
X101718756Y-94643614D01*
X101615096Y-95050824D01*
X101282233Y-95839694D01*
X99716613Y-99219548D01*
X98846014Y-101148351D01*
X98423435Y-102212674D01*
X98272600Y-102724679D01*
X98258913Y-102925221D01*
X98319400Y-103004200D01*
X98480487Y-102990900D01*
X98647817Y-102958708D01*
X98687672Y-102988925D01*
X98677079Y-103076233D01*
X98598290Y-103168974D01*
X98407148Y-103275692D01*
X98196913Y-103329306D01*
X98052867Y-103300107D01*
X97947557Y-103199848D01*
X97874442Y-103000859D01*
X97866435Y-102616145D01*
X98001410Y-101938580D01*
X98371970Y-100827577D01*
X99093906Y-99113993D01*
X99700840Y-97835892D01*
X100976947Y-95273942D01*
X101274605Y-94610363D01*
X101385806Y-94240353D01*
X101392644Y-94054189D01*
X101359843Y-93996210D01*
X101299124Y-93998896D01*
X101094198Y-94170722D01*
X100623084Y-94789889D01*
X99685386Y-96274309D01*
X98740087Y-97896065D01*
X98178234Y-98943345D01*
X96985593Y-101475695D01*
X95767565Y-104136479D01*
X95611128Y-104428569D01*
X95525210Y-104439158D01*
X95401553Y-104398658D01*
X95296690Y-104323049D01*
X95255782Y-104244020D01*
X95299086Y-104030696D01*
X95651885Y-103066931D01*
X96758614Y-100397135D01*
X97636599Y-98260983D01*
X98059324Y-97099236D01*
X98208117Y-96553761D01*
X98220961Y-96349860D01*
X98188018Y-96293802D01*
X98123068Y-96298015D01*
X97970306Y-96416083D01*
X97638463Y-96808843D01*
X97003643Y-97711410D01*
X96202820Y-98993377D01*
X95284735Y-100627940D01*
X93727699Y-103662026D01*
X93195569Y-104793758D01*
X92775998Y-105646882D01*
X92696699Y-105767560D01*
X92605850Y-105784874D01*
X92473107Y-105765887D01*
X92341160Y-105709691D01*
X92294595Y-105637883D01*
X92321079Y-105479255D01*
X92537503Y-104888299D01*
X93188765Y-103388774D01*
X94920148Y-99537743D01*
X95523250Y-98024811D01*
X95737535Y-97305038D01*
X95757429Y-97028343D01*
X95710694Y-96947350D01*
X95622097Y-96952058D01*
X95412375Y-97108703D01*
X95023523Y-97573268D01*
X94353062Y-98578078D01*
X93627971Y-99885418D01*
X92488537Y-102257967D01*
X92404918Y-102401894D01*
X92346432Y-102452016D01*
X92244517Y-102463053D01*
X92199044Y-102393585D01*
X92267016Y-102113458D01*
X92815254Y-100783583D01*
X93332296Y-99732150D01*
X94045620Y-98488881D01*
X94617364Y-97616670D01*
X95044787Y-97074332D01*
X95359151Y-96769700D01*
X95588525Y-96626679D01*
X95765997Y-96584506D01*
X95892437Y-96617051D01*
X95989989Y-96719800D01*
X96061754Y-96925167D01*
X96067800Y-97272928D01*
X95941898Y-97926036D01*
X95591183Y-99043312D01*
X94899483Y-100818004D01*
X96075647Y-98696320D01*
X96902492Y-97352406D01*
X97463492Y-96572376D01*
X97829680Y-96176195D01*
X98060793Y-96018782D01*
X98240470Y-95974586D01*
X98366144Y-96003638D01*
X98460694Y-96098625D01*
X98528415Y-96287810D01*
X98537188Y-96593550D01*
X98440405Y-97146675D01*
X98167749Y-98068133D01*
X97631792Y-99503782D01*
G37*
G36*
X103464798Y-97809099D02*
G01*
X103558729Y-97892417D01*
X103621419Y-98057173D01*
X103626644Y-98283753D01*
X103548437Y-98579676D01*
X103354062Y-98970776D01*
X102998783Y-99485759D01*
X102449780Y-100136544D01*
X101884276Y-100683206D01*
X101869710Y-100882667D01*
X101890349Y-101077570D01*
X101948823Y-101247518D01*
X102028007Y-101336985D01*
X102129029Y-101371076D01*
X102467370Y-101280526D01*
X102631535Y-101250695D01*
X102682927Y-101305776D01*
X102659052Y-101381814D01*
X102508803Y-101505421D01*
X102094756Y-101710395D01*
X101777525Y-101793804D01*
X101564125Y-101755898D01*
X101412129Y-101618269D01*
X101309578Y-101345850D01*
X101280861Y-101044413D01*
X101038710Y-101276308D01*
X100486214Y-101931497D01*
X100112404Y-102356739D01*
X99841380Y-102598942D01*
X99647667Y-102715160D01*
X99586679Y-102717668D01*
X99553575Y-102658517D01*
X99567946Y-102563064D01*
X99665130Y-102470007D01*
X99959456Y-102224715D01*
X100424233Y-101696716D01*
X100942072Y-101110635D01*
X101303610Y-100791710D01*
X101398099Y-100392537D01*
X101908951Y-100392537D01*
X102271520Y-99951143D01*
X102692094Y-99345829D01*
X103037495Y-98753601D01*
X103172089Y-98392304D01*
X103182259Y-98181496D01*
X103140485Y-98103360D01*
X103068418Y-98104581D01*
X102890026Y-98233698D01*
X102653591Y-98542340D01*
X102339658Y-99135634D01*
X102027946Y-99912576D01*
X101908951Y-100392537D01*
X101398099Y-100392537D01*
X101411738Y-100334917D01*
X101629328Y-99781819D01*
X101984329Y-99112402D01*
X102436115Y-98438874D01*
X102813512Y-98041600D01*
X103132194Y-97839768D01*
X103331591Y-97786736D01*
X103464798Y-97809099D01*
G37*
G36*
X106756719Y-96337814D02*
G01*
X106823399Y-96476723D01*
X106910304Y-96471480D01*
X106955091Y-96548184D01*
X106941251Y-96630949D01*
X106850261Y-96702531D01*
X106790123Y-97137968D01*
X106636243Y-97639797D01*
X106450028Y-98032060D01*
X106270368Y-98263238D01*
X106096228Y-98381648D01*
X105979314Y-98404854D01*
X105907203Y-98368045D01*
X105861494Y-98263712D01*
X105860266Y-98089939D01*
X105873168Y-98041178D01*
X106094458Y-98041178D01*
X106129729Y-98061761D01*
X106236826Y-97952779D01*
X106414355Y-97572128D01*
X106582959Y-97005443D01*
X106483979Y-97143516D01*
X106288742Y-97504985D01*
X106116218Y-97898857D01*
X106094458Y-98041178D01*
X105873168Y-98041178D01*
X105931099Y-97822230D01*
X106113672Y-97420096D01*
X106392522Y-96948422D01*
X106623065Y-96667363D01*
X106622087Y-96616303D01*
X106602508Y-96584493D01*
X106560801Y-96588189D01*
X106381396Y-96730704D01*
X106078732Y-97149550D01*
X105588912Y-98054114D01*
X105172689Y-98988449D01*
X105017368Y-99507951D01*
X105007813Y-99768083D01*
X105094945Y-99951120D01*
X105249142Y-100019072D01*
X105367027Y-100009772D01*
X105607750Y-99947514D01*
X105783043Y-99928489D01*
X105834823Y-99981142D01*
X105821262Y-100052881D01*
X105732344Y-100142610D01*
X105504928Y-100262863D01*
X105192214Y-100354164D01*
X104964204Y-100344611D01*
X104791278Y-100256741D01*
X104656049Y-100083787D01*
X104558931Y-99791991D01*
X104535225Y-99468954D01*
X104587502Y-99006675D01*
X103781401Y-100274336D01*
X103293382Y-100912097D01*
X102938861Y-101264790D01*
X102683727Y-101426429D01*
X102622392Y-101430077D01*
X102590577Y-101375755D01*
X102602880Y-101279191D01*
X102691039Y-101186115D01*
X102958215Y-100961382D01*
X103311846Y-100556508D01*
X103775059Y-99901843D01*
X104900309Y-98103362D01*
X105424315Y-97311906D01*
X105840848Y-96799382D01*
X106169803Y-96494492D01*
X106430178Y-96337968D01*
X106638694Y-96290087D01*
X106756719Y-96337814D01*
G37*
G36*
X108497762Y-97584609D02*
G01*
X109329499Y-96214601D01*
X109902299Y-95413630D01*
X110283483Y-95002195D01*
X110530192Y-94835356D01*
X110698537Y-94803859D01*
X110805466Y-94862559D01*
X110875825Y-95028274D01*
X110862479Y-95249480D01*
X110705766Y-95729670D01*
X110281542Y-96641174D01*
X109725411Y-97818680D01*
X109654031Y-98088281D01*
X109688317Y-98143978D01*
X109767289Y-98159255D01*
X109933416Y-98111378D01*
X110002453Y-98109295D01*
X110041001Y-98179805D01*
X110008762Y-98277667D01*
X109811184Y-98401003D01*
X109593660Y-98459574D01*
X109449481Y-98436886D01*
X109348965Y-98349692D01*
X109282726Y-98177433D01*
X109279259Y-97874474D01*
X109397237Y-97401745D01*
X109704174Y-96686189D01*
X110367506Y-95285965D01*
X110318254Y-95264949D01*
X110156933Y-95396215D01*
X109811565Y-95842818D01*
X109154377Y-96882417D01*
X108525169Y-97964094D01*
X108090644Y-98772064D01*
X107822367Y-99245206D01*
X107736993Y-99253626D01*
X107642087Y-99201798D01*
X107566244Y-99115167D01*
X107531211Y-99028103D01*
X107581396Y-98782691D01*
X107991561Y-97657259D01*
X108571383Y-96237824D01*
X108169372Y-96967336D01*
X107616615Y-97871604D01*
X106831705Y-99076671D01*
X106393277Y-99630685D01*
X106070566Y-99942233D01*
X105834899Y-100088836D01*
X105773563Y-100092484D01*
X105741748Y-100038162D01*
X105750278Y-99941764D01*
X105821526Y-99857302D01*
X106179877Y-99552328D01*
X106471478Y-99226925D01*
X107008448Y-98462840D01*
X107903977Y-97018361D01*
X108711286Y-95661034D01*
X109047243Y-94986536D01*
X110027384Y-92763184D01*
X110750128Y-91135879D01*
X111033654Y-90580111D01*
X111114232Y-90477926D01*
X111226371Y-90461004D01*
X111304403Y-90513106D01*
X111361830Y-90659920D01*
X111284989Y-90991945D01*
X110663178Y-92553271D01*
X108497762Y-97584609D01*
G37*
D11*
X79248095Y-71147200D02*
X79390952Y-71194819D01*
X79390952Y-71194819D02*
X79629047Y-71194819D01*
X79629047Y-71194819D02*
X79724285Y-71147200D01*
X79724285Y-71147200D02*
X79771904Y-71099580D01*
X79771904Y-71099580D02*
X79819523Y-71004342D01*
X79819523Y-71004342D02*
X79819523Y-70909104D01*
X79819523Y-70909104D02*
X79771904Y-70813866D01*
X79771904Y-70813866D02*
X79724285Y-70766247D01*
X79724285Y-70766247D02*
X79629047Y-70718628D01*
X79629047Y-70718628D02*
X79438571Y-70671009D01*
X79438571Y-70671009D02*
X79343333Y-70623390D01*
X79343333Y-70623390D02*
X79295714Y-70575771D01*
X79295714Y-70575771D02*
X79248095Y-70480533D01*
X79248095Y-70480533D02*
X79248095Y-70385295D01*
X79248095Y-70385295D02*
X79295714Y-70290057D01*
X79295714Y-70290057D02*
X79343333Y-70242438D01*
X79343333Y-70242438D02*
X79438571Y-70194819D01*
X79438571Y-70194819D02*
X79676666Y-70194819D01*
X79676666Y-70194819D02*
X79819523Y-70242438D01*
X80676666Y-70194819D02*
X80486190Y-70194819D01*
X80486190Y-70194819D02*
X80390952Y-70242438D01*
X80390952Y-70242438D02*
X80343333Y-70290057D01*
X80343333Y-70290057D02*
X80248095Y-70432914D01*
X80248095Y-70432914D02*
X80200476Y-70623390D01*
X80200476Y-70623390D02*
X80200476Y-71004342D01*
X80200476Y-71004342D02*
X80248095Y-71099580D01*
X80248095Y-71099580D02*
X80295714Y-71147200D01*
X80295714Y-71147200D02*
X80390952Y-71194819D01*
X80390952Y-71194819D02*
X80581428Y-71194819D01*
X80581428Y-71194819D02*
X80676666Y-71147200D01*
X80676666Y-71147200D02*
X80724285Y-71099580D01*
X80724285Y-71099580D02*
X80771904Y-71004342D01*
X80771904Y-71004342D02*
X80771904Y-70766247D01*
X80771904Y-70766247D02*
X80724285Y-70671009D01*
X80724285Y-70671009D02*
X80676666Y-70623390D01*
X80676666Y-70623390D02*
X80581428Y-70575771D01*
X80581428Y-70575771D02*
X80390952Y-70575771D01*
X80390952Y-70575771D02*
X80295714Y-70623390D01*
X80295714Y-70623390D02*
X80248095Y-70671009D01*
X80248095Y-70671009D02*
X80200476Y-70766247D01*
X41148095Y-52097200D02*
X41290952Y-52144819D01*
X41290952Y-52144819D02*
X41529047Y-52144819D01*
X41529047Y-52144819D02*
X41624285Y-52097200D01*
X41624285Y-52097200D02*
X41671904Y-52049580D01*
X41671904Y-52049580D02*
X41719523Y-51954342D01*
X41719523Y-51954342D02*
X41719523Y-51859104D01*
X41719523Y-51859104D02*
X41671904Y-51763866D01*
X41671904Y-51763866D02*
X41624285Y-51716247D01*
X41624285Y-51716247D02*
X41529047Y-51668628D01*
X41529047Y-51668628D02*
X41338571Y-51621009D01*
X41338571Y-51621009D02*
X41243333Y-51573390D01*
X41243333Y-51573390D02*
X41195714Y-51525771D01*
X41195714Y-51525771D02*
X41148095Y-51430533D01*
X41148095Y-51430533D02*
X41148095Y-51335295D01*
X41148095Y-51335295D02*
X41195714Y-51240057D01*
X41195714Y-51240057D02*
X41243333Y-51192438D01*
X41243333Y-51192438D02*
X41338571Y-51144819D01*
X41338571Y-51144819D02*
X41576666Y-51144819D01*
X41576666Y-51144819D02*
X41719523Y-51192438D01*
X42671904Y-52144819D02*
X42100476Y-52144819D01*
X42386190Y-52144819D02*
X42386190Y-51144819D01*
X42386190Y-51144819D02*
X42290952Y-51287676D01*
X42290952Y-51287676D02*
X42195714Y-51382914D01*
X42195714Y-51382914D02*
X42100476Y-51430533D01*
X41148095Y-90197200D02*
X41290952Y-90244819D01*
X41290952Y-90244819D02*
X41529047Y-90244819D01*
X41529047Y-90244819D02*
X41624285Y-90197200D01*
X41624285Y-90197200D02*
X41671904Y-90149580D01*
X41671904Y-90149580D02*
X41719523Y-90054342D01*
X41719523Y-90054342D02*
X41719523Y-89959104D01*
X41719523Y-89959104D02*
X41671904Y-89863866D01*
X41671904Y-89863866D02*
X41624285Y-89816247D01*
X41624285Y-89816247D02*
X41529047Y-89768628D01*
X41529047Y-89768628D02*
X41338571Y-89721009D01*
X41338571Y-89721009D02*
X41243333Y-89673390D01*
X41243333Y-89673390D02*
X41195714Y-89625771D01*
X41195714Y-89625771D02*
X41148095Y-89530533D01*
X41148095Y-89530533D02*
X41148095Y-89435295D01*
X41148095Y-89435295D02*
X41195714Y-89340057D01*
X41195714Y-89340057D02*
X41243333Y-89292438D01*
X41243333Y-89292438D02*
X41338571Y-89244819D01*
X41338571Y-89244819D02*
X41576666Y-89244819D01*
X41576666Y-89244819D02*
X41719523Y-89292438D01*
X42052857Y-89244819D02*
X42719523Y-89244819D01*
X42719523Y-89244819D02*
X42290952Y-90244819D01*
X79248095Y-52097200D02*
X79390952Y-52144819D01*
X79390952Y-52144819D02*
X79629047Y-52144819D01*
X79629047Y-52144819D02*
X79724285Y-52097200D01*
X79724285Y-52097200D02*
X79771904Y-52049580D01*
X79771904Y-52049580D02*
X79819523Y-51954342D01*
X79819523Y-51954342D02*
X79819523Y-51859104D01*
X79819523Y-51859104D02*
X79771904Y-51763866D01*
X79771904Y-51763866D02*
X79724285Y-51716247D01*
X79724285Y-51716247D02*
X79629047Y-51668628D01*
X79629047Y-51668628D02*
X79438571Y-51621009D01*
X79438571Y-51621009D02*
X79343333Y-51573390D01*
X79343333Y-51573390D02*
X79295714Y-51525771D01*
X79295714Y-51525771D02*
X79248095Y-51430533D01*
X79248095Y-51430533D02*
X79248095Y-51335295D01*
X79248095Y-51335295D02*
X79295714Y-51240057D01*
X79295714Y-51240057D02*
X79343333Y-51192438D01*
X79343333Y-51192438D02*
X79438571Y-51144819D01*
X79438571Y-51144819D02*
X79676666Y-51144819D01*
X79676666Y-51144819D02*
X79819523Y-51192438D01*
X80152857Y-51144819D02*
X80771904Y-51144819D01*
X80771904Y-51144819D02*
X80438571Y-51525771D01*
X80438571Y-51525771D02*
X80581428Y-51525771D01*
X80581428Y-51525771D02*
X80676666Y-51573390D01*
X80676666Y-51573390D02*
X80724285Y-51621009D01*
X80724285Y-51621009D02*
X80771904Y-51716247D01*
X80771904Y-51716247D02*
X80771904Y-51954342D01*
X80771904Y-51954342D02*
X80724285Y-52049580D01*
X80724285Y-52049580D02*
X80676666Y-52097200D01*
X80676666Y-52097200D02*
X80581428Y-52144819D01*
X80581428Y-52144819D02*
X80295714Y-52144819D01*
X80295714Y-52144819D02*
X80200476Y-52097200D01*
X80200476Y-52097200D02*
X80152857Y-52049580D01*
X60196647Y-71147199D02*
X60339504Y-71194818D01*
X60339504Y-71194818D02*
X60577599Y-71194818D01*
X60577599Y-71194818D02*
X60672837Y-71147199D01*
X60672837Y-71147199D02*
X60720456Y-71099579D01*
X60720456Y-71099579D02*
X60768075Y-71004341D01*
X60768075Y-71004341D02*
X60768075Y-70909103D01*
X60768075Y-70909103D02*
X60720456Y-70813865D01*
X60720456Y-70813865D02*
X60672837Y-70766246D01*
X60672837Y-70766246D02*
X60577599Y-70718627D01*
X60577599Y-70718627D02*
X60387123Y-70671008D01*
X60387123Y-70671008D02*
X60291885Y-70623389D01*
X60291885Y-70623389D02*
X60244266Y-70575770D01*
X60244266Y-70575770D02*
X60196647Y-70480532D01*
X60196647Y-70480532D02*
X60196647Y-70385294D01*
X60196647Y-70385294D02*
X60244266Y-70290056D01*
X60244266Y-70290056D02*
X60291885Y-70242437D01*
X60291885Y-70242437D02*
X60387123Y-70194818D01*
X60387123Y-70194818D02*
X60625218Y-70194818D01*
X60625218Y-70194818D02*
X60768075Y-70242437D01*
X61672837Y-70194818D02*
X61196647Y-70194818D01*
X61196647Y-70194818D02*
X61149028Y-70671008D01*
X61149028Y-70671008D02*
X61196647Y-70623389D01*
X61196647Y-70623389D02*
X61291885Y-70575770D01*
X61291885Y-70575770D02*
X61529980Y-70575770D01*
X61529980Y-70575770D02*
X61625218Y-70623389D01*
X61625218Y-70623389D02*
X61672837Y-70671008D01*
X61672837Y-70671008D02*
X61720456Y-70766246D01*
X61720456Y-70766246D02*
X61720456Y-71004341D01*
X61720456Y-71004341D02*
X61672837Y-71099579D01*
X61672837Y-71099579D02*
X61625218Y-71147199D01*
X61625218Y-71147199D02*
X61529980Y-71194818D01*
X61529980Y-71194818D02*
X61291885Y-71194818D01*
X61291885Y-71194818D02*
X61196647Y-71147199D01*
X61196647Y-71147199D02*
X61149028Y-71099579D01*
X79248095Y-90197200D02*
X79390952Y-90244819D01*
X79390952Y-90244819D02*
X79629047Y-90244819D01*
X79629047Y-90244819D02*
X79724285Y-90197200D01*
X79724285Y-90197200D02*
X79771904Y-90149580D01*
X79771904Y-90149580D02*
X79819523Y-90054342D01*
X79819523Y-90054342D02*
X79819523Y-89959104D01*
X79819523Y-89959104D02*
X79771904Y-89863866D01*
X79771904Y-89863866D02*
X79724285Y-89816247D01*
X79724285Y-89816247D02*
X79629047Y-89768628D01*
X79629047Y-89768628D02*
X79438571Y-89721009D01*
X79438571Y-89721009D02*
X79343333Y-89673390D01*
X79343333Y-89673390D02*
X79295714Y-89625771D01*
X79295714Y-89625771D02*
X79248095Y-89530533D01*
X79248095Y-89530533D02*
X79248095Y-89435295D01*
X79248095Y-89435295D02*
X79295714Y-89340057D01*
X79295714Y-89340057D02*
X79343333Y-89292438D01*
X79343333Y-89292438D02*
X79438571Y-89244819D01*
X79438571Y-89244819D02*
X79676666Y-89244819D01*
X79676666Y-89244819D02*
X79819523Y-89292438D01*
X80295714Y-90244819D02*
X80486190Y-90244819D01*
X80486190Y-90244819D02*
X80581428Y-90197200D01*
X80581428Y-90197200D02*
X80629047Y-90149580D01*
X80629047Y-90149580D02*
X80724285Y-90006723D01*
X80724285Y-90006723D02*
X80771904Y-89816247D01*
X80771904Y-89816247D02*
X80771904Y-89435295D01*
X80771904Y-89435295D02*
X80724285Y-89340057D01*
X80724285Y-89340057D02*
X80676666Y-89292438D01*
X80676666Y-89292438D02*
X80581428Y-89244819D01*
X80581428Y-89244819D02*
X80390952Y-89244819D01*
X80390952Y-89244819D02*
X80295714Y-89292438D01*
X80295714Y-89292438D02*
X80248095Y-89340057D01*
X80248095Y-89340057D02*
X80200476Y-89435295D01*
X80200476Y-89435295D02*
X80200476Y-89673390D01*
X80200476Y-89673390D02*
X80248095Y-89768628D01*
X80248095Y-89768628D02*
X80295714Y-89816247D01*
X80295714Y-89816247D02*
X80390952Y-89863866D01*
X80390952Y-89863866D02*
X80581428Y-89863866D01*
X80581428Y-89863866D02*
X80676666Y-89816247D01*
X80676666Y-89816247D02*
X80724285Y-89768628D01*
X80724285Y-89768628D02*
X80771904Y-89673390D01*
X41148095Y-71147200D02*
X41290952Y-71194819D01*
X41290952Y-71194819D02*
X41529047Y-71194819D01*
X41529047Y-71194819D02*
X41624285Y-71147200D01*
X41624285Y-71147200D02*
X41671904Y-71099580D01*
X41671904Y-71099580D02*
X41719523Y-71004342D01*
X41719523Y-71004342D02*
X41719523Y-70909104D01*
X41719523Y-70909104D02*
X41671904Y-70813866D01*
X41671904Y-70813866D02*
X41624285Y-70766247D01*
X41624285Y-70766247D02*
X41529047Y-70718628D01*
X41529047Y-70718628D02*
X41338571Y-70671009D01*
X41338571Y-70671009D02*
X41243333Y-70623390D01*
X41243333Y-70623390D02*
X41195714Y-70575771D01*
X41195714Y-70575771D02*
X41148095Y-70480533D01*
X41148095Y-70480533D02*
X41148095Y-70385295D01*
X41148095Y-70385295D02*
X41195714Y-70290057D01*
X41195714Y-70290057D02*
X41243333Y-70242438D01*
X41243333Y-70242438D02*
X41338571Y-70194819D01*
X41338571Y-70194819D02*
X41576666Y-70194819D01*
X41576666Y-70194819D02*
X41719523Y-70242438D01*
X42576666Y-70528152D02*
X42576666Y-71194819D01*
X42338571Y-70147200D02*
X42100476Y-70861485D01*
X42100476Y-70861485D02*
X42719523Y-70861485D01*
X60198095Y-52097200D02*
X60340952Y-52144819D01*
X60340952Y-52144819D02*
X60579047Y-52144819D01*
X60579047Y-52144819D02*
X60674285Y-52097200D01*
X60674285Y-52097200D02*
X60721904Y-52049580D01*
X60721904Y-52049580D02*
X60769523Y-51954342D01*
X60769523Y-51954342D02*
X60769523Y-51859104D01*
X60769523Y-51859104D02*
X60721904Y-51763866D01*
X60721904Y-51763866D02*
X60674285Y-51716247D01*
X60674285Y-51716247D02*
X60579047Y-51668628D01*
X60579047Y-51668628D02*
X60388571Y-51621009D01*
X60388571Y-51621009D02*
X60293333Y-51573390D01*
X60293333Y-51573390D02*
X60245714Y-51525771D01*
X60245714Y-51525771D02*
X60198095Y-51430533D01*
X60198095Y-51430533D02*
X60198095Y-51335295D01*
X60198095Y-51335295D02*
X60245714Y-51240057D01*
X60245714Y-51240057D02*
X60293333Y-51192438D01*
X60293333Y-51192438D02*
X60388571Y-51144819D01*
X60388571Y-51144819D02*
X60626666Y-51144819D01*
X60626666Y-51144819D02*
X60769523Y-51192438D01*
X61150476Y-51240057D02*
X61198095Y-51192438D01*
X61198095Y-51192438D02*
X61293333Y-51144819D01*
X61293333Y-51144819D02*
X61531428Y-51144819D01*
X61531428Y-51144819D02*
X61626666Y-51192438D01*
X61626666Y-51192438D02*
X61674285Y-51240057D01*
X61674285Y-51240057D02*
X61721904Y-51335295D01*
X61721904Y-51335295D02*
X61721904Y-51430533D01*
X61721904Y-51430533D02*
X61674285Y-51573390D01*
X61674285Y-51573390D02*
X61102857Y-52144819D01*
X61102857Y-52144819D02*
X61721904Y-52144819D01*
X60198095Y-90197200D02*
X60340952Y-90244819D01*
X60340952Y-90244819D02*
X60579047Y-90244819D01*
X60579047Y-90244819D02*
X60674285Y-90197200D01*
X60674285Y-90197200D02*
X60721904Y-90149580D01*
X60721904Y-90149580D02*
X60769523Y-90054342D01*
X60769523Y-90054342D02*
X60769523Y-89959104D01*
X60769523Y-89959104D02*
X60721904Y-89863866D01*
X60721904Y-89863866D02*
X60674285Y-89816247D01*
X60674285Y-89816247D02*
X60579047Y-89768628D01*
X60579047Y-89768628D02*
X60388571Y-89721009D01*
X60388571Y-89721009D02*
X60293333Y-89673390D01*
X60293333Y-89673390D02*
X60245714Y-89625771D01*
X60245714Y-89625771D02*
X60198095Y-89530533D01*
X60198095Y-89530533D02*
X60198095Y-89435295D01*
X60198095Y-89435295D02*
X60245714Y-89340057D01*
X60245714Y-89340057D02*
X60293333Y-89292438D01*
X60293333Y-89292438D02*
X60388571Y-89244819D01*
X60388571Y-89244819D02*
X60626666Y-89244819D01*
X60626666Y-89244819D02*
X60769523Y-89292438D01*
X61340952Y-89673390D02*
X61245714Y-89625771D01*
X61245714Y-89625771D02*
X61198095Y-89578152D01*
X61198095Y-89578152D02*
X61150476Y-89482914D01*
X61150476Y-89482914D02*
X61150476Y-89435295D01*
X61150476Y-89435295D02*
X61198095Y-89340057D01*
X61198095Y-89340057D02*
X61245714Y-89292438D01*
X61245714Y-89292438D02*
X61340952Y-89244819D01*
X61340952Y-89244819D02*
X61531428Y-89244819D01*
X61531428Y-89244819D02*
X61626666Y-89292438D01*
X61626666Y-89292438D02*
X61674285Y-89340057D01*
X61674285Y-89340057D02*
X61721904Y-89435295D01*
X61721904Y-89435295D02*
X61721904Y-89482914D01*
X61721904Y-89482914D02*
X61674285Y-89578152D01*
X61674285Y-89578152D02*
X61626666Y-89625771D01*
X61626666Y-89625771D02*
X61531428Y-89673390D01*
X61531428Y-89673390D02*
X61340952Y-89673390D01*
X61340952Y-89673390D02*
X61245714Y-89721009D01*
X61245714Y-89721009D02*
X61198095Y-89768628D01*
X61198095Y-89768628D02*
X61150476Y-89863866D01*
X61150476Y-89863866D02*
X61150476Y-90054342D01*
X61150476Y-90054342D02*
X61198095Y-90149580D01*
X61198095Y-90149580D02*
X61245714Y-90197200D01*
X61245714Y-90197200D02*
X61340952Y-90244819D01*
X61340952Y-90244819D02*
X61531428Y-90244819D01*
X61531428Y-90244819D02*
X61626666Y-90197200D01*
X61626666Y-90197200D02*
X61674285Y-90149580D01*
X61674285Y-90149580D02*
X61721904Y-90054342D01*
X61721904Y-90054342D02*
X61721904Y-89863866D01*
X61721904Y-89863866D02*
X61674285Y-89768628D01*
X61674285Y-89768628D02*
X61626666Y-89721009D01*
X61626666Y-89721009D02*
X61531428Y-89673390D01*
X96058524Y-56682295D02*
X96058524Y-55882295D01*
X96058524Y-55882295D02*
X96249000Y-55882295D01*
X96249000Y-55882295D02*
X96363286Y-55920390D01*
X96363286Y-55920390D02*
X96439476Y-55996580D01*
X96439476Y-55996580D02*
X96477571Y-56072771D01*
X96477571Y-56072771D02*
X96515667Y-56225152D01*
X96515667Y-56225152D02*
X96515667Y-56339438D01*
X96515667Y-56339438D02*
X96477571Y-56491819D01*
X96477571Y-56491819D02*
X96439476Y-56568009D01*
X96439476Y-56568009D02*
X96363286Y-56644200D01*
X96363286Y-56644200D02*
X96249000Y-56682295D01*
X96249000Y-56682295D02*
X96058524Y-56682295D01*
X96820428Y-55958485D02*
X96858524Y-55920390D01*
X96858524Y-55920390D02*
X96934714Y-55882295D01*
X96934714Y-55882295D02*
X97125190Y-55882295D01*
X97125190Y-55882295D02*
X97201381Y-55920390D01*
X97201381Y-55920390D02*
X97239476Y-55958485D01*
X97239476Y-55958485D02*
X97277571Y-56034676D01*
X97277571Y-56034676D02*
X97277571Y-56110866D01*
X97277571Y-56110866D02*
X97239476Y-56225152D01*
X97239476Y-56225152D02*
X96782333Y-56682295D01*
X96782333Y-56682295D02*
X97277571Y-56682295D01*
X96039476Y-58460390D02*
X95963286Y-58422295D01*
X95963286Y-58422295D02*
X95849000Y-58422295D01*
X95849000Y-58422295D02*
X95734714Y-58460390D01*
X95734714Y-58460390D02*
X95658524Y-58536580D01*
X95658524Y-58536580D02*
X95620429Y-58612771D01*
X95620429Y-58612771D02*
X95582333Y-58765152D01*
X95582333Y-58765152D02*
X95582333Y-58879438D01*
X95582333Y-58879438D02*
X95620429Y-59031819D01*
X95620429Y-59031819D02*
X95658524Y-59108009D01*
X95658524Y-59108009D02*
X95734714Y-59184200D01*
X95734714Y-59184200D02*
X95849000Y-59222295D01*
X95849000Y-59222295D02*
X95925191Y-59222295D01*
X95925191Y-59222295D02*
X96039476Y-59184200D01*
X96039476Y-59184200D02*
X96077572Y-59146104D01*
X96077572Y-59146104D02*
X96077572Y-58879438D01*
X96077572Y-58879438D02*
X95925191Y-58879438D01*
X96420429Y-59222295D02*
X96420429Y-58422295D01*
X96420429Y-58422295D02*
X96877572Y-59222295D01*
X96877572Y-59222295D02*
X96877572Y-58422295D01*
X97258524Y-59222295D02*
X97258524Y-58422295D01*
X97258524Y-58422295D02*
X97449000Y-58422295D01*
X97449000Y-58422295D02*
X97563286Y-58460390D01*
X97563286Y-58460390D02*
X97639476Y-58536580D01*
X97639476Y-58536580D02*
X97677571Y-58612771D01*
X97677571Y-58612771D02*
X97715667Y-58765152D01*
X97715667Y-58765152D02*
X97715667Y-58879438D01*
X97715667Y-58879438D02*
X97677571Y-59031819D01*
X97677571Y-59031819D02*
X97639476Y-59108009D01*
X97639476Y-59108009D02*
X97563286Y-59184200D01*
X97563286Y-59184200D02*
X97449000Y-59222295D01*
X97449000Y-59222295D02*
X97258524Y-59222295D01*
X96039476Y-61000390D02*
X95963286Y-60962295D01*
X95963286Y-60962295D02*
X95849000Y-60962295D01*
X95849000Y-60962295D02*
X95734714Y-61000390D01*
X95734714Y-61000390D02*
X95658524Y-61076580D01*
X95658524Y-61076580D02*
X95620429Y-61152771D01*
X95620429Y-61152771D02*
X95582333Y-61305152D01*
X95582333Y-61305152D02*
X95582333Y-61419438D01*
X95582333Y-61419438D02*
X95620429Y-61571819D01*
X95620429Y-61571819D02*
X95658524Y-61648009D01*
X95658524Y-61648009D02*
X95734714Y-61724200D01*
X95734714Y-61724200D02*
X95849000Y-61762295D01*
X95849000Y-61762295D02*
X95925191Y-61762295D01*
X95925191Y-61762295D02*
X96039476Y-61724200D01*
X96039476Y-61724200D02*
X96077572Y-61686104D01*
X96077572Y-61686104D02*
X96077572Y-61419438D01*
X96077572Y-61419438D02*
X95925191Y-61419438D01*
X96420429Y-61762295D02*
X96420429Y-60962295D01*
X96420429Y-60962295D02*
X96877572Y-61762295D01*
X96877572Y-61762295D02*
X96877572Y-60962295D01*
X97258524Y-61762295D02*
X97258524Y-60962295D01*
X97258524Y-60962295D02*
X97449000Y-60962295D01*
X97449000Y-60962295D02*
X97563286Y-61000390D01*
X97563286Y-61000390D02*
X97639476Y-61076580D01*
X97639476Y-61076580D02*
X97677571Y-61152771D01*
X97677571Y-61152771D02*
X97715667Y-61305152D01*
X97715667Y-61305152D02*
X97715667Y-61419438D01*
X97715667Y-61419438D02*
X97677571Y-61571819D01*
X97677571Y-61571819D02*
X97639476Y-61648009D01*
X97639476Y-61648009D02*
X97563286Y-61724200D01*
X97563286Y-61724200D02*
X97449000Y-61762295D01*
X97449000Y-61762295D02*
X97258524Y-61762295D01*
X96058524Y-64302295D02*
X96058524Y-63502295D01*
X96058524Y-63502295D02*
X96249000Y-63502295D01*
X96249000Y-63502295D02*
X96363286Y-63540390D01*
X96363286Y-63540390D02*
X96439476Y-63616580D01*
X96439476Y-63616580D02*
X96477571Y-63692771D01*
X96477571Y-63692771D02*
X96515667Y-63845152D01*
X96515667Y-63845152D02*
X96515667Y-63959438D01*
X96515667Y-63959438D02*
X96477571Y-64111819D01*
X96477571Y-64111819D02*
X96439476Y-64188009D01*
X96439476Y-64188009D02*
X96363286Y-64264200D01*
X96363286Y-64264200D02*
X96249000Y-64302295D01*
X96249000Y-64302295D02*
X96058524Y-64302295D01*
X97277571Y-64302295D02*
X96820428Y-64302295D01*
X97049000Y-64302295D02*
X97049000Y-63502295D01*
X97049000Y-63502295D02*
X96972809Y-63616580D01*
X96972809Y-63616580D02*
X96896619Y-63692771D01*
X96896619Y-63692771D02*
X96820428Y-63730866D01*
X96058524Y-66842295D02*
X96058524Y-66042295D01*
X96058524Y-66042295D02*
X96249000Y-66042295D01*
X96249000Y-66042295D02*
X96363286Y-66080390D01*
X96363286Y-66080390D02*
X96439476Y-66156580D01*
X96439476Y-66156580D02*
X96477571Y-66232771D01*
X96477571Y-66232771D02*
X96515667Y-66385152D01*
X96515667Y-66385152D02*
X96515667Y-66499438D01*
X96515667Y-66499438D02*
X96477571Y-66651819D01*
X96477571Y-66651819D02*
X96439476Y-66728009D01*
X96439476Y-66728009D02*
X96363286Y-66804200D01*
X96363286Y-66804200D02*
X96249000Y-66842295D01*
X96249000Y-66842295D02*
X96058524Y-66842295D01*
X97010905Y-66042295D02*
X97087095Y-66042295D01*
X97087095Y-66042295D02*
X97163286Y-66080390D01*
X97163286Y-66080390D02*
X97201381Y-66118485D01*
X97201381Y-66118485D02*
X97239476Y-66194676D01*
X97239476Y-66194676D02*
X97277571Y-66347057D01*
X97277571Y-66347057D02*
X97277571Y-66537533D01*
X97277571Y-66537533D02*
X97239476Y-66689914D01*
X97239476Y-66689914D02*
X97201381Y-66766104D01*
X97201381Y-66766104D02*
X97163286Y-66804200D01*
X97163286Y-66804200D02*
X97087095Y-66842295D01*
X97087095Y-66842295D02*
X97010905Y-66842295D01*
X97010905Y-66842295D02*
X96934714Y-66804200D01*
X96934714Y-66804200D02*
X96896619Y-66766104D01*
X96896619Y-66766104D02*
X96858524Y-66689914D01*
X96858524Y-66689914D02*
X96820428Y-66537533D01*
X96820428Y-66537533D02*
X96820428Y-66347057D01*
X96820428Y-66347057D02*
X96858524Y-66194676D01*
X96858524Y-66194676D02*
X96896619Y-66118485D01*
X96896619Y-66118485D02*
X96934714Y-66080390D01*
X96934714Y-66080390D02*
X97010905Y-66042295D01*
X96058524Y-69382295D02*
X96058524Y-68582295D01*
X96058524Y-68582295D02*
X96249000Y-68582295D01*
X96249000Y-68582295D02*
X96363286Y-68620390D01*
X96363286Y-68620390D02*
X96439476Y-68696580D01*
X96439476Y-68696580D02*
X96477571Y-68772771D01*
X96477571Y-68772771D02*
X96515667Y-68925152D01*
X96515667Y-68925152D02*
X96515667Y-69039438D01*
X96515667Y-69039438D02*
X96477571Y-69191819D01*
X96477571Y-69191819D02*
X96439476Y-69268009D01*
X96439476Y-69268009D02*
X96363286Y-69344200D01*
X96363286Y-69344200D02*
X96249000Y-69382295D01*
X96249000Y-69382295D02*
X96058524Y-69382295D01*
X97201381Y-68848961D02*
X97201381Y-69382295D01*
X97010905Y-68544200D02*
X96820428Y-69115628D01*
X96820428Y-69115628D02*
X97315667Y-69115628D01*
X96515667Y-71846104D02*
X96477571Y-71884200D01*
X96477571Y-71884200D02*
X96363286Y-71922295D01*
X96363286Y-71922295D02*
X96287095Y-71922295D01*
X96287095Y-71922295D02*
X96172809Y-71884200D01*
X96172809Y-71884200D02*
X96096619Y-71808009D01*
X96096619Y-71808009D02*
X96058524Y-71731819D01*
X96058524Y-71731819D02*
X96020428Y-71579438D01*
X96020428Y-71579438D02*
X96020428Y-71465152D01*
X96020428Y-71465152D02*
X96058524Y-71312771D01*
X96058524Y-71312771D02*
X96096619Y-71236580D01*
X96096619Y-71236580D02*
X96172809Y-71160390D01*
X96172809Y-71160390D02*
X96287095Y-71122295D01*
X96287095Y-71122295D02*
X96363286Y-71122295D01*
X96363286Y-71122295D02*
X96477571Y-71160390D01*
X96477571Y-71160390D02*
X96515667Y-71198485D01*
X97201381Y-71122295D02*
X97049000Y-71122295D01*
X97049000Y-71122295D02*
X96972809Y-71160390D01*
X96972809Y-71160390D02*
X96934714Y-71198485D01*
X96934714Y-71198485D02*
X96858524Y-71312771D01*
X96858524Y-71312771D02*
X96820428Y-71465152D01*
X96820428Y-71465152D02*
X96820428Y-71769914D01*
X96820428Y-71769914D02*
X96858524Y-71846104D01*
X96858524Y-71846104D02*
X96896619Y-71884200D01*
X96896619Y-71884200D02*
X96972809Y-71922295D01*
X96972809Y-71922295D02*
X97125190Y-71922295D01*
X97125190Y-71922295D02*
X97201381Y-71884200D01*
X97201381Y-71884200D02*
X97239476Y-71846104D01*
X97239476Y-71846104D02*
X97277571Y-71769914D01*
X97277571Y-71769914D02*
X97277571Y-71579438D01*
X97277571Y-71579438D02*
X97239476Y-71503247D01*
X97239476Y-71503247D02*
X97201381Y-71465152D01*
X97201381Y-71465152D02*
X97125190Y-71427057D01*
X97125190Y-71427057D02*
X96972809Y-71427057D01*
X96972809Y-71427057D02*
X96896619Y-71465152D01*
X96896619Y-71465152D02*
X96858524Y-71503247D01*
X96858524Y-71503247D02*
X96820428Y-71579438D01*
X96058524Y-74462295D02*
X96058524Y-73662295D01*
X96058524Y-73662295D02*
X96249000Y-73662295D01*
X96249000Y-73662295D02*
X96363286Y-73700390D01*
X96363286Y-73700390D02*
X96439476Y-73776580D01*
X96439476Y-73776580D02*
X96477571Y-73852771D01*
X96477571Y-73852771D02*
X96515667Y-74005152D01*
X96515667Y-74005152D02*
X96515667Y-74119438D01*
X96515667Y-74119438D02*
X96477571Y-74271819D01*
X96477571Y-74271819D02*
X96439476Y-74348009D01*
X96439476Y-74348009D02*
X96363286Y-74424200D01*
X96363286Y-74424200D02*
X96249000Y-74462295D01*
X96249000Y-74462295D02*
X96058524Y-74462295D01*
X96782333Y-73662295D02*
X97315667Y-73662295D01*
X97315667Y-73662295D02*
X96972809Y-74462295D01*
X96096619Y-76583247D02*
X96363285Y-76583247D01*
X96477571Y-77002295D02*
X96096619Y-77002295D01*
X96096619Y-77002295D02*
X96096619Y-76202295D01*
X96096619Y-76202295D02*
X96477571Y-76202295D01*
X97163286Y-76202295D02*
X97010905Y-76202295D01*
X97010905Y-76202295D02*
X96934714Y-76240390D01*
X96934714Y-76240390D02*
X96896619Y-76278485D01*
X96896619Y-76278485D02*
X96820429Y-76392771D01*
X96820429Y-76392771D02*
X96782333Y-76545152D01*
X96782333Y-76545152D02*
X96782333Y-76849914D01*
X96782333Y-76849914D02*
X96820429Y-76926104D01*
X96820429Y-76926104D02*
X96858524Y-76964200D01*
X96858524Y-76964200D02*
X96934714Y-77002295D01*
X96934714Y-77002295D02*
X97087095Y-77002295D01*
X97087095Y-77002295D02*
X97163286Y-76964200D01*
X97163286Y-76964200D02*
X97201381Y-76926104D01*
X97201381Y-76926104D02*
X97239476Y-76849914D01*
X97239476Y-76849914D02*
X97239476Y-76659438D01*
X97239476Y-76659438D02*
X97201381Y-76583247D01*
X97201381Y-76583247D02*
X97163286Y-76545152D01*
X97163286Y-76545152D02*
X97087095Y-76507057D01*
X97087095Y-76507057D02*
X96934714Y-76507057D01*
X96934714Y-76507057D02*
X96858524Y-76545152D01*
X96858524Y-76545152D02*
X96820429Y-76583247D01*
X96820429Y-76583247D02*
X96782333Y-76659438D01*
X96325190Y-79123247D02*
X96439476Y-79161342D01*
X96439476Y-79161342D02*
X96477571Y-79199438D01*
X96477571Y-79199438D02*
X96515667Y-79275628D01*
X96515667Y-79275628D02*
X96515667Y-79389914D01*
X96515667Y-79389914D02*
X96477571Y-79466104D01*
X96477571Y-79466104D02*
X96439476Y-79504200D01*
X96439476Y-79504200D02*
X96363286Y-79542295D01*
X96363286Y-79542295D02*
X96058524Y-79542295D01*
X96058524Y-79542295D02*
X96058524Y-78742295D01*
X96058524Y-78742295D02*
X96325190Y-78742295D01*
X96325190Y-78742295D02*
X96401381Y-78780390D01*
X96401381Y-78780390D02*
X96439476Y-78818485D01*
X96439476Y-78818485D02*
X96477571Y-78894676D01*
X96477571Y-78894676D02*
X96477571Y-78970866D01*
X96477571Y-78970866D02*
X96439476Y-79047057D01*
X96439476Y-79047057D02*
X96401381Y-79085152D01*
X96401381Y-79085152D02*
X96325190Y-79123247D01*
X96325190Y-79123247D02*
X96058524Y-79123247D01*
X97201381Y-79008961D02*
X97201381Y-79542295D01*
X97010905Y-78704200D02*
X96820428Y-79275628D01*
X96820428Y-79275628D02*
X97315667Y-79275628D01*
X96325190Y-81663247D02*
X96439476Y-81701342D01*
X96439476Y-81701342D02*
X96477571Y-81739438D01*
X96477571Y-81739438D02*
X96515667Y-81815628D01*
X96515667Y-81815628D02*
X96515667Y-81929914D01*
X96515667Y-81929914D02*
X96477571Y-82006104D01*
X96477571Y-82006104D02*
X96439476Y-82044200D01*
X96439476Y-82044200D02*
X96363286Y-82082295D01*
X96363286Y-82082295D02*
X96058524Y-82082295D01*
X96058524Y-82082295D02*
X96058524Y-81282295D01*
X96058524Y-81282295D02*
X96325190Y-81282295D01*
X96325190Y-81282295D02*
X96401381Y-81320390D01*
X96401381Y-81320390D02*
X96439476Y-81358485D01*
X96439476Y-81358485D02*
X96477571Y-81434676D01*
X96477571Y-81434676D02*
X96477571Y-81510866D01*
X96477571Y-81510866D02*
X96439476Y-81587057D01*
X96439476Y-81587057D02*
X96401381Y-81625152D01*
X96401381Y-81625152D02*
X96325190Y-81663247D01*
X96325190Y-81663247D02*
X96058524Y-81663247D01*
X97239476Y-81282295D02*
X96858524Y-81282295D01*
X96858524Y-81282295D02*
X96820428Y-81663247D01*
X96820428Y-81663247D02*
X96858524Y-81625152D01*
X96858524Y-81625152D02*
X96934714Y-81587057D01*
X96934714Y-81587057D02*
X97125190Y-81587057D01*
X97125190Y-81587057D02*
X97201381Y-81625152D01*
X97201381Y-81625152D02*
X97239476Y-81663247D01*
X97239476Y-81663247D02*
X97277571Y-81739438D01*
X97277571Y-81739438D02*
X97277571Y-81929914D01*
X97277571Y-81929914D02*
X97239476Y-82006104D01*
X97239476Y-82006104D02*
X97201381Y-82044200D01*
X97201381Y-82044200D02*
X97125190Y-82082295D01*
X97125190Y-82082295D02*
X96934714Y-82082295D01*
X96934714Y-82082295D02*
X96858524Y-82044200D01*
X96858524Y-82044200D02*
X96820428Y-82006104D01*
X96347651Y-53342295D02*
X96804794Y-53342295D01*
X96576222Y-54142295D02*
X96576222Y-53342295D01*
X96995270Y-53342295D02*
X97528604Y-54142295D01*
X97528604Y-53342295D02*
X96995270Y-54142295D01*
X97985747Y-53342295D02*
X98061937Y-53342295D01*
X98061937Y-53342295D02*
X98138128Y-53380390D01*
X98138128Y-53380390D02*
X98176223Y-53418485D01*
X98176223Y-53418485D02*
X98214318Y-53494676D01*
X98214318Y-53494676D02*
X98252413Y-53647057D01*
X98252413Y-53647057D02*
X98252413Y-53837533D01*
X98252413Y-53837533D02*
X98214318Y-53989914D01*
X98214318Y-53989914D02*
X98176223Y-54066104D01*
X98176223Y-54066104D02*
X98138128Y-54104200D01*
X98138128Y-54104200D02*
X98061937Y-54142295D01*
X98061937Y-54142295D02*
X97985747Y-54142295D01*
X97985747Y-54142295D02*
X97909556Y-54104200D01*
X97909556Y-54104200D02*
X97871461Y-54066104D01*
X97871461Y-54066104D02*
X97833366Y-53989914D01*
X97833366Y-53989914D02*
X97795270Y-53837533D01*
X97795270Y-53837533D02*
X97795270Y-53647057D01*
X97795270Y-53647057D02*
X97833366Y-53494676D01*
X97833366Y-53494676D02*
X97871461Y-53418485D01*
X97871461Y-53418485D02*
X97909556Y-53380390D01*
X97909556Y-53380390D02*
X97985747Y-53342295D01*
X99166699Y-53304200D02*
X98480985Y-54332771D01*
X99433366Y-54142295D02*
X99433366Y-53342295D01*
X99433366Y-53342295D02*
X99623842Y-53342295D01*
X99623842Y-53342295D02*
X99738128Y-53380390D01*
X99738128Y-53380390D02*
X99814318Y-53456580D01*
X99814318Y-53456580D02*
X99852413Y-53532771D01*
X99852413Y-53532771D02*
X99890509Y-53685152D01*
X99890509Y-53685152D02*
X99890509Y-53799438D01*
X99890509Y-53799438D02*
X99852413Y-53951819D01*
X99852413Y-53951819D02*
X99814318Y-54028009D01*
X99814318Y-54028009D02*
X99738128Y-54104200D01*
X99738128Y-54104200D02*
X99623842Y-54142295D01*
X99623842Y-54142295D02*
X99433366Y-54142295D01*
X100157175Y-53342295D02*
X100652413Y-53342295D01*
X100652413Y-53342295D02*
X100385747Y-53647057D01*
X100385747Y-53647057D02*
X100500032Y-53647057D01*
X100500032Y-53647057D02*
X100576223Y-53685152D01*
X100576223Y-53685152D02*
X100614318Y-53723247D01*
X100614318Y-53723247D02*
X100652413Y-53799438D01*
X100652413Y-53799438D02*
X100652413Y-53989914D01*
X100652413Y-53989914D02*
X100614318Y-54066104D01*
X100614318Y-54066104D02*
X100576223Y-54104200D01*
X100576223Y-54104200D02*
X100500032Y-54142295D01*
X100500032Y-54142295D02*
X100271461Y-54142295D01*
X100271461Y-54142295D02*
X100195270Y-54104200D01*
X100195270Y-54104200D02*
X100157175Y-54066104D01*
X107018619Y-54142295D02*
X106751952Y-53761342D01*
X106561476Y-54142295D02*
X106561476Y-53342295D01*
X106561476Y-53342295D02*
X106866238Y-53342295D01*
X106866238Y-53342295D02*
X106942428Y-53380390D01*
X106942428Y-53380390D02*
X106980523Y-53418485D01*
X106980523Y-53418485D02*
X107018619Y-53494676D01*
X107018619Y-53494676D02*
X107018619Y-53608961D01*
X107018619Y-53608961D02*
X106980523Y-53685152D01*
X106980523Y-53685152D02*
X106942428Y-53723247D01*
X106942428Y-53723247D02*
X106866238Y-53761342D01*
X106866238Y-53761342D02*
X106561476Y-53761342D01*
X107323380Y-53913723D02*
X107704333Y-53913723D01*
X107247190Y-54142295D02*
X107513857Y-53342295D01*
X107513857Y-53342295D02*
X107780523Y-54142295D01*
X107970999Y-53342295D02*
X108161475Y-54142295D01*
X108161475Y-54142295D02*
X108313856Y-53570866D01*
X108313856Y-53570866D02*
X108466237Y-54142295D01*
X108466237Y-54142295D02*
X108656714Y-53342295D01*
X106961476Y-55920390D02*
X106885286Y-55882295D01*
X106885286Y-55882295D02*
X106771000Y-55882295D01*
X106771000Y-55882295D02*
X106656714Y-55920390D01*
X106656714Y-55920390D02*
X106580524Y-55996580D01*
X106580524Y-55996580D02*
X106542429Y-56072771D01*
X106542429Y-56072771D02*
X106504333Y-56225152D01*
X106504333Y-56225152D02*
X106504333Y-56339438D01*
X106504333Y-56339438D02*
X106542429Y-56491819D01*
X106542429Y-56491819D02*
X106580524Y-56568009D01*
X106580524Y-56568009D02*
X106656714Y-56644200D01*
X106656714Y-56644200D02*
X106771000Y-56682295D01*
X106771000Y-56682295D02*
X106847191Y-56682295D01*
X106847191Y-56682295D02*
X106961476Y-56644200D01*
X106961476Y-56644200D02*
X106999572Y-56606104D01*
X106999572Y-56606104D02*
X106999572Y-56339438D01*
X106999572Y-56339438D02*
X106847191Y-56339438D01*
X107342429Y-56682295D02*
X107342429Y-55882295D01*
X107342429Y-55882295D02*
X107799572Y-56682295D01*
X107799572Y-56682295D02*
X107799572Y-55882295D01*
X108180524Y-56682295D02*
X108180524Y-55882295D01*
X108180524Y-55882295D02*
X108371000Y-55882295D01*
X108371000Y-55882295D02*
X108485286Y-55920390D01*
X108485286Y-55920390D02*
X108561476Y-55996580D01*
X108561476Y-55996580D02*
X108599571Y-56072771D01*
X108599571Y-56072771D02*
X108637667Y-56225152D01*
X108637667Y-56225152D02*
X108637667Y-56339438D01*
X108637667Y-56339438D02*
X108599571Y-56491819D01*
X108599571Y-56491819D02*
X108561476Y-56568009D01*
X108561476Y-56568009D02*
X108485286Y-56644200D01*
X108485286Y-56644200D02*
X108371000Y-56682295D01*
X108371000Y-56682295D02*
X108180524Y-56682295D01*
X106504333Y-60962295D02*
X106771000Y-61762295D01*
X106771000Y-61762295D02*
X107037666Y-60962295D01*
X107761476Y-61686104D02*
X107723380Y-61724200D01*
X107723380Y-61724200D02*
X107609095Y-61762295D01*
X107609095Y-61762295D02*
X107532904Y-61762295D01*
X107532904Y-61762295D02*
X107418618Y-61724200D01*
X107418618Y-61724200D02*
X107342428Y-61648009D01*
X107342428Y-61648009D02*
X107304333Y-61571819D01*
X107304333Y-61571819D02*
X107266237Y-61419438D01*
X107266237Y-61419438D02*
X107266237Y-61305152D01*
X107266237Y-61305152D02*
X107304333Y-61152771D01*
X107304333Y-61152771D02*
X107342428Y-61076580D01*
X107342428Y-61076580D02*
X107418618Y-61000390D01*
X107418618Y-61000390D02*
X107532904Y-60962295D01*
X107532904Y-60962295D02*
X107609095Y-60962295D01*
X107609095Y-60962295D02*
X107723380Y-61000390D01*
X107723380Y-61000390D02*
X107761476Y-61038485D01*
X108561476Y-61686104D02*
X108523380Y-61724200D01*
X108523380Y-61724200D02*
X108409095Y-61762295D01*
X108409095Y-61762295D02*
X108332904Y-61762295D01*
X108332904Y-61762295D02*
X108218618Y-61724200D01*
X108218618Y-61724200D02*
X108142428Y-61648009D01*
X108142428Y-61648009D02*
X108104333Y-61571819D01*
X108104333Y-61571819D02*
X108066237Y-61419438D01*
X108066237Y-61419438D02*
X108066237Y-61305152D01*
X108066237Y-61305152D02*
X108104333Y-61152771D01*
X108104333Y-61152771D02*
X108142428Y-61076580D01*
X108142428Y-61076580D02*
X108218618Y-61000390D01*
X108218618Y-61000390D02*
X108332904Y-60962295D01*
X108332904Y-60962295D02*
X108409095Y-60962295D01*
X108409095Y-60962295D02*
X108523380Y-61000390D01*
X108523380Y-61000390D02*
X108561476Y-61038485D01*
X107304333Y-63883247D02*
X107037667Y-63883247D01*
X107037667Y-64302295D02*
X107037667Y-63502295D01*
X107037667Y-63502295D02*
X107418619Y-63502295D01*
X108066238Y-63768961D02*
X108066238Y-64302295D01*
X107875762Y-63464200D02*
X107685285Y-64035628D01*
X107685285Y-64035628D02*
X108180524Y-64035628D01*
X107304333Y-66423247D02*
X107037667Y-66423247D01*
X107037667Y-66842295D02*
X107037667Y-66042295D01*
X107037667Y-66042295D02*
X107418619Y-66042295D01*
X108104333Y-66042295D02*
X107723381Y-66042295D01*
X107723381Y-66042295D02*
X107685285Y-66423247D01*
X107685285Y-66423247D02*
X107723381Y-66385152D01*
X107723381Y-66385152D02*
X107799571Y-66347057D01*
X107799571Y-66347057D02*
X107990047Y-66347057D01*
X107990047Y-66347057D02*
X108066238Y-66385152D01*
X108066238Y-66385152D02*
X108104333Y-66423247D01*
X108104333Y-66423247D02*
X108142428Y-66499438D01*
X108142428Y-66499438D02*
X108142428Y-66689914D01*
X108142428Y-66689914D02*
X108104333Y-66766104D01*
X108104333Y-66766104D02*
X108066238Y-66804200D01*
X108066238Y-66804200D02*
X107990047Y-66842295D01*
X107990047Y-66842295D02*
X107799571Y-66842295D01*
X107799571Y-66842295D02*
X107723381Y-66804200D01*
X107723381Y-66804200D02*
X107685285Y-66766104D01*
X107304333Y-68963247D02*
X107037667Y-68963247D01*
X107037667Y-69382295D02*
X107037667Y-68582295D01*
X107037667Y-68582295D02*
X107418619Y-68582295D01*
X108066238Y-68582295D02*
X107913857Y-68582295D01*
X107913857Y-68582295D02*
X107837666Y-68620390D01*
X107837666Y-68620390D02*
X107799571Y-68658485D01*
X107799571Y-68658485D02*
X107723381Y-68772771D01*
X107723381Y-68772771D02*
X107685285Y-68925152D01*
X107685285Y-68925152D02*
X107685285Y-69229914D01*
X107685285Y-69229914D02*
X107723381Y-69306104D01*
X107723381Y-69306104D02*
X107761476Y-69344200D01*
X107761476Y-69344200D02*
X107837666Y-69382295D01*
X107837666Y-69382295D02*
X107990047Y-69382295D01*
X107990047Y-69382295D02*
X108066238Y-69344200D01*
X108066238Y-69344200D02*
X108104333Y-69306104D01*
X108104333Y-69306104D02*
X108142428Y-69229914D01*
X108142428Y-69229914D02*
X108142428Y-69039438D01*
X108142428Y-69039438D02*
X108104333Y-68963247D01*
X108104333Y-68963247D02*
X108066238Y-68925152D01*
X108066238Y-68925152D02*
X107990047Y-68887057D01*
X107990047Y-68887057D02*
X107837666Y-68887057D01*
X107837666Y-68887057D02*
X107761476Y-68925152D01*
X107761476Y-68925152D02*
X107723381Y-68963247D01*
X107723381Y-68963247D02*
X107685285Y-69039438D01*
X107304333Y-71503247D02*
X107037667Y-71503247D01*
X107037667Y-71922295D02*
X107037667Y-71122295D01*
X107037667Y-71122295D02*
X107418619Y-71122295D01*
X107647190Y-71122295D02*
X108180524Y-71122295D01*
X108180524Y-71122295D02*
X107837666Y-71922295D01*
X107247190Y-74043247D02*
X107361476Y-74081342D01*
X107361476Y-74081342D02*
X107399571Y-74119438D01*
X107399571Y-74119438D02*
X107437667Y-74195628D01*
X107437667Y-74195628D02*
X107437667Y-74309914D01*
X107437667Y-74309914D02*
X107399571Y-74386104D01*
X107399571Y-74386104D02*
X107361476Y-74424200D01*
X107361476Y-74424200D02*
X107285286Y-74462295D01*
X107285286Y-74462295D02*
X106980524Y-74462295D01*
X106980524Y-74462295D02*
X106980524Y-73662295D01*
X106980524Y-73662295D02*
X107247190Y-73662295D01*
X107247190Y-73662295D02*
X107323381Y-73700390D01*
X107323381Y-73700390D02*
X107361476Y-73738485D01*
X107361476Y-73738485D02*
X107399571Y-73814676D01*
X107399571Y-73814676D02*
X107399571Y-73890866D01*
X107399571Y-73890866D02*
X107361476Y-73967057D01*
X107361476Y-73967057D02*
X107323381Y-74005152D01*
X107323381Y-74005152D02*
X107247190Y-74043247D01*
X107247190Y-74043247D02*
X106980524Y-74043247D01*
X108199571Y-74462295D02*
X107742428Y-74462295D01*
X107971000Y-74462295D02*
X107971000Y-73662295D01*
X107971000Y-73662295D02*
X107894809Y-73776580D01*
X107894809Y-73776580D02*
X107818619Y-73852771D01*
X107818619Y-73852771D02*
X107742428Y-73890866D01*
X107247190Y-76583247D02*
X107361476Y-76621342D01*
X107361476Y-76621342D02*
X107399571Y-76659438D01*
X107399571Y-76659438D02*
X107437667Y-76735628D01*
X107437667Y-76735628D02*
X107437667Y-76849914D01*
X107437667Y-76849914D02*
X107399571Y-76926104D01*
X107399571Y-76926104D02*
X107361476Y-76964200D01*
X107361476Y-76964200D02*
X107285286Y-77002295D01*
X107285286Y-77002295D02*
X106980524Y-77002295D01*
X106980524Y-77002295D02*
X106980524Y-76202295D01*
X106980524Y-76202295D02*
X107247190Y-76202295D01*
X107247190Y-76202295D02*
X107323381Y-76240390D01*
X107323381Y-76240390D02*
X107361476Y-76278485D01*
X107361476Y-76278485D02*
X107399571Y-76354676D01*
X107399571Y-76354676D02*
X107399571Y-76430866D01*
X107399571Y-76430866D02*
X107361476Y-76507057D01*
X107361476Y-76507057D02*
X107323381Y-76545152D01*
X107323381Y-76545152D02*
X107247190Y-76583247D01*
X107247190Y-76583247D02*
X106980524Y-76583247D01*
X107704333Y-76202295D02*
X108199571Y-76202295D01*
X108199571Y-76202295D02*
X107932905Y-76507057D01*
X107932905Y-76507057D02*
X108047190Y-76507057D01*
X108047190Y-76507057D02*
X108123381Y-76545152D01*
X108123381Y-76545152D02*
X108161476Y-76583247D01*
X108161476Y-76583247D02*
X108199571Y-76659438D01*
X108199571Y-76659438D02*
X108199571Y-76849914D01*
X108199571Y-76849914D02*
X108161476Y-76926104D01*
X108161476Y-76926104D02*
X108123381Y-76964200D01*
X108123381Y-76964200D02*
X108047190Y-77002295D01*
X108047190Y-77002295D02*
X107818619Y-77002295D01*
X107818619Y-77002295D02*
X107742428Y-76964200D01*
X107742428Y-76964200D02*
X107704333Y-76926104D01*
X107247190Y-79123247D02*
X107361476Y-79161342D01*
X107361476Y-79161342D02*
X107399571Y-79199438D01*
X107399571Y-79199438D02*
X107437667Y-79275628D01*
X107437667Y-79275628D02*
X107437667Y-79389914D01*
X107437667Y-79389914D02*
X107399571Y-79466104D01*
X107399571Y-79466104D02*
X107361476Y-79504200D01*
X107361476Y-79504200D02*
X107285286Y-79542295D01*
X107285286Y-79542295D02*
X106980524Y-79542295D01*
X106980524Y-79542295D02*
X106980524Y-78742295D01*
X106980524Y-78742295D02*
X107247190Y-78742295D01*
X107247190Y-78742295D02*
X107323381Y-78780390D01*
X107323381Y-78780390D02*
X107361476Y-78818485D01*
X107361476Y-78818485D02*
X107399571Y-78894676D01*
X107399571Y-78894676D02*
X107399571Y-78970866D01*
X107399571Y-78970866D02*
X107361476Y-79047057D01*
X107361476Y-79047057D02*
X107323381Y-79085152D01*
X107323381Y-79085152D02*
X107247190Y-79123247D01*
X107247190Y-79123247D02*
X106980524Y-79123247D01*
X107742428Y-78818485D02*
X107780524Y-78780390D01*
X107780524Y-78780390D02*
X107856714Y-78742295D01*
X107856714Y-78742295D02*
X108047190Y-78742295D01*
X108047190Y-78742295D02*
X108123381Y-78780390D01*
X108123381Y-78780390D02*
X108161476Y-78818485D01*
X108161476Y-78818485D02*
X108199571Y-78894676D01*
X108199571Y-78894676D02*
X108199571Y-78970866D01*
X108199571Y-78970866D02*
X108161476Y-79085152D01*
X108161476Y-79085152D02*
X107704333Y-79542295D01*
X107704333Y-79542295D02*
X108199571Y-79542295D01*
X107247190Y-81663247D02*
X107361476Y-81701342D01*
X107361476Y-81701342D02*
X107399571Y-81739438D01*
X107399571Y-81739438D02*
X107437667Y-81815628D01*
X107437667Y-81815628D02*
X107437667Y-81929914D01*
X107437667Y-81929914D02*
X107399571Y-82006104D01*
X107399571Y-82006104D02*
X107361476Y-82044200D01*
X107361476Y-82044200D02*
X107285286Y-82082295D01*
X107285286Y-82082295D02*
X106980524Y-82082295D01*
X106980524Y-82082295D02*
X106980524Y-81282295D01*
X106980524Y-81282295D02*
X107247190Y-81282295D01*
X107247190Y-81282295D02*
X107323381Y-81320390D01*
X107323381Y-81320390D02*
X107361476Y-81358485D01*
X107361476Y-81358485D02*
X107399571Y-81434676D01*
X107399571Y-81434676D02*
X107399571Y-81510866D01*
X107399571Y-81510866D02*
X107361476Y-81587057D01*
X107361476Y-81587057D02*
X107323381Y-81625152D01*
X107323381Y-81625152D02*
X107247190Y-81663247D01*
X107247190Y-81663247D02*
X106980524Y-81663247D01*
X108123381Y-81282295D02*
X107971000Y-81282295D01*
X107971000Y-81282295D02*
X107894809Y-81320390D01*
X107894809Y-81320390D02*
X107856714Y-81358485D01*
X107856714Y-81358485D02*
X107780524Y-81472771D01*
X107780524Y-81472771D02*
X107742428Y-81625152D01*
X107742428Y-81625152D02*
X107742428Y-81929914D01*
X107742428Y-81929914D02*
X107780524Y-82006104D01*
X107780524Y-82006104D02*
X107818619Y-82044200D01*
X107818619Y-82044200D02*
X107894809Y-82082295D01*
X107894809Y-82082295D02*
X108047190Y-82082295D01*
X108047190Y-82082295D02*
X108123381Y-82044200D01*
X108123381Y-82044200D02*
X108161476Y-82006104D01*
X108161476Y-82006104D02*
X108199571Y-81929914D01*
X108199571Y-81929914D02*
X108199571Y-81739438D01*
X108199571Y-81739438D02*
X108161476Y-81663247D01*
X108161476Y-81663247D02*
X108123381Y-81625152D01*
X108123381Y-81625152D02*
X108047190Y-81587057D01*
X108047190Y-81587057D02*
X107894809Y-81587057D01*
X107894809Y-81587057D02*
X107818619Y-81625152D01*
X107818619Y-81625152D02*
X107780524Y-81663247D01*
X107780524Y-81663247D02*
X107742428Y-81739438D01*
X107309786Y-59154200D02*
X107424072Y-59192295D01*
X107424072Y-59192295D02*
X107614548Y-59192295D01*
X107614548Y-59192295D02*
X107690739Y-59154200D01*
X107690739Y-59154200D02*
X107728834Y-59116104D01*
X107728834Y-59116104D02*
X107766929Y-59039914D01*
X107766929Y-59039914D02*
X107766929Y-58963723D01*
X107766929Y-58963723D02*
X107728834Y-58887533D01*
X107728834Y-58887533D02*
X107690739Y-58849438D01*
X107690739Y-58849438D02*
X107614548Y-58811342D01*
X107614548Y-58811342D02*
X107462167Y-58773247D01*
X107462167Y-58773247D02*
X107385977Y-58735152D01*
X107385977Y-58735152D02*
X107347882Y-58697057D01*
X107347882Y-58697057D02*
X107309786Y-58620866D01*
X107309786Y-58620866D02*
X107309786Y-58544676D01*
X107309786Y-58544676D02*
X107347882Y-58468485D01*
X107347882Y-58468485D02*
X107385977Y-58430390D01*
X107385977Y-58430390D02*
X107462167Y-58392295D01*
X107462167Y-58392295D02*
X107652644Y-58392295D01*
X107652644Y-58392295D02*
X107766929Y-58430390D01*
X107995501Y-58392295D02*
X108452644Y-58392295D01*
X108224072Y-59192295D02*
X108224072Y-58392295D01*
%TO.C,S6*%
D12*
X72910000Y-71640000D02*
X72910000Y-85840000D01*
X72910000Y-85840000D02*
X87110000Y-85840000D01*
X87110000Y-71640000D02*
X72910000Y-71640000D01*
X87110000Y-85840000D02*
X87110000Y-71640000D01*
%TO.C,S1*%
X34810000Y-52590000D02*
X34810000Y-66790000D01*
X34810000Y-66790000D02*
X49010000Y-66790000D01*
X49010000Y-52590000D02*
X34810000Y-52590000D01*
X49010000Y-66790000D02*
X49010000Y-52590000D01*
%TO.C,S7*%
X34810000Y-90690000D02*
X34810000Y-104890000D01*
X34810000Y-104890000D02*
X49010000Y-104890000D01*
X49010000Y-90690000D02*
X34810000Y-90690000D01*
X49010000Y-104890000D02*
X49010000Y-90690000D01*
%TO.C,S3*%
X72910000Y-52590000D02*
X72910000Y-66790000D01*
X72910000Y-66790000D02*
X87110000Y-66790000D01*
X87110000Y-52590000D02*
X72910000Y-52590000D01*
X87110000Y-66790000D02*
X87110000Y-52590000D01*
%TO.C,S5*%
X53858552Y-71639999D02*
X53858552Y-85839999D01*
X53858552Y-85839999D02*
X68058552Y-85839999D01*
X68058552Y-71639999D02*
X53858552Y-71639999D01*
X68058552Y-85839999D02*
X68058552Y-71639999D01*
%TO.C,S9*%
X72910000Y-90690000D02*
X72910000Y-104890000D01*
X72910000Y-104890000D02*
X87110000Y-104890000D01*
X87110000Y-90690000D02*
X72910000Y-90690000D01*
X87110000Y-104890000D02*
X87110000Y-90690000D01*
%TO.C,S4*%
X34810000Y-71640000D02*
X34810000Y-85840000D01*
X34810000Y-85840000D02*
X49010000Y-85840000D01*
X49010000Y-71640000D02*
X34810000Y-71640000D01*
X49010000Y-85840000D02*
X49010000Y-71640000D01*
%TO.C,S2*%
X53860000Y-52590000D02*
X53860000Y-66790000D01*
X53860000Y-66790000D02*
X68060000Y-66790000D01*
X68060000Y-52590000D02*
X53860000Y-52590000D01*
X68060000Y-66790000D02*
X68060000Y-52590000D01*
%TO.C,S8*%
X53860000Y-90690000D02*
X53860000Y-104890000D01*
X53860000Y-104890000D02*
X68060000Y-104890000D01*
X68060000Y-90690000D02*
X53860000Y-90690000D01*
X68060000Y-104890000D02*
X68060000Y-90690000D01*
%TO.C,U1*%
D10*
X93220000Y-49970000D02*
X93220000Y-82990000D01*
X93220000Y-82990000D02*
X111000000Y-82990000D01*
X95760000Y-52510000D02*
X93220000Y-52510000D01*
X95760000Y-52510000D02*
X95760000Y-55050000D01*
X95760000Y-55050000D02*
X93220000Y-55050000D01*
X111000000Y-49970000D02*
X93220000Y-49970000D01*
X111000000Y-82990000D02*
X111000000Y-49970000D01*
D11*
X106641568Y-59189360D02*
X106541568Y-59189360D01*
X106541568Y-58389360D01*
X106641568Y-58389360D01*
X106641568Y-59189360D01*
G36*
X106641568Y-59189360D02*
G01*
X106541568Y-59189360D01*
X106541568Y-58389360D01*
X106641568Y-58389360D01*
X106641568Y-59189360D01*
G37*
X106841568Y-58889360D02*
X106741568Y-58889360D01*
X106741568Y-58789360D01*
X106841568Y-58789360D01*
X106841568Y-58889360D01*
G36*
X106841568Y-58889360D02*
G01*
X106741568Y-58889360D01*
X106741568Y-58789360D01*
X106841568Y-58789360D01*
X106841568Y-58889360D01*
G37*
X107041568Y-58489360D02*
X106541568Y-58489360D01*
X106541568Y-58389360D01*
X107041568Y-58389360D01*
X107041568Y-58489360D01*
G36*
X107041568Y-58489360D02*
G01*
X106541568Y-58489360D01*
X106541568Y-58389360D01*
X107041568Y-58389360D01*
X107041568Y-58489360D01*
G37*
X107041568Y-58689360D02*
X106941568Y-58689360D01*
X106941568Y-58389360D01*
X107041568Y-58389360D01*
X107041568Y-58689360D01*
G36*
X107041568Y-58689360D02*
G01*
X106941568Y-58689360D01*
X106941568Y-58389360D01*
X107041568Y-58389360D01*
X107041568Y-58689360D01*
G37*
X107041568Y-59189360D02*
X106941568Y-59189360D01*
X106941568Y-58989360D01*
X107041568Y-58989360D01*
X107041568Y-59189360D01*
G36*
X107041568Y-59189360D02*
G01*
X106941568Y-59189360D01*
X106941568Y-58989360D01*
X107041568Y-58989360D01*
X107041568Y-59189360D01*
G37*
%TD*%
D13*
%TO.C,U1*%
X94490000Y-53780000D03*
D14*
X94490000Y-56320000D03*
X94490000Y-58860000D03*
X94490000Y-61400000D03*
X94490000Y-63940000D03*
X94490000Y-66480000D03*
X94490000Y-69020000D03*
X94490000Y-71560000D03*
X94490000Y-74100000D03*
X94490000Y-76640000D03*
X94490000Y-79180000D03*
X94490000Y-81720000D03*
X109730000Y-81720000D03*
X109730000Y-79180000D03*
X109730000Y-76640000D03*
X109730000Y-74100000D03*
X109730000Y-71560000D03*
X109730000Y-69020000D03*
X109730000Y-66480000D03*
X109730000Y-63940000D03*
X109730000Y-61400000D03*
X109730000Y-58860000D03*
X109730000Y-56320000D03*
X109730000Y-53780000D03*
%TD*%
M02*
