%TF.GenerationSoftware,KiCad,Pcbnew,10.0.0*%
%TF.CreationDate,2026-04-23T12:43:52+05:30*%
%TF.ProjectId,Mech,4d656368-2e6b-4696-9361-645f70636258,rev?*%
%TF.SameCoordinates,Original*%
%TF.FileFunction,Soldermask,Bot*%
%TF.FilePolarity,Negative*%
%FSLAX46Y46*%
G04 Gerber Fmt 4.6, Leading zero omitted, Abs format (unit mm)*
G04 Created by KiCad (PCBNEW 10.0.0) date 2026-04-23 12:43:52*
%MOMM*%
%LPD*%
G01*
G04 APERTURE LIST*
%ADD10C,1.750000*%
%ADD11C,4.000000*%
%ADD12C,2.500000*%
%ADD13C,2.100000*%
%ADD14R,1.752600X1.752600*%
%ADD15C,1.752600*%
%ADD16R,1.600000X1.600000*%
%ADD17O,1.600000X1.600000*%
G04 APERTURE END LIST*
D10*
%TO.C,S6*%
X74930000Y-78740000D03*
D11*
X80010000Y-78740000D03*
D10*
X85090000Y-78740000D03*
D12*
X76200000Y-76200000D03*
X82550000Y-73660000D03*
%TD*%
D10*
%TO.C,S1*%
X36830000Y-59690000D03*
D11*
X41910000Y-59690000D03*
D10*
X46990000Y-59690000D03*
D12*
X38100000Y-57150000D03*
X44450000Y-54610000D03*
%TD*%
D10*
%TO.C,S7*%
X36830000Y-97790000D03*
D11*
X41910000Y-97790000D03*
D10*
X46990000Y-97790000D03*
D12*
X38100000Y-95250000D03*
X44450000Y-92710000D03*
%TD*%
D13*
%TO.C,REF\u002A\u002A*%
X111130000Y-106700000D03*
%TD*%
%TO.C,REF\u002A\u002A*%
X33020000Y-106640000D03*
%TD*%
D10*
%TO.C,S3*%
X74930000Y-59690000D03*
D11*
X80010000Y-59690000D03*
D10*
X85090000Y-59690000D03*
D12*
X76200000Y-57150000D03*
X82550000Y-54610000D03*
%TD*%
D13*
%TO.C,REF\u002A\u002A*%
X33000000Y-50940000D03*
%TD*%
%TO.C,REF\u002A\u002A*%
X111180000Y-86770000D03*
%TD*%
D10*
%TO.C,S5*%
X55878552Y-78739999D03*
D11*
X60958552Y-78739999D03*
D10*
X66038552Y-78739999D03*
D12*
X57148552Y-76199999D03*
X63498552Y-73659999D03*
%TD*%
D10*
%TO.C,S9*%
X74930000Y-97790000D03*
D11*
X80010000Y-97790000D03*
D10*
X85090000Y-97790000D03*
D12*
X76200000Y-95250000D03*
X82550000Y-92710000D03*
%TD*%
D10*
%TO.C,S4*%
X36830000Y-78740000D03*
D11*
X41910000Y-78740000D03*
D10*
X46990000Y-78740000D03*
D12*
X38100000Y-76200000D03*
X44450000Y-73660000D03*
%TD*%
D10*
%TO.C,S2*%
X55880000Y-59690000D03*
D11*
X60960000Y-59690000D03*
D10*
X66040000Y-59690000D03*
D12*
X57150000Y-57150000D03*
X63500000Y-54610000D03*
%TD*%
D10*
%TO.C,S8*%
X55880000Y-97790000D03*
D11*
X60960000Y-97790000D03*
D10*
X66040000Y-97790000D03*
D12*
X57150000Y-95250000D03*
X63500000Y-92710000D03*
%TD*%
D14*
%TO.C,U1*%
X94490000Y-53780000D03*
D15*
X94490000Y-56320000D03*
X94490000Y-58860000D03*
X94490000Y-61400000D03*
X94490000Y-63940000D03*
X94490000Y-66480000D03*
X94490000Y-69020000D03*
X94490000Y-71560000D03*
X94490000Y-74100000D03*
X94490000Y-76640000D03*
X94490000Y-79180000D03*
X94490000Y-81720000D03*
X109730000Y-81720000D03*
X109730000Y-79180000D03*
X109730000Y-76640000D03*
X109730000Y-74100000D03*
X109730000Y-71560000D03*
X109730000Y-69020000D03*
X109730000Y-66480000D03*
X109730000Y-63940000D03*
X109730000Y-61400000D03*
X109730000Y-58860000D03*
X109730000Y-56320000D03*
X109730000Y-53780000D03*
%TD*%
D16*
%TO.C,D8*%
X70490000Y-100340000D03*
D17*
X70490000Y-92720000D03*
%TD*%
D16*
%TO.C,D9*%
X89553577Y-100340577D03*
D17*
X89553577Y-92720577D03*
%TD*%
D16*
%TO.C,D6*%
X89530000Y-81270000D03*
D17*
X89530000Y-73650000D03*
%TD*%
D16*
%TO.C,D2*%
X70480000Y-62230000D03*
D17*
X70480000Y-54610000D03*
%TD*%
D16*
%TO.C,D4*%
X51440000Y-81290000D03*
D17*
X51440000Y-73670000D03*
%TD*%
D16*
%TO.C,D7*%
X51440000Y-100330000D03*
D17*
X51440000Y-92710000D03*
%TD*%
D16*
%TO.C,D1*%
X51446249Y-62218585D03*
D17*
X51446249Y-54598585D03*
%TD*%
D16*
%TO.C,D5*%
X70490000Y-81280000D03*
D17*
X70490000Y-73660000D03*
%TD*%
D16*
%TO.C,D3*%
X89530000Y-62240000D03*
D17*
X89530000Y-54620000D03*
%TD*%
M02*
