%TF.GenerationSoftware,KiCad,Pcbnew,10.0.0*%
%TF.CreationDate,2026-04-23T12:43:52+05:30*%
%TF.ProjectId,Mech,4d656368-2e6b-4696-9361-645f70636258,rev?*%
%TF.SameCoordinates,Original*%
%TF.FileFunction,Legend,Bot*%
%TF.FilePolarity,Positive*%
%FSLAX46Y46*%
G04 Gerber Fmt 4.6, Leading zero omitted, Abs format (unit mm)*
G04 Created by KiCad (PCBNEW 10.0.0) date 2026-04-23 12:43:52*
%MOMM*%
%LPD*%
G01*
G04 APERTURE LIST*
%ADD10C,0.150000*%
%ADD11C,0.200000*%
%ADD12C,0.100000*%
%ADD13R,1.752600X1.752600*%
%ADD14C,1.752600*%
G04 APERTURE END LIST*
D10*
X97239475Y-56682295D02*
X97239475Y-55882295D01*
X97239475Y-55882295D02*
X97048999Y-55882295D01*
X97048999Y-55882295D02*
X96934713Y-55920390D01*
X96934713Y-55920390D02*
X96858523Y-55996580D01*
X96858523Y-55996580D02*
X96820428Y-56072771D01*
X96820428Y-56072771D02*
X96782332Y-56225152D01*
X96782332Y-56225152D02*
X96782332Y-56339438D01*
X96782332Y-56339438D02*
X96820428Y-56491819D01*
X96820428Y-56491819D02*
X96858523Y-56568009D01*
X96858523Y-56568009D02*
X96934713Y-56644200D01*
X96934713Y-56644200D02*
X97048999Y-56682295D01*
X97048999Y-56682295D02*
X97239475Y-56682295D01*
X96477571Y-55958485D02*
X96439475Y-55920390D01*
X96439475Y-55920390D02*
X96363285Y-55882295D01*
X96363285Y-55882295D02*
X96172809Y-55882295D01*
X96172809Y-55882295D02*
X96096618Y-55920390D01*
X96096618Y-55920390D02*
X96058523Y-55958485D01*
X96058523Y-55958485D02*
X96020428Y-56034676D01*
X96020428Y-56034676D02*
X96020428Y-56110866D01*
X96020428Y-56110866D02*
X96058523Y-56225152D01*
X96058523Y-56225152D02*
X96515666Y-56682295D01*
X96515666Y-56682295D02*
X96020428Y-56682295D01*
X97258523Y-58460390D02*
X97334713Y-58422295D01*
X97334713Y-58422295D02*
X97448999Y-58422295D01*
X97448999Y-58422295D02*
X97563285Y-58460390D01*
X97563285Y-58460390D02*
X97639475Y-58536580D01*
X97639475Y-58536580D02*
X97677570Y-58612771D01*
X97677570Y-58612771D02*
X97715666Y-58765152D01*
X97715666Y-58765152D02*
X97715666Y-58879438D01*
X97715666Y-58879438D02*
X97677570Y-59031819D01*
X97677570Y-59031819D02*
X97639475Y-59108009D01*
X97639475Y-59108009D02*
X97563285Y-59184200D01*
X97563285Y-59184200D02*
X97448999Y-59222295D01*
X97448999Y-59222295D02*
X97372808Y-59222295D01*
X97372808Y-59222295D02*
X97258523Y-59184200D01*
X97258523Y-59184200D02*
X97220427Y-59146104D01*
X97220427Y-59146104D02*
X97220427Y-58879438D01*
X97220427Y-58879438D02*
X97372808Y-58879438D01*
X96877570Y-59222295D02*
X96877570Y-58422295D01*
X96877570Y-58422295D02*
X96420427Y-59222295D01*
X96420427Y-59222295D02*
X96420427Y-58422295D01*
X96039475Y-59222295D02*
X96039475Y-58422295D01*
X96039475Y-58422295D02*
X95848999Y-58422295D01*
X95848999Y-58422295D02*
X95734713Y-58460390D01*
X95734713Y-58460390D02*
X95658523Y-58536580D01*
X95658523Y-58536580D02*
X95620428Y-58612771D01*
X95620428Y-58612771D02*
X95582332Y-58765152D01*
X95582332Y-58765152D02*
X95582332Y-58879438D01*
X95582332Y-58879438D02*
X95620428Y-59031819D01*
X95620428Y-59031819D02*
X95658523Y-59108009D01*
X95658523Y-59108009D02*
X95734713Y-59184200D01*
X95734713Y-59184200D02*
X95848999Y-59222295D01*
X95848999Y-59222295D02*
X96039475Y-59222295D01*
X97239475Y-64302295D02*
X97239475Y-63502295D01*
X97239475Y-63502295D02*
X97048999Y-63502295D01*
X97048999Y-63502295D02*
X96934713Y-63540390D01*
X96934713Y-63540390D02*
X96858523Y-63616580D01*
X96858523Y-63616580D02*
X96820428Y-63692771D01*
X96820428Y-63692771D02*
X96782332Y-63845152D01*
X96782332Y-63845152D02*
X96782332Y-63959438D01*
X96782332Y-63959438D02*
X96820428Y-64111819D01*
X96820428Y-64111819D02*
X96858523Y-64188009D01*
X96858523Y-64188009D02*
X96934713Y-64264200D01*
X96934713Y-64264200D02*
X97048999Y-64302295D01*
X97048999Y-64302295D02*
X97239475Y-64302295D01*
X96020428Y-64302295D02*
X96477571Y-64302295D01*
X96248999Y-64302295D02*
X96248999Y-63502295D01*
X96248999Y-63502295D02*
X96325190Y-63616580D01*
X96325190Y-63616580D02*
X96401380Y-63692771D01*
X96401380Y-63692771D02*
X96477571Y-63730866D01*
X97239475Y-66842295D02*
X97239475Y-66042295D01*
X97239475Y-66042295D02*
X97048999Y-66042295D01*
X97048999Y-66042295D02*
X96934713Y-66080390D01*
X96934713Y-66080390D02*
X96858523Y-66156580D01*
X96858523Y-66156580D02*
X96820428Y-66232771D01*
X96820428Y-66232771D02*
X96782332Y-66385152D01*
X96782332Y-66385152D02*
X96782332Y-66499438D01*
X96782332Y-66499438D02*
X96820428Y-66651819D01*
X96820428Y-66651819D02*
X96858523Y-66728009D01*
X96858523Y-66728009D02*
X96934713Y-66804200D01*
X96934713Y-66804200D02*
X97048999Y-66842295D01*
X97048999Y-66842295D02*
X97239475Y-66842295D01*
X96287094Y-66042295D02*
X96210904Y-66042295D01*
X96210904Y-66042295D02*
X96134713Y-66080390D01*
X96134713Y-66080390D02*
X96096618Y-66118485D01*
X96096618Y-66118485D02*
X96058523Y-66194676D01*
X96058523Y-66194676D02*
X96020428Y-66347057D01*
X96020428Y-66347057D02*
X96020428Y-66537533D01*
X96020428Y-66537533D02*
X96058523Y-66689914D01*
X96058523Y-66689914D02*
X96096618Y-66766104D01*
X96096618Y-66766104D02*
X96134713Y-66804200D01*
X96134713Y-66804200D02*
X96210904Y-66842295D01*
X96210904Y-66842295D02*
X96287094Y-66842295D01*
X96287094Y-66842295D02*
X96363285Y-66804200D01*
X96363285Y-66804200D02*
X96401380Y-66766104D01*
X96401380Y-66766104D02*
X96439475Y-66689914D01*
X96439475Y-66689914D02*
X96477571Y-66537533D01*
X96477571Y-66537533D02*
X96477571Y-66347057D01*
X96477571Y-66347057D02*
X96439475Y-66194676D01*
X96439475Y-66194676D02*
X96401380Y-66118485D01*
X96401380Y-66118485D02*
X96363285Y-66080390D01*
X96363285Y-66080390D02*
X96287094Y-66042295D01*
X97239475Y-69382295D02*
X97239475Y-68582295D01*
X97239475Y-68582295D02*
X97048999Y-68582295D01*
X97048999Y-68582295D02*
X96934713Y-68620390D01*
X96934713Y-68620390D02*
X96858523Y-68696580D01*
X96858523Y-68696580D02*
X96820428Y-68772771D01*
X96820428Y-68772771D02*
X96782332Y-68925152D01*
X96782332Y-68925152D02*
X96782332Y-69039438D01*
X96782332Y-69039438D02*
X96820428Y-69191819D01*
X96820428Y-69191819D02*
X96858523Y-69268009D01*
X96858523Y-69268009D02*
X96934713Y-69344200D01*
X96934713Y-69344200D02*
X97048999Y-69382295D01*
X97048999Y-69382295D02*
X97239475Y-69382295D01*
X96096618Y-68848961D02*
X96096618Y-69382295D01*
X96287094Y-68544200D02*
X96477571Y-69115628D01*
X96477571Y-69115628D02*
X95982332Y-69115628D01*
X96782332Y-71846104D02*
X96820428Y-71884200D01*
X96820428Y-71884200D02*
X96934713Y-71922295D01*
X96934713Y-71922295D02*
X97010904Y-71922295D01*
X97010904Y-71922295D02*
X97125190Y-71884200D01*
X97125190Y-71884200D02*
X97201380Y-71808009D01*
X97201380Y-71808009D02*
X97239475Y-71731819D01*
X97239475Y-71731819D02*
X97277571Y-71579438D01*
X97277571Y-71579438D02*
X97277571Y-71465152D01*
X97277571Y-71465152D02*
X97239475Y-71312771D01*
X97239475Y-71312771D02*
X97201380Y-71236580D01*
X97201380Y-71236580D02*
X97125190Y-71160390D01*
X97125190Y-71160390D02*
X97010904Y-71122295D01*
X97010904Y-71122295D02*
X96934713Y-71122295D01*
X96934713Y-71122295D02*
X96820428Y-71160390D01*
X96820428Y-71160390D02*
X96782332Y-71198485D01*
X96096618Y-71122295D02*
X96248999Y-71122295D01*
X96248999Y-71122295D02*
X96325190Y-71160390D01*
X96325190Y-71160390D02*
X96363285Y-71198485D01*
X96363285Y-71198485D02*
X96439475Y-71312771D01*
X96439475Y-71312771D02*
X96477571Y-71465152D01*
X96477571Y-71465152D02*
X96477571Y-71769914D01*
X96477571Y-71769914D02*
X96439475Y-71846104D01*
X96439475Y-71846104D02*
X96401380Y-71884200D01*
X96401380Y-71884200D02*
X96325190Y-71922295D01*
X96325190Y-71922295D02*
X96172809Y-71922295D01*
X96172809Y-71922295D02*
X96096618Y-71884200D01*
X96096618Y-71884200D02*
X96058523Y-71846104D01*
X96058523Y-71846104D02*
X96020428Y-71769914D01*
X96020428Y-71769914D02*
X96020428Y-71579438D01*
X96020428Y-71579438D02*
X96058523Y-71503247D01*
X96058523Y-71503247D02*
X96096618Y-71465152D01*
X96096618Y-71465152D02*
X96172809Y-71427057D01*
X96172809Y-71427057D02*
X96325190Y-71427057D01*
X96325190Y-71427057D02*
X96401380Y-71465152D01*
X96401380Y-71465152D02*
X96439475Y-71503247D01*
X96439475Y-71503247D02*
X96477571Y-71579438D01*
X97201380Y-76583247D02*
X96934714Y-76583247D01*
X96820428Y-77002295D02*
X97201380Y-77002295D01*
X97201380Y-77002295D02*
X97201380Y-76202295D01*
X97201380Y-76202295D02*
X96820428Y-76202295D01*
X96134713Y-76202295D02*
X96287094Y-76202295D01*
X96287094Y-76202295D02*
X96363285Y-76240390D01*
X96363285Y-76240390D02*
X96401380Y-76278485D01*
X96401380Y-76278485D02*
X96477570Y-76392771D01*
X96477570Y-76392771D02*
X96515666Y-76545152D01*
X96515666Y-76545152D02*
X96515666Y-76849914D01*
X96515666Y-76849914D02*
X96477570Y-76926104D01*
X96477570Y-76926104D02*
X96439475Y-76964200D01*
X96439475Y-76964200D02*
X96363285Y-77002295D01*
X96363285Y-77002295D02*
X96210904Y-77002295D01*
X96210904Y-77002295D02*
X96134713Y-76964200D01*
X96134713Y-76964200D02*
X96096618Y-76926104D01*
X96096618Y-76926104D02*
X96058523Y-76849914D01*
X96058523Y-76849914D02*
X96058523Y-76659438D01*
X96058523Y-76659438D02*
X96096618Y-76583247D01*
X96096618Y-76583247D02*
X96134713Y-76545152D01*
X96134713Y-76545152D02*
X96210904Y-76507057D01*
X96210904Y-76507057D02*
X96363285Y-76507057D01*
X96363285Y-76507057D02*
X96439475Y-76545152D01*
X96439475Y-76545152D02*
X96477570Y-76583247D01*
X96477570Y-76583247D02*
X96515666Y-76659438D01*
X96972809Y-79123247D02*
X96858523Y-79161342D01*
X96858523Y-79161342D02*
X96820428Y-79199438D01*
X96820428Y-79199438D02*
X96782332Y-79275628D01*
X96782332Y-79275628D02*
X96782332Y-79389914D01*
X96782332Y-79389914D02*
X96820428Y-79466104D01*
X96820428Y-79466104D02*
X96858523Y-79504200D01*
X96858523Y-79504200D02*
X96934713Y-79542295D01*
X96934713Y-79542295D02*
X97239475Y-79542295D01*
X97239475Y-79542295D02*
X97239475Y-78742295D01*
X97239475Y-78742295D02*
X96972809Y-78742295D01*
X96972809Y-78742295D02*
X96896618Y-78780390D01*
X96896618Y-78780390D02*
X96858523Y-78818485D01*
X96858523Y-78818485D02*
X96820428Y-78894676D01*
X96820428Y-78894676D02*
X96820428Y-78970866D01*
X96820428Y-78970866D02*
X96858523Y-79047057D01*
X96858523Y-79047057D02*
X96896618Y-79085152D01*
X96896618Y-79085152D02*
X96972809Y-79123247D01*
X96972809Y-79123247D02*
X97239475Y-79123247D01*
X96096618Y-79008961D02*
X96096618Y-79542295D01*
X96287094Y-78704200D02*
X96477571Y-79275628D01*
X96477571Y-79275628D02*
X95982332Y-79275628D01*
X96972809Y-81663247D02*
X96858523Y-81701342D01*
X96858523Y-81701342D02*
X96820428Y-81739438D01*
X96820428Y-81739438D02*
X96782332Y-81815628D01*
X96782332Y-81815628D02*
X96782332Y-81929914D01*
X96782332Y-81929914D02*
X96820428Y-82006104D01*
X96820428Y-82006104D02*
X96858523Y-82044200D01*
X96858523Y-82044200D02*
X96934713Y-82082295D01*
X96934713Y-82082295D02*
X97239475Y-82082295D01*
X97239475Y-82082295D02*
X97239475Y-81282295D01*
X97239475Y-81282295D02*
X96972809Y-81282295D01*
X96972809Y-81282295D02*
X96896618Y-81320390D01*
X96896618Y-81320390D02*
X96858523Y-81358485D01*
X96858523Y-81358485D02*
X96820428Y-81434676D01*
X96820428Y-81434676D02*
X96820428Y-81510866D01*
X96820428Y-81510866D02*
X96858523Y-81587057D01*
X96858523Y-81587057D02*
X96896618Y-81625152D01*
X96896618Y-81625152D02*
X96972809Y-81663247D01*
X96972809Y-81663247D02*
X97239475Y-81663247D01*
X96058523Y-81282295D02*
X96439475Y-81282295D01*
X96439475Y-81282295D02*
X96477571Y-81663247D01*
X96477571Y-81663247D02*
X96439475Y-81625152D01*
X96439475Y-81625152D02*
X96363285Y-81587057D01*
X96363285Y-81587057D02*
X96172809Y-81587057D01*
X96172809Y-81587057D02*
X96096618Y-81625152D01*
X96096618Y-81625152D02*
X96058523Y-81663247D01*
X96058523Y-81663247D02*
X96020428Y-81739438D01*
X96020428Y-81739438D02*
X96020428Y-81929914D01*
X96020428Y-81929914D02*
X96058523Y-82006104D01*
X96058523Y-82006104D02*
X96096618Y-82044200D01*
X96096618Y-82044200D02*
X96172809Y-82082295D01*
X96172809Y-82082295D02*
X96363285Y-82082295D01*
X96363285Y-82082295D02*
X96439475Y-82044200D01*
X96439475Y-82044200D02*
X96477571Y-82006104D01*
X100728604Y-53342295D02*
X100271461Y-53342295D01*
X100500033Y-54142295D02*
X100500033Y-53342295D01*
X100080985Y-53342295D02*
X99547651Y-54142295D01*
X99547651Y-53342295D02*
X100080985Y-54142295D01*
X99090508Y-53342295D02*
X99014318Y-53342295D01*
X99014318Y-53342295D02*
X98938127Y-53380390D01*
X98938127Y-53380390D02*
X98900032Y-53418485D01*
X98900032Y-53418485D02*
X98861937Y-53494676D01*
X98861937Y-53494676D02*
X98823842Y-53647057D01*
X98823842Y-53647057D02*
X98823842Y-53837533D01*
X98823842Y-53837533D02*
X98861937Y-53989914D01*
X98861937Y-53989914D02*
X98900032Y-54066104D01*
X98900032Y-54066104D02*
X98938127Y-54104200D01*
X98938127Y-54104200D02*
X99014318Y-54142295D01*
X99014318Y-54142295D02*
X99090508Y-54142295D01*
X99090508Y-54142295D02*
X99166699Y-54104200D01*
X99166699Y-54104200D02*
X99204794Y-54066104D01*
X99204794Y-54066104D02*
X99242889Y-53989914D01*
X99242889Y-53989914D02*
X99280985Y-53837533D01*
X99280985Y-53837533D02*
X99280985Y-53647057D01*
X99280985Y-53647057D02*
X99242889Y-53494676D01*
X99242889Y-53494676D02*
X99204794Y-53418485D01*
X99204794Y-53418485D02*
X99166699Y-53380390D01*
X99166699Y-53380390D02*
X99090508Y-53342295D01*
X97909556Y-53304200D02*
X98595270Y-54332771D01*
X97642889Y-54142295D02*
X97642889Y-53342295D01*
X97642889Y-53342295D02*
X97452413Y-53342295D01*
X97452413Y-53342295D02*
X97338127Y-53380390D01*
X97338127Y-53380390D02*
X97261937Y-53456580D01*
X97261937Y-53456580D02*
X97223842Y-53532771D01*
X97223842Y-53532771D02*
X97185746Y-53685152D01*
X97185746Y-53685152D02*
X97185746Y-53799438D01*
X97185746Y-53799438D02*
X97223842Y-53951819D01*
X97223842Y-53951819D02*
X97261937Y-54028009D01*
X97261937Y-54028009D02*
X97338127Y-54104200D01*
X97338127Y-54104200D02*
X97452413Y-54142295D01*
X97452413Y-54142295D02*
X97642889Y-54142295D01*
X96919080Y-53342295D02*
X96423842Y-53342295D01*
X96423842Y-53342295D02*
X96690508Y-53647057D01*
X96690508Y-53647057D02*
X96576223Y-53647057D01*
X96576223Y-53647057D02*
X96500032Y-53685152D01*
X96500032Y-53685152D02*
X96461937Y-53723247D01*
X96461937Y-53723247D02*
X96423842Y-53799438D01*
X96423842Y-53799438D02*
X96423842Y-53989914D01*
X96423842Y-53989914D02*
X96461937Y-54066104D01*
X96461937Y-54066104D02*
X96500032Y-54104200D01*
X96500032Y-54104200D02*
X96576223Y-54142295D01*
X96576223Y-54142295D02*
X96804794Y-54142295D01*
X96804794Y-54142295D02*
X96880985Y-54104200D01*
X96880985Y-54104200D02*
X96919080Y-54066104D01*
X107683333Y-59164200D02*
X107569047Y-59202295D01*
X107569047Y-59202295D02*
X107378571Y-59202295D01*
X107378571Y-59202295D02*
X107302380Y-59164200D01*
X107302380Y-59164200D02*
X107264285Y-59126104D01*
X107264285Y-59126104D02*
X107226190Y-59049914D01*
X107226190Y-59049914D02*
X107226190Y-58973723D01*
X107226190Y-58973723D02*
X107264285Y-58897533D01*
X107264285Y-58897533D02*
X107302380Y-58859438D01*
X107302380Y-58859438D02*
X107378571Y-58821342D01*
X107378571Y-58821342D02*
X107530952Y-58783247D01*
X107530952Y-58783247D02*
X107607142Y-58745152D01*
X107607142Y-58745152D02*
X107645237Y-58707057D01*
X107645237Y-58707057D02*
X107683333Y-58630866D01*
X107683333Y-58630866D02*
X107683333Y-58554676D01*
X107683333Y-58554676D02*
X107645237Y-58478485D01*
X107645237Y-58478485D02*
X107607142Y-58440390D01*
X107607142Y-58440390D02*
X107530952Y-58402295D01*
X107530952Y-58402295D02*
X107340475Y-58402295D01*
X107340475Y-58402295D02*
X107226190Y-58440390D01*
X106997618Y-58402295D02*
X106540475Y-58402295D01*
X106769047Y-59202295D02*
X106769047Y-58402295D01*
X108123380Y-54142295D02*
X108390047Y-53761342D01*
X108580523Y-54142295D02*
X108580523Y-53342295D01*
X108580523Y-53342295D02*
X108275761Y-53342295D01*
X108275761Y-53342295D02*
X108199571Y-53380390D01*
X108199571Y-53380390D02*
X108161476Y-53418485D01*
X108161476Y-53418485D02*
X108123380Y-53494676D01*
X108123380Y-53494676D02*
X108123380Y-53608961D01*
X108123380Y-53608961D02*
X108161476Y-53685152D01*
X108161476Y-53685152D02*
X108199571Y-53723247D01*
X108199571Y-53723247D02*
X108275761Y-53761342D01*
X108275761Y-53761342D02*
X108580523Y-53761342D01*
X107818619Y-53913723D02*
X107437666Y-53913723D01*
X107894809Y-54142295D02*
X107628142Y-53342295D01*
X107628142Y-53342295D02*
X107361476Y-54142295D01*
X107171000Y-53342295D02*
X106980524Y-54142295D01*
X106980524Y-54142295D02*
X106828143Y-53570866D01*
X106828143Y-53570866D02*
X106675762Y-54142295D01*
X106675762Y-54142295D02*
X106485286Y-53342295D01*
X108180523Y-55920390D02*
X108256713Y-55882295D01*
X108256713Y-55882295D02*
X108370999Y-55882295D01*
X108370999Y-55882295D02*
X108485285Y-55920390D01*
X108485285Y-55920390D02*
X108561475Y-55996580D01*
X108561475Y-55996580D02*
X108599570Y-56072771D01*
X108599570Y-56072771D02*
X108637666Y-56225152D01*
X108637666Y-56225152D02*
X108637666Y-56339438D01*
X108637666Y-56339438D02*
X108599570Y-56491819D01*
X108599570Y-56491819D02*
X108561475Y-56568009D01*
X108561475Y-56568009D02*
X108485285Y-56644200D01*
X108485285Y-56644200D02*
X108370999Y-56682295D01*
X108370999Y-56682295D02*
X108294808Y-56682295D01*
X108294808Y-56682295D02*
X108180523Y-56644200D01*
X108180523Y-56644200D02*
X108142427Y-56606104D01*
X108142427Y-56606104D02*
X108142427Y-56339438D01*
X108142427Y-56339438D02*
X108294808Y-56339438D01*
X107799570Y-56682295D02*
X107799570Y-55882295D01*
X107799570Y-55882295D02*
X107342427Y-56682295D01*
X107342427Y-56682295D02*
X107342427Y-55882295D01*
X106961475Y-56682295D02*
X106961475Y-55882295D01*
X106961475Y-55882295D02*
X106770999Y-55882295D01*
X106770999Y-55882295D02*
X106656713Y-55920390D01*
X106656713Y-55920390D02*
X106580523Y-55996580D01*
X106580523Y-55996580D02*
X106542428Y-56072771D01*
X106542428Y-56072771D02*
X106504332Y-56225152D01*
X106504332Y-56225152D02*
X106504332Y-56339438D01*
X106504332Y-56339438D02*
X106542428Y-56491819D01*
X106542428Y-56491819D02*
X106580523Y-56568009D01*
X106580523Y-56568009D02*
X106656713Y-56644200D01*
X106656713Y-56644200D02*
X106770999Y-56682295D01*
X106770999Y-56682295D02*
X106961475Y-56682295D01*
X108637666Y-60962295D02*
X108370999Y-61762295D01*
X108370999Y-61762295D02*
X108104333Y-60962295D01*
X107380523Y-61686104D02*
X107418619Y-61724200D01*
X107418619Y-61724200D02*
X107532904Y-61762295D01*
X107532904Y-61762295D02*
X107609095Y-61762295D01*
X107609095Y-61762295D02*
X107723381Y-61724200D01*
X107723381Y-61724200D02*
X107799571Y-61648009D01*
X107799571Y-61648009D02*
X107837666Y-61571819D01*
X107837666Y-61571819D02*
X107875762Y-61419438D01*
X107875762Y-61419438D02*
X107875762Y-61305152D01*
X107875762Y-61305152D02*
X107837666Y-61152771D01*
X107837666Y-61152771D02*
X107799571Y-61076580D01*
X107799571Y-61076580D02*
X107723381Y-61000390D01*
X107723381Y-61000390D02*
X107609095Y-60962295D01*
X107609095Y-60962295D02*
X107532904Y-60962295D01*
X107532904Y-60962295D02*
X107418619Y-61000390D01*
X107418619Y-61000390D02*
X107380523Y-61038485D01*
X106580523Y-61686104D02*
X106618619Y-61724200D01*
X106618619Y-61724200D02*
X106732904Y-61762295D01*
X106732904Y-61762295D02*
X106809095Y-61762295D01*
X106809095Y-61762295D02*
X106923381Y-61724200D01*
X106923381Y-61724200D02*
X106999571Y-61648009D01*
X106999571Y-61648009D02*
X107037666Y-61571819D01*
X107037666Y-61571819D02*
X107075762Y-61419438D01*
X107075762Y-61419438D02*
X107075762Y-61305152D01*
X107075762Y-61305152D02*
X107037666Y-61152771D01*
X107037666Y-61152771D02*
X106999571Y-61076580D01*
X106999571Y-61076580D02*
X106923381Y-61000390D01*
X106923381Y-61000390D02*
X106809095Y-60962295D01*
X106809095Y-60962295D02*
X106732904Y-60962295D01*
X106732904Y-60962295D02*
X106618619Y-61000390D01*
X106618619Y-61000390D02*
X106580523Y-61038485D01*
X107837666Y-63883247D02*
X108104332Y-63883247D01*
X108104332Y-64302295D02*
X108104332Y-63502295D01*
X108104332Y-63502295D02*
X107723380Y-63502295D01*
X107075761Y-63768961D02*
X107075761Y-64302295D01*
X107266237Y-63464200D02*
X107456714Y-64035628D01*
X107456714Y-64035628D02*
X106961475Y-64035628D01*
X107837666Y-66423247D02*
X108104332Y-66423247D01*
X108104332Y-66842295D02*
X108104332Y-66042295D01*
X108104332Y-66042295D02*
X107723380Y-66042295D01*
X107037666Y-66042295D02*
X107418618Y-66042295D01*
X107418618Y-66042295D02*
X107456714Y-66423247D01*
X107456714Y-66423247D02*
X107418618Y-66385152D01*
X107418618Y-66385152D02*
X107342428Y-66347057D01*
X107342428Y-66347057D02*
X107151952Y-66347057D01*
X107151952Y-66347057D02*
X107075761Y-66385152D01*
X107075761Y-66385152D02*
X107037666Y-66423247D01*
X107037666Y-66423247D02*
X106999571Y-66499438D01*
X106999571Y-66499438D02*
X106999571Y-66689914D01*
X106999571Y-66689914D02*
X107037666Y-66766104D01*
X107037666Y-66766104D02*
X107075761Y-66804200D01*
X107075761Y-66804200D02*
X107151952Y-66842295D01*
X107151952Y-66842295D02*
X107342428Y-66842295D01*
X107342428Y-66842295D02*
X107418618Y-66804200D01*
X107418618Y-66804200D02*
X107456714Y-66766104D01*
X107837666Y-68963247D02*
X108104332Y-68963247D01*
X108104332Y-69382295D02*
X108104332Y-68582295D01*
X108104332Y-68582295D02*
X107723380Y-68582295D01*
X107075761Y-68582295D02*
X107228142Y-68582295D01*
X107228142Y-68582295D02*
X107304333Y-68620390D01*
X107304333Y-68620390D02*
X107342428Y-68658485D01*
X107342428Y-68658485D02*
X107418618Y-68772771D01*
X107418618Y-68772771D02*
X107456714Y-68925152D01*
X107456714Y-68925152D02*
X107456714Y-69229914D01*
X107456714Y-69229914D02*
X107418618Y-69306104D01*
X107418618Y-69306104D02*
X107380523Y-69344200D01*
X107380523Y-69344200D02*
X107304333Y-69382295D01*
X107304333Y-69382295D02*
X107151952Y-69382295D01*
X107151952Y-69382295D02*
X107075761Y-69344200D01*
X107075761Y-69344200D02*
X107037666Y-69306104D01*
X107037666Y-69306104D02*
X106999571Y-69229914D01*
X106999571Y-69229914D02*
X106999571Y-69039438D01*
X106999571Y-69039438D02*
X107037666Y-68963247D01*
X107037666Y-68963247D02*
X107075761Y-68925152D01*
X107075761Y-68925152D02*
X107151952Y-68887057D01*
X107151952Y-68887057D02*
X107304333Y-68887057D01*
X107304333Y-68887057D02*
X107380523Y-68925152D01*
X107380523Y-68925152D02*
X107418618Y-68963247D01*
X107418618Y-68963247D02*
X107456714Y-69039438D01*
X107837666Y-71503247D02*
X108104332Y-71503247D01*
X108104332Y-71922295D02*
X108104332Y-71122295D01*
X108104332Y-71122295D02*
X107723380Y-71122295D01*
X107494809Y-71122295D02*
X106961475Y-71122295D01*
X106961475Y-71122295D02*
X107304333Y-71922295D01*
X107894809Y-74043247D02*
X107780523Y-74081342D01*
X107780523Y-74081342D02*
X107742428Y-74119438D01*
X107742428Y-74119438D02*
X107704332Y-74195628D01*
X107704332Y-74195628D02*
X107704332Y-74309914D01*
X107704332Y-74309914D02*
X107742428Y-74386104D01*
X107742428Y-74386104D02*
X107780523Y-74424200D01*
X107780523Y-74424200D02*
X107856713Y-74462295D01*
X107856713Y-74462295D02*
X108161475Y-74462295D01*
X108161475Y-74462295D02*
X108161475Y-73662295D01*
X108161475Y-73662295D02*
X107894809Y-73662295D01*
X107894809Y-73662295D02*
X107818618Y-73700390D01*
X107818618Y-73700390D02*
X107780523Y-73738485D01*
X107780523Y-73738485D02*
X107742428Y-73814676D01*
X107742428Y-73814676D02*
X107742428Y-73890866D01*
X107742428Y-73890866D02*
X107780523Y-73967057D01*
X107780523Y-73967057D02*
X107818618Y-74005152D01*
X107818618Y-74005152D02*
X107894809Y-74043247D01*
X107894809Y-74043247D02*
X108161475Y-74043247D01*
X106942428Y-74462295D02*
X107399571Y-74462295D01*
X107170999Y-74462295D02*
X107170999Y-73662295D01*
X107170999Y-73662295D02*
X107247190Y-73776580D01*
X107247190Y-73776580D02*
X107323380Y-73852771D01*
X107323380Y-73852771D02*
X107399571Y-73890866D01*
X107894809Y-76583247D02*
X107780523Y-76621342D01*
X107780523Y-76621342D02*
X107742428Y-76659438D01*
X107742428Y-76659438D02*
X107704332Y-76735628D01*
X107704332Y-76735628D02*
X107704332Y-76849914D01*
X107704332Y-76849914D02*
X107742428Y-76926104D01*
X107742428Y-76926104D02*
X107780523Y-76964200D01*
X107780523Y-76964200D02*
X107856713Y-77002295D01*
X107856713Y-77002295D02*
X108161475Y-77002295D01*
X108161475Y-77002295D02*
X108161475Y-76202295D01*
X108161475Y-76202295D02*
X107894809Y-76202295D01*
X107894809Y-76202295D02*
X107818618Y-76240390D01*
X107818618Y-76240390D02*
X107780523Y-76278485D01*
X107780523Y-76278485D02*
X107742428Y-76354676D01*
X107742428Y-76354676D02*
X107742428Y-76430866D01*
X107742428Y-76430866D02*
X107780523Y-76507057D01*
X107780523Y-76507057D02*
X107818618Y-76545152D01*
X107818618Y-76545152D02*
X107894809Y-76583247D01*
X107894809Y-76583247D02*
X108161475Y-76583247D01*
X107437666Y-76202295D02*
X106942428Y-76202295D01*
X106942428Y-76202295D02*
X107209094Y-76507057D01*
X107209094Y-76507057D02*
X107094809Y-76507057D01*
X107094809Y-76507057D02*
X107018618Y-76545152D01*
X107018618Y-76545152D02*
X106980523Y-76583247D01*
X106980523Y-76583247D02*
X106942428Y-76659438D01*
X106942428Y-76659438D02*
X106942428Y-76849914D01*
X106942428Y-76849914D02*
X106980523Y-76926104D01*
X106980523Y-76926104D02*
X107018618Y-76964200D01*
X107018618Y-76964200D02*
X107094809Y-77002295D01*
X107094809Y-77002295D02*
X107323380Y-77002295D01*
X107323380Y-77002295D02*
X107399571Y-76964200D01*
X107399571Y-76964200D02*
X107437666Y-76926104D01*
X107894809Y-79123247D02*
X107780523Y-79161342D01*
X107780523Y-79161342D02*
X107742428Y-79199438D01*
X107742428Y-79199438D02*
X107704332Y-79275628D01*
X107704332Y-79275628D02*
X107704332Y-79389914D01*
X107704332Y-79389914D02*
X107742428Y-79466104D01*
X107742428Y-79466104D02*
X107780523Y-79504200D01*
X107780523Y-79504200D02*
X107856713Y-79542295D01*
X107856713Y-79542295D02*
X108161475Y-79542295D01*
X108161475Y-79542295D02*
X108161475Y-78742295D01*
X108161475Y-78742295D02*
X107894809Y-78742295D01*
X107894809Y-78742295D02*
X107818618Y-78780390D01*
X107818618Y-78780390D02*
X107780523Y-78818485D01*
X107780523Y-78818485D02*
X107742428Y-78894676D01*
X107742428Y-78894676D02*
X107742428Y-78970866D01*
X107742428Y-78970866D02*
X107780523Y-79047057D01*
X107780523Y-79047057D02*
X107818618Y-79085152D01*
X107818618Y-79085152D02*
X107894809Y-79123247D01*
X107894809Y-79123247D02*
X108161475Y-79123247D01*
X107399571Y-78818485D02*
X107361475Y-78780390D01*
X107361475Y-78780390D02*
X107285285Y-78742295D01*
X107285285Y-78742295D02*
X107094809Y-78742295D01*
X107094809Y-78742295D02*
X107018618Y-78780390D01*
X107018618Y-78780390D02*
X106980523Y-78818485D01*
X106980523Y-78818485D02*
X106942428Y-78894676D01*
X106942428Y-78894676D02*
X106942428Y-78970866D01*
X106942428Y-78970866D02*
X106980523Y-79085152D01*
X106980523Y-79085152D02*
X107437666Y-79542295D01*
X107437666Y-79542295D02*
X106942428Y-79542295D01*
X107894809Y-81663247D02*
X107780523Y-81701342D01*
X107780523Y-81701342D02*
X107742428Y-81739438D01*
X107742428Y-81739438D02*
X107704332Y-81815628D01*
X107704332Y-81815628D02*
X107704332Y-81929914D01*
X107704332Y-81929914D02*
X107742428Y-82006104D01*
X107742428Y-82006104D02*
X107780523Y-82044200D01*
X107780523Y-82044200D02*
X107856713Y-82082295D01*
X107856713Y-82082295D02*
X108161475Y-82082295D01*
X108161475Y-82082295D02*
X108161475Y-81282295D01*
X108161475Y-81282295D02*
X107894809Y-81282295D01*
X107894809Y-81282295D02*
X107818618Y-81320390D01*
X107818618Y-81320390D02*
X107780523Y-81358485D01*
X107780523Y-81358485D02*
X107742428Y-81434676D01*
X107742428Y-81434676D02*
X107742428Y-81510866D01*
X107742428Y-81510866D02*
X107780523Y-81587057D01*
X107780523Y-81587057D02*
X107818618Y-81625152D01*
X107818618Y-81625152D02*
X107894809Y-81663247D01*
X107894809Y-81663247D02*
X108161475Y-81663247D01*
X107018618Y-81282295D02*
X107170999Y-81282295D01*
X107170999Y-81282295D02*
X107247190Y-81320390D01*
X107247190Y-81320390D02*
X107285285Y-81358485D01*
X107285285Y-81358485D02*
X107361475Y-81472771D01*
X107361475Y-81472771D02*
X107399571Y-81625152D01*
X107399571Y-81625152D02*
X107399571Y-81929914D01*
X107399571Y-81929914D02*
X107361475Y-82006104D01*
X107361475Y-82006104D02*
X107323380Y-82044200D01*
X107323380Y-82044200D02*
X107247190Y-82082295D01*
X107247190Y-82082295D02*
X107094809Y-82082295D01*
X107094809Y-82082295D02*
X107018618Y-82044200D01*
X107018618Y-82044200D02*
X106980523Y-82006104D01*
X106980523Y-82006104D02*
X106942428Y-81929914D01*
X106942428Y-81929914D02*
X106942428Y-81739438D01*
X106942428Y-81739438D02*
X106980523Y-81663247D01*
X106980523Y-81663247D02*
X107018618Y-81625152D01*
X107018618Y-81625152D02*
X107094809Y-81587057D01*
X107094809Y-81587057D02*
X107247190Y-81587057D01*
X107247190Y-81587057D02*
X107323380Y-81625152D01*
X107323380Y-81625152D02*
X107361475Y-81663247D01*
X107361475Y-81663247D02*
X107399571Y-81739438D01*
%TO.C,U1*%
D11*
X93220000Y-49970000D02*
X93220000Y-82990000D01*
X93220000Y-82990000D02*
X111000000Y-82990000D01*
X95760000Y-52510000D02*
X93220000Y-52510000D01*
X95760000Y-52510000D02*
X95760000Y-55050000D01*
X95760000Y-55050000D02*
X93220000Y-55050000D01*
X111000000Y-49970000D02*
X93220000Y-49970000D01*
X111000000Y-82990000D02*
X111000000Y-49970000D01*
D10*
X108454635Y-58499030D02*
X107954635Y-58499030D01*
X107954635Y-58399030D01*
X108454635Y-58399030D01*
X108454635Y-58499030D01*
G36*
X108454635Y-58499030D02*
G01*
X107954635Y-58499030D01*
X107954635Y-58399030D01*
X108454635Y-58399030D01*
X108454635Y-58499030D01*
G37*
X108054635Y-58699030D02*
X107954635Y-58699030D01*
X107954635Y-58399030D01*
X108054635Y-58399030D01*
X108054635Y-58699030D01*
G36*
X108054635Y-58699030D02*
G01*
X107954635Y-58699030D01*
X107954635Y-58399030D01*
X108054635Y-58399030D01*
X108054635Y-58699030D01*
G37*
X108054635Y-59199030D02*
X107954635Y-59199030D01*
X107954635Y-58999030D01*
X108054635Y-58999030D01*
X108054635Y-59199030D01*
G36*
X108054635Y-59199030D02*
G01*
X107954635Y-59199030D01*
X107954635Y-58999030D01*
X108054635Y-58999030D01*
X108054635Y-59199030D01*
G37*
X108254635Y-58899030D02*
X108154635Y-58899030D01*
X108154635Y-58799030D01*
X108254635Y-58799030D01*
X108254635Y-58899030D01*
G36*
X108254635Y-58899030D02*
G01*
X108154635Y-58899030D01*
X108154635Y-58799030D01*
X108254635Y-58799030D01*
X108254635Y-58899030D01*
G37*
X108454635Y-59199030D02*
X108354635Y-59199030D01*
X108354635Y-58399030D01*
X108454635Y-58399030D01*
X108454635Y-59199030D01*
G36*
X108454635Y-59199030D02*
G01*
X108354635Y-59199030D01*
X108354635Y-58399030D01*
X108454635Y-58399030D01*
X108454635Y-59199030D01*
G37*
%TO.C,D8*%
D12*
X70090000Y-96280000D02*
X70490000Y-96880000D01*
X70490000Y-96280000D02*
X70490000Y-95780000D01*
X70490000Y-96880000D02*
X70890000Y-96280000D01*
X70490000Y-97280000D02*
X70490000Y-96880000D01*
X70890000Y-96280000D02*
X70090000Y-96280000D01*
X71040000Y-96880000D02*
X69940000Y-96880000D01*
%TO.C,D9*%
X89153577Y-96280577D02*
X89553577Y-96880577D01*
X89553577Y-96280577D02*
X89553577Y-95780577D01*
X89553577Y-96880577D02*
X89953577Y-96280577D01*
X89553577Y-97280577D02*
X89553577Y-96880577D01*
X89953577Y-96280577D02*
X89153577Y-96280577D01*
X90103577Y-96880577D02*
X89003577Y-96880577D01*
%TO.C,D6*%
X89130000Y-77210000D02*
X89530000Y-77810000D01*
X89530000Y-77210000D02*
X89530000Y-76710000D01*
X89530000Y-77810000D02*
X89930000Y-77210000D01*
X89530000Y-78210000D02*
X89530000Y-77810000D01*
X89930000Y-77210000D02*
X89130000Y-77210000D01*
X90080000Y-77810000D02*
X88980000Y-77810000D01*
%TO.C,D2*%
X70080000Y-58170000D02*
X70480000Y-58770000D01*
X70480000Y-58170000D02*
X70480000Y-57670000D01*
X70480000Y-58770000D02*
X70880000Y-58170000D01*
X70480000Y-59170000D02*
X70480000Y-58770000D01*
X70880000Y-58170000D02*
X70080000Y-58170000D01*
X71030000Y-58770000D02*
X69930000Y-58770000D01*
%TO.C,D4*%
X51040000Y-77230000D02*
X51440000Y-77830000D01*
X51440000Y-77230000D02*
X51440000Y-76730000D01*
X51440000Y-77830000D02*
X51840000Y-77230000D01*
X51440000Y-78230000D02*
X51440000Y-77830000D01*
X51840000Y-77230000D02*
X51040000Y-77230000D01*
X51990000Y-77830000D02*
X50890000Y-77830000D01*
%TO.C,D7*%
X51040000Y-96270000D02*
X51440000Y-96870000D01*
X51440000Y-96270000D02*
X51440000Y-95770000D01*
X51440000Y-96870000D02*
X51840000Y-96270000D01*
X51440000Y-97270000D02*
X51440000Y-96870000D01*
X51840000Y-96270000D02*
X51040000Y-96270000D01*
X51990000Y-96870000D02*
X50890000Y-96870000D01*
%TO.C,D1*%
X51046249Y-58158585D02*
X51446249Y-58758585D01*
X51446249Y-58158585D02*
X51446249Y-57658585D01*
X51446249Y-58758585D02*
X51846249Y-58158585D01*
X51446249Y-59158585D02*
X51446249Y-58758585D01*
X51846249Y-58158585D02*
X51046249Y-58158585D01*
X51996249Y-58758585D02*
X50896249Y-58758585D01*
%TO.C,D5*%
X70090000Y-77220000D02*
X70490000Y-77820000D01*
X70490000Y-77220000D02*
X70490000Y-76720000D01*
X70490000Y-77820000D02*
X70890000Y-77220000D01*
X70490000Y-78220000D02*
X70490000Y-77820000D01*
X70890000Y-77220000D02*
X70090000Y-77220000D01*
X71040000Y-77820000D02*
X69940000Y-77820000D01*
%TO.C,D3*%
X89130000Y-58180000D02*
X89530000Y-58780000D01*
X89530000Y-58180000D02*
X89530000Y-57680000D01*
X89530000Y-58780000D02*
X89930000Y-58180000D01*
X89530000Y-59180000D02*
X89530000Y-58780000D01*
X89930000Y-58180000D02*
X89130000Y-58180000D01*
X90080000Y-58780000D02*
X88980000Y-58780000D01*
%TD*%
D13*
%TO.C,U1*%
X94490000Y-53780000D03*
D14*
X94490000Y-56320000D03*
X94490000Y-58860000D03*
X94490000Y-61400000D03*
X94490000Y-63940000D03*
X94490000Y-66480000D03*
X94490000Y-69020000D03*
X94490000Y-71560000D03*
X94490000Y-74100000D03*
X94490000Y-76640000D03*
X94490000Y-79180000D03*
X94490000Y-81720000D03*
X109730000Y-81720000D03*
X109730000Y-79180000D03*
X109730000Y-76640000D03*
X109730000Y-74100000D03*
X109730000Y-71560000D03*
X109730000Y-69020000D03*
X109730000Y-66480000D03*
X109730000Y-63940000D03*
X109730000Y-61400000D03*
X109730000Y-58860000D03*
X109730000Y-56320000D03*
X109730000Y-53780000D03*
%TD*%
M02*
