%TF.GenerationSoftware,KiCad,Pcbnew,10.0.0*%
%TF.CreationDate,2026-04-23T12:43:52+05:30*%
%TF.ProjectId,Mech,4d656368-2e6b-4696-9361-645f70636258,rev?*%
%TF.SameCoordinates,Original*%
%TF.FileFunction,Copper,L1,Top*%
%TF.FilePolarity,Positive*%
%FSLAX46Y46*%
G04 Gerber Fmt 4.6, Leading zero omitted, Abs format (unit mm)*
G04 Created by KiCad (PCBNEW 10.0.0) date 2026-04-23 12:43:52*
%MOMM*%
%LPD*%
G01*
G04 APERTURE LIST*
%TA.AperFunction,ComponentPad*%
%ADD10C,2.500000*%
%TD*%
%TA.AperFunction,ComponentPad*%
%ADD11R,1.752600X1.752600*%
%TD*%
%TA.AperFunction,ComponentPad*%
%ADD12C,1.752600*%
%TD*%
%TA.AperFunction,ComponentPad*%
%ADD13R,1.600000X1.600000*%
%TD*%
%TA.AperFunction,ComponentPad*%
%ADD14O,1.600000X1.600000*%
%TD*%
%TA.AperFunction,Conductor*%
%ADD15C,0.200000*%
%TD*%
G04 APERTURE END LIST*
D10*
%TO.P,S6,1,1_1*%
%TO.N,COL2*%
X76200000Y-76200000D03*
%TO.P,S6,2,2_2*%
%TO.N,Net-(D6-A)*%
X82550000Y-73660000D03*
%TD*%
%TO.P,S1,1,1_1*%
%TO.N,COL0*%
X38100000Y-57150000D03*
%TO.P,S1,2,2_2*%
%TO.N,Net-(D1-A)*%
X44450000Y-54610000D03*
%TD*%
%TO.P,S7,1,1_1*%
%TO.N,COL0*%
X38100000Y-95250000D03*
%TO.P,S7,2,2_2*%
%TO.N,Net-(D7-A)*%
X44450000Y-92710000D03*
%TD*%
%TO.P,S3,1,1_1*%
%TO.N,COL2*%
X76200000Y-57150000D03*
%TO.P,S3,2,2_2*%
%TO.N,Net-(D3-A)*%
X82550000Y-54610000D03*
%TD*%
%TO.P,S5,1,1_1*%
%TO.N,COL1*%
X57148552Y-76199999D03*
%TO.P,S5,2,2_2*%
%TO.N,Net-(D5-A)*%
X63498552Y-73659999D03*
%TD*%
%TO.P,S9,1,1_1*%
%TO.N,COL2*%
X76200000Y-95250000D03*
%TO.P,S9,2,2_2*%
%TO.N,Net-(D9-A)*%
X82550000Y-92710000D03*
%TD*%
%TO.P,S4,1,1_1*%
%TO.N,COL0*%
X38100000Y-76200000D03*
%TO.P,S4,2,2_2*%
%TO.N,Net-(D4-A)*%
X44450000Y-73660000D03*
%TD*%
%TO.P,S2,1,1_1*%
%TO.N,COL1*%
X57150000Y-57150000D03*
%TO.P,S2,2,2_2*%
%TO.N,Net-(D2-A)*%
X63500000Y-54610000D03*
%TD*%
%TO.P,S8,1,1_1*%
%TO.N,COL1*%
X57150000Y-95250000D03*
%TO.P,S8,2,2_2*%
%TO.N,Net-(D8-A)*%
X63500000Y-92710000D03*
%TD*%
D11*
%TO.P,U1,1,TX0/PD3_1*%
%TO.N,unconnected-(U1-TX0{slash}PD3-Pad1)*%
X94490000Y-53780000D03*
D12*
%TO.P,U1,2,RX1/PD2_2*%
%TO.N,unconnected-(U1-RX1{slash}PD2-Pad2)*%
X94490000Y-56320000D03*
%TO.P,U1,3,GND_3*%
%TO.N,unconnected-(U1-GND-Pad3)*%
X94490000Y-58860000D03*
%TO.P,U1,4,GND_4*%
%TO.N,unconnected-(U1-GND-Pad4)*%
X94490000Y-61400000D03*
%TO.P,U1,5,2/PD1_5*%
%TO.N,OLED0*%
X94490000Y-63940000D03*
%TO.P,U1,6,3/PD0_6*%
%TO.N,OLED1*%
X94490000Y-66480000D03*
%TO.P,U1,7,4/PD4_7*%
%TO.N,COL0*%
X94490000Y-69020000D03*
%TO.P,U1,8,5/PC6_8*%
%TO.N,COL1*%
X94490000Y-71560000D03*
%TO.P,U1,9,6/PD7_9*%
%TO.N,COL2*%
X94490000Y-74100000D03*
%TO.P,U1,10,7/PE6_10*%
%TO.N,ROW0*%
X94490000Y-76640000D03*
%TO.P,U1,11,8/PB4_11*%
%TO.N,ROW1*%
X94490000Y-79180000D03*
%TO.P,U1,12,9/PB5_12*%
%TO.N,ROW2*%
X94490000Y-81720000D03*
%TO.P,U1,13,10/PB6_13*%
%TO.N,unconnected-(U1-10{slash}PB6-Pad13)*%
X109730000Y-81720000D03*
%TO.P,U1,14,16/PB2_14*%
%TO.N,unconnected-(U1-16{slash}PB2-Pad14)*%
X109730000Y-79180000D03*
%TO.P,U1,15,14/PB3_15*%
%TO.N,unconnected-(U1-14{slash}PB3-Pad15)*%
X109730000Y-76640000D03*
%TO.P,U1,16,15/PB1_16*%
%TO.N,unconnected-(U1-15{slash}PB1-Pad16)*%
X109730000Y-74100000D03*
%TO.P,U1,17,A0/PF7_17*%
%TO.N,unconnected-(U1-A0{slash}PF7-Pad17)*%
X109730000Y-71560000D03*
%TO.P,U1,18,A1/PF6_18*%
%TO.N,unconnected-(U1-A1{slash}PF6-Pad18)*%
X109730000Y-69020000D03*
%TO.P,U1,19,A2/PF5_19*%
%TO.N,unconnected-(U1-A2{slash}PF5-Pad19)*%
X109730000Y-66480000D03*
%TO.P,U1,20,A3/PF4_20*%
%TO.N,unconnected-(U1-A3{slash}PF4-Pad20)*%
X109730000Y-63940000D03*
%TO.P,U1,21,VCC_21*%
%TO.N,unconnected-(U1-VCC-Pad21)*%
X109730000Y-61400000D03*
%TO.P,U1,22,RST_22*%
%TO.N,unconnected-(U1-RST-Pad22)*%
X109730000Y-58860000D03*
%TO.P,U1,23,GND_23*%
%TO.N,unconnected-(U1-GND-Pad23)*%
X109730000Y-56320000D03*
%TO.P,U1,24,RAW_24*%
%TO.N,unconnected-(U1-RAW-Pad24)*%
X109730000Y-53780000D03*
%TD*%
D13*
%TO.P,D8,1,K_1*%
%TO.N,ROW2*%
X70490000Y-100340000D03*
D14*
%TO.P,D8,2,A_2*%
%TO.N,Net-(D8-A)*%
X70490000Y-92720000D03*
%TD*%
D13*
%TO.P,D9,1,K_1*%
%TO.N,ROW2*%
X89553577Y-100340577D03*
D14*
%TO.P,D9,2,A_2*%
%TO.N,Net-(D9-A)*%
X89553577Y-92720577D03*
%TD*%
D13*
%TO.P,D6,1,K_1*%
%TO.N,ROW1*%
X89530000Y-81270000D03*
D14*
%TO.P,D6,2,A_2*%
%TO.N,Net-(D6-A)*%
X89530000Y-73650000D03*
%TD*%
D13*
%TO.P,D2,1,K_1*%
%TO.N,ROW0*%
X70480000Y-62230000D03*
D14*
%TO.P,D2,2,A_2*%
%TO.N,Net-(D2-A)*%
X70480000Y-54610000D03*
%TD*%
D13*
%TO.P,D4,1,K_1*%
%TO.N,ROW1*%
X51440000Y-81290000D03*
D14*
%TO.P,D4,2,A_2*%
%TO.N,Net-(D4-A)*%
X51440000Y-73670000D03*
%TD*%
D13*
%TO.P,D7,1,K_1*%
%TO.N,ROW2*%
X51440000Y-100330000D03*
D14*
%TO.P,D7,2,A_2*%
%TO.N,Net-(D7-A)*%
X51440000Y-92710000D03*
%TD*%
D13*
%TO.P,D1,1,K_1*%
%TO.N,ROW0*%
X51446249Y-62218585D03*
D14*
%TO.P,D1,2,A_2*%
%TO.N,Net-(D1-A)*%
X51446249Y-54598585D03*
%TD*%
D13*
%TO.P,D5,1,K_1*%
%TO.N,ROW1*%
X70490000Y-81280000D03*
D14*
%TO.P,D5,2,A_2*%
%TO.N,Net-(D5-A)*%
X70490000Y-73660000D03*
%TD*%
D13*
%TO.P,D3,1,K_1*%
%TO.N,ROW0*%
X89530000Y-62240000D03*
D14*
%TO.P,D3,2,A_2*%
%TO.N,Net-(D3-A)*%
X89530000Y-54620000D03*
%TD*%
%TO.N,Net-(D6-A)*%
D15*
X89520000Y-73660000D02*
X89530000Y-73650000D01*
X82550000Y-73660000D02*
X89520000Y-73660000D01*
%TO.N,Net-(D1-A)*%
X51434834Y-54610000D02*
X51446249Y-54598585D01*
X44450000Y-54610000D02*
X51434834Y-54610000D01*
%TO.N,Net-(D7-A)*%
X44450000Y-92710000D02*
X51440000Y-92710000D01*
%TO.N,Net-(D3-A)*%
X89520000Y-54610000D02*
X89530000Y-54620000D01*
X82550000Y-54610000D02*
X89520000Y-54610000D01*
%TO.N,Net-(D5-A)*%
X63498552Y-73659999D02*
X70490000Y-73660000D01*
%TO.N,Net-(D9-A)*%
X82550000Y-92710000D02*
X89543000Y-92710000D01*
X89543000Y-92710000D02*
X89553577Y-92720577D01*
%TO.N,Net-(D4-A)*%
X51430000Y-73660000D02*
X51440000Y-73670000D01*
X44450000Y-73660000D02*
X51430000Y-73660000D01*
%TO.N,Net-(D2-A)*%
X63500000Y-54610000D02*
X70480000Y-54610000D01*
%TO.N,Net-(D8-A)*%
X70480000Y-92710000D02*
X70490000Y-92720000D01*
X63500000Y-92710000D02*
X70480000Y-92710000D01*
%TO.N,ROW0*%
X51446249Y-62218585D02*
X89508585Y-62218585D01*
X89508585Y-62218585D02*
X89530000Y-62240000D01*
X89530000Y-66600000D02*
X94490000Y-71560000D01*
X89530000Y-62240000D02*
X89530000Y-66600000D01*
%TO.N,ROW1*%
X89530000Y-79060000D02*
X94490000Y-74100000D01*
X89530000Y-81270000D02*
X89530000Y-79060000D01*
X51440000Y-81290000D02*
X89510000Y-81290000D01*
X89510000Y-81290000D02*
X89530000Y-81270000D01*
%TO.N,ROW2*%
X91120000Y-98774154D02*
X91120000Y-80010000D01*
X89543000Y-100330000D02*
X89553577Y-100340577D01*
X91120000Y-80010000D02*
X94490000Y-76640000D01*
X51440000Y-100330000D02*
X89543000Y-100330000D01*
X89553577Y-100340577D02*
X91120000Y-98774154D01*
%TD*%
%TA.AperFunction,NonConductor*%
G36*
X110385809Y-48170617D02*
G01*
X110578051Y-48179010D01*
X110589559Y-48180053D01*
X110925281Y-48226382D01*
X110937415Y-48228677D01*
X111264948Y-48307744D01*
X111276791Y-48311236D01*
X111594828Y-48422521D01*
X111606273Y-48427180D01*
X111911629Y-48569569D01*
X111922559Y-48575345D01*
X112062118Y-48658256D01*
X112212231Y-48747437D01*
X112222519Y-48754265D01*
X112378781Y-48869592D01*
X112493617Y-48954345D01*
X112503185Y-48962172D01*
X112703076Y-49143059D01*
X112753011Y-49188246D01*
X112761752Y-49196987D01*
X112987826Y-49446813D01*
X112995653Y-49456381D01*
X113195729Y-49727473D01*
X113202565Y-49737773D01*
X113374651Y-50027435D01*
X113380427Y-50038364D01*
X113522819Y-50343725D01*
X113527479Y-50355175D01*
X113638761Y-50673200D01*
X113642256Y-50685054D01*
X113721319Y-51012578D01*
X113723617Y-51024721D01*
X113769943Y-51360421D01*
X113770989Y-51371963D01*
X113779381Y-51564182D01*
X113779499Y-51569591D01*
X113779499Y-106110401D01*
X113779381Y-106115809D01*
X113770989Y-106308033D01*
X113769943Y-106319576D01*
X113723617Y-106655277D01*
X113721319Y-106667424D01*
X113642257Y-106994941D01*
X113638761Y-107006798D01*
X113527479Y-107324823D01*
X113522819Y-107336273D01*
X113380427Y-107641634D01*
X113374651Y-107652563D01*
X113202565Y-107942225D01*
X113195729Y-107952525D01*
X112995653Y-108223617D01*
X112987826Y-108233185D01*
X112761752Y-108483011D01*
X112753011Y-108491752D01*
X112503185Y-108717826D01*
X112493617Y-108725653D01*
X112222525Y-108925729D01*
X112212225Y-108932565D01*
X111922559Y-109104653D01*
X111911629Y-109110429D01*
X111606273Y-109252818D01*
X111594824Y-109257478D01*
X111276801Y-109368759D01*
X111264944Y-109372255D01*
X110937421Y-109451319D01*
X110925274Y-109453617D01*
X110589577Y-109499943D01*
X110578035Y-109500989D01*
X110457700Y-109506242D01*
X110385815Y-109509381D01*
X110380409Y-109509499D01*
X33749597Y-109509499D01*
X33744189Y-109509381D01*
X33551965Y-109500989D01*
X33540422Y-109499943D01*
X33204721Y-109453617D01*
X33192578Y-109451319D01*
X32865056Y-109372256D01*
X32853200Y-109368761D01*
X32535175Y-109257479D01*
X32523725Y-109252819D01*
X32218364Y-109110427D01*
X32207435Y-109104651D01*
X31917773Y-108932565D01*
X31907473Y-108925729D01*
X31822760Y-108863208D01*
X31636381Y-108725653D01*
X31626813Y-108717826D01*
X31446402Y-108554567D01*
X31376984Y-108491749D01*
X31368246Y-108483011D01*
X31355430Y-108468849D01*
X31142172Y-108233185D01*
X31134345Y-108223617D01*
X31096236Y-108171981D01*
X30934265Y-107952519D01*
X30927433Y-107942225D01*
X30926408Y-107940500D01*
X30823869Y-107767902D01*
X30755345Y-107652559D01*
X30749569Y-107641629D01*
X30607180Y-107336273D01*
X30602520Y-107324824D01*
X30602520Y-107324823D01*
X30491236Y-107006791D01*
X30487743Y-106994944D01*
X30475574Y-106944534D01*
X30408677Y-106667415D01*
X30406381Y-106655274D01*
X30391816Y-106549727D01*
X30390149Y-106537648D01*
X31719500Y-106537648D01*
X31719500Y-106742351D01*
X31751522Y-106944534D01*
X31814781Y-107139223D01*
X31907715Y-107321613D01*
X32028028Y-107487213D01*
X32172786Y-107631971D01*
X32255371Y-107691971D01*
X32338390Y-107752287D01*
X32454607Y-107811503D01*
X32520776Y-107845218D01*
X32520778Y-107845218D01*
X32520781Y-107845220D01*
X32625137Y-107879127D01*
X32715465Y-107908477D01*
X32816557Y-107924488D01*
X32917648Y-107940500D01*
X32917649Y-107940500D01*
X33122351Y-107940500D01*
X33122352Y-107940500D01*
X33324534Y-107908477D01*
X33519219Y-107845220D01*
X33701610Y-107752287D01*
X33813015Y-107671347D01*
X33867213Y-107631971D01*
X33867215Y-107631968D01*
X33867219Y-107631966D01*
X34011966Y-107487219D01*
X34011968Y-107487215D01*
X34011971Y-107487213D01*
X34064732Y-107414590D01*
X34132287Y-107321610D01*
X34225220Y-107139219D01*
X34288477Y-106944534D01*
X34320500Y-106742352D01*
X34320500Y-106597648D01*
X109829500Y-106597648D01*
X109829500Y-106802351D01*
X109861522Y-107004534D01*
X109924781Y-107199223D01*
X110017715Y-107381613D01*
X110138028Y-107547213D01*
X110282786Y-107691971D01*
X110437749Y-107804556D01*
X110448390Y-107812287D01*
X110513021Y-107845218D01*
X110630776Y-107905218D01*
X110630778Y-107905218D01*
X110630781Y-107905220D01*
X110735137Y-107939127D01*
X110825465Y-107968477D01*
X110926557Y-107984488D01*
X111027648Y-108000500D01*
X111027649Y-108000500D01*
X111232351Y-108000500D01*
X111232352Y-108000500D01*
X111434534Y-107968477D01*
X111629219Y-107905220D01*
X111811610Y-107812287D01*
X111904590Y-107744732D01*
X111977213Y-107691971D01*
X111977215Y-107691968D01*
X111977219Y-107691966D01*
X112121966Y-107547219D01*
X112121968Y-107547215D01*
X112121971Y-107547213D01*
X112174732Y-107474590D01*
X112242287Y-107381610D01*
X112335220Y-107199219D01*
X112398477Y-107004534D01*
X112430500Y-106802352D01*
X112430500Y-106597648D01*
X112398477Y-106395466D01*
X112378981Y-106335465D01*
X112335218Y-106200776D01*
X112291928Y-106115816D01*
X112242287Y-106018390D01*
X112198692Y-105958386D01*
X112121971Y-105852786D01*
X111977213Y-105708028D01*
X111811613Y-105587715D01*
X111811612Y-105587714D01*
X111811610Y-105587713D01*
X111754653Y-105558691D01*
X111629223Y-105494781D01*
X111434534Y-105431522D01*
X111259995Y-105403878D01*
X111232352Y-105399500D01*
X111027648Y-105399500D01*
X111003329Y-105403351D01*
X110825465Y-105431522D01*
X110630776Y-105494781D01*
X110448386Y-105587715D01*
X110282786Y-105708028D01*
X110138028Y-105852786D01*
X110017715Y-106018386D01*
X109924781Y-106200776D01*
X109861522Y-106395465D01*
X109829500Y-106597648D01*
X34320500Y-106597648D01*
X34320500Y-106537648D01*
X34292712Y-106362204D01*
X34288477Y-106335465D01*
X34244715Y-106200781D01*
X34225220Y-106140781D01*
X34225218Y-106140778D01*
X34225218Y-106140776D01*
X34188758Y-106069221D01*
X34132287Y-105958390D01*
X34124556Y-105947749D01*
X34011971Y-105792786D01*
X33867213Y-105648028D01*
X33701613Y-105527715D01*
X33701612Y-105527714D01*
X33701610Y-105527713D01*
X33644653Y-105498691D01*
X33519223Y-105434781D01*
X33324534Y-105371522D01*
X33149995Y-105343878D01*
X33122352Y-105339500D01*
X32917648Y-105339500D01*
X32893329Y-105343351D01*
X32715465Y-105371522D01*
X32520776Y-105434781D01*
X32338386Y-105527715D01*
X32172786Y-105648028D01*
X32028028Y-105792786D01*
X31907715Y-105958386D01*
X31814781Y-106140776D01*
X31751522Y-106335465D01*
X31719500Y-106537648D01*
X30390149Y-106537648D01*
X30377601Y-106446718D01*
X30360053Y-106319558D01*
X30359010Y-106308052D01*
X30350618Y-106115809D01*
X30350500Y-106110408D01*
X30350500Y-97701421D01*
X35704500Y-97701421D01*
X35704500Y-97878578D01*
X35732214Y-98053556D01*
X35786956Y-98222039D01*
X35786957Y-98222042D01*
X35867386Y-98379890D01*
X35971517Y-98523214D01*
X36096786Y-98648483D01*
X36240110Y-98752614D01*
X36308577Y-98787500D01*
X36397957Y-98833042D01*
X36397960Y-98833043D01*
X36482201Y-98860414D01*
X36566445Y-98887786D01*
X36741421Y-98915500D01*
X36741422Y-98915500D01*
X36918578Y-98915500D01*
X36918579Y-98915500D01*
X37093555Y-98887786D01*
X37262042Y-98833042D01*
X37419890Y-98752614D01*
X37563214Y-98648483D01*
X37688483Y-98523214D01*
X37792614Y-98379890D01*
X37873042Y-98222042D01*
X37927786Y-98053555D01*
X37955500Y-97878579D01*
X37955500Y-97701421D01*
X37946165Y-97642486D01*
X39659500Y-97642486D01*
X39659500Y-97937513D01*
X39674778Y-98053555D01*
X39698007Y-98229993D01*
X39763403Y-98474056D01*
X39774361Y-98514951D01*
X39774364Y-98514961D01*
X39887254Y-98787500D01*
X39887258Y-98787510D01*
X40034761Y-99042993D01*
X40214352Y-99277040D01*
X40214358Y-99277047D01*
X40422952Y-99485641D01*
X40422959Y-99485647D01*
X40657006Y-99665238D01*
X40912489Y-99812741D01*
X40912490Y-99812741D01*
X40912493Y-99812743D01*
X41185048Y-99925639D01*
X41470007Y-100001993D01*
X41762494Y-100040500D01*
X41762501Y-100040500D01*
X42057499Y-100040500D01*
X42057506Y-100040500D01*
X42349993Y-100001993D01*
X42634952Y-99925639D01*
X42907507Y-99812743D01*
X43162994Y-99665238D01*
X43397042Y-99485646D01*
X43605646Y-99277042D01*
X43785238Y-99042994D01*
X43932743Y-98787507D01*
X44045639Y-98514952D01*
X44121993Y-98229993D01*
X44160500Y-97937506D01*
X44160500Y-97701421D01*
X45864500Y-97701421D01*
X45864500Y-97878578D01*
X45892214Y-98053556D01*
X45946956Y-98222039D01*
X45946957Y-98222042D01*
X46027386Y-98379890D01*
X46131517Y-98523214D01*
X46256786Y-98648483D01*
X46400110Y-98752614D01*
X46468577Y-98787500D01*
X46557957Y-98833042D01*
X46557960Y-98833043D01*
X46642201Y-98860414D01*
X46726445Y-98887786D01*
X46901421Y-98915500D01*
X46901422Y-98915500D01*
X47078578Y-98915500D01*
X47078579Y-98915500D01*
X47253555Y-98887786D01*
X47422042Y-98833042D01*
X47579890Y-98752614D01*
X47723214Y-98648483D01*
X47848483Y-98523214D01*
X47952614Y-98379890D01*
X48033042Y-98222042D01*
X48087786Y-98053555D01*
X48115500Y-97878579D01*
X48115500Y-97701421D01*
X54754500Y-97701421D01*
X54754500Y-97878578D01*
X54782214Y-98053556D01*
X54836956Y-98222039D01*
X54836957Y-98222042D01*
X54917386Y-98379890D01*
X55021517Y-98523214D01*
X55146786Y-98648483D01*
X55290110Y-98752614D01*
X55358577Y-98787500D01*
X55447957Y-98833042D01*
X55447960Y-98833043D01*
X55532201Y-98860414D01*
X55616445Y-98887786D01*
X55791421Y-98915500D01*
X55791422Y-98915500D01*
X55968578Y-98915500D01*
X55968579Y-98915500D01*
X56143555Y-98887786D01*
X56312042Y-98833042D01*
X56469890Y-98752614D01*
X56613214Y-98648483D01*
X56738483Y-98523214D01*
X56842614Y-98379890D01*
X56923042Y-98222042D01*
X56977786Y-98053555D01*
X57005500Y-97878579D01*
X57005500Y-97701421D01*
X56977786Y-97526445D01*
X56923042Y-97357958D01*
X56923042Y-97357957D01*
X56842613Y-97200109D01*
X56831518Y-97184838D01*
X56808038Y-97119032D01*
X56823863Y-97050978D01*
X56873968Y-97002283D01*
X56942446Y-96988407D01*
X56947977Y-96989008D01*
X57035266Y-97000500D01*
X57035273Y-97000500D01*
X57264727Y-97000500D01*
X57264734Y-97000500D01*
X57492238Y-96970548D01*
X57713887Y-96911158D01*
X57925888Y-96823344D01*
X58124612Y-96708611D01*
X58306661Y-96568919D01*
X58306665Y-96568914D01*
X58306670Y-96568911D01*
X58468911Y-96406670D01*
X58468914Y-96406665D01*
X58468919Y-96406661D01*
X58608611Y-96224612D01*
X58723344Y-96025888D01*
X58811158Y-95813887D01*
X58870548Y-95592238D01*
X58900500Y-95364734D01*
X58900500Y-95135266D01*
X58870548Y-94907762D01*
X58811158Y-94686113D01*
X58723344Y-94474112D01*
X58608611Y-94275388D01*
X58608608Y-94275385D01*
X58608607Y-94275382D01*
X58468918Y-94093338D01*
X58468911Y-94093330D01*
X58306670Y-93931089D01*
X58306661Y-93931081D01*
X58124617Y-93791392D01*
X58086430Y-93769345D01*
X57969735Y-93701971D01*
X57925890Y-93676657D01*
X57925876Y-93676650D01*
X57713887Y-93588842D01*
X57635341Y-93567796D01*
X57492238Y-93529452D01*
X57454215Y-93524446D01*
X57264741Y-93499500D01*
X57264734Y-93499500D01*
X57035266Y-93499500D01*
X57035258Y-93499500D01*
X56818715Y-93528009D01*
X56807762Y-93529452D01*
X56714076Y-93554554D01*
X56586112Y-93588842D01*
X56374123Y-93676650D01*
X56374109Y-93676657D01*
X56175382Y-93791392D01*
X55993338Y-93931081D01*
X55831081Y-94093338D01*
X55691392Y-94275382D01*
X55576657Y-94474109D01*
X55576650Y-94474123D01*
X55488842Y-94686112D01*
X55429453Y-94907759D01*
X55429451Y-94907770D01*
X55399500Y-95135258D01*
X55399500Y-95364741D01*
X55422509Y-95539500D01*
X55429452Y-95592238D01*
X55476347Y-95767254D01*
X55488842Y-95813887D01*
X55576650Y-96025876D01*
X55576657Y-96025890D01*
X55691392Y-96224617D01*
X55831081Y-96406661D01*
X55831089Y-96406670D01*
X55877238Y-96452819D01*
X55910723Y-96514142D01*
X55905739Y-96583834D01*
X55863867Y-96639767D01*
X55798403Y-96664184D01*
X55792967Y-96664378D01*
X55791423Y-96664499D01*
X55616443Y-96692214D01*
X55447960Y-96746956D01*
X55447957Y-96746957D01*
X55290109Y-96827386D01*
X55208338Y-96886796D01*
X55146786Y-96931517D01*
X55146784Y-96931519D01*
X55146783Y-96931519D01*
X55021519Y-97056783D01*
X55021519Y-97056784D01*
X55021517Y-97056786D01*
X54976796Y-97118338D01*
X54917386Y-97200109D01*
X54836957Y-97357957D01*
X54836956Y-97357960D01*
X54782214Y-97526443D01*
X54754500Y-97701421D01*
X48115500Y-97701421D01*
X48087786Y-97526445D01*
X48033042Y-97357958D01*
X48033042Y-97357957D01*
X47952613Y-97200109D01*
X47941518Y-97184838D01*
X47848483Y-97056786D01*
X47723214Y-96931517D01*
X47579890Y-96827386D01*
X47571953Y-96823342D01*
X47422042Y-96746957D01*
X47422039Y-96746956D01*
X47253556Y-96692214D01*
X47166067Y-96678357D01*
X47078579Y-96664500D01*
X46901421Y-96664500D01*
X46843095Y-96673738D01*
X46726443Y-96692214D01*
X46557960Y-96746956D01*
X46557957Y-96746957D01*
X46400109Y-96827386D01*
X46318338Y-96886796D01*
X46256786Y-96931517D01*
X46256784Y-96931519D01*
X46256783Y-96931519D01*
X46131519Y-97056783D01*
X46131519Y-97056784D01*
X46131517Y-97056786D01*
X46086796Y-97118338D01*
X46027386Y-97200109D01*
X45946957Y-97357957D01*
X45946956Y-97357960D01*
X45892214Y-97526443D01*
X45864500Y-97701421D01*
X44160500Y-97701421D01*
X44160500Y-97642494D01*
X44121993Y-97350007D01*
X44045639Y-97065048D01*
X43932743Y-96792493D01*
X43906453Y-96746958D01*
X43785238Y-96537006D01*
X43605647Y-96302959D01*
X43605641Y-96302952D01*
X43397047Y-96094358D01*
X43397040Y-96094352D01*
X43162993Y-95914761D01*
X42907510Y-95767258D01*
X42907500Y-95767254D01*
X42634961Y-95654364D01*
X42634954Y-95654362D01*
X42634952Y-95654361D01*
X42349993Y-95578007D01*
X42301113Y-95571571D01*
X42057513Y-95539500D01*
X42057506Y-95539500D01*
X41762494Y-95539500D01*
X41762486Y-95539500D01*
X41484085Y-95576153D01*
X41470007Y-95578007D01*
X41185048Y-95654361D01*
X41185038Y-95654364D01*
X40912499Y-95767254D01*
X40912489Y-95767258D01*
X40657006Y-95914761D01*
X40422959Y-96094352D01*
X40422952Y-96094358D01*
X40214358Y-96302952D01*
X40214352Y-96302959D01*
X40034761Y-96537006D01*
X39887258Y-96792489D01*
X39887254Y-96792499D01*
X39774364Y-97065038D01*
X39774361Y-97065048D01*
X39738172Y-97200110D01*
X39698008Y-97350004D01*
X39698006Y-97350015D01*
X39659500Y-97642486D01*
X37946165Y-97642486D01*
X37927786Y-97526445D01*
X37873042Y-97357958D01*
X37873042Y-97357957D01*
X37792613Y-97200109D01*
X37781518Y-97184838D01*
X37758038Y-97119032D01*
X37773863Y-97050978D01*
X37823968Y-97002283D01*
X37892446Y-96988407D01*
X37897977Y-96989008D01*
X37985266Y-97000500D01*
X37985273Y-97000500D01*
X38214727Y-97000500D01*
X38214734Y-97000500D01*
X38442238Y-96970548D01*
X38663887Y-96911158D01*
X38875888Y-96823344D01*
X39074612Y-96708611D01*
X39256661Y-96568919D01*
X39256665Y-96568914D01*
X39256670Y-96568911D01*
X39418911Y-96406670D01*
X39418914Y-96406665D01*
X39418919Y-96406661D01*
X39558611Y-96224612D01*
X39673344Y-96025888D01*
X39761158Y-95813887D01*
X39820548Y-95592238D01*
X39850500Y-95364734D01*
X39850500Y-95135266D01*
X39820548Y-94907762D01*
X39761158Y-94686113D01*
X39673344Y-94474112D01*
X39558611Y-94275388D01*
X39558608Y-94275385D01*
X39558607Y-94275382D01*
X39418918Y-94093338D01*
X39418911Y-94093330D01*
X39256670Y-93931089D01*
X39256661Y-93931081D01*
X39074617Y-93791392D01*
X39036430Y-93769345D01*
X38919735Y-93701971D01*
X38875890Y-93676657D01*
X38875876Y-93676650D01*
X38663887Y-93588842D01*
X38585341Y-93567796D01*
X38442238Y-93529452D01*
X38404215Y-93524446D01*
X38214741Y-93499500D01*
X38214734Y-93499500D01*
X37985266Y-93499500D01*
X37985258Y-93499500D01*
X37768715Y-93528009D01*
X37757762Y-93529452D01*
X37664076Y-93554554D01*
X37536112Y-93588842D01*
X37324123Y-93676650D01*
X37324109Y-93676657D01*
X37125382Y-93791392D01*
X36943338Y-93931081D01*
X36781081Y-94093338D01*
X36641392Y-94275382D01*
X36526657Y-94474109D01*
X36526650Y-94474123D01*
X36438842Y-94686112D01*
X36379453Y-94907759D01*
X36379451Y-94907770D01*
X36349500Y-95135258D01*
X36349500Y-95364741D01*
X36372509Y-95539500D01*
X36379452Y-95592238D01*
X36426347Y-95767254D01*
X36438842Y-95813887D01*
X36526650Y-96025876D01*
X36526657Y-96025890D01*
X36641392Y-96224617D01*
X36781081Y-96406661D01*
X36781089Y-96406670D01*
X36827238Y-96452819D01*
X36860723Y-96514142D01*
X36855739Y-96583834D01*
X36813867Y-96639767D01*
X36748403Y-96664184D01*
X36742967Y-96664378D01*
X36741423Y-96664499D01*
X36566443Y-96692214D01*
X36397960Y-96746956D01*
X36397957Y-96746957D01*
X36240109Y-96827386D01*
X36158338Y-96886796D01*
X36096786Y-96931517D01*
X36096784Y-96931519D01*
X36096783Y-96931519D01*
X35971519Y-97056783D01*
X35971519Y-97056784D01*
X35971517Y-97056786D01*
X35926796Y-97118338D01*
X35867386Y-97200109D01*
X35786957Y-97357957D01*
X35786956Y-97357960D01*
X35732214Y-97526443D01*
X35704500Y-97701421D01*
X30350500Y-97701421D01*
X30350500Y-92595258D01*
X42699500Y-92595258D01*
X42699500Y-92824741D01*
X42724446Y-93014215D01*
X42729452Y-93052238D01*
X42771516Y-93209223D01*
X42788842Y-93273887D01*
X42876650Y-93485876D01*
X42876657Y-93485890D01*
X42991392Y-93684617D01*
X43131081Y-93866661D01*
X43131089Y-93866670D01*
X43293330Y-94028911D01*
X43293338Y-94028918D01*
X43475382Y-94168607D01*
X43475385Y-94168608D01*
X43475388Y-94168611D01*
X43674112Y-94283344D01*
X43674117Y-94283346D01*
X43674123Y-94283349D01*
X43765480Y-94321190D01*
X43886113Y-94371158D01*
X44107762Y-94430548D01*
X44335266Y-94460500D01*
X44335273Y-94460500D01*
X44564727Y-94460500D01*
X44564734Y-94460500D01*
X44792238Y-94430548D01*
X45013887Y-94371158D01*
X45225888Y-94283344D01*
X45424612Y-94168611D01*
X45606661Y-94028919D01*
X45606665Y-94028914D01*
X45606670Y-94028911D01*
X45768911Y-93866670D01*
X45768914Y-93866665D01*
X45768919Y-93866661D01*
X45908611Y-93684612D01*
X46023344Y-93485888D01*
X46064285Y-93387048D01*
X46108125Y-93332644D01*
X46174420Y-93310579D01*
X46178846Y-93310500D01*
X50210398Y-93310500D01*
X50277437Y-93330185D01*
X50320882Y-93378204D01*
X50325389Y-93387048D01*
X50327715Y-93391614D01*
X50448028Y-93557213D01*
X50592786Y-93701971D01*
X50715862Y-93791389D01*
X50758390Y-93822287D01*
X50874607Y-93881503D01*
X50940776Y-93915218D01*
X50940778Y-93915218D01*
X50940781Y-93915220D01*
X50989621Y-93931089D01*
X51135465Y-93978477D01*
X51198602Y-93988477D01*
X51337648Y-94010500D01*
X51337649Y-94010500D01*
X51542351Y-94010500D01*
X51542352Y-94010500D01*
X51744534Y-93978477D01*
X51939219Y-93915220D01*
X52121610Y-93822287D01*
X52226797Y-93745865D01*
X52287213Y-93701971D01*
X52287215Y-93701968D01*
X52287219Y-93701966D01*
X52431966Y-93557219D01*
X52431968Y-93557215D01*
X52431971Y-93557213D01*
X52484732Y-93484590D01*
X52552287Y-93391610D01*
X52645220Y-93209219D01*
X52708477Y-93014534D01*
X52740500Y-92812352D01*
X52740500Y-92607648D01*
X52738538Y-92595258D01*
X61749500Y-92595258D01*
X61749500Y-92824741D01*
X61774446Y-93014215D01*
X61779452Y-93052238D01*
X61821516Y-93209223D01*
X61838842Y-93273887D01*
X61926650Y-93485876D01*
X61926657Y-93485890D01*
X62041392Y-93684617D01*
X62181081Y-93866661D01*
X62181089Y-93866670D01*
X62343330Y-94028911D01*
X62343338Y-94028918D01*
X62525382Y-94168607D01*
X62525385Y-94168608D01*
X62525388Y-94168611D01*
X62724112Y-94283344D01*
X62724117Y-94283346D01*
X62724123Y-94283349D01*
X62815480Y-94321190D01*
X62936113Y-94371158D01*
X63157762Y-94430548D01*
X63385266Y-94460500D01*
X63385273Y-94460500D01*
X63614727Y-94460500D01*
X63614734Y-94460500D01*
X63842238Y-94430548D01*
X64063887Y-94371158D01*
X64275888Y-94283344D01*
X64474612Y-94168611D01*
X64656661Y-94028919D01*
X64656665Y-94028914D01*
X64656670Y-94028911D01*
X64818911Y-93866670D01*
X64818914Y-93866665D01*
X64818919Y-93866661D01*
X64958611Y-93684612D01*
X65073344Y-93485888D01*
X65114285Y-93387048D01*
X65158125Y-93332644D01*
X65224420Y-93310579D01*
X65228846Y-93310500D01*
X69255303Y-93310500D01*
X69322342Y-93330185D01*
X69365788Y-93378206D01*
X69377713Y-93401611D01*
X69498028Y-93567213D01*
X69642786Y-93711971D01*
X69794622Y-93822284D01*
X69808390Y-93832287D01*
X69924607Y-93891503D01*
X69990776Y-93925218D01*
X69990778Y-93925218D01*
X69990781Y-93925220D01*
X70095137Y-93959127D01*
X70185465Y-93988477D01*
X70286557Y-94004488D01*
X70387648Y-94020500D01*
X70387649Y-94020500D01*
X70592351Y-94020500D01*
X70592352Y-94020500D01*
X70794534Y-93988477D01*
X70989219Y-93925220D01*
X71171610Y-93832287D01*
X71290561Y-93745865D01*
X71337213Y-93711971D01*
X71337215Y-93711968D01*
X71337219Y-93711966D01*
X71481966Y-93567219D01*
X71481968Y-93567215D01*
X71481971Y-93567213D01*
X71541065Y-93485876D01*
X71602287Y-93401610D01*
X71695220Y-93219219D01*
X71758477Y-93024534D01*
X71790500Y-92822352D01*
X71790500Y-92617648D01*
X71758477Y-92415466D01*
X71755227Y-92405465D01*
X71695218Y-92220776D01*
X71638519Y-92109500D01*
X71602287Y-92038390D01*
X71594556Y-92027749D01*
X71481971Y-91872786D01*
X71337213Y-91728028D01*
X71171613Y-91607715D01*
X71171612Y-91607714D01*
X71171610Y-91607713D01*
X71114653Y-91578691D01*
X70989223Y-91514781D01*
X70794534Y-91451522D01*
X70619995Y-91423878D01*
X70592352Y-91419500D01*
X70387648Y-91419500D01*
X70363329Y-91423351D01*
X70185465Y-91451522D01*
X69990776Y-91514781D01*
X69808386Y-91607715D01*
X69642786Y-91728028D01*
X69498034Y-91872780D01*
X69401560Y-92005566D01*
X69377713Y-92038390D01*
X69375981Y-92041791D01*
X69375980Y-92041792D01*
X69328007Y-92092589D01*
X69265494Y-92109500D01*
X65228846Y-92109500D01*
X65161807Y-92089815D01*
X65116052Y-92037011D01*
X65114285Y-92032952D01*
X65073349Y-91934123D01*
X65073346Y-91934117D01*
X65073344Y-91934112D01*
X64958611Y-91735388D01*
X64958608Y-91735385D01*
X64958607Y-91735382D01*
X64818918Y-91553338D01*
X64818911Y-91553330D01*
X64656670Y-91391089D01*
X64656661Y-91391081D01*
X64474617Y-91251392D01*
X64275890Y-91136657D01*
X64275876Y-91136650D01*
X64063887Y-91048842D01*
X63842238Y-90989452D01*
X63804215Y-90984446D01*
X63614741Y-90959500D01*
X63614734Y-90959500D01*
X63385266Y-90959500D01*
X63385258Y-90959500D01*
X63168715Y-90988009D01*
X63157762Y-90989452D01*
X63064076Y-91014554D01*
X62936112Y-91048842D01*
X62724123Y-91136650D01*
X62724109Y-91136657D01*
X62525382Y-91251392D01*
X62343338Y-91391081D01*
X62181081Y-91553338D01*
X62041392Y-91735382D01*
X61926657Y-91934109D01*
X61926650Y-91934123D01*
X61838842Y-92146112D01*
X61779453Y-92367759D01*
X61779451Y-92367770D01*
X61749500Y-92595258D01*
X52738538Y-92595258D01*
X52708477Y-92405466D01*
X52645220Y-92210781D01*
X52645218Y-92210778D01*
X52645218Y-92210776D01*
X52611503Y-92144607D01*
X52552287Y-92028390D01*
X52483791Y-91934112D01*
X52431971Y-91862786D01*
X52287213Y-91718028D01*
X52121613Y-91597715D01*
X52121612Y-91597714D01*
X52121610Y-91597713D01*
X52064653Y-91568691D01*
X51939223Y-91504781D01*
X51744534Y-91441522D01*
X51569995Y-91413878D01*
X51542352Y-91409500D01*
X51337648Y-91409500D01*
X51313329Y-91413351D01*
X51135465Y-91441522D01*
X50940776Y-91504781D01*
X50758386Y-91597715D01*
X50592786Y-91718028D01*
X50448028Y-91862786D01*
X50327715Y-92028385D01*
X50323320Y-92037011D01*
X50320885Y-92041792D01*
X50320883Y-92041795D01*
X50272909Y-92092591D01*
X50210398Y-92109500D01*
X46178846Y-92109500D01*
X46111807Y-92089815D01*
X46066052Y-92037011D01*
X46064285Y-92032952D01*
X46023349Y-91934123D01*
X46023346Y-91934117D01*
X46023344Y-91934112D01*
X45908611Y-91735388D01*
X45908608Y-91735385D01*
X45908607Y-91735382D01*
X45768918Y-91553338D01*
X45768911Y-91553330D01*
X45606670Y-91391089D01*
X45606661Y-91391081D01*
X45424617Y-91251392D01*
X45225890Y-91136657D01*
X45225876Y-91136650D01*
X45013887Y-91048842D01*
X44792238Y-90989452D01*
X44754215Y-90984446D01*
X44564741Y-90959500D01*
X44564734Y-90959500D01*
X44335266Y-90959500D01*
X44335258Y-90959500D01*
X44118715Y-90988009D01*
X44107762Y-90989452D01*
X44014076Y-91014554D01*
X43886112Y-91048842D01*
X43674123Y-91136650D01*
X43674109Y-91136657D01*
X43475382Y-91251392D01*
X43293338Y-91391081D01*
X43131081Y-91553338D01*
X42991392Y-91735382D01*
X42876657Y-91934109D01*
X42876650Y-91934123D01*
X42788842Y-92146112D01*
X42729453Y-92367759D01*
X42729451Y-92367770D01*
X42699500Y-92595258D01*
X30350500Y-92595258D01*
X30350500Y-78651421D01*
X35704500Y-78651421D01*
X35704500Y-78828579D01*
X35713832Y-78887498D01*
X35732214Y-79003556D01*
X35786956Y-79172039D01*
X35786957Y-79172042D01*
X35856607Y-79308735D01*
X35867386Y-79329890D01*
X35971517Y-79473214D01*
X36096786Y-79598483D01*
X36240110Y-79702614D01*
X36251672Y-79708505D01*
X36397957Y-79783042D01*
X36397960Y-79783043D01*
X36482201Y-79810414D01*
X36566445Y-79837786D01*
X36741421Y-79865500D01*
X36741422Y-79865500D01*
X36918578Y-79865500D01*
X36918579Y-79865500D01*
X37093555Y-79837786D01*
X37262042Y-79783042D01*
X37419890Y-79702614D01*
X37563214Y-79598483D01*
X37688483Y-79473214D01*
X37792614Y-79329890D01*
X37873042Y-79172042D01*
X37927786Y-79003555D01*
X37955500Y-78828579D01*
X37955500Y-78651421D01*
X37946165Y-78592486D01*
X39659500Y-78592486D01*
X39659500Y-78887513D01*
X39674778Y-79003554D01*
X39698007Y-79179993D01*
X39774361Y-79464951D01*
X39774364Y-79464961D01*
X39887254Y-79737500D01*
X39887258Y-79737510D01*
X40034761Y-79992993D01*
X40214352Y-80227040D01*
X40214358Y-80227047D01*
X40422952Y-80435641D01*
X40422959Y-80435647D01*
X40657006Y-80615238D01*
X40912489Y-80762741D01*
X40912490Y-80762741D01*
X40912493Y-80762743D01*
X41185048Y-80875639D01*
X41470007Y-80951993D01*
X41762494Y-80990500D01*
X41762501Y-80990500D01*
X42057499Y-80990500D01*
X42057506Y-80990500D01*
X42349993Y-80951993D01*
X42634952Y-80875639D01*
X42907507Y-80762743D01*
X43162994Y-80615238D01*
X43388585Y-80442135D01*
X50139500Y-80442135D01*
X50139500Y-82137870D01*
X50139501Y-82137876D01*
X50145908Y-82197483D01*
X50196202Y-82332328D01*
X50196206Y-82332335D01*
X50282452Y-82447544D01*
X50282455Y-82447547D01*
X50397664Y-82533793D01*
X50397671Y-82533797D01*
X50532517Y-82584091D01*
X50532516Y-82584091D01*
X50539444Y-82584835D01*
X50592127Y-82590500D01*
X52287872Y-82590499D01*
X52347483Y-82584091D01*
X52482331Y-82533796D01*
X52597546Y-82447546D01*
X52683796Y-82332331D01*
X52734091Y-82197483D01*
X52740500Y-82137873D01*
X52740500Y-82014500D01*
X52760185Y-81947461D01*
X52812989Y-81901706D01*
X52864500Y-81890500D01*
X69065501Y-81890500D01*
X69132540Y-81910185D01*
X69178295Y-81962989D01*
X69189501Y-82014500D01*
X69189501Y-82127876D01*
X69195908Y-82187483D01*
X69246202Y-82322328D01*
X69246206Y-82322335D01*
X69332452Y-82437544D01*
X69332455Y-82437547D01*
X69447664Y-82523793D01*
X69447671Y-82523797D01*
X69582517Y-82574091D01*
X69582516Y-82574091D01*
X69589444Y-82574835D01*
X69642127Y-82580500D01*
X71337872Y-82580499D01*
X71397483Y-82574091D01*
X71532331Y-82523796D01*
X71647546Y-82437546D01*
X71733796Y-82322331D01*
X71784091Y-82187483D01*
X71790500Y-82127873D01*
X71790500Y-82014500D01*
X71810185Y-81947461D01*
X71862989Y-81901706D01*
X71914500Y-81890500D01*
X88105501Y-81890500D01*
X88172540Y-81910185D01*
X88218295Y-81962989D01*
X88229501Y-82014500D01*
X88229501Y-82117876D01*
X88235908Y-82177483D01*
X88286202Y-82312328D01*
X88286206Y-82312335D01*
X88372452Y-82427544D01*
X88372455Y-82427547D01*
X88487664Y-82513793D01*
X88487671Y-82513797D01*
X88622517Y-82564091D01*
X88622516Y-82564091D01*
X88629444Y-82564835D01*
X88682127Y-82570500D01*
X90377872Y-82570499D01*
X90382233Y-82570030D01*
X90450994Y-82582429D01*
X90502136Y-82630034D01*
X90519500Y-82693318D01*
X90519500Y-91571490D01*
X90499815Y-91638529D01*
X90447011Y-91684284D01*
X90377853Y-91694228D01*
X90322616Y-91671809D01*
X90235189Y-91608291D01*
X90052800Y-91515358D01*
X89858111Y-91452099D01*
X89683572Y-91424455D01*
X89655929Y-91420077D01*
X89451225Y-91420077D01*
X89426906Y-91423928D01*
X89249042Y-91452099D01*
X89054353Y-91515358D01*
X88871963Y-91608292D01*
X88706363Y-91728605D01*
X88561611Y-91873357D01*
X88517473Y-91934109D01*
X88441290Y-92038967D01*
X88439851Y-92041792D01*
X88439018Y-92042673D01*
X88438745Y-92043120D01*
X88438651Y-92043062D01*
X88391879Y-92092589D01*
X88329365Y-92109500D01*
X84278846Y-92109500D01*
X84211807Y-92089815D01*
X84166052Y-92037011D01*
X84164285Y-92032952D01*
X84123349Y-91934123D01*
X84123346Y-91934117D01*
X84123344Y-91934112D01*
X84008611Y-91735388D01*
X84008608Y-91735385D01*
X84008607Y-91735382D01*
X83868918Y-91553338D01*
X83868911Y-91553330D01*
X83706670Y-91391089D01*
X83706661Y-91391081D01*
X83524617Y-91251392D01*
X83325890Y-91136657D01*
X83325876Y-91136650D01*
X83113887Y-91048842D01*
X82892238Y-90989452D01*
X82854215Y-90984446D01*
X82664741Y-90959500D01*
X82664734Y-90959500D01*
X82435266Y-90959500D01*
X82435258Y-90959500D01*
X82218715Y-90988009D01*
X82207762Y-90989452D01*
X82114076Y-91014554D01*
X81986112Y-91048842D01*
X81774123Y-91136650D01*
X81774109Y-91136657D01*
X81575382Y-91251392D01*
X81393338Y-91391081D01*
X81231081Y-91553338D01*
X81091392Y-91735382D01*
X80976657Y-91934109D01*
X80976650Y-91934123D01*
X80888842Y-92146112D01*
X80829453Y-92367759D01*
X80829451Y-92367770D01*
X80799500Y-92595258D01*
X80799500Y-92824741D01*
X80824446Y-93014215D01*
X80829452Y-93052238D01*
X80871516Y-93209223D01*
X80888842Y-93273887D01*
X80976650Y-93485876D01*
X80976657Y-93485890D01*
X81091392Y-93684617D01*
X81231081Y-93866661D01*
X81231089Y-93866670D01*
X81393330Y-94028911D01*
X81393338Y-94028918D01*
X81575382Y-94168607D01*
X81575385Y-94168608D01*
X81575388Y-94168611D01*
X81774112Y-94283344D01*
X81774117Y-94283346D01*
X81774123Y-94283349D01*
X81865480Y-94321190D01*
X81986113Y-94371158D01*
X82207762Y-94430548D01*
X82435266Y-94460500D01*
X82435273Y-94460500D01*
X82664727Y-94460500D01*
X82664734Y-94460500D01*
X82892238Y-94430548D01*
X83113887Y-94371158D01*
X83325888Y-94283344D01*
X83524612Y-94168611D01*
X83706661Y-94028919D01*
X83706665Y-94028914D01*
X83706670Y-94028911D01*
X83868911Y-93866670D01*
X83868914Y-93866665D01*
X83868919Y-93866661D01*
X84008611Y-93684612D01*
X84123344Y-93485888D01*
X84164285Y-93387048D01*
X84208125Y-93332644D01*
X84274420Y-93310579D01*
X84278846Y-93310500D01*
X88318586Y-93310500D01*
X88385625Y-93330185D01*
X88429071Y-93378206D01*
X88441290Y-93402188D01*
X88561605Y-93567790D01*
X88706363Y-93712548D01*
X88857405Y-93822284D01*
X88871967Y-93832864D01*
X88988184Y-93892080D01*
X89054353Y-93925795D01*
X89054355Y-93925795D01*
X89054358Y-93925797D01*
X89158714Y-93959704D01*
X89249042Y-93989054D01*
X89350134Y-94005065D01*
X89451225Y-94021077D01*
X89451226Y-94021077D01*
X89655928Y-94021077D01*
X89655929Y-94021077D01*
X89858111Y-93989054D01*
X90052796Y-93925797D01*
X90235187Y-93832864D01*
X90292273Y-93791389D01*
X90322615Y-93769345D01*
X90388421Y-93745865D01*
X90456475Y-93761691D01*
X90505170Y-93811797D01*
X90519500Y-93869663D01*
X90519500Y-98474056D01*
X90499815Y-98541095D01*
X90483181Y-98561737D01*
X90041159Y-99003758D01*
X89979836Y-99037243D01*
X89953478Y-99040077D01*
X88705706Y-99040077D01*
X88705700Y-99040078D01*
X88646093Y-99046485D01*
X88511248Y-99096779D01*
X88511241Y-99096783D01*
X88396032Y-99183029D01*
X88396029Y-99183032D01*
X88309783Y-99298241D01*
X88309779Y-99298248D01*
X88259485Y-99433094D01*
X88253078Y-99492693D01*
X88253077Y-99492712D01*
X88253077Y-99605500D01*
X88233392Y-99672539D01*
X88180588Y-99718294D01*
X88129077Y-99729500D01*
X81544538Y-99729500D01*
X81477499Y-99709815D01*
X81431744Y-99657011D01*
X81421800Y-99587853D01*
X81450825Y-99524297D01*
X81469052Y-99507124D01*
X81488593Y-99492129D01*
X81497042Y-99485646D01*
X81705646Y-99277042D01*
X81885238Y-99042994D01*
X82032743Y-98787507D01*
X82145639Y-98514952D01*
X82221993Y-98229993D01*
X82260500Y-97937506D01*
X82260500Y-97701421D01*
X83964500Y-97701421D01*
X83964500Y-97878578D01*
X83992214Y-98053556D01*
X84046956Y-98222039D01*
X84046957Y-98222042D01*
X84127386Y-98379890D01*
X84231517Y-98523214D01*
X84356786Y-98648483D01*
X84500110Y-98752614D01*
X84568577Y-98787500D01*
X84657957Y-98833042D01*
X84657960Y-98833043D01*
X84742201Y-98860414D01*
X84826445Y-98887786D01*
X85001421Y-98915500D01*
X85001422Y-98915500D01*
X85178578Y-98915500D01*
X85178579Y-98915500D01*
X85353555Y-98887786D01*
X85522042Y-98833042D01*
X85679890Y-98752614D01*
X85823214Y-98648483D01*
X85948483Y-98523214D01*
X86052614Y-98379890D01*
X86133042Y-98222042D01*
X86187786Y-98053555D01*
X86215500Y-97878579D01*
X86215500Y-97701421D01*
X86187786Y-97526445D01*
X86133042Y-97357958D01*
X86133042Y-97357957D01*
X86052613Y-97200109D01*
X86041518Y-97184838D01*
X85948483Y-97056786D01*
X85823214Y-96931517D01*
X85679890Y-96827386D01*
X85671953Y-96823342D01*
X85522042Y-96746957D01*
X85522039Y-96746956D01*
X85353556Y-96692214D01*
X85266067Y-96678357D01*
X85178579Y-96664500D01*
X85001421Y-96664500D01*
X84943095Y-96673738D01*
X84826443Y-96692214D01*
X84657960Y-96746956D01*
X84657957Y-96746957D01*
X84500109Y-96827386D01*
X84418338Y-96886796D01*
X84356786Y-96931517D01*
X84356784Y-96931519D01*
X84356783Y-96931519D01*
X84231519Y-97056783D01*
X84231519Y-97056784D01*
X84231517Y-97056786D01*
X84186796Y-97118338D01*
X84127386Y-97200109D01*
X84046957Y-97357957D01*
X84046956Y-97357960D01*
X83992214Y-97526443D01*
X83964500Y-97701421D01*
X82260500Y-97701421D01*
X82260500Y-97642494D01*
X82221993Y-97350007D01*
X82145639Y-97065048D01*
X82032743Y-96792493D01*
X82006453Y-96746958D01*
X81885238Y-96537006D01*
X81705647Y-96302959D01*
X81705641Y-96302952D01*
X81497047Y-96094358D01*
X81497040Y-96094352D01*
X81262993Y-95914761D01*
X81007510Y-95767258D01*
X81007500Y-95767254D01*
X80734961Y-95654364D01*
X80734954Y-95654362D01*
X80734952Y-95654361D01*
X80449993Y-95578007D01*
X80401113Y-95571571D01*
X80157513Y-95539500D01*
X80157506Y-95539500D01*
X79862494Y-95539500D01*
X79862486Y-95539500D01*
X79584085Y-95576153D01*
X79570007Y-95578007D01*
X79285048Y-95654361D01*
X79285038Y-95654364D01*
X79012499Y-95767254D01*
X79012489Y-95767258D01*
X78757006Y-95914761D01*
X78522959Y-96094352D01*
X78522952Y-96094358D01*
X78314358Y-96302952D01*
X78314352Y-96302959D01*
X78134761Y-96537006D01*
X77987258Y-96792489D01*
X77987254Y-96792499D01*
X77874364Y-97065038D01*
X77874361Y-97065048D01*
X77838172Y-97200110D01*
X77798008Y-97350004D01*
X77798006Y-97350015D01*
X77759500Y-97642486D01*
X77759500Y-97937513D01*
X77774778Y-98053555D01*
X77798007Y-98229993D01*
X77863403Y-98474056D01*
X77874361Y-98514951D01*
X77874364Y-98514961D01*
X77987254Y-98787500D01*
X77987258Y-98787510D01*
X78134761Y-99042993D01*
X78314352Y-99277040D01*
X78314358Y-99277047D01*
X78522952Y-99485641D01*
X78522959Y-99485647D01*
X78550948Y-99507124D01*
X78592151Y-99563552D01*
X78596306Y-99633298D01*
X78562094Y-99694218D01*
X78500376Y-99726971D01*
X78475462Y-99729500D01*
X71914499Y-99729500D01*
X71847460Y-99709815D01*
X71801705Y-99657011D01*
X71790499Y-99605500D01*
X71790499Y-99492129D01*
X71790498Y-99492123D01*
X71790497Y-99492116D01*
X71784091Y-99432517D01*
X71780361Y-99422517D01*
X71733797Y-99297671D01*
X71733793Y-99297664D01*
X71647547Y-99182455D01*
X71647544Y-99182452D01*
X71532335Y-99096206D01*
X71532328Y-99096202D01*
X71397482Y-99045908D01*
X71397483Y-99045908D01*
X71337883Y-99039501D01*
X71337881Y-99039500D01*
X71337873Y-99039500D01*
X71337864Y-99039500D01*
X69642129Y-99039500D01*
X69642123Y-99039501D01*
X69582516Y-99045908D01*
X69447671Y-99096202D01*
X69447664Y-99096206D01*
X69332455Y-99182452D01*
X69332452Y-99182455D01*
X69246206Y-99297664D01*
X69246202Y-99297671D01*
X69195908Y-99432517D01*
X69189501Y-99492116D01*
X69189501Y-99492123D01*
X69189500Y-99492135D01*
X69189500Y-99605500D01*
X69169815Y-99672539D01*
X69117011Y-99718294D01*
X69065500Y-99729500D01*
X62494538Y-99729500D01*
X62427499Y-99709815D01*
X62381744Y-99657011D01*
X62371800Y-99587853D01*
X62400825Y-99524297D01*
X62419052Y-99507124D01*
X62438593Y-99492129D01*
X62447042Y-99485646D01*
X62655646Y-99277042D01*
X62835238Y-99042994D01*
X62982743Y-98787507D01*
X63095639Y-98514952D01*
X63171993Y-98229993D01*
X63210500Y-97937506D01*
X63210500Y-97701421D01*
X64914500Y-97701421D01*
X64914500Y-97878578D01*
X64942214Y-98053556D01*
X64996956Y-98222039D01*
X64996957Y-98222042D01*
X65077386Y-98379890D01*
X65181517Y-98523214D01*
X65306786Y-98648483D01*
X65450110Y-98752614D01*
X65518577Y-98787500D01*
X65607957Y-98833042D01*
X65607960Y-98833043D01*
X65692201Y-98860414D01*
X65776445Y-98887786D01*
X65951421Y-98915500D01*
X65951422Y-98915500D01*
X66128578Y-98915500D01*
X66128579Y-98915500D01*
X66303555Y-98887786D01*
X66472042Y-98833042D01*
X66629890Y-98752614D01*
X66773214Y-98648483D01*
X66898483Y-98523214D01*
X67002614Y-98379890D01*
X67083042Y-98222042D01*
X67137786Y-98053555D01*
X67165500Y-97878579D01*
X67165500Y-97701421D01*
X73804500Y-97701421D01*
X73804500Y-97878578D01*
X73832214Y-98053556D01*
X73886956Y-98222039D01*
X73886957Y-98222042D01*
X73967386Y-98379890D01*
X74071517Y-98523214D01*
X74196786Y-98648483D01*
X74340110Y-98752614D01*
X74408577Y-98787500D01*
X74497957Y-98833042D01*
X74497960Y-98833043D01*
X74582201Y-98860414D01*
X74666445Y-98887786D01*
X74841421Y-98915500D01*
X74841422Y-98915500D01*
X75018578Y-98915500D01*
X75018579Y-98915500D01*
X75193555Y-98887786D01*
X75362042Y-98833042D01*
X75519890Y-98752614D01*
X75663214Y-98648483D01*
X75788483Y-98523214D01*
X75892614Y-98379890D01*
X75973042Y-98222042D01*
X76027786Y-98053555D01*
X76055500Y-97878579D01*
X76055500Y-97701421D01*
X76027786Y-97526445D01*
X75973042Y-97357958D01*
X75973042Y-97357957D01*
X75892613Y-97200109D01*
X75881518Y-97184838D01*
X75858038Y-97119032D01*
X75873863Y-97050978D01*
X75923968Y-97002283D01*
X75992446Y-96988407D01*
X75997977Y-96989008D01*
X76085266Y-97000500D01*
X76085273Y-97000500D01*
X76314727Y-97000500D01*
X76314734Y-97000500D01*
X76542238Y-96970548D01*
X76763887Y-96911158D01*
X76975888Y-96823344D01*
X77174612Y-96708611D01*
X77356661Y-96568919D01*
X77356665Y-96568914D01*
X77356670Y-96568911D01*
X77518911Y-96406670D01*
X77518914Y-96406665D01*
X77518919Y-96406661D01*
X77658611Y-96224612D01*
X77773344Y-96025888D01*
X77861158Y-95813887D01*
X77920548Y-95592238D01*
X77950500Y-95364734D01*
X77950500Y-95135266D01*
X77920548Y-94907762D01*
X77861158Y-94686113D01*
X77773344Y-94474112D01*
X77658611Y-94275388D01*
X77658608Y-94275385D01*
X77658607Y-94275382D01*
X77518918Y-94093338D01*
X77518911Y-94093330D01*
X77356670Y-93931089D01*
X77356661Y-93931081D01*
X77174617Y-93791392D01*
X77136430Y-93769345D01*
X77019735Y-93701971D01*
X76975890Y-93676657D01*
X76975876Y-93676650D01*
X76763887Y-93588842D01*
X76685341Y-93567796D01*
X76542238Y-93529452D01*
X76504215Y-93524446D01*
X76314741Y-93499500D01*
X76314734Y-93499500D01*
X76085266Y-93499500D01*
X76085258Y-93499500D01*
X75868715Y-93528009D01*
X75857762Y-93529452D01*
X75764076Y-93554554D01*
X75636112Y-93588842D01*
X75424123Y-93676650D01*
X75424109Y-93676657D01*
X75225382Y-93791392D01*
X75043338Y-93931081D01*
X74881081Y-94093338D01*
X74741392Y-94275382D01*
X74626657Y-94474109D01*
X74626650Y-94474123D01*
X74538842Y-94686112D01*
X74479453Y-94907759D01*
X74479451Y-94907770D01*
X74449500Y-95135258D01*
X74449500Y-95364741D01*
X74472509Y-95539500D01*
X74479452Y-95592238D01*
X74526347Y-95767254D01*
X74538842Y-95813887D01*
X74626650Y-96025876D01*
X74626657Y-96025890D01*
X74741392Y-96224617D01*
X74881081Y-96406661D01*
X74881089Y-96406670D01*
X74927238Y-96452819D01*
X74960723Y-96514142D01*
X74955739Y-96583834D01*
X74913867Y-96639767D01*
X74848403Y-96664184D01*
X74842967Y-96664378D01*
X74841423Y-96664499D01*
X74666443Y-96692214D01*
X74497960Y-96746956D01*
X74497957Y-96746957D01*
X74340109Y-96827386D01*
X74258338Y-96886796D01*
X74196786Y-96931517D01*
X74196784Y-96931519D01*
X74196783Y-96931519D01*
X74071519Y-97056783D01*
X74071519Y-97056784D01*
X74071517Y-97056786D01*
X74026796Y-97118338D01*
X73967386Y-97200109D01*
X73886957Y-97357957D01*
X73886956Y-97357960D01*
X73832214Y-97526443D01*
X73804500Y-97701421D01*
X67165500Y-97701421D01*
X67137786Y-97526445D01*
X67083042Y-97357958D01*
X67083042Y-97357957D01*
X67002613Y-97200109D01*
X66991518Y-97184838D01*
X66898483Y-97056786D01*
X66773214Y-96931517D01*
X66629890Y-96827386D01*
X66621953Y-96823342D01*
X66472042Y-96746957D01*
X66472039Y-96746956D01*
X66303556Y-96692214D01*
X66216067Y-96678357D01*
X66128579Y-96664500D01*
X65951421Y-96664500D01*
X65893095Y-96673738D01*
X65776443Y-96692214D01*
X65607960Y-96746956D01*
X65607957Y-96746957D01*
X65450109Y-96827386D01*
X65368338Y-96886796D01*
X65306786Y-96931517D01*
X65306784Y-96931519D01*
X65306783Y-96931519D01*
X65181519Y-97056783D01*
X65181519Y-97056784D01*
X65181517Y-97056786D01*
X65136796Y-97118338D01*
X65077386Y-97200109D01*
X64996957Y-97357957D01*
X64996956Y-97357960D01*
X64942214Y-97526443D01*
X64914500Y-97701421D01*
X63210500Y-97701421D01*
X63210500Y-97642494D01*
X63171993Y-97350007D01*
X63095639Y-97065048D01*
X62982743Y-96792493D01*
X62956453Y-96746958D01*
X62835238Y-96537006D01*
X62655647Y-96302959D01*
X62655641Y-96302952D01*
X62447047Y-96094358D01*
X62447040Y-96094352D01*
X62212993Y-95914761D01*
X61957510Y-95767258D01*
X61957500Y-95767254D01*
X61684961Y-95654364D01*
X61684954Y-95654362D01*
X61684952Y-95654361D01*
X61399993Y-95578007D01*
X61351113Y-95571571D01*
X61107513Y-95539500D01*
X61107506Y-95539500D01*
X60812494Y-95539500D01*
X60812486Y-95539500D01*
X60534085Y-95576153D01*
X60520007Y-95578007D01*
X60235048Y-95654361D01*
X60235038Y-95654364D01*
X59962499Y-95767254D01*
X59962489Y-95767258D01*
X59707006Y-95914761D01*
X59472959Y-96094352D01*
X59472952Y-96094358D01*
X59264358Y-96302952D01*
X59264352Y-96302959D01*
X59084761Y-96537006D01*
X58937258Y-96792489D01*
X58937254Y-96792499D01*
X58824364Y-97065038D01*
X58824361Y-97065048D01*
X58788172Y-97200110D01*
X58748008Y-97350004D01*
X58748006Y-97350015D01*
X58709500Y-97642486D01*
X58709500Y-97937513D01*
X58724778Y-98053555D01*
X58748007Y-98229993D01*
X58813403Y-98474056D01*
X58824361Y-98514951D01*
X58824364Y-98514961D01*
X58937254Y-98787500D01*
X58937258Y-98787510D01*
X59084761Y-99042993D01*
X59264352Y-99277040D01*
X59264358Y-99277047D01*
X59472952Y-99485641D01*
X59472959Y-99485647D01*
X59500948Y-99507124D01*
X59542151Y-99563552D01*
X59546306Y-99633298D01*
X59512094Y-99694218D01*
X59450376Y-99726971D01*
X59425462Y-99729500D01*
X52864499Y-99729500D01*
X52797460Y-99709815D01*
X52751705Y-99657011D01*
X52740499Y-99605500D01*
X52740499Y-99482129D01*
X52740498Y-99482123D01*
X52740497Y-99482116D01*
X52734091Y-99422517D01*
X52683796Y-99287669D01*
X52683795Y-99287668D01*
X52683793Y-99287664D01*
X52597547Y-99172455D01*
X52597544Y-99172452D01*
X52482335Y-99086206D01*
X52482328Y-99086202D01*
X52347482Y-99035908D01*
X52347483Y-99035908D01*
X52287883Y-99029501D01*
X52287881Y-99029500D01*
X52287873Y-99029500D01*
X52287864Y-99029500D01*
X50592129Y-99029500D01*
X50592123Y-99029501D01*
X50532516Y-99035908D01*
X50397671Y-99086202D01*
X50397664Y-99086206D01*
X50282455Y-99172452D01*
X50282452Y-99172455D01*
X50196206Y-99287664D01*
X50196202Y-99287671D01*
X50145908Y-99422517D01*
X50139501Y-99482116D01*
X50139501Y-99482123D01*
X50139500Y-99482135D01*
X50139500Y-101177870D01*
X50139501Y-101177876D01*
X50145908Y-101237483D01*
X50196202Y-101372328D01*
X50196206Y-101372335D01*
X50282452Y-101487544D01*
X50282455Y-101487547D01*
X50397664Y-101573793D01*
X50397671Y-101573797D01*
X50532517Y-101624091D01*
X50532516Y-101624091D01*
X50539444Y-101624835D01*
X50592127Y-101630500D01*
X52287872Y-101630499D01*
X52347483Y-101624091D01*
X52482331Y-101573796D01*
X52597546Y-101487546D01*
X52683796Y-101372331D01*
X52734091Y-101237483D01*
X52740500Y-101177873D01*
X52740500Y-101054500D01*
X52760185Y-100987461D01*
X52812989Y-100941706D01*
X52864500Y-100930500D01*
X69065501Y-100930500D01*
X69132540Y-100950185D01*
X69178295Y-101002989D01*
X69189501Y-101054500D01*
X69189501Y-101187876D01*
X69195908Y-101247483D01*
X69246202Y-101382328D01*
X69246206Y-101382335D01*
X69332452Y-101497544D01*
X69332455Y-101497547D01*
X69447664Y-101583793D01*
X69447671Y-101583797D01*
X69582517Y-101634091D01*
X69582516Y-101634091D01*
X69589444Y-101634835D01*
X69642127Y-101640500D01*
X71337872Y-101640499D01*
X71397483Y-101634091D01*
X71532331Y-101583796D01*
X71647546Y-101497546D01*
X71733796Y-101382331D01*
X71784091Y-101247483D01*
X71790500Y-101187873D01*
X71790500Y-101054500D01*
X71810185Y-100987461D01*
X71862989Y-100941706D01*
X71914500Y-100930500D01*
X88129078Y-100930500D01*
X88196117Y-100950185D01*
X88241872Y-101002989D01*
X88253078Y-101054500D01*
X88253078Y-101188453D01*
X88259485Y-101248060D01*
X88309779Y-101382905D01*
X88309783Y-101382912D01*
X88396029Y-101498121D01*
X88396032Y-101498124D01*
X88511241Y-101584370D01*
X88511248Y-101584374D01*
X88646094Y-101634668D01*
X88646093Y-101634668D01*
X88653021Y-101635412D01*
X88705704Y-101641077D01*
X90401449Y-101641076D01*
X90461060Y-101634668D01*
X90595908Y-101584373D01*
X90711123Y-101498123D01*
X90797373Y-101382908D01*
X90847668Y-101248060D01*
X90854077Y-101188450D01*
X90854076Y-99940674D01*
X90873761Y-99873636D01*
X90890395Y-99852994D01*
X91219092Y-99524297D01*
X91600520Y-99142870D01*
X91679577Y-99005938D01*
X91720501Y-98853211D01*
X91720501Y-98695096D01*
X91720501Y-98687501D01*
X91720500Y-98687483D01*
X91720500Y-86667648D01*
X109879500Y-86667648D01*
X109879500Y-86872351D01*
X109911522Y-87074534D01*
X109974781Y-87269223D01*
X110067715Y-87451613D01*
X110188028Y-87617213D01*
X110332786Y-87761971D01*
X110487749Y-87874556D01*
X110498390Y-87882287D01*
X110614607Y-87941503D01*
X110680776Y-87975218D01*
X110680778Y-87975218D01*
X110680781Y-87975220D01*
X110785137Y-88009127D01*
X110875465Y-88038477D01*
X110976557Y-88054488D01*
X111077648Y-88070500D01*
X111077649Y-88070500D01*
X111282351Y-88070500D01*
X111282352Y-88070500D01*
X111484534Y-88038477D01*
X111679219Y-87975220D01*
X111861610Y-87882287D01*
X111954590Y-87814732D01*
X112027213Y-87761971D01*
X112027215Y-87761968D01*
X112027219Y-87761966D01*
X112171966Y-87617219D01*
X112171968Y-87617215D01*
X112171971Y-87617213D01*
X112224732Y-87544590D01*
X112292287Y-87451610D01*
X112385220Y-87269219D01*
X112448477Y-87074534D01*
X112480500Y-86872352D01*
X112480500Y-86667648D01*
X112448477Y-86465466D01*
X112385220Y-86270781D01*
X112385218Y-86270778D01*
X112385218Y-86270776D01*
X112351503Y-86204607D01*
X112292287Y-86088390D01*
X112284556Y-86077749D01*
X112171971Y-85922786D01*
X112027213Y-85778028D01*
X111861613Y-85657715D01*
X111861612Y-85657714D01*
X111861610Y-85657713D01*
X111804653Y-85628691D01*
X111679223Y-85564781D01*
X111484534Y-85501522D01*
X111309995Y-85473878D01*
X111282352Y-85469500D01*
X111077648Y-85469500D01*
X111053329Y-85473351D01*
X110875465Y-85501522D01*
X110680776Y-85564781D01*
X110498386Y-85657715D01*
X110332786Y-85778028D01*
X110188028Y-85922786D01*
X110067715Y-86088386D01*
X109974781Y-86270776D01*
X109911522Y-86465465D01*
X109879500Y-86667648D01*
X91720500Y-86667648D01*
X91720500Y-80310096D01*
X91740185Y-80243057D01*
X91756814Y-80222420D01*
X92901519Y-79077714D01*
X92962842Y-79044230D01*
X93032534Y-79049214D01*
X93088467Y-79091086D01*
X93112884Y-79156550D01*
X93113200Y-79165396D01*
X93113200Y-79288356D01*
X93124563Y-79360096D01*
X93147102Y-79502402D01*
X93147102Y-79502405D01*
X93214068Y-79708505D01*
X93228847Y-79737510D01*
X93312455Y-79901600D01*
X93439836Y-80076925D01*
X93593075Y-80230164D01*
X93632400Y-80258735D01*
X93757577Y-80349682D01*
X93800242Y-80405012D01*
X93806221Y-80474626D01*
X93773615Y-80536421D01*
X93757577Y-80550318D01*
X93736681Y-80565500D01*
X93593075Y-80669836D01*
X93593073Y-80669838D01*
X93593072Y-80669838D01*
X93439838Y-80823072D01*
X93312455Y-80998399D01*
X93214068Y-81191494D01*
X93147102Y-81397594D01*
X93147102Y-81397597D01*
X93113200Y-81611644D01*
X93113200Y-81828355D01*
X93147102Y-82042402D01*
X93147102Y-82042405D01*
X93214068Y-82248505D01*
X93256778Y-82332328D01*
X93312455Y-82441600D01*
X93439836Y-82616925D01*
X93593075Y-82770164D01*
X93768400Y-82897545D01*
X93961492Y-82995930D01*
X93961494Y-82995931D01*
X94167595Y-83062897D01*
X94167596Y-83062897D01*
X94167599Y-83062898D01*
X94381644Y-83096800D01*
X94381645Y-83096800D01*
X94598355Y-83096800D01*
X94598356Y-83096800D01*
X94812401Y-83062898D01*
X94812404Y-83062897D01*
X94812405Y-83062897D01*
X95018505Y-82995931D01*
X95018505Y-82995930D01*
X95018508Y-82995930D01*
X95211600Y-82897545D01*
X95386925Y-82770164D01*
X95540164Y-82616925D01*
X95667545Y-82441600D01*
X95765930Y-82248508D01*
X95785758Y-82187483D01*
X95832897Y-82042405D01*
X95832897Y-82042404D01*
X95832898Y-82042401D01*
X95866800Y-81828356D01*
X95866800Y-81611644D01*
X95832898Y-81397599D01*
X95832897Y-81397595D01*
X95832897Y-81397594D01*
X95765931Y-81191494D01*
X95667544Y-80998399D01*
X95661805Y-80990500D01*
X95540164Y-80823075D01*
X95386925Y-80669836D01*
X95314218Y-80617011D01*
X95222423Y-80550318D01*
X95179757Y-80494988D01*
X95173778Y-80425375D01*
X95206384Y-80363580D01*
X95222423Y-80349682D01*
X95347600Y-80258735D01*
X95386925Y-80230164D01*
X95540164Y-80076925D01*
X95667545Y-79901600D01*
X95765930Y-79708508D01*
X95801679Y-79598483D01*
X95832897Y-79502405D01*
X95832897Y-79502404D01*
X95832898Y-79502401D01*
X95866800Y-79288356D01*
X95866800Y-79071644D01*
X95832898Y-78857599D01*
X95832897Y-78857595D01*
X95832897Y-78857594D01*
X95765931Y-78651494D01*
X95735872Y-78592500D01*
X95667545Y-78458400D01*
X95540164Y-78283075D01*
X95386925Y-78129836D01*
X95386921Y-78129833D01*
X95222423Y-78010318D01*
X95179757Y-77954988D01*
X95173778Y-77885375D01*
X95206384Y-77823580D01*
X95222423Y-77809682D01*
X95314900Y-77742493D01*
X95386925Y-77690164D01*
X95540164Y-77536925D01*
X95667545Y-77361600D01*
X95765930Y-77168508D01*
X95765931Y-77168505D01*
X95832897Y-76962405D01*
X95832897Y-76962404D01*
X95832898Y-76962401D01*
X95866800Y-76748356D01*
X95866800Y-76531644D01*
X95832898Y-76317599D01*
X95832897Y-76317595D01*
X95832897Y-76317594D01*
X95765931Y-76111494D01*
X95667544Y-75918399D01*
X95623490Y-75857764D01*
X95540164Y-75743075D01*
X95386925Y-75589836D01*
X95386921Y-75589833D01*
X95222423Y-75470318D01*
X95179757Y-75414988D01*
X95173778Y-75345375D01*
X95206384Y-75283580D01*
X95222423Y-75269682D01*
X95283396Y-75225382D01*
X95386925Y-75150164D01*
X95540164Y-74996925D01*
X95667545Y-74821600D01*
X95765930Y-74628508D01*
X95766534Y-74626649D01*
X95832897Y-74422405D01*
X95832897Y-74422404D01*
X95832898Y-74422401D01*
X95866800Y-74208356D01*
X95866800Y-73991644D01*
X95832898Y-73777599D01*
X95832897Y-73777595D01*
X95832897Y-73777594D01*
X95765931Y-73571494D01*
X95667544Y-73378399D01*
X95650882Y-73355466D01*
X95540164Y-73203075D01*
X95386925Y-73049836D01*
X95376952Y-73042590D01*
X95222423Y-72930318D01*
X95179757Y-72874988D01*
X95173778Y-72805375D01*
X95206384Y-72743580D01*
X95222423Y-72729682D01*
X95283396Y-72685382D01*
X95386925Y-72610164D01*
X95540164Y-72456925D01*
X95667545Y-72281600D01*
X95765930Y-72088508D01*
X95795064Y-71998842D01*
X95832897Y-71882405D01*
X95832897Y-71882404D01*
X95832898Y-71882401D01*
X95866800Y-71668356D01*
X95866800Y-71451644D01*
X95832898Y-71237599D01*
X95832897Y-71237595D01*
X95832897Y-71237594D01*
X95765931Y-71031494D01*
X95667544Y-70838399D01*
X95540164Y-70663075D01*
X95386925Y-70509836D01*
X95386921Y-70509833D01*
X95222423Y-70390318D01*
X95179757Y-70334988D01*
X95173778Y-70265375D01*
X95206384Y-70203580D01*
X95222423Y-70189682D01*
X95269706Y-70155328D01*
X95386925Y-70070164D01*
X95540164Y-69916925D01*
X95667545Y-69741600D01*
X95765930Y-69548508D01*
X95765931Y-69548505D01*
X95832897Y-69342405D01*
X95832897Y-69342404D01*
X95832898Y-69342401D01*
X95866800Y-69128356D01*
X95866800Y-68911644D01*
X95832898Y-68697599D01*
X95832897Y-68697595D01*
X95832897Y-68697594D01*
X95765931Y-68491494D01*
X95667544Y-68298399D01*
X95540164Y-68123075D01*
X95386925Y-67969836D01*
X95386921Y-67969833D01*
X95222423Y-67850318D01*
X95179757Y-67794988D01*
X95173778Y-67725375D01*
X95206384Y-67663580D01*
X95222423Y-67649682D01*
X95269706Y-67615328D01*
X95386925Y-67530164D01*
X95540164Y-67376925D01*
X95667545Y-67201600D01*
X95765930Y-67008508D01*
X95832898Y-66802401D01*
X95866800Y-66588356D01*
X95866800Y-66371644D01*
X95832898Y-66157599D01*
X95832897Y-66157595D01*
X95832897Y-66157594D01*
X95765931Y-65951494D01*
X95667544Y-65758399D01*
X95540164Y-65583075D01*
X95386925Y-65429836D01*
X95386921Y-65429833D01*
X95222423Y-65310318D01*
X95179757Y-65254988D01*
X95173778Y-65185375D01*
X95206384Y-65123580D01*
X95222423Y-65109682D01*
X95269706Y-65075328D01*
X95386925Y-64990164D01*
X95540164Y-64836925D01*
X95667545Y-64661600D01*
X95765930Y-64468508D01*
X95832898Y-64262401D01*
X95866800Y-64048356D01*
X95866800Y-63831644D01*
X95832898Y-63617599D01*
X95832897Y-63617595D01*
X95832897Y-63617594D01*
X95765931Y-63411494D01*
X95695024Y-63272331D01*
X95667545Y-63218400D01*
X95540164Y-63043075D01*
X95386925Y-62889836D01*
X95316639Y-62838770D01*
X95222423Y-62770318D01*
X95179757Y-62714988D01*
X95173778Y-62645375D01*
X95206384Y-62583580D01*
X95222423Y-62569682D01*
X95269706Y-62535328D01*
X95386925Y-62450164D01*
X95540164Y-62296925D01*
X95667545Y-62121600D01*
X95765930Y-61928508D01*
X95799354Y-61825639D01*
X95832897Y-61722405D01*
X95832897Y-61722404D01*
X95832898Y-61722401D01*
X95866800Y-61508356D01*
X95866800Y-61291644D01*
X95832898Y-61077599D01*
X95832897Y-61077595D01*
X95832897Y-61077594D01*
X95765931Y-60871494D01*
X95695386Y-60733042D01*
X95667545Y-60678400D01*
X95540164Y-60503075D01*
X95386925Y-60349836D01*
X95290653Y-60279890D01*
X95222423Y-60230318D01*
X95179757Y-60174988D01*
X95173778Y-60105375D01*
X95206384Y-60043580D01*
X95222423Y-60029682D01*
X95269706Y-59995328D01*
X95386925Y-59910164D01*
X95540164Y-59756925D01*
X95667545Y-59581600D01*
X95765930Y-59388508D01*
X95765931Y-59388505D01*
X95832897Y-59182405D01*
X95832897Y-59182404D01*
X95832898Y-59182401D01*
X95866800Y-58968356D01*
X95866800Y-58751644D01*
X95832898Y-58537599D01*
X95832897Y-58537595D01*
X95832897Y-58537594D01*
X95765931Y-58331494D01*
X95700439Y-58202958D01*
X95667545Y-58138400D01*
X95540164Y-57963075D01*
X95386925Y-57809836D01*
X95386921Y-57809833D01*
X95222423Y-57690318D01*
X95179757Y-57634988D01*
X95173778Y-57565375D01*
X95206384Y-57503580D01*
X95222423Y-57489682D01*
X95291492Y-57439500D01*
X95386925Y-57370164D01*
X95540164Y-57216925D01*
X95667545Y-57041600D01*
X95765930Y-56848508D01*
X95832898Y-56642401D01*
X95866800Y-56428356D01*
X95866800Y-56211644D01*
X95832898Y-55997599D01*
X95832897Y-55997595D01*
X95832897Y-55997594D01*
X95765931Y-55791494D01*
X95753278Y-55766661D01*
X95667545Y-55598400D01*
X95540164Y-55423075D01*
X95459958Y-55342869D01*
X95426473Y-55281546D01*
X95431457Y-55211854D01*
X95473329Y-55155921D01*
X95504305Y-55139006D01*
X95608631Y-55100096D01*
X95723846Y-55013846D01*
X95810096Y-54898631D01*
X95860391Y-54763783D01*
X95866800Y-54704173D01*
X95866799Y-53671644D01*
X108353200Y-53671644D01*
X108353200Y-53888356D01*
X108360906Y-53937011D01*
X108387102Y-54102402D01*
X108387102Y-54102405D01*
X108454068Y-54308505D01*
X108457615Y-54315466D01*
X108552455Y-54501600D01*
X108679836Y-54676925D01*
X108833075Y-54830164D01*
X108927308Y-54898628D01*
X108997577Y-54949682D01*
X109040242Y-55005012D01*
X109046221Y-55074626D01*
X109013615Y-55136421D01*
X108997577Y-55150318D01*
X108931675Y-55198198D01*
X108833075Y-55269836D01*
X108833073Y-55269838D01*
X108833072Y-55269838D01*
X108679838Y-55423072D01*
X108552455Y-55598399D01*
X108454068Y-55791494D01*
X108387102Y-55997594D01*
X108387102Y-55997597D01*
X108353200Y-56211644D01*
X108353200Y-56428355D01*
X108387102Y-56642402D01*
X108387102Y-56642405D01*
X108454068Y-56848505D01*
X108454070Y-56848508D01*
X108552455Y-57041600D01*
X108679836Y-57216925D01*
X108833075Y-57370164D01*
X108928508Y-57439500D01*
X108997577Y-57489682D01*
X109040242Y-57545012D01*
X109046221Y-57614626D01*
X109013615Y-57676421D01*
X108997577Y-57690318D01*
X108931675Y-57738198D01*
X108833075Y-57809836D01*
X108833073Y-57809838D01*
X108833072Y-57809838D01*
X108679838Y-57963072D01*
X108552455Y-58138399D01*
X108454068Y-58331494D01*
X108387102Y-58537594D01*
X108387102Y-58537597D01*
X108369781Y-58646956D01*
X108353200Y-58751644D01*
X108353200Y-58968356D01*
X108370151Y-59075378D01*
X108387102Y-59182402D01*
X108387102Y-59182405D01*
X108454068Y-59388505D01*
X108532533Y-59542500D01*
X108552455Y-59581600D01*
X108679836Y-59756925D01*
X108833075Y-59910164D01*
X108946870Y-59992841D01*
X108997577Y-60029682D01*
X109040242Y-60085012D01*
X109046221Y-60154626D01*
X109013615Y-60216421D01*
X108997577Y-60230318D01*
X108931675Y-60278198D01*
X108833075Y-60349836D01*
X108833073Y-60349838D01*
X108833072Y-60349838D01*
X108679838Y-60503072D01*
X108552455Y-60678399D01*
X108454068Y-60871494D01*
X108387102Y-61077594D01*
X108387102Y-61077597D01*
X108353200Y-61291644D01*
X108353200Y-61508355D01*
X108387102Y-61722402D01*
X108387102Y-61722405D01*
X108454068Y-61928505D01*
X108460180Y-61940500D01*
X108552455Y-62121600D01*
X108679836Y-62296925D01*
X108833075Y-62450164D01*
X108946870Y-62532841D01*
X108997577Y-62569682D01*
X109040242Y-62625012D01*
X109046221Y-62694626D01*
X109013615Y-62756421D01*
X108997577Y-62770318D01*
X108931675Y-62818198D01*
X108833075Y-62889836D01*
X108833073Y-62889838D01*
X108833072Y-62889838D01*
X108679838Y-63043072D01*
X108552455Y-63218399D01*
X108454068Y-63411494D01*
X108387102Y-63617594D01*
X108387102Y-63617597D01*
X108353200Y-63831644D01*
X108353200Y-64048355D01*
X108387102Y-64262402D01*
X108387102Y-64262405D01*
X108454068Y-64468505D01*
X108454070Y-64468508D01*
X108552455Y-64661600D01*
X108679836Y-64836925D01*
X108833075Y-64990164D01*
X108946870Y-65072841D01*
X108997577Y-65109682D01*
X109040242Y-65165012D01*
X109046221Y-65234626D01*
X109013615Y-65296421D01*
X108997577Y-65310318D01*
X108931675Y-65358198D01*
X108833075Y-65429836D01*
X108833073Y-65429838D01*
X108833072Y-65429838D01*
X108679838Y-65583072D01*
X108552455Y-65758399D01*
X108454068Y-65951494D01*
X108387102Y-66157594D01*
X108387102Y-66157597D01*
X108353200Y-66371644D01*
X108353200Y-66588355D01*
X108387102Y-66802402D01*
X108387102Y-66802405D01*
X108454068Y-67008505D01*
X108494364Y-67087590D01*
X108552455Y-67201600D01*
X108679836Y-67376925D01*
X108833075Y-67530164D01*
X108946870Y-67612841D01*
X108997577Y-67649682D01*
X109040242Y-67705012D01*
X109046221Y-67774626D01*
X109013615Y-67836421D01*
X108997577Y-67850318D01*
X108931675Y-67898198D01*
X108833075Y-67969836D01*
X108833073Y-67969838D01*
X108833072Y-67969838D01*
X108679838Y-68123072D01*
X108552455Y-68298399D01*
X108454068Y-68491494D01*
X108387102Y-68697594D01*
X108387102Y-68697597D01*
X108353200Y-68911644D01*
X108353200Y-69128355D01*
X108387102Y-69342402D01*
X108387102Y-69342405D01*
X108454068Y-69548505D01*
X108454070Y-69548508D01*
X108552455Y-69741600D01*
X108679836Y-69916925D01*
X108833075Y-70070164D01*
X108946870Y-70152841D01*
X108997577Y-70189682D01*
X109040242Y-70245012D01*
X109046221Y-70314626D01*
X109013615Y-70376421D01*
X108997577Y-70390318D01*
X108931675Y-70438198D01*
X108833075Y-70509836D01*
X108833073Y-70509838D01*
X108833072Y-70509838D01*
X108679838Y-70663072D01*
X108552455Y-70838399D01*
X108454068Y-71031494D01*
X108387102Y-71237594D01*
X108387102Y-71237597D01*
X108353200Y-71451644D01*
X108353200Y-71668355D01*
X108387102Y-71882402D01*
X108387102Y-71882405D01*
X108454068Y-72088505D01*
X108511587Y-72201392D01*
X108552455Y-72281600D01*
X108679836Y-72456925D01*
X108833075Y-72610164D01*
X108926482Y-72678028D01*
X108997577Y-72729682D01*
X109040242Y-72785012D01*
X109046221Y-72854626D01*
X109013615Y-72916421D01*
X108997577Y-72930318D01*
X108945181Y-72968386D01*
X108833075Y-73049836D01*
X108833073Y-73049838D01*
X108833072Y-73049838D01*
X108679838Y-73203072D01*
X108552455Y-73378399D01*
X108454068Y-73571494D01*
X108387102Y-73777594D01*
X108387102Y-73777597D01*
X108387102Y-73777599D01*
X108353200Y-73991644D01*
X108353200Y-74208356D01*
X108364577Y-74280184D01*
X108387102Y-74422402D01*
X108387102Y-74422405D01*
X108454068Y-74628505D01*
X108532424Y-74782287D01*
X108552455Y-74821600D01*
X108679836Y-74996925D01*
X108833075Y-75150164D01*
X108936602Y-75225381D01*
X108997577Y-75269682D01*
X109040242Y-75325012D01*
X109046221Y-75394626D01*
X109013615Y-75456421D01*
X108997577Y-75470318D01*
X108931675Y-75518198D01*
X108833075Y-75589836D01*
X108833073Y-75589838D01*
X108833072Y-75589838D01*
X108679838Y-75743072D01*
X108552455Y-75918399D01*
X108454068Y-76111494D01*
X108387102Y-76317594D01*
X108387102Y-76317597D01*
X108353200Y-76531644D01*
X108353200Y-76748355D01*
X108387102Y-76962402D01*
X108387102Y-76962405D01*
X108454068Y-77168505D01*
X108497096Y-77252952D01*
X108552455Y-77361600D01*
X108679836Y-77536925D01*
X108833075Y-77690164D01*
X108905100Y-77742493D01*
X108997577Y-77809682D01*
X109040242Y-77865012D01*
X109046221Y-77934626D01*
X109013615Y-77996421D01*
X108997577Y-78010318D01*
X108991067Y-78015048D01*
X108833075Y-78129836D01*
X108833073Y-78129838D01*
X108833072Y-78129838D01*
X108679838Y-78283072D01*
X108552455Y-78458399D01*
X108454068Y-78651494D01*
X108387102Y-78857594D01*
X108387102Y-78857597D01*
X108363984Y-79003555D01*
X108353200Y-79071644D01*
X108353200Y-79288356D01*
X108364563Y-79360096D01*
X108387102Y-79502402D01*
X108387102Y-79502405D01*
X108454068Y-79708505D01*
X108468847Y-79737510D01*
X108552455Y-79901600D01*
X108679836Y-80076925D01*
X108833075Y-80230164D01*
X108872400Y-80258735D01*
X108997577Y-80349682D01*
X109040242Y-80405012D01*
X109046221Y-80474626D01*
X109013615Y-80536421D01*
X108997577Y-80550318D01*
X108976681Y-80565500D01*
X108833075Y-80669836D01*
X108833073Y-80669838D01*
X108833072Y-80669838D01*
X108679838Y-80823072D01*
X108552455Y-80998399D01*
X108454068Y-81191494D01*
X108387102Y-81397594D01*
X108387102Y-81397597D01*
X108353200Y-81611644D01*
X108353200Y-81828355D01*
X108387102Y-82042402D01*
X108387102Y-82042405D01*
X108454068Y-82248505D01*
X108496778Y-82332328D01*
X108552455Y-82441600D01*
X108679836Y-82616925D01*
X108833075Y-82770164D01*
X109008400Y-82897545D01*
X109201492Y-82995930D01*
X109201494Y-82995931D01*
X109407595Y-83062897D01*
X109407596Y-83062897D01*
X109407599Y-83062898D01*
X109621644Y-83096800D01*
X109621645Y-83096800D01*
X109838355Y-83096800D01*
X109838356Y-83096800D01*
X110052401Y-83062898D01*
X110052404Y-83062897D01*
X110052405Y-83062897D01*
X110258505Y-82995931D01*
X110258505Y-82995930D01*
X110258508Y-82995930D01*
X110451600Y-82897545D01*
X110626925Y-82770164D01*
X110780164Y-82616925D01*
X110907545Y-82441600D01*
X111005930Y-82248508D01*
X111025758Y-82187483D01*
X111072897Y-82042405D01*
X111072897Y-82042404D01*
X111072898Y-82042401D01*
X111106800Y-81828356D01*
X111106800Y-81611644D01*
X111072898Y-81397599D01*
X111072897Y-81397595D01*
X111072897Y-81397594D01*
X111005931Y-81191494D01*
X110907544Y-80998399D01*
X110901805Y-80990500D01*
X110780164Y-80823075D01*
X110626925Y-80669836D01*
X110554218Y-80617011D01*
X110462423Y-80550318D01*
X110419757Y-80494988D01*
X110413778Y-80425375D01*
X110446384Y-80363580D01*
X110462423Y-80349682D01*
X110587600Y-80258735D01*
X110626925Y-80230164D01*
X110780164Y-80076925D01*
X110907545Y-79901600D01*
X111005930Y-79708508D01*
X111041679Y-79598483D01*
X111072897Y-79502405D01*
X111072897Y-79502404D01*
X111072898Y-79502401D01*
X111106800Y-79288356D01*
X111106800Y-79071644D01*
X111072898Y-78857599D01*
X111072897Y-78857595D01*
X111072897Y-78857594D01*
X111005931Y-78651494D01*
X110975872Y-78592500D01*
X110907545Y-78458400D01*
X110780164Y-78283075D01*
X110626925Y-78129836D01*
X110626921Y-78129833D01*
X110462423Y-78010318D01*
X110419757Y-77954988D01*
X110413778Y-77885375D01*
X110446384Y-77823580D01*
X110462423Y-77809682D01*
X110554900Y-77742493D01*
X110626925Y-77690164D01*
X110780164Y-77536925D01*
X110907545Y-77361600D01*
X111005930Y-77168508D01*
X111005931Y-77168505D01*
X111072897Y-76962405D01*
X111072897Y-76962404D01*
X111072898Y-76962401D01*
X111106800Y-76748356D01*
X111106800Y-76531644D01*
X111072898Y-76317599D01*
X111072897Y-76317595D01*
X111072897Y-76317594D01*
X111005931Y-76111494D01*
X110907544Y-75918399D01*
X110863490Y-75857764D01*
X110780164Y-75743075D01*
X110626925Y-75589836D01*
X110626921Y-75589833D01*
X110462423Y-75470318D01*
X110419757Y-75414988D01*
X110413778Y-75345375D01*
X110446384Y-75283580D01*
X110462423Y-75269682D01*
X110523396Y-75225382D01*
X110626925Y-75150164D01*
X110780164Y-74996925D01*
X110907545Y-74821600D01*
X111005930Y-74628508D01*
X111006534Y-74626649D01*
X111072897Y-74422405D01*
X111072897Y-74422404D01*
X111072898Y-74422401D01*
X111106800Y-74208356D01*
X111106800Y-73991644D01*
X111072898Y-73777599D01*
X111072897Y-73777595D01*
X111072897Y-73777594D01*
X111005931Y-73571494D01*
X110907544Y-73378399D01*
X110890882Y-73355466D01*
X110780164Y-73203075D01*
X110626925Y-73049836D01*
X110616952Y-73042590D01*
X110462423Y-72930318D01*
X110419757Y-72874988D01*
X110413778Y-72805375D01*
X110446384Y-72743580D01*
X110462423Y-72729682D01*
X110523396Y-72685382D01*
X110626925Y-72610164D01*
X110780164Y-72456925D01*
X110907545Y-72281600D01*
X111005930Y-72088508D01*
X111035064Y-71998842D01*
X111072897Y-71882405D01*
X111072897Y-71882404D01*
X111072898Y-71882401D01*
X111106800Y-71668356D01*
X111106800Y-71451644D01*
X111072898Y-71237599D01*
X111072897Y-71237595D01*
X111072897Y-71237594D01*
X111005931Y-71031494D01*
X110907544Y-70838399D01*
X110780164Y-70663075D01*
X110626925Y-70509836D01*
X110626921Y-70509833D01*
X110462423Y-70390318D01*
X110419757Y-70334988D01*
X110413778Y-70265375D01*
X110446384Y-70203580D01*
X110462423Y-70189682D01*
X110509706Y-70155328D01*
X110626925Y-70070164D01*
X110780164Y-69916925D01*
X110907545Y-69741600D01*
X111005930Y-69548508D01*
X111005931Y-69548505D01*
X111072897Y-69342405D01*
X111072897Y-69342404D01*
X111072898Y-69342401D01*
X111106800Y-69128356D01*
X111106800Y-68911644D01*
X111072898Y-68697599D01*
X111072897Y-68697595D01*
X111072897Y-68697594D01*
X111005931Y-68491494D01*
X110907544Y-68298399D01*
X110780164Y-68123075D01*
X110626925Y-67969836D01*
X110626921Y-67969833D01*
X110462423Y-67850318D01*
X110419757Y-67794988D01*
X110413778Y-67725375D01*
X110446384Y-67663580D01*
X110462423Y-67649682D01*
X110509706Y-67615328D01*
X110626925Y-67530164D01*
X110780164Y-67376925D01*
X110907545Y-67201600D01*
X111005930Y-67008508D01*
X111072898Y-66802401D01*
X111106800Y-66588356D01*
X111106800Y-66371644D01*
X111072898Y-66157599D01*
X111072897Y-66157595D01*
X111072897Y-66157594D01*
X111005931Y-65951494D01*
X110907544Y-65758399D01*
X110780164Y-65583075D01*
X110626925Y-65429836D01*
X110626921Y-65429833D01*
X110462423Y-65310318D01*
X110419757Y-65254988D01*
X110413778Y-65185375D01*
X110446384Y-65123580D01*
X110462423Y-65109682D01*
X110509706Y-65075328D01*
X110626925Y-64990164D01*
X110780164Y-64836925D01*
X110907545Y-64661600D01*
X111005930Y-64468508D01*
X111072898Y-64262401D01*
X111106800Y-64048356D01*
X111106800Y-63831644D01*
X111072898Y-63617599D01*
X111072897Y-63617595D01*
X111072897Y-63617594D01*
X111005931Y-63411494D01*
X110935024Y-63272331D01*
X110907545Y-63218400D01*
X110780164Y-63043075D01*
X110626925Y-62889836D01*
X110556639Y-62838770D01*
X110462423Y-62770318D01*
X110419757Y-62714988D01*
X110413778Y-62645375D01*
X110446384Y-62583580D01*
X110462423Y-62569682D01*
X110509706Y-62535328D01*
X110626925Y-62450164D01*
X110780164Y-62296925D01*
X110907545Y-62121600D01*
X111005930Y-61928508D01*
X111039354Y-61825639D01*
X111072897Y-61722405D01*
X111072897Y-61722404D01*
X111072898Y-61722401D01*
X111106800Y-61508356D01*
X111106800Y-61291644D01*
X111072898Y-61077599D01*
X111072897Y-61077595D01*
X111072897Y-61077594D01*
X111005931Y-60871494D01*
X110935386Y-60733042D01*
X110907545Y-60678400D01*
X110780164Y-60503075D01*
X110626925Y-60349836D01*
X110530653Y-60279890D01*
X110462423Y-60230318D01*
X110419757Y-60174988D01*
X110413778Y-60105375D01*
X110446384Y-60043580D01*
X110462423Y-60029682D01*
X110509706Y-59995328D01*
X110626925Y-59910164D01*
X110780164Y-59756925D01*
X110907545Y-59581600D01*
X111005930Y-59388508D01*
X111005931Y-59388505D01*
X111072897Y-59182405D01*
X111072897Y-59182404D01*
X111072898Y-59182401D01*
X111106800Y-58968356D01*
X111106800Y-58751644D01*
X111072898Y-58537599D01*
X111072897Y-58537595D01*
X111072897Y-58537594D01*
X111005931Y-58331494D01*
X110940439Y-58202958D01*
X110907545Y-58138400D01*
X110780164Y-57963075D01*
X110626925Y-57809836D01*
X110626921Y-57809833D01*
X110462423Y-57690318D01*
X110419757Y-57634988D01*
X110413778Y-57565375D01*
X110446384Y-57503580D01*
X110462423Y-57489682D01*
X110531492Y-57439500D01*
X110626925Y-57370164D01*
X110780164Y-57216925D01*
X110907545Y-57041600D01*
X111005930Y-56848508D01*
X111072898Y-56642401D01*
X111106800Y-56428356D01*
X111106800Y-56211644D01*
X111072898Y-55997599D01*
X111072897Y-55997595D01*
X111072897Y-55997594D01*
X111005931Y-55791494D01*
X110993278Y-55766661D01*
X110907545Y-55598400D01*
X110780164Y-55423075D01*
X110626925Y-55269836D01*
X110545256Y-55210500D01*
X110462423Y-55150318D01*
X110419757Y-55094988D01*
X110413778Y-55025375D01*
X110446384Y-54963580D01*
X110462423Y-54949682D01*
X110526511Y-54903119D01*
X110626925Y-54830164D01*
X110780164Y-54676925D01*
X110907545Y-54501600D01*
X111005930Y-54308508D01*
X111072898Y-54102401D01*
X111106800Y-53888356D01*
X111106800Y-53671644D01*
X111072898Y-53457599D01*
X111072897Y-53457595D01*
X111072897Y-53457594D01*
X111005931Y-53251494D01*
X111005930Y-53251492D01*
X110907545Y-53058400D01*
X110780164Y-52883075D01*
X110626925Y-52729836D01*
X110451600Y-52602455D01*
X110341099Y-52546152D01*
X110258505Y-52504068D01*
X110052404Y-52437102D01*
X109878814Y-52409608D01*
X109838356Y-52403200D01*
X109621644Y-52403200D01*
X109581180Y-52409609D01*
X109407597Y-52437102D01*
X109407594Y-52437102D01*
X109201494Y-52504068D01*
X109008399Y-52602455D01*
X108833072Y-52729838D01*
X108679838Y-52883072D01*
X108552455Y-53058399D01*
X108454068Y-53251494D01*
X108387102Y-53457594D01*
X108387102Y-53457597D01*
X108379164Y-53507715D01*
X108353200Y-53671644D01*
X95866799Y-53671644D01*
X95866799Y-52855828D01*
X95860391Y-52796217D01*
X95835633Y-52729838D01*
X95810097Y-52661371D01*
X95810093Y-52661364D01*
X95723847Y-52546155D01*
X95723844Y-52546152D01*
X95608635Y-52459906D01*
X95608628Y-52459902D01*
X95473782Y-52409608D01*
X95473783Y-52409608D01*
X95414183Y-52403201D01*
X95414181Y-52403200D01*
X95414173Y-52403200D01*
X95414164Y-52403200D01*
X93565829Y-52403200D01*
X93565823Y-52403201D01*
X93506216Y-52409608D01*
X93371371Y-52459902D01*
X93371364Y-52459906D01*
X93256155Y-52546152D01*
X93256152Y-52546155D01*
X93169906Y-52661364D01*
X93169902Y-52661371D01*
X93119608Y-52796217D01*
X93113201Y-52855816D01*
X93113201Y-52855823D01*
X93113200Y-52855835D01*
X93113200Y-54704170D01*
X93113201Y-54704176D01*
X93119608Y-54763783D01*
X93169902Y-54898628D01*
X93169906Y-54898635D01*
X93256152Y-55013844D01*
X93256155Y-55013847D01*
X93371364Y-55100093D01*
X93371373Y-55100098D01*
X93475692Y-55139006D01*
X93531626Y-55180877D01*
X93556044Y-55246341D01*
X93541193Y-55314614D01*
X93520042Y-55342869D01*
X93439835Y-55423076D01*
X93312455Y-55598399D01*
X93214068Y-55791494D01*
X93147102Y-55997594D01*
X93147102Y-55997597D01*
X93113200Y-56211644D01*
X93113200Y-56428355D01*
X93147102Y-56642402D01*
X93147102Y-56642405D01*
X93214068Y-56848505D01*
X93214070Y-56848508D01*
X93312455Y-57041600D01*
X93439836Y-57216925D01*
X93593075Y-57370164D01*
X93688508Y-57439500D01*
X93757577Y-57489682D01*
X93800242Y-57545012D01*
X93806221Y-57614626D01*
X93773615Y-57676421D01*
X93757577Y-57690318D01*
X93691675Y-57738198D01*
X93593075Y-57809836D01*
X93593073Y-57809838D01*
X93593072Y-57809838D01*
X93439838Y-57963072D01*
X93312455Y-58138399D01*
X93214068Y-58331494D01*
X93147102Y-58537594D01*
X93147102Y-58537597D01*
X93129781Y-58646956D01*
X93113200Y-58751644D01*
X93113200Y-58968356D01*
X93130151Y-59075378D01*
X93147102Y-59182402D01*
X93147102Y-59182405D01*
X93214068Y-59388505D01*
X93292533Y-59542500D01*
X93312455Y-59581600D01*
X93439836Y-59756925D01*
X93593075Y-59910164D01*
X93706870Y-59992841D01*
X93757577Y-60029682D01*
X93800242Y-60085012D01*
X93806221Y-60154626D01*
X93773615Y-60216421D01*
X93757577Y-60230318D01*
X93691675Y-60278198D01*
X93593075Y-60349836D01*
X93593073Y-60349838D01*
X93593072Y-60349838D01*
X93439838Y-60503072D01*
X93312455Y-60678399D01*
X93214068Y-60871494D01*
X93147102Y-61077594D01*
X93147102Y-61077597D01*
X93113200Y-61291644D01*
X93113200Y-61508355D01*
X93147102Y-61722402D01*
X93147102Y-61722405D01*
X93214068Y-61928505D01*
X93220180Y-61940500D01*
X93312455Y-62121600D01*
X93439836Y-62296925D01*
X93593075Y-62450164D01*
X93706870Y-62532841D01*
X93757577Y-62569682D01*
X93800242Y-62625012D01*
X93806221Y-62694626D01*
X93773615Y-62756421D01*
X93757577Y-62770318D01*
X93691675Y-62818198D01*
X93593075Y-62889836D01*
X93593073Y-62889838D01*
X93593072Y-62889838D01*
X93439838Y-63043072D01*
X93312455Y-63218399D01*
X93214068Y-63411494D01*
X93147102Y-63617594D01*
X93147102Y-63617597D01*
X93113200Y-63831644D01*
X93113200Y-64048355D01*
X93147102Y-64262402D01*
X93147102Y-64262405D01*
X93214068Y-64468505D01*
X93214070Y-64468508D01*
X93312455Y-64661600D01*
X93439836Y-64836925D01*
X93593075Y-64990164D01*
X93706870Y-65072841D01*
X93757577Y-65109682D01*
X93800242Y-65165012D01*
X93806221Y-65234626D01*
X93773615Y-65296421D01*
X93757577Y-65310318D01*
X93691675Y-65358198D01*
X93593075Y-65429836D01*
X93593073Y-65429838D01*
X93593072Y-65429838D01*
X93439838Y-65583072D01*
X93312455Y-65758399D01*
X93214068Y-65951494D01*
X93147102Y-66157594D01*
X93147102Y-66157597D01*
X93113200Y-66371644D01*
X93113200Y-66588355D01*
X93147102Y-66802402D01*
X93147102Y-66802405D01*
X93214068Y-67008505D01*
X93254364Y-67087590D01*
X93312455Y-67201600D01*
X93439836Y-67376925D01*
X93593075Y-67530164D01*
X93706870Y-67612841D01*
X93757577Y-67649682D01*
X93800242Y-67705012D01*
X93806221Y-67774626D01*
X93773615Y-67836421D01*
X93757577Y-67850318D01*
X93691675Y-67898198D01*
X93593075Y-67969836D01*
X93593073Y-67969838D01*
X93593072Y-67969838D01*
X93439838Y-68123072D01*
X93312455Y-68298399D01*
X93214068Y-68491494D01*
X93147102Y-68697594D01*
X93147102Y-68697597D01*
X93113200Y-68911644D01*
X93113200Y-69034603D01*
X93093515Y-69101642D01*
X93040711Y-69147397D01*
X92971553Y-69157341D01*
X92907997Y-69128316D01*
X92901519Y-69122284D01*
X90166819Y-66387584D01*
X90133334Y-66326261D01*
X90130500Y-66299903D01*
X90130500Y-63664499D01*
X90150185Y-63597460D01*
X90202989Y-63551705D01*
X90254500Y-63540499D01*
X90377871Y-63540499D01*
X90377872Y-63540499D01*
X90437483Y-63534091D01*
X90572331Y-63483796D01*
X90687546Y-63397546D01*
X90773796Y-63282331D01*
X90824091Y-63147483D01*
X90830500Y-63087873D01*
X90830499Y-61392128D01*
X90824091Y-61332517D01*
X90820361Y-61322517D01*
X90773797Y-61197671D01*
X90773793Y-61197664D01*
X90687547Y-61082455D01*
X90687544Y-61082452D01*
X90572335Y-60996206D01*
X90572328Y-60996202D01*
X90437482Y-60945908D01*
X90437483Y-60945908D01*
X90377883Y-60939501D01*
X90377881Y-60939500D01*
X90377873Y-60939500D01*
X90377864Y-60939500D01*
X88682129Y-60939500D01*
X88682123Y-60939501D01*
X88622516Y-60945908D01*
X88487671Y-60996202D01*
X88487664Y-60996206D01*
X88372455Y-61082452D01*
X88372452Y-61082455D01*
X88286206Y-61197664D01*
X88286202Y-61197671D01*
X88235908Y-61332517D01*
X88229501Y-61392116D01*
X88229501Y-61392123D01*
X88229500Y-61392135D01*
X88229500Y-61494085D01*
X88209815Y-61561124D01*
X88157011Y-61606879D01*
X88105500Y-61618085D01*
X81559414Y-61618085D01*
X81492375Y-61598400D01*
X81446620Y-61545596D01*
X81436676Y-61476438D01*
X81465701Y-61412882D01*
X81483929Y-61395708D01*
X81488593Y-61392129D01*
X81497042Y-61385646D01*
X81705646Y-61177042D01*
X81885238Y-60942994D01*
X82032743Y-60687507D01*
X82145639Y-60414952D01*
X82221993Y-60129993D01*
X82260500Y-59837506D01*
X82260500Y-59601421D01*
X83964500Y-59601421D01*
X83964500Y-59778578D01*
X83992214Y-59953556D01*
X84046956Y-60122039D01*
X84046957Y-60122042D01*
X84127386Y-60279890D01*
X84231517Y-60423214D01*
X84356786Y-60548483D01*
X84500110Y-60652614D01*
X84550716Y-60678399D01*
X84657957Y-60733042D01*
X84657960Y-60733043D01*
X84742201Y-60760414D01*
X84826445Y-60787786D01*
X85001421Y-60815500D01*
X85001422Y-60815500D01*
X85178578Y-60815500D01*
X85178579Y-60815500D01*
X85353555Y-60787786D01*
X85522042Y-60733042D01*
X85679890Y-60652614D01*
X85823214Y-60548483D01*
X85948483Y-60423214D01*
X86052614Y-60279890D01*
X86133042Y-60122042D01*
X86187786Y-59953555D01*
X86215500Y-59778579D01*
X86215500Y-59601421D01*
X86187786Y-59426445D01*
X86133042Y-59257958D01*
X86133042Y-59257957D01*
X86052613Y-59100109D01*
X86041518Y-59084838D01*
X85948483Y-58956786D01*
X85823214Y-58831517D01*
X85679890Y-58727386D01*
X85671953Y-58723342D01*
X85522042Y-58646957D01*
X85522039Y-58646956D01*
X85353556Y-58592214D01*
X85266067Y-58578357D01*
X85178579Y-58564500D01*
X85001421Y-58564500D01*
X84943095Y-58573738D01*
X84826443Y-58592214D01*
X84657960Y-58646956D01*
X84657957Y-58646957D01*
X84500109Y-58727386D01*
X84418338Y-58786796D01*
X84356786Y-58831517D01*
X84356784Y-58831519D01*
X84356783Y-58831519D01*
X84231519Y-58956783D01*
X84231519Y-58956784D01*
X84231517Y-58956786D01*
X84223112Y-58968355D01*
X84127386Y-59100109D01*
X84046957Y-59257957D01*
X84046956Y-59257960D01*
X83992214Y-59426443D01*
X83964500Y-59601421D01*
X82260500Y-59601421D01*
X82260500Y-59542494D01*
X82221993Y-59250007D01*
X82145639Y-58965048D01*
X82032743Y-58692493D01*
X82006453Y-58646958D01*
X81885238Y-58437006D01*
X81705647Y-58202959D01*
X81705641Y-58202952D01*
X81497047Y-57994358D01*
X81497040Y-57994352D01*
X81262993Y-57814761D01*
X81007510Y-57667258D01*
X81007500Y-57667254D01*
X80734961Y-57554364D01*
X80734954Y-57554362D01*
X80734952Y-57554361D01*
X80449993Y-57478007D01*
X80401113Y-57471571D01*
X80157513Y-57439500D01*
X80157506Y-57439500D01*
X79862494Y-57439500D01*
X79862486Y-57439500D01*
X79584085Y-57476153D01*
X79570007Y-57478007D01*
X79497090Y-57497545D01*
X79285048Y-57554361D01*
X79285038Y-57554364D01*
X79012499Y-57667254D01*
X79012489Y-57667258D01*
X78757006Y-57814761D01*
X78522959Y-57994352D01*
X78522952Y-57994358D01*
X78314358Y-58202952D01*
X78314352Y-58202959D01*
X78134761Y-58437006D01*
X77987258Y-58692489D01*
X77987254Y-58692499D01*
X77874364Y-58965038D01*
X77874361Y-58965048D01*
X77838172Y-59100110D01*
X77798008Y-59250004D01*
X77798006Y-59250015D01*
X77759500Y-59542486D01*
X77759500Y-59837513D01*
X77785836Y-60037545D01*
X77798007Y-60129993D01*
X77856914Y-60349838D01*
X77874361Y-60414951D01*
X77874364Y-60414961D01*
X77987254Y-60687500D01*
X77987258Y-60687510D01*
X78134761Y-60942993D01*
X78314352Y-61177040D01*
X78314358Y-61177047D01*
X78522952Y-61385641D01*
X78522957Y-61385645D01*
X78522958Y-61385646D01*
X78531407Y-61392129D01*
X78536071Y-61395708D01*
X78577275Y-61452136D01*
X78581430Y-61521882D01*
X78547219Y-61582802D01*
X78485502Y-61615556D01*
X78460586Y-61618085D01*
X71904499Y-61618085D01*
X71837460Y-61598400D01*
X71791705Y-61545596D01*
X71780499Y-61494085D01*
X71780499Y-61382129D01*
X71780498Y-61382123D01*
X71780497Y-61382116D01*
X71774091Y-61322517D01*
X71769833Y-61311102D01*
X71723797Y-61187671D01*
X71723793Y-61187664D01*
X71637547Y-61072455D01*
X71637544Y-61072452D01*
X71522335Y-60986206D01*
X71522328Y-60986202D01*
X71387482Y-60935908D01*
X71387483Y-60935908D01*
X71327883Y-60929501D01*
X71327881Y-60929500D01*
X71327873Y-60929500D01*
X71327864Y-60929500D01*
X69632129Y-60929500D01*
X69632123Y-60929501D01*
X69572516Y-60935908D01*
X69437671Y-60986202D01*
X69437664Y-60986206D01*
X69322455Y-61072452D01*
X69322452Y-61072455D01*
X69236206Y-61187664D01*
X69236202Y-61187671D01*
X69185908Y-61322517D01*
X69180727Y-61370712D01*
X69179501Y-61382123D01*
X69179500Y-61382135D01*
X69179500Y-61494085D01*
X69159815Y-61561124D01*
X69107011Y-61606879D01*
X69055500Y-61618085D01*
X62509414Y-61618085D01*
X62442375Y-61598400D01*
X62396620Y-61545596D01*
X62386676Y-61476438D01*
X62415701Y-61412882D01*
X62433929Y-61395708D01*
X62438593Y-61392129D01*
X62447042Y-61385646D01*
X62655646Y-61177042D01*
X62835238Y-60942994D01*
X62982743Y-60687507D01*
X63095639Y-60414952D01*
X63171993Y-60129993D01*
X63210500Y-59837506D01*
X63210500Y-59601421D01*
X64914500Y-59601421D01*
X64914500Y-59778578D01*
X64942214Y-59953556D01*
X64996956Y-60122039D01*
X64996957Y-60122042D01*
X65077386Y-60279890D01*
X65181517Y-60423214D01*
X65306786Y-60548483D01*
X65450110Y-60652614D01*
X65500716Y-60678399D01*
X65607957Y-60733042D01*
X65607960Y-60733043D01*
X65692201Y-60760414D01*
X65776445Y-60787786D01*
X65951421Y-60815500D01*
X65951422Y-60815500D01*
X66128578Y-60815500D01*
X66128579Y-60815500D01*
X66303555Y-60787786D01*
X66472042Y-60733042D01*
X66629890Y-60652614D01*
X66773214Y-60548483D01*
X66898483Y-60423214D01*
X67002614Y-60279890D01*
X67083042Y-60122042D01*
X67137786Y-59953555D01*
X67165500Y-59778579D01*
X67165500Y-59601421D01*
X73804500Y-59601421D01*
X73804500Y-59778578D01*
X73832214Y-59953556D01*
X73886956Y-60122039D01*
X73886957Y-60122042D01*
X73967386Y-60279890D01*
X74071517Y-60423214D01*
X74196786Y-60548483D01*
X74340110Y-60652614D01*
X74390716Y-60678399D01*
X74497957Y-60733042D01*
X74497960Y-60733043D01*
X74582201Y-60760414D01*
X74666445Y-60787786D01*
X74841421Y-60815500D01*
X74841422Y-60815500D01*
X75018578Y-60815500D01*
X75018579Y-60815500D01*
X75193555Y-60787786D01*
X75362042Y-60733042D01*
X75519890Y-60652614D01*
X75663214Y-60548483D01*
X75788483Y-60423214D01*
X75892614Y-60279890D01*
X75973042Y-60122042D01*
X76027786Y-59953555D01*
X76055500Y-59778579D01*
X76055500Y-59601421D01*
X76027786Y-59426445D01*
X75973042Y-59257958D01*
X75973042Y-59257957D01*
X75892613Y-59100109D01*
X75881518Y-59084838D01*
X75858038Y-59019032D01*
X75873863Y-58950978D01*
X75923968Y-58902283D01*
X75992446Y-58888407D01*
X75997977Y-58889008D01*
X76085266Y-58900500D01*
X76085273Y-58900500D01*
X76314727Y-58900500D01*
X76314734Y-58900500D01*
X76542238Y-58870548D01*
X76763887Y-58811158D01*
X76975888Y-58723344D01*
X77174612Y-58608611D01*
X77356661Y-58468919D01*
X77356665Y-58468914D01*
X77356670Y-58468911D01*
X77518911Y-58306670D01*
X77518914Y-58306665D01*
X77518919Y-58306661D01*
X77658611Y-58124612D01*
X77773344Y-57925888D01*
X77861158Y-57713887D01*
X77920548Y-57492238D01*
X77950500Y-57264734D01*
X77950500Y-57035266D01*
X77920548Y-56807762D01*
X77861158Y-56586113D01*
X77773344Y-56374112D01*
X77658611Y-56175388D01*
X77658608Y-56175385D01*
X77658607Y-56175382D01*
X77518918Y-55993338D01*
X77518911Y-55993330D01*
X77356670Y-55831089D01*
X77356661Y-55831081D01*
X77174617Y-55691392D01*
X76975890Y-55576657D01*
X76975876Y-55576650D01*
X76763887Y-55488842D01*
X76542238Y-55429452D01*
X76504215Y-55424446D01*
X76314741Y-55399500D01*
X76314734Y-55399500D01*
X76085266Y-55399500D01*
X76085258Y-55399500D01*
X75868715Y-55428009D01*
X75857762Y-55429452D01*
X75796757Y-55445798D01*
X75636112Y-55488842D01*
X75424123Y-55576650D01*
X75424109Y-55576657D01*
X75225382Y-55691392D01*
X75043338Y-55831081D01*
X74881081Y-55993338D01*
X74741392Y-56175382D01*
X74626657Y-56374109D01*
X74626650Y-56374123D01*
X74538842Y-56586112D01*
X74479453Y-56807759D01*
X74479451Y-56807770D01*
X74449500Y-57035258D01*
X74449500Y-57264741D01*
X74472509Y-57439500D01*
X74479452Y-57492238D01*
X74517701Y-57634988D01*
X74538842Y-57713887D01*
X74626650Y-57925876D01*
X74626657Y-57925890D01*
X74741392Y-58124617D01*
X74881081Y-58306661D01*
X74881089Y-58306670D01*
X74927238Y-58352819D01*
X74960723Y-58414142D01*
X74955739Y-58483834D01*
X74913867Y-58539767D01*
X74848403Y-58564184D01*
X74842967Y-58564378D01*
X74841423Y-58564499D01*
X74666443Y-58592214D01*
X74497960Y-58646956D01*
X74497957Y-58646957D01*
X74340109Y-58727386D01*
X74258338Y-58786796D01*
X74196786Y-58831517D01*
X74196784Y-58831519D01*
X74196783Y-58831519D01*
X74071519Y-58956783D01*
X74071519Y-58956784D01*
X74071517Y-58956786D01*
X74063112Y-58968355D01*
X73967386Y-59100109D01*
X73886957Y-59257957D01*
X73886956Y-59257960D01*
X73832214Y-59426443D01*
X73804500Y-59601421D01*
X67165500Y-59601421D01*
X67137786Y-59426445D01*
X67083042Y-59257958D01*
X67083042Y-59257957D01*
X67002613Y-59100109D01*
X66991518Y-59084838D01*
X66898483Y-58956786D01*
X66773214Y-58831517D01*
X66629890Y-58727386D01*
X66621953Y-58723342D01*
X66472042Y-58646957D01*
X66472039Y-58646956D01*
X66303556Y-58592214D01*
X66216067Y-58578357D01*
X66128579Y-58564500D01*
X65951421Y-58564500D01*
X65893095Y-58573738D01*
X65776443Y-58592214D01*
X65607960Y-58646956D01*
X65607957Y-58646957D01*
X65450109Y-58727386D01*
X65368338Y-58786796D01*
X65306786Y-58831517D01*
X65306784Y-58831519D01*
X65306783Y-58831519D01*
X65181519Y-58956783D01*
X65181519Y-58956784D01*
X65181517Y-58956786D01*
X65173112Y-58968355D01*
X65077386Y-59100109D01*
X64996957Y-59257957D01*
X64996956Y-59257960D01*
X64942214Y-59426443D01*
X64914500Y-59601421D01*
X63210500Y-59601421D01*
X63210500Y-59542494D01*
X63171993Y-59250007D01*
X63095639Y-58965048D01*
X62982743Y-58692493D01*
X62956453Y-58646958D01*
X62835238Y-58437006D01*
X62655647Y-58202959D01*
X62655641Y-58202952D01*
X62447047Y-57994358D01*
X62447040Y-57994352D01*
X62212993Y-57814761D01*
X61957510Y-57667258D01*
X61957500Y-57667254D01*
X61684961Y-57554364D01*
X61684954Y-57554362D01*
X61684952Y-57554361D01*
X61399993Y-57478007D01*
X61351113Y-57471571D01*
X61107513Y-57439500D01*
X61107506Y-57439500D01*
X60812494Y-57439500D01*
X60812486Y-57439500D01*
X60534085Y-57476153D01*
X60520007Y-57478007D01*
X60447090Y-57497545D01*
X60235048Y-57554361D01*
X60235038Y-57554364D01*
X59962499Y-57667254D01*
X59962489Y-57667258D01*
X59707006Y-57814761D01*
X59472959Y-57994352D01*
X59472952Y-57994358D01*
X59264358Y-58202952D01*
X59264352Y-58202959D01*
X59084761Y-58437006D01*
X58937258Y-58692489D01*
X58937254Y-58692499D01*
X58824364Y-58965038D01*
X58824361Y-58965048D01*
X58788172Y-59100110D01*
X58748008Y-59250004D01*
X58748006Y-59250015D01*
X58709500Y-59542486D01*
X58709500Y-59837513D01*
X58735836Y-60037545D01*
X58748007Y-60129993D01*
X58806914Y-60349838D01*
X58824361Y-60414951D01*
X58824364Y-60414961D01*
X58937254Y-60687500D01*
X58937258Y-60687510D01*
X59084761Y-60942993D01*
X59264352Y-61177040D01*
X59264358Y-61177047D01*
X59472952Y-61385641D01*
X59472957Y-61385645D01*
X59472958Y-61385646D01*
X59481407Y-61392129D01*
X59486071Y-61395708D01*
X59527275Y-61452136D01*
X59531430Y-61521882D01*
X59497219Y-61582802D01*
X59435502Y-61615556D01*
X59410586Y-61618085D01*
X52870748Y-61618085D01*
X52803709Y-61598400D01*
X52757954Y-61545596D01*
X52746748Y-61494085D01*
X52746748Y-61370714D01*
X52746747Y-61370708D01*
X52746746Y-61370701D01*
X52740340Y-61311102D01*
X52698032Y-61197669D01*
X52690046Y-61176256D01*
X52690042Y-61176249D01*
X52603796Y-61061040D01*
X52603793Y-61061037D01*
X52488584Y-60974791D01*
X52488577Y-60974787D01*
X52353731Y-60924493D01*
X52353732Y-60924493D01*
X52294132Y-60918086D01*
X52294130Y-60918085D01*
X52294122Y-60918085D01*
X52294113Y-60918085D01*
X50598378Y-60918085D01*
X50598372Y-60918086D01*
X50538765Y-60924493D01*
X50403920Y-60974787D01*
X50403913Y-60974791D01*
X50288704Y-61061037D01*
X50288701Y-61061040D01*
X50202455Y-61176249D01*
X50202451Y-61176256D01*
X50152157Y-61311102D01*
X50145750Y-61370701D01*
X50145750Y-61370708D01*
X50145749Y-61370720D01*
X50145749Y-63066455D01*
X50145750Y-63066461D01*
X50152157Y-63126068D01*
X50202451Y-63260913D01*
X50202455Y-63260920D01*
X50288701Y-63376129D01*
X50288704Y-63376132D01*
X50403913Y-63462378D01*
X50403920Y-63462382D01*
X50538766Y-63512676D01*
X50538765Y-63512676D01*
X50545693Y-63513420D01*
X50598376Y-63519085D01*
X52294121Y-63519084D01*
X52353732Y-63512676D01*
X52488580Y-63462381D01*
X52603795Y-63376131D01*
X52690045Y-63260916D01*
X52740340Y-63126068D01*
X52746749Y-63066458D01*
X52746749Y-62943085D01*
X52766434Y-62876046D01*
X52819238Y-62830291D01*
X52870749Y-62819085D01*
X69055501Y-62819085D01*
X69122540Y-62838770D01*
X69168295Y-62891574D01*
X69179501Y-62943085D01*
X69179501Y-63077876D01*
X69185908Y-63137483D01*
X69236202Y-63272328D01*
X69236206Y-63272335D01*
X69322452Y-63387544D01*
X69322455Y-63387547D01*
X69437664Y-63473793D01*
X69437671Y-63473797D01*
X69572517Y-63524091D01*
X69572516Y-63524091D01*
X69579444Y-63524835D01*
X69632127Y-63530500D01*
X71327872Y-63530499D01*
X71387483Y-63524091D01*
X71522331Y-63473796D01*
X71637546Y-63387546D01*
X71723796Y-63272331D01*
X71774091Y-63137483D01*
X71780500Y-63077873D01*
X71780500Y-62943085D01*
X71800185Y-62876046D01*
X71852989Y-62830291D01*
X71904500Y-62819085D01*
X88105501Y-62819085D01*
X88172540Y-62838770D01*
X88218295Y-62891574D01*
X88229501Y-62943085D01*
X88229501Y-63087876D01*
X88235908Y-63147483D01*
X88286202Y-63282328D01*
X88286206Y-63282335D01*
X88372452Y-63397544D01*
X88372455Y-63397547D01*
X88487664Y-63483793D01*
X88487671Y-63483797D01*
X88532618Y-63500561D01*
X88622517Y-63534091D01*
X88682127Y-63540500D01*
X88805500Y-63540499D01*
X88872539Y-63560183D01*
X88918294Y-63612987D01*
X88929500Y-63664499D01*
X88929500Y-66513330D01*
X88929499Y-66513348D01*
X88929499Y-66679054D01*
X88929498Y-66679054D01*
X88970423Y-66831785D01*
X88999358Y-66881900D01*
X88999359Y-66881904D01*
X88999360Y-66881904D01*
X89049479Y-66968714D01*
X89049481Y-66968717D01*
X89168349Y-67087585D01*
X89168355Y-67087590D01*
X93135370Y-71054605D01*
X93168855Y-71115928D01*
X93165620Y-71180603D01*
X93147102Y-71237595D01*
X93113200Y-71451644D01*
X93113200Y-71668355D01*
X93147102Y-71882402D01*
X93147102Y-71882405D01*
X93214068Y-72088505D01*
X93271587Y-72201392D01*
X93312455Y-72281600D01*
X93439836Y-72456925D01*
X93593075Y-72610164D01*
X93686482Y-72678028D01*
X93757577Y-72729682D01*
X93800242Y-72785012D01*
X93806221Y-72854626D01*
X93773615Y-72916421D01*
X93757577Y-72930318D01*
X93705181Y-72968386D01*
X93593075Y-73049836D01*
X93593073Y-73049838D01*
X93593072Y-73049838D01*
X93439838Y-73203072D01*
X93312455Y-73378399D01*
X93214068Y-73571494D01*
X93147102Y-73777594D01*
X93147102Y-73777597D01*
X93113200Y-73991644D01*
X93113200Y-74208355D01*
X93147101Y-74422401D01*
X93165620Y-74479394D01*
X93167615Y-74549235D01*
X93135370Y-74605393D01*
X89161286Y-78579478D01*
X89049481Y-78691282D01*
X89049479Y-78691285D01*
X88999361Y-78778094D01*
X88999359Y-78778096D01*
X88970425Y-78828209D01*
X88970424Y-78828210D01*
X88970325Y-78828579D01*
X88929499Y-78980943D01*
X88929499Y-78980945D01*
X88929499Y-79149046D01*
X88929500Y-79149059D01*
X88929500Y-79845500D01*
X88909815Y-79912539D01*
X88857011Y-79958294D01*
X88805501Y-79969500D01*
X88682130Y-79969500D01*
X88682123Y-79969501D01*
X88622516Y-79975908D01*
X88487671Y-80026202D01*
X88487664Y-80026206D01*
X88372455Y-80112452D01*
X88372452Y-80112455D01*
X88286206Y-80227664D01*
X88286202Y-80227671D01*
X88235908Y-80362517D01*
X88229501Y-80422116D01*
X88229500Y-80422135D01*
X88229500Y-80565500D01*
X88209815Y-80632539D01*
X88157011Y-80678294D01*
X88105500Y-80689500D01*
X81531506Y-80689500D01*
X81464467Y-80669815D01*
X81418712Y-80617011D01*
X81408768Y-80547853D01*
X81437793Y-80484297D01*
X81456019Y-80467124D01*
X81497042Y-80435646D01*
X81705646Y-80227042D01*
X81885238Y-79992994D01*
X82032743Y-79737507D01*
X82145639Y-79464952D01*
X82221993Y-79179993D01*
X82260500Y-78887506D01*
X82260500Y-78651421D01*
X83964500Y-78651421D01*
X83964500Y-78828579D01*
X83973832Y-78887498D01*
X83992214Y-79003556D01*
X84046956Y-79172039D01*
X84046957Y-79172042D01*
X84116607Y-79308735D01*
X84127386Y-79329890D01*
X84231517Y-79473214D01*
X84356786Y-79598483D01*
X84500110Y-79702614D01*
X84511672Y-79708505D01*
X84657957Y-79783042D01*
X84657960Y-79783043D01*
X84742201Y-79810414D01*
X84826445Y-79837786D01*
X85001421Y-79865500D01*
X85001422Y-79865500D01*
X85178578Y-79865500D01*
X85178579Y-79865500D01*
X85353555Y-79837786D01*
X85522042Y-79783042D01*
X85679890Y-79702614D01*
X85823214Y-79598483D01*
X85948483Y-79473214D01*
X86052614Y-79329890D01*
X86133042Y-79172042D01*
X86187786Y-79003555D01*
X86215500Y-78828579D01*
X86215500Y-78651421D01*
X86187786Y-78476445D01*
X86133042Y-78307959D01*
X86133042Y-78307957D01*
X86052613Y-78150109D01*
X85948483Y-78006786D01*
X85823214Y-77881517D01*
X85679890Y-77777386D01*
X85671951Y-77773341D01*
X85522042Y-77696957D01*
X85522039Y-77696956D01*
X85353556Y-77642214D01*
X85266067Y-77628357D01*
X85178579Y-77614500D01*
X85001421Y-77614500D01*
X84943095Y-77623738D01*
X84826443Y-77642214D01*
X84657960Y-77696956D01*
X84657957Y-77696957D01*
X84500109Y-77777386D01*
X84455658Y-77809682D01*
X84356786Y-77881517D01*
X84356784Y-77881519D01*
X84356783Y-77881519D01*
X84231519Y-78006783D01*
X84231519Y-78006784D01*
X84231517Y-78006786D01*
X84186796Y-78068338D01*
X84127386Y-78150109D01*
X84046957Y-78307957D01*
X84046956Y-78307960D01*
X83992214Y-78476443D01*
X83973832Y-78592500D01*
X83964500Y-78651421D01*
X82260500Y-78651421D01*
X82260500Y-78592494D01*
X82221993Y-78300007D01*
X82145639Y-78015048D01*
X82145634Y-78015037D01*
X82106495Y-77920546D01*
X82032743Y-77742493D01*
X82006453Y-77696958D01*
X81885238Y-77487006D01*
X81705647Y-77252959D01*
X81705641Y-77252952D01*
X81497047Y-77044358D01*
X81497040Y-77044352D01*
X81262993Y-76864761D01*
X81007510Y-76717258D01*
X81007500Y-76717254D01*
X80734961Y-76604364D01*
X80734954Y-76604362D01*
X80734952Y-76604361D01*
X80449993Y-76528007D01*
X80401113Y-76521571D01*
X80157513Y-76489500D01*
X80157506Y-76489500D01*
X79862494Y-76489500D01*
X79862486Y-76489500D01*
X79584085Y-76526153D01*
X79570007Y-76528007D01*
X79285052Y-76604360D01*
X79285048Y-76604361D01*
X79285038Y-76604364D01*
X79012499Y-76717254D01*
X79012489Y-76717258D01*
X78757006Y-76864761D01*
X78522959Y-77044352D01*
X78522952Y-77044358D01*
X78314358Y-77252952D01*
X78314352Y-77252959D01*
X78134761Y-77487006D01*
X77987258Y-77742489D01*
X77987254Y-77742499D01*
X77874364Y-78015038D01*
X77874361Y-78015047D01*
X77874361Y-78015048D01*
X77798007Y-78300007D01*
X77796960Y-78307957D01*
X77759500Y-78592486D01*
X77759500Y-78887513D01*
X77774778Y-79003554D01*
X77798007Y-79179993D01*
X77874361Y-79464951D01*
X77874364Y-79464961D01*
X77987254Y-79737500D01*
X77987258Y-79737510D01*
X78134761Y-79992993D01*
X78314352Y-80227040D01*
X78314358Y-80227047D01*
X78522952Y-80435641D01*
X78522956Y-80435644D01*
X78522958Y-80435646D01*
X78563981Y-80467124D01*
X78605183Y-80523552D01*
X78609338Y-80593298D01*
X78575125Y-80654219D01*
X78513408Y-80686971D01*
X78488494Y-80689500D01*
X71914499Y-80689500D01*
X71847460Y-80669815D01*
X71801705Y-80617011D01*
X71790499Y-80565500D01*
X71790499Y-80432129D01*
X71790498Y-80432123D01*
X71790497Y-80432116D01*
X71784091Y-80372517D01*
X71780361Y-80362517D01*
X71733797Y-80237671D01*
X71733793Y-80237664D01*
X71647547Y-80122455D01*
X71647544Y-80122452D01*
X71532335Y-80036206D01*
X71532328Y-80036202D01*
X71397482Y-79985908D01*
X71397483Y-79985908D01*
X71337883Y-79979501D01*
X71337881Y-79979500D01*
X71337873Y-79979500D01*
X71337864Y-79979500D01*
X69642129Y-79979500D01*
X69642123Y-79979501D01*
X69582516Y-79985908D01*
X69447671Y-80036202D01*
X69447664Y-80036206D01*
X69332455Y-80122452D01*
X69332452Y-80122455D01*
X69246206Y-80237664D01*
X69246202Y-80237671D01*
X69195908Y-80372517D01*
X69192415Y-80405012D01*
X69189501Y-80432123D01*
X69189500Y-80432135D01*
X69189500Y-80565500D01*
X69169815Y-80632539D01*
X69117011Y-80678294D01*
X69065500Y-80689500D01*
X62480057Y-80689500D01*
X62413018Y-80669815D01*
X62367263Y-80617011D01*
X62357319Y-80547853D01*
X62386344Y-80484297D01*
X62404570Y-80467125D01*
X62437136Y-80442135D01*
X62445594Y-80435645D01*
X62654198Y-80227041D01*
X62833790Y-79992993D01*
X62981295Y-79737506D01*
X63094191Y-79464951D01*
X63170545Y-79179992D01*
X63209052Y-78887505D01*
X63209052Y-78651420D01*
X64913052Y-78651420D01*
X64913052Y-78828578D01*
X64922386Y-78887512D01*
X64940766Y-79003555D01*
X64995508Y-79172038D01*
X64995509Y-79172041D01*
X65046653Y-79272415D01*
X65075938Y-79329889D01*
X65180069Y-79473213D01*
X65305338Y-79598482D01*
X65448662Y-79702613D01*
X65460226Y-79708505D01*
X65606509Y-79783041D01*
X65606512Y-79783042D01*
X65690753Y-79810413D01*
X65774997Y-79837785D01*
X65949973Y-79865499D01*
X65949974Y-79865499D01*
X66127130Y-79865499D01*
X66127131Y-79865499D01*
X66302107Y-79837785D01*
X66470594Y-79783041D01*
X66628442Y-79702613D01*
X66771766Y-79598482D01*
X66897035Y-79473213D01*
X67001166Y-79329889D01*
X67081594Y-79172041D01*
X67136338Y-79003554D01*
X67164052Y-78828578D01*
X67164052Y-78651421D01*
X73804500Y-78651421D01*
X73804500Y-78828579D01*
X73813832Y-78887498D01*
X73832214Y-79003556D01*
X73886956Y-79172039D01*
X73886957Y-79172042D01*
X73956607Y-79308735D01*
X73967386Y-79329890D01*
X74071517Y-79473214D01*
X74196786Y-79598483D01*
X74340110Y-79702614D01*
X74351672Y-79708505D01*
X74497957Y-79783042D01*
X74497960Y-79783043D01*
X74582201Y-79810414D01*
X74666445Y-79837786D01*
X74841421Y-79865500D01*
X74841422Y-79865500D01*
X75018578Y-79865500D01*
X75018579Y-79865500D01*
X75193555Y-79837786D01*
X75362042Y-79783042D01*
X75519890Y-79702614D01*
X75663214Y-79598483D01*
X75788483Y-79473214D01*
X75892614Y-79329890D01*
X75973042Y-79172042D01*
X76027786Y-79003555D01*
X76055500Y-78828579D01*
X76055500Y-78651421D01*
X76027786Y-78476445D01*
X75973042Y-78307959D01*
X75973042Y-78307957D01*
X75892613Y-78150109D01*
X75892612Y-78150108D01*
X75881517Y-78134837D01*
X75858038Y-78069032D01*
X75873863Y-78000978D01*
X75923968Y-77952283D01*
X75992446Y-77938407D01*
X75997977Y-77939008D01*
X76085266Y-77950500D01*
X76085273Y-77950500D01*
X76314727Y-77950500D01*
X76314734Y-77950500D01*
X76542238Y-77920548D01*
X76763887Y-77861158D01*
X76975888Y-77773344D01*
X77174612Y-77658611D01*
X77356661Y-77518919D01*
X77356665Y-77518914D01*
X77356670Y-77518911D01*
X77518911Y-77356670D01*
X77518914Y-77356665D01*
X77518919Y-77356661D01*
X77658611Y-77174612D01*
X77773344Y-76975888D01*
X77861158Y-76763887D01*
X77920548Y-76542238D01*
X77950500Y-76314734D01*
X77950500Y-76085266D01*
X77920548Y-75857762D01*
X77861158Y-75636113D01*
X77792483Y-75470318D01*
X77773349Y-75424123D01*
X77773346Y-75424117D01*
X77773344Y-75424112D01*
X77658611Y-75225388D01*
X77658608Y-75225385D01*
X77658607Y-75225382D01*
X77518918Y-75043338D01*
X77518911Y-75043330D01*
X77356670Y-74881089D01*
X77356661Y-74881081D01*
X77174617Y-74741392D01*
X76975890Y-74626657D01*
X76975876Y-74626650D01*
X76763887Y-74538842D01*
X76763883Y-74538841D01*
X76542238Y-74479452D01*
X76504215Y-74474446D01*
X76314741Y-74449500D01*
X76314734Y-74449500D01*
X76085266Y-74449500D01*
X76085258Y-74449500D01*
X75868715Y-74478009D01*
X75857762Y-74479452D01*
X75791454Y-74497219D01*
X75636112Y-74538842D01*
X75424123Y-74626650D01*
X75424109Y-74626657D01*
X75225382Y-74741392D01*
X75043338Y-74881081D01*
X74881081Y-75043338D01*
X74741392Y-75225382D01*
X74626657Y-75424109D01*
X74626650Y-75424123D01*
X74538842Y-75636112D01*
X74538842Y-75636113D01*
X74479453Y-75857761D01*
X74479452Y-75857764D01*
X74449500Y-76085258D01*
X74449500Y-76314741D01*
X74472509Y-76489499D01*
X74479452Y-76542238D01*
X74499364Y-76616550D01*
X74538842Y-76763887D01*
X74626650Y-76975876D01*
X74626656Y-76975888D01*
X74741388Y-77174611D01*
X74741392Y-77174617D01*
X74881081Y-77356661D01*
X74881089Y-77356670D01*
X74927238Y-77402819D01*
X74960723Y-77464142D01*
X74955739Y-77533834D01*
X74913867Y-77589767D01*
X74848403Y-77614184D01*
X74842967Y-77614378D01*
X74841423Y-77614499D01*
X74666443Y-77642214D01*
X74497960Y-77696956D01*
X74497957Y-77696957D01*
X74340109Y-77777386D01*
X74295658Y-77809682D01*
X74196786Y-77881517D01*
X74196784Y-77881519D01*
X74196783Y-77881519D01*
X74071519Y-78006783D01*
X74071519Y-78006784D01*
X74071517Y-78006786D01*
X74026796Y-78068338D01*
X73967386Y-78150109D01*
X73886957Y-78307957D01*
X73886956Y-78307960D01*
X73832214Y-78476443D01*
X73813832Y-78592500D01*
X73804500Y-78651421D01*
X67164052Y-78651421D01*
X67164052Y-78651420D01*
X67136338Y-78476444D01*
X67081594Y-78307958D01*
X67081594Y-78307956D01*
X67040613Y-78227528D01*
X67001166Y-78150109D01*
X66897035Y-78006785D01*
X66771766Y-77881516D01*
X66628442Y-77777385D01*
X66620505Y-77773341D01*
X66470594Y-77696956D01*
X66470591Y-77696955D01*
X66302108Y-77642213D01*
X66214619Y-77628356D01*
X66127131Y-77614499D01*
X65949973Y-77614499D01*
X65891647Y-77623737D01*
X65774995Y-77642213D01*
X65606512Y-77696955D01*
X65606509Y-77696956D01*
X65448661Y-77777385D01*
X65385080Y-77823580D01*
X65305338Y-77881516D01*
X65305336Y-77881518D01*
X65305335Y-77881518D01*
X65180071Y-78006782D01*
X65180071Y-78006783D01*
X65180069Y-78006785D01*
X65174066Y-78015048D01*
X65075938Y-78150108D01*
X64995509Y-78307956D01*
X64995508Y-78307959D01*
X64940766Y-78476442D01*
X64922386Y-78592486D01*
X64913052Y-78651420D01*
X63209052Y-78651420D01*
X63209052Y-78592493D01*
X63170545Y-78300006D01*
X63094191Y-78015047D01*
X63088363Y-78000978D01*
X63062445Y-77938406D01*
X62981295Y-77742492D01*
X62955005Y-77696957D01*
X62833790Y-77487005D01*
X62654199Y-77252958D01*
X62654193Y-77252951D01*
X62445599Y-77044357D01*
X62445592Y-77044351D01*
X62211545Y-76864760D01*
X61956062Y-76717257D01*
X61956052Y-76717253D01*
X61683513Y-76604363D01*
X61683506Y-76604361D01*
X61683504Y-76604360D01*
X61398545Y-76528006D01*
X61349665Y-76521570D01*
X61106065Y-76489499D01*
X61106058Y-76489499D01*
X60811046Y-76489499D01*
X60811038Y-76489499D01*
X60532637Y-76526152D01*
X60518559Y-76528006D01*
X60465437Y-76542240D01*
X60233600Y-76604360D01*
X60233590Y-76604363D01*
X59961051Y-76717253D01*
X59961041Y-76717257D01*
X59705558Y-76864760D01*
X59471511Y-77044351D01*
X59471504Y-77044357D01*
X59262910Y-77252951D01*
X59262904Y-77252958D01*
X59083313Y-77487005D01*
X58935810Y-77742488D01*
X58935806Y-77742498D01*
X58822916Y-78015037D01*
X58822913Y-78015047D01*
X58751097Y-78283072D01*
X58746560Y-78300003D01*
X58746558Y-78300014D01*
X58708052Y-78592485D01*
X58708052Y-78887512D01*
X58733094Y-79077715D01*
X58746559Y-79179992D01*
X58822913Y-79464951D01*
X58822914Y-79464953D01*
X58822916Y-79464960D01*
X58935806Y-79737499D01*
X58935810Y-79737509D01*
X59083313Y-79992992D01*
X59262904Y-80227039D01*
X59262910Y-80227046D01*
X59471504Y-80435640D01*
X59471509Y-80435644D01*
X59471510Y-80435645D01*
X59471513Y-80435647D01*
X59471514Y-80435648D01*
X59512534Y-80467125D01*
X59553736Y-80523553D01*
X59557891Y-80593299D01*
X59523678Y-80654219D01*
X59461961Y-80686971D01*
X59437047Y-80689500D01*
X52864499Y-80689500D01*
X52797460Y-80669815D01*
X52751705Y-80617011D01*
X52740499Y-80565500D01*
X52740499Y-80442129D01*
X52740498Y-80442123D01*
X52740497Y-80442116D01*
X52734091Y-80382517D01*
X52730361Y-80372517D01*
X52683797Y-80247671D01*
X52683793Y-80247664D01*
X52597547Y-80132455D01*
X52597544Y-80132452D01*
X52482335Y-80046206D01*
X52482328Y-80046202D01*
X52347482Y-79995908D01*
X52347483Y-79995908D01*
X52287883Y-79989501D01*
X52287881Y-79989500D01*
X52287873Y-79989500D01*
X52287864Y-79989500D01*
X50592129Y-79989500D01*
X50592123Y-79989501D01*
X50532516Y-79995908D01*
X50397671Y-80046202D01*
X50397664Y-80046206D01*
X50282455Y-80132452D01*
X50282452Y-80132455D01*
X50196206Y-80247664D01*
X50196202Y-80247671D01*
X50145908Y-80382517D01*
X50139501Y-80442116D01*
X50139501Y-80442123D01*
X50139500Y-80442135D01*
X43388585Y-80442135D01*
X43397042Y-80435646D01*
X43427676Y-80405012D01*
X43481564Y-80351125D01*
X43605641Y-80227047D01*
X43605642Y-80227046D01*
X43605646Y-80227042D01*
X43785238Y-79992994D01*
X43932743Y-79737507D01*
X44045639Y-79464952D01*
X44121993Y-79179993D01*
X44160500Y-78887506D01*
X44160500Y-78651421D01*
X45864500Y-78651421D01*
X45864500Y-78828579D01*
X45873832Y-78887498D01*
X45892214Y-79003556D01*
X45946956Y-79172039D01*
X45946957Y-79172042D01*
X46016607Y-79308735D01*
X46027386Y-79329890D01*
X46131517Y-79473214D01*
X46256786Y-79598483D01*
X46400110Y-79702614D01*
X46411672Y-79708505D01*
X46557957Y-79783042D01*
X46557960Y-79783043D01*
X46642201Y-79810414D01*
X46726445Y-79837786D01*
X46901421Y-79865500D01*
X46901422Y-79865500D01*
X47078578Y-79865500D01*
X47078579Y-79865500D01*
X47253555Y-79837786D01*
X47422042Y-79783042D01*
X47579890Y-79702614D01*
X47723214Y-79598483D01*
X47848483Y-79473214D01*
X47952614Y-79329890D01*
X48033042Y-79172042D01*
X48087786Y-79003555D01*
X48115500Y-78828579D01*
X48115500Y-78651421D01*
X48115500Y-78651420D01*
X54753052Y-78651420D01*
X54753052Y-78828578D01*
X54762386Y-78887512D01*
X54780766Y-79003555D01*
X54835508Y-79172038D01*
X54835509Y-79172041D01*
X54886653Y-79272415D01*
X54915938Y-79329889D01*
X55020069Y-79473213D01*
X55145338Y-79598482D01*
X55288662Y-79702613D01*
X55300226Y-79708505D01*
X55446509Y-79783041D01*
X55446512Y-79783042D01*
X55530753Y-79810413D01*
X55614997Y-79837785D01*
X55789973Y-79865499D01*
X55789974Y-79865499D01*
X55967130Y-79865499D01*
X55967131Y-79865499D01*
X56142107Y-79837785D01*
X56310594Y-79783041D01*
X56468442Y-79702613D01*
X56611766Y-79598482D01*
X56737035Y-79473213D01*
X56841166Y-79329889D01*
X56921594Y-79172041D01*
X56976338Y-79003554D01*
X57004052Y-78828578D01*
X57004052Y-78651420D01*
X56976338Y-78476444D01*
X56921594Y-78307958D01*
X56921594Y-78307956D01*
X56880613Y-78227528D01*
X56841166Y-78150109D01*
X56830069Y-78134836D01*
X56806590Y-78069031D01*
X56822415Y-78000977D01*
X56872520Y-77952282D01*
X56940998Y-77938406D01*
X56946529Y-77939007D01*
X57033818Y-77950499D01*
X57033825Y-77950499D01*
X57263279Y-77950499D01*
X57263286Y-77950499D01*
X57490790Y-77920547D01*
X57712439Y-77861157D01*
X57924440Y-77773343D01*
X58123164Y-77658610D01*
X58305213Y-77518918D01*
X58305217Y-77518913D01*
X58305222Y-77518910D01*
X58467463Y-77356669D01*
X58467466Y-77356664D01*
X58467471Y-77356660D01*
X58607163Y-77174611D01*
X58721896Y-76975887D01*
X58809710Y-76763886D01*
X58869100Y-76542237D01*
X58899052Y-76314733D01*
X58899052Y-76085265D01*
X58869100Y-75857761D01*
X58809710Y-75636112D01*
X58737779Y-75462455D01*
X58721901Y-75424122D01*
X58721896Y-75424112D01*
X58721896Y-75424111D01*
X58607163Y-75225387D01*
X58607160Y-75225384D01*
X58607159Y-75225381D01*
X58467470Y-75043337D01*
X58467463Y-75043329D01*
X58305222Y-74881088D01*
X58305213Y-74881080D01*
X58123169Y-74741391D01*
X57924442Y-74626656D01*
X57924428Y-74626649D01*
X57712439Y-74538841D01*
X57490790Y-74479451D01*
X57452767Y-74474445D01*
X57263293Y-74449499D01*
X57263286Y-74449499D01*
X57033818Y-74449499D01*
X57033810Y-74449499D01*
X56817267Y-74478008D01*
X56806314Y-74479451D01*
X56806307Y-74479453D01*
X56584664Y-74538841D01*
X56372675Y-74626649D01*
X56372661Y-74626656D01*
X56173934Y-74741391D01*
X55991890Y-74881080D01*
X55829633Y-75043337D01*
X55689944Y-75225381D01*
X55575209Y-75424108D01*
X55575202Y-75424122D01*
X55487394Y-75636111D01*
X55428005Y-75857758D01*
X55428004Y-75857764D01*
X55398052Y-76085257D01*
X55398052Y-76314740D01*
X55421061Y-76489499D01*
X55428004Y-76542237D01*
X55444651Y-76604364D01*
X55487394Y-76763886D01*
X55575202Y-76975875D01*
X55575203Y-76975876D01*
X55575208Y-76975887D01*
X55686417Y-77168508D01*
X55689944Y-77174616D01*
X55829633Y-77356660D01*
X55829641Y-77356669D01*
X55875790Y-77402818D01*
X55909275Y-77464141D01*
X55904291Y-77533833D01*
X55862419Y-77589766D01*
X55796955Y-77614183D01*
X55791519Y-77614377D01*
X55789975Y-77614498D01*
X55614995Y-77642213D01*
X55446512Y-77696955D01*
X55446509Y-77696956D01*
X55288661Y-77777385D01*
X55225080Y-77823580D01*
X55145338Y-77881516D01*
X55145336Y-77881518D01*
X55145335Y-77881518D01*
X55020071Y-78006782D01*
X55020071Y-78006783D01*
X55020069Y-78006785D01*
X55014066Y-78015048D01*
X54915938Y-78150108D01*
X54835509Y-78307956D01*
X54835508Y-78307959D01*
X54780766Y-78476442D01*
X54762386Y-78592486D01*
X54753052Y-78651420D01*
X48115500Y-78651420D01*
X48087786Y-78476445D01*
X48033042Y-78307959D01*
X48033042Y-78307957D01*
X47952613Y-78150109D01*
X47848483Y-78006786D01*
X47723214Y-77881517D01*
X47579890Y-77777386D01*
X47571951Y-77773341D01*
X47422042Y-77696957D01*
X47422039Y-77696956D01*
X47253556Y-77642214D01*
X47166067Y-77628357D01*
X47078579Y-77614500D01*
X46901421Y-77614500D01*
X46843095Y-77623738D01*
X46726443Y-77642214D01*
X46557960Y-77696956D01*
X46557957Y-77696957D01*
X46400109Y-77777386D01*
X46355658Y-77809682D01*
X46256786Y-77881517D01*
X46256784Y-77881519D01*
X46256783Y-77881519D01*
X46131519Y-78006783D01*
X46131519Y-78006784D01*
X46131517Y-78006786D01*
X46086796Y-78068338D01*
X46027386Y-78150109D01*
X45946957Y-78307957D01*
X45946956Y-78307960D01*
X45892214Y-78476443D01*
X45873832Y-78592500D01*
X45864500Y-78651421D01*
X44160500Y-78651421D01*
X44160500Y-78592494D01*
X44121993Y-78300007D01*
X44045639Y-78015048D01*
X44045634Y-78015037D01*
X44006495Y-77920546D01*
X43932743Y-77742493D01*
X43906453Y-77696958D01*
X43785238Y-77487006D01*
X43605647Y-77252959D01*
X43605641Y-77252952D01*
X43397047Y-77044358D01*
X43397040Y-77044352D01*
X43162993Y-76864761D01*
X42907510Y-76717258D01*
X42907500Y-76717254D01*
X42634961Y-76604364D01*
X42634954Y-76604362D01*
X42634952Y-76604361D01*
X42349993Y-76528007D01*
X42301113Y-76521571D01*
X42057513Y-76489500D01*
X42057506Y-76489500D01*
X41762494Y-76489500D01*
X41762486Y-76489500D01*
X41484085Y-76526153D01*
X41470007Y-76528007D01*
X41185052Y-76604360D01*
X41185048Y-76604361D01*
X41185038Y-76604364D01*
X40912499Y-76717254D01*
X40912489Y-76717258D01*
X40657006Y-76864761D01*
X40422959Y-77044352D01*
X40422952Y-77044358D01*
X40214358Y-77252952D01*
X40214352Y-77252959D01*
X40034761Y-77487006D01*
X39887258Y-77742489D01*
X39887254Y-77742499D01*
X39774364Y-78015038D01*
X39774361Y-78015047D01*
X39774361Y-78015048D01*
X39698007Y-78300007D01*
X39696960Y-78307957D01*
X39659500Y-78592486D01*
X37946165Y-78592486D01*
X37927786Y-78476445D01*
X37873042Y-78307959D01*
X37873042Y-78307957D01*
X37792613Y-78150109D01*
X37792612Y-78150108D01*
X37781517Y-78134837D01*
X37758038Y-78069032D01*
X37773863Y-78000978D01*
X37823968Y-77952283D01*
X37892446Y-77938407D01*
X37897977Y-77939008D01*
X37985266Y-77950500D01*
X37985273Y-77950500D01*
X38214727Y-77950500D01*
X38214734Y-77950500D01*
X38442238Y-77920548D01*
X38663887Y-77861158D01*
X38875888Y-77773344D01*
X39074612Y-77658611D01*
X39256661Y-77518919D01*
X39256665Y-77518914D01*
X39256670Y-77518911D01*
X39418911Y-77356670D01*
X39418914Y-77356665D01*
X39418919Y-77356661D01*
X39558611Y-77174612D01*
X39673344Y-76975888D01*
X39761158Y-76763887D01*
X39820548Y-76542238D01*
X39850500Y-76314734D01*
X39850500Y-76085266D01*
X39820548Y-75857762D01*
X39761158Y-75636113D01*
X39692483Y-75470318D01*
X39673349Y-75424123D01*
X39673346Y-75424117D01*
X39673344Y-75424112D01*
X39558611Y-75225388D01*
X39558608Y-75225385D01*
X39558607Y-75225382D01*
X39418918Y-75043338D01*
X39418911Y-75043330D01*
X39256670Y-74881089D01*
X39256661Y-74881081D01*
X39074617Y-74741392D01*
X38875890Y-74626657D01*
X38875876Y-74626650D01*
X38663887Y-74538842D01*
X38663883Y-74538841D01*
X38442238Y-74479452D01*
X38404215Y-74474446D01*
X38214741Y-74449500D01*
X38214734Y-74449500D01*
X37985266Y-74449500D01*
X37985258Y-74449500D01*
X37768715Y-74478009D01*
X37757762Y-74479452D01*
X37691454Y-74497219D01*
X37536112Y-74538842D01*
X37324123Y-74626650D01*
X37324109Y-74626657D01*
X37125382Y-74741392D01*
X36943338Y-74881081D01*
X36781081Y-75043338D01*
X36641392Y-75225382D01*
X36526657Y-75424109D01*
X36526650Y-75424123D01*
X36438842Y-75636112D01*
X36438842Y-75636113D01*
X36379453Y-75857761D01*
X36379452Y-75857764D01*
X36349500Y-76085258D01*
X36349500Y-76314741D01*
X36372509Y-76489499D01*
X36379452Y-76542238D01*
X36399364Y-76616550D01*
X36438842Y-76763887D01*
X36526650Y-76975876D01*
X36526656Y-76975888D01*
X36641388Y-77174611D01*
X36641392Y-77174617D01*
X36781081Y-77356661D01*
X36781089Y-77356670D01*
X36827238Y-77402819D01*
X36860723Y-77464142D01*
X36855739Y-77533834D01*
X36813867Y-77589767D01*
X36748403Y-77614184D01*
X36742967Y-77614378D01*
X36741423Y-77614499D01*
X36566443Y-77642214D01*
X36397960Y-77696956D01*
X36397957Y-77696957D01*
X36240109Y-77777386D01*
X36195658Y-77809682D01*
X36096786Y-77881517D01*
X36096784Y-77881519D01*
X36096783Y-77881519D01*
X35971519Y-78006783D01*
X35971519Y-78006784D01*
X35971517Y-78006786D01*
X35926796Y-78068338D01*
X35867386Y-78150109D01*
X35786957Y-78307957D01*
X35786956Y-78307960D01*
X35732214Y-78476443D01*
X35713832Y-78592500D01*
X35704500Y-78651421D01*
X30350500Y-78651421D01*
X30350500Y-73545258D01*
X42699500Y-73545258D01*
X42699500Y-73774741D01*
X42724446Y-73964215D01*
X42729452Y-74002238D01*
X42771516Y-74159223D01*
X42788842Y-74223887D01*
X42876650Y-74435876D01*
X42876656Y-74435888D01*
X42991388Y-74634611D01*
X42991392Y-74634617D01*
X43131081Y-74816661D01*
X43131089Y-74816670D01*
X43293330Y-74978911D01*
X43293338Y-74978918D01*
X43475382Y-75118607D01*
X43475385Y-75118608D01*
X43475388Y-75118611D01*
X43674112Y-75233344D01*
X43674117Y-75233346D01*
X43674123Y-75233349D01*
X43761839Y-75269682D01*
X43886113Y-75321158D01*
X44107762Y-75380548D01*
X44324312Y-75409057D01*
X44335250Y-75410498D01*
X44335266Y-75410500D01*
X44335273Y-75410500D01*
X44564727Y-75410500D01*
X44564734Y-75410500D01*
X44792238Y-75380548D01*
X45013887Y-75321158D01*
X45225888Y-75233344D01*
X45424612Y-75118611D01*
X45606661Y-74978919D01*
X45606665Y-74978914D01*
X45606670Y-74978911D01*
X45768911Y-74816670D01*
X45768914Y-74816665D01*
X45768919Y-74816661D01*
X45908611Y-74634612D01*
X46023344Y-74435888D01*
X46028930Y-74422402D01*
X46064285Y-74337048D01*
X46108125Y-74282644D01*
X46174420Y-74260579D01*
X46178846Y-74260500D01*
X50205303Y-74260500D01*
X50272342Y-74280185D01*
X50315788Y-74328206D01*
X50327713Y-74351611D01*
X50448028Y-74517213D01*
X50592786Y-74661971D01*
X50702102Y-74741392D01*
X50758390Y-74782287D01*
X50874607Y-74841503D01*
X50940776Y-74875218D01*
X50940778Y-74875218D01*
X50940781Y-74875220D01*
X51045137Y-74909127D01*
X51135465Y-74938477D01*
X51211375Y-74950500D01*
X51337648Y-74970500D01*
X51337649Y-74970500D01*
X51542351Y-74970500D01*
X51542352Y-74970500D01*
X51744534Y-74938477D01*
X51939219Y-74875220D01*
X52121610Y-74782287D01*
X52214590Y-74714732D01*
X52287213Y-74661971D01*
X52287215Y-74661968D01*
X52287219Y-74661966D01*
X52431966Y-74517219D01*
X52431968Y-74517215D01*
X52431971Y-74517213D01*
X52500855Y-74422401D01*
X52552287Y-74351610D01*
X52645220Y-74169219D01*
X52708477Y-73974534D01*
X52740500Y-73772352D01*
X52740500Y-73567648D01*
X52736954Y-73545257D01*
X61748052Y-73545257D01*
X61748052Y-73774740D01*
X61771724Y-73954534D01*
X61778004Y-74002237D01*
X61778005Y-74002239D01*
X61837394Y-74223886D01*
X61925202Y-74435875D01*
X61925203Y-74435876D01*
X61925208Y-74435887D01*
X62036417Y-74628508D01*
X62039944Y-74634616D01*
X62179633Y-74816660D01*
X62179641Y-74816669D01*
X62341882Y-74978910D01*
X62341890Y-74978917D01*
X62341891Y-74978918D01*
X62365358Y-74996925D01*
X62523934Y-75118606D01*
X62523937Y-75118607D01*
X62523940Y-75118610D01*
X62722664Y-75233343D01*
X62722669Y-75233345D01*
X62722675Y-75233348D01*
X62810394Y-75269682D01*
X62934665Y-75321157D01*
X63156314Y-75380547D01*
X63383818Y-75410499D01*
X63383825Y-75410499D01*
X63613279Y-75410499D01*
X63613286Y-75410499D01*
X63840790Y-75380547D01*
X64062439Y-75321157D01*
X64274440Y-75233343D01*
X64473164Y-75118610D01*
X64655213Y-74978918D01*
X64655217Y-74978913D01*
X64655222Y-74978910D01*
X64817463Y-74816669D01*
X64817466Y-74816664D01*
X64817471Y-74816660D01*
X64957163Y-74634611D01*
X65071896Y-74435887D01*
X65077482Y-74422401D01*
X65112837Y-74337047D01*
X65156677Y-74282643D01*
X65222972Y-74260578D01*
X65227398Y-74260499D01*
X69260397Y-74260499D01*
X69327436Y-74280184D01*
X69370881Y-74328202D01*
X69377714Y-74341613D01*
X69498028Y-74507213D01*
X69642786Y-74651971D01*
X69765862Y-74741389D01*
X69808390Y-74772287D01*
X69905172Y-74821600D01*
X69990776Y-74865218D01*
X69990778Y-74865218D01*
X69990781Y-74865220D01*
X70039618Y-74881088D01*
X70185465Y-74928477D01*
X70248602Y-74938477D01*
X70387648Y-74960500D01*
X70387649Y-74960500D01*
X70592351Y-74960500D01*
X70592352Y-74960500D01*
X70794534Y-74928477D01*
X70989219Y-74865220D01*
X71171610Y-74772287D01*
X71264590Y-74704732D01*
X71337213Y-74651971D01*
X71337215Y-74651968D01*
X71337219Y-74651966D01*
X71481966Y-74507219D01*
X71481968Y-74507215D01*
X71481971Y-74507213D01*
X71595019Y-74351613D01*
X71602287Y-74341610D01*
X71695220Y-74159219D01*
X71758477Y-73964534D01*
X71790500Y-73762352D01*
X71790500Y-73557648D01*
X71788538Y-73545258D01*
X80799500Y-73545258D01*
X80799500Y-73774741D01*
X80824446Y-73964215D01*
X80829452Y-74002238D01*
X80871516Y-74159223D01*
X80888842Y-74223887D01*
X80976650Y-74435876D01*
X80976656Y-74435888D01*
X81091388Y-74634611D01*
X81091392Y-74634617D01*
X81231081Y-74816661D01*
X81231089Y-74816670D01*
X81393330Y-74978911D01*
X81393338Y-74978918D01*
X81575382Y-75118607D01*
X81575385Y-75118608D01*
X81575388Y-75118611D01*
X81774112Y-75233344D01*
X81774117Y-75233346D01*
X81774123Y-75233349D01*
X81861839Y-75269682D01*
X81986113Y-75321158D01*
X82207762Y-75380548D01*
X82424312Y-75409057D01*
X82435250Y-75410498D01*
X82435266Y-75410500D01*
X82435273Y-75410500D01*
X82664727Y-75410500D01*
X82664734Y-75410500D01*
X82892238Y-75380548D01*
X83113887Y-75321158D01*
X83325888Y-75233344D01*
X83524612Y-75118611D01*
X83706661Y-74978919D01*
X83706665Y-74978914D01*
X83706670Y-74978911D01*
X83868911Y-74816670D01*
X83868914Y-74816665D01*
X83868919Y-74816661D01*
X84008611Y-74634612D01*
X84123344Y-74435888D01*
X84128930Y-74422402D01*
X84164285Y-74337048D01*
X84208125Y-74282644D01*
X84274420Y-74260579D01*
X84278846Y-74260500D01*
X88305494Y-74260500D01*
X88372533Y-74280185D01*
X88415979Y-74328207D01*
X88417713Y-74331610D01*
X88525124Y-74479450D01*
X88538034Y-74497219D01*
X88682786Y-74641971D01*
X88819625Y-74741388D01*
X88848390Y-74762287D01*
X88964607Y-74821503D01*
X89030776Y-74855218D01*
X89030778Y-74855218D01*
X89030781Y-74855220D01*
X89092329Y-74875218D01*
X89225465Y-74918477D01*
X89288602Y-74928477D01*
X89427648Y-74950500D01*
X89427649Y-74950500D01*
X89632351Y-74950500D01*
X89632352Y-74950500D01*
X89834534Y-74918477D01*
X90029219Y-74855220D01*
X90211610Y-74762287D01*
X90304590Y-74694732D01*
X90377213Y-74641971D01*
X90377215Y-74641968D01*
X90377219Y-74641966D01*
X90521966Y-74497219D01*
X90521968Y-74497215D01*
X90521971Y-74497213D01*
X90576324Y-74422401D01*
X90642287Y-74331610D01*
X90735220Y-74149219D01*
X90798477Y-73954534D01*
X90830500Y-73752352D01*
X90830500Y-73547648D01*
X90798477Y-73345466D01*
X90789475Y-73317762D01*
X90741718Y-73170781D01*
X90735220Y-73150781D01*
X90735218Y-73150778D01*
X90735218Y-73150776D01*
X90680094Y-73042591D01*
X90642287Y-72968390D01*
X90634556Y-72957749D01*
X90521971Y-72802786D01*
X90377213Y-72658028D01*
X90211613Y-72537715D01*
X90211612Y-72537714D01*
X90211610Y-72537713D01*
X90154653Y-72508691D01*
X90029223Y-72444781D01*
X89834534Y-72381522D01*
X89659995Y-72353878D01*
X89632352Y-72349500D01*
X89427648Y-72349500D01*
X89403329Y-72353351D01*
X89225465Y-72381522D01*
X89030776Y-72444781D01*
X88848386Y-72537715D01*
X88682786Y-72658028D01*
X88538028Y-72802786D01*
X88417713Y-72968388D01*
X88405788Y-72991794D01*
X88357814Y-73042590D01*
X88295303Y-73059500D01*
X84278846Y-73059500D01*
X84211807Y-73039815D01*
X84166052Y-72987011D01*
X84164285Y-72982952D01*
X84123349Y-72884123D01*
X84123346Y-72884117D01*
X84123344Y-72884112D01*
X84008611Y-72685388D01*
X84008608Y-72685385D01*
X84008607Y-72685382D01*
X83868918Y-72503338D01*
X83868911Y-72503330D01*
X83706670Y-72341089D01*
X83706661Y-72341081D01*
X83524617Y-72201392D01*
X83325890Y-72086657D01*
X83325876Y-72086650D01*
X83113887Y-71998842D01*
X83113883Y-71998841D01*
X82892238Y-71939452D01*
X82854215Y-71934446D01*
X82664741Y-71909500D01*
X82664734Y-71909500D01*
X82435266Y-71909500D01*
X82435258Y-71909500D01*
X82218715Y-71938009D01*
X82207762Y-71939452D01*
X82114076Y-71964554D01*
X81986112Y-71998842D01*
X81774123Y-72086650D01*
X81774109Y-72086657D01*
X81575382Y-72201392D01*
X81393338Y-72341081D01*
X81231081Y-72503338D01*
X81091392Y-72685382D01*
X80976657Y-72884109D01*
X80976650Y-72884123D01*
X80888842Y-73096112D01*
X80888842Y-73096113D01*
X80829453Y-73317761D01*
X80829452Y-73317764D01*
X80799500Y-73545258D01*
X71788538Y-73545258D01*
X71769151Y-73422860D01*
X71758477Y-73355465D01*
X71698469Y-73170781D01*
X71695220Y-73160781D01*
X71695218Y-73160778D01*
X71695218Y-73160776D01*
X71661503Y-73094607D01*
X71602287Y-72978390D01*
X71567361Y-72930318D01*
X71481971Y-72812786D01*
X71337213Y-72668028D01*
X71171613Y-72547715D01*
X71171612Y-72547714D01*
X71171610Y-72547713D01*
X71114653Y-72518691D01*
X70989223Y-72454781D01*
X70794534Y-72391522D01*
X70619995Y-72363878D01*
X70592352Y-72359500D01*
X70387648Y-72359500D01*
X70363329Y-72363351D01*
X70185465Y-72391522D01*
X69990776Y-72454781D01*
X69808386Y-72547715D01*
X69642786Y-72668028D01*
X69498028Y-72812786D01*
X69377714Y-72978386D01*
X69370882Y-72991796D01*
X69322906Y-73042591D01*
X69260398Y-73059499D01*
X65227398Y-73059499D01*
X65160359Y-73039814D01*
X65114604Y-72987010D01*
X65112837Y-72982951D01*
X65071901Y-72884122D01*
X65071896Y-72884112D01*
X65071896Y-72884111D01*
X64957163Y-72685387D01*
X64957160Y-72685384D01*
X64957159Y-72685381D01*
X64851521Y-72547713D01*
X64817471Y-72503338D01*
X64817470Y-72503337D01*
X64817463Y-72503329D01*
X64655222Y-72341088D01*
X64655213Y-72341080D01*
X64473169Y-72201391D01*
X64274442Y-72086656D01*
X64274428Y-72086649D01*
X64062439Y-71998841D01*
X63840790Y-71939451D01*
X63802767Y-71934445D01*
X63613293Y-71909499D01*
X63613286Y-71909499D01*
X63383818Y-71909499D01*
X63383810Y-71909499D01*
X63167267Y-71938008D01*
X63156314Y-71939451D01*
X63156307Y-71939453D01*
X62934664Y-71998841D01*
X62722675Y-72086649D01*
X62722661Y-72086656D01*
X62523934Y-72201391D01*
X62341890Y-72341080D01*
X62179633Y-72503337D01*
X62039944Y-72685381D01*
X61925209Y-72884108D01*
X61925202Y-72884122D01*
X61837394Y-73096111D01*
X61778005Y-73317758D01*
X61778004Y-73317764D01*
X61748052Y-73545257D01*
X52736954Y-73545257D01*
X52710526Y-73378400D01*
X52708477Y-73365465D01*
X52645218Y-73170776D01*
X52583595Y-73049836D01*
X52552287Y-72988390D01*
X52499999Y-72916421D01*
X52431971Y-72822786D01*
X52287213Y-72678028D01*
X52121613Y-72557715D01*
X52121612Y-72557714D01*
X52121610Y-72557713D01*
X52064653Y-72528691D01*
X51939223Y-72464781D01*
X51744534Y-72401522D01*
X51569995Y-72373878D01*
X51542352Y-72369500D01*
X51337648Y-72369500D01*
X51313329Y-72373351D01*
X51135465Y-72401522D01*
X50940776Y-72464781D01*
X50758386Y-72557715D01*
X50592786Y-72678028D01*
X50448034Y-72822780D01*
X50327711Y-72988393D01*
X50325980Y-72991792D01*
X50278007Y-73042589D01*
X50215494Y-73059500D01*
X46178846Y-73059500D01*
X46111807Y-73039815D01*
X46066052Y-72987011D01*
X46064285Y-72982952D01*
X46023349Y-72884123D01*
X46023346Y-72884117D01*
X46023344Y-72884112D01*
X45908611Y-72685388D01*
X45908608Y-72685385D01*
X45908607Y-72685382D01*
X45768918Y-72503338D01*
X45768911Y-72503330D01*
X45606670Y-72341089D01*
X45606661Y-72341081D01*
X45424617Y-72201392D01*
X45225890Y-72086657D01*
X45225876Y-72086650D01*
X45013887Y-71998842D01*
X45013883Y-71998841D01*
X44792238Y-71939452D01*
X44754215Y-71934446D01*
X44564741Y-71909500D01*
X44564734Y-71909500D01*
X44335266Y-71909500D01*
X44335258Y-71909500D01*
X44118715Y-71938009D01*
X44107762Y-71939452D01*
X44014076Y-71964554D01*
X43886112Y-71998842D01*
X43674123Y-72086650D01*
X43674109Y-72086657D01*
X43475382Y-72201392D01*
X43293338Y-72341081D01*
X43131081Y-72503338D01*
X42991392Y-72685382D01*
X42876657Y-72884109D01*
X42876650Y-72884123D01*
X42788842Y-73096112D01*
X42788842Y-73096113D01*
X42729453Y-73317761D01*
X42729452Y-73317764D01*
X42699500Y-73545258D01*
X30350500Y-73545258D01*
X30350500Y-59601421D01*
X35704500Y-59601421D01*
X35704500Y-59778578D01*
X35732214Y-59953556D01*
X35786956Y-60122039D01*
X35786957Y-60122042D01*
X35867386Y-60279890D01*
X35971517Y-60423214D01*
X36096786Y-60548483D01*
X36240110Y-60652614D01*
X36290716Y-60678399D01*
X36397957Y-60733042D01*
X36397960Y-60733043D01*
X36482201Y-60760414D01*
X36566445Y-60787786D01*
X36741421Y-60815500D01*
X36741422Y-60815500D01*
X36918578Y-60815500D01*
X36918579Y-60815500D01*
X37093555Y-60787786D01*
X37262042Y-60733042D01*
X37419890Y-60652614D01*
X37563214Y-60548483D01*
X37688483Y-60423214D01*
X37792614Y-60279890D01*
X37873042Y-60122042D01*
X37927786Y-59953555D01*
X37955500Y-59778579D01*
X37955500Y-59601421D01*
X37946165Y-59542486D01*
X39659500Y-59542486D01*
X39659500Y-59837513D01*
X39685836Y-60037545D01*
X39698007Y-60129993D01*
X39756914Y-60349838D01*
X39774361Y-60414951D01*
X39774364Y-60414961D01*
X39887254Y-60687500D01*
X39887258Y-60687510D01*
X40034761Y-60942993D01*
X40214352Y-61177040D01*
X40214358Y-61177047D01*
X40422952Y-61385641D01*
X40422959Y-61385647D01*
X40657006Y-61565238D01*
X40912489Y-61712741D01*
X40912490Y-61712741D01*
X40912493Y-61712743D01*
X41185048Y-61825639D01*
X41470007Y-61901993D01*
X41762494Y-61940500D01*
X41762501Y-61940500D01*
X42057499Y-61940500D01*
X42057506Y-61940500D01*
X42349993Y-61901993D01*
X42634952Y-61825639D01*
X42907507Y-61712743D01*
X43162994Y-61565238D01*
X43397042Y-61385646D01*
X43605646Y-61177042D01*
X43785238Y-60942994D01*
X43932743Y-60687507D01*
X44045639Y-60414952D01*
X44121993Y-60129993D01*
X44160500Y-59837506D01*
X44160500Y-59601421D01*
X45864500Y-59601421D01*
X45864500Y-59778578D01*
X45892214Y-59953556D01*
X45946956Y-60122039D01*
X45946957Y-60122042D01*
X46027386Y-60279890D01*
X46131517Y-60423214D01*
X46256786Y-60548483D01*
X46400110Y-60652614D01*
X46450716Y-60678399D01*
X46557957Y-60733042D01*
X46557960Y-60733043D01*
X46642201Y-60760414D01*
X46726445Y-60787786D01*
X46901421Y-60815500D01*
X46901422Y-60815500D01*
X47078578Y-60815500D01*
X47078579Y-60815500D01*
X47253555Y-60787786D01*
X47422042Y-60733042D01*
X47579890Y-60652614D01*
X47723214Y-60548483D01*
X47848483Y-60423214D01*
X47952614Y-60279890D01*
X48033042Y-60122042D01*
X48087786Y-59953555D01*
X48115500Y-59778579D01*
X48115500Y-59601421D01*
X54754500Y-59601421D01*
X54754500Y-59778578D01*
X54782214Y-59953556D01*
X54836956Y-60122039D01*
X54836957Y-60122042D01*
X54917386Y-60279890D01*
X55021517Y-60423214D01*
X55146786Y-60548483D01*
X55290110Y-60652614D01*
X55340716Y-60678399D01*
X55447957Y-60733042D01*
X55447960Y-60733043D01*
X55532201Y-60760414D01*
X55616445Y-60787786D01*
X55791421Y-60815500D01*
X55791422Y-60815500D01*
X55968578Y-60815500D01*
X55968579Y-60815500D01*
X56143555Y-60787786D01*
X56312042Y-60733042D01*
X56469890Y-60652614D01*
X56613214Y-60548483D01*
X56738483Y-60423214D01*
X56842614Y-60279890D01*
X56923042Y-60122042D01*
X56977786Y-59953555D01*
X57005500Y-59778579D01*
X57005500Y-59601421D01*
X56977786Y-59426445D01*
X56923042Y-59257958D01*
X56923042Y-59257957D01*
X56842613Y-59100109D01*
X56831518Y-59084838D01*
X56808038Y-59019032D01*
X56823863Y-58950978D01*
X56873968Y-58902283D01*
X56942446Y-58888407D01*
X56947977Y-58889008D01*
X57035266Y-58900500D01*
X57035273Y-58900500D01*
X57264727Y-58900500D01*
X57264734Y-58900500D01*
X57492238Y-58870548D01*
X57713887Y-58811158D01*
X57925888Y-58723344D01*
X58124612Y-58608611D01*
X58306661Y-58468919D01*
X58306665Y-58468914D01*
X58306670Y-58468911D01*
X58468911Y-58306670D01*
X58468914Y-58306665D01*
X58468919Y-58306661D01*
X58608611Y-58124612D01*
X58723344Y-57925888D01*
X58811158Y-57713887D01*
X58870548Y-57492238D01*
X58900500Y-57264734D01*
X58900500Y-57035266D01*
X58870548Y-56807762D01*
X58811158Y-56586113D01*
X58723344Y-56374112D01*
X58608611Y-56175388D01*
X58608608Y-56175385D01*
X58608607Y-56175382D01*
X58468918Y-55993338D01*
X58468911Y-55993330D01*
X58306670Y-55831089D01*
X58306661Y-55831081D01*
X58124617Y-55691392D01*
X57925890Y-55576657D01*
X57925876Y-55576650D01*
X57713887Y-55488842D01*
X57492238Y-55429452D01*
X57454215Y-55424446D01*
X57264741Y-55399500D01*
X57264734Y-55399500D01*
X57035266Y-55399500D01*
X57035258Y-55399500D01*
X56818715Y-55428009D01*
X56807762Y-55429452D01*
X56746757Y-55445798D01*
X56586112Y-55488842D01*
X56374123Y-55576650D01*
X56374109Y-55576657D01*
X56175382Y-55691392D01*
X55993338Y-55831081D01*
X55831081Y-55993338D01*
X55691392Y-56175382D01*
X55576657Y-56374109D01*
X55576650Y-56374123D01*
X55488842Y-56586112D01*
X55429453Y-56807759D01*
X55429451Y-56807770D01*
X55399500Y-57035258D01*
X55399500Y-57264741D01*
X55422509Y-57439500D01*
X55429452Y-57492238D01*
X55467701Y-57634988D01*
X55488842Y-57713887D01*
X55576650Y-57925876D01*
X55576657Y-57925890D01*
X55691392Y-58124617D01*
X55831081Y-58306661D01*
X55831089Y-58306670D01*
X55877238Y-58352819D01*
X55910723Y-58414142D01*
X55905739Y-58483834D01*
X55863867Y-58539767D01*
X55798403Y-58564184D01*
X55792967Y-58564378D01*
X55791423Y-58564499D01*
X55616443Y-58592214D01*
X55447960Y-58646956D01*
X55447957Y-58646957D01*
X55290109Y-58727386D01*
X55208338Y-58786796D01*
X55146786Y-58831517D01*
X55146784Y-58831519D01*
X55146783Y-58831519D01*
X55021519Y-58956783D01*
X55021519Y-58956784D01*
X55021517Y-58956786D01*
X55013112Y-58968355D01*
X54917386Y-59100109D01*
X54836957Y-59257957D01*
X54836956Y-59257960D01*
X54782214Y-59426443D01*
X54754500Y-59601421D01*
X48115500Y-59601421D01*
X48087786Y-59426445D01*
X48033042Y-59257958D01*
X48033042Y-59257957D01*
X47952613Y-59100109D01*
X47941518Y-59084838D01*
X47848483Y-58956786D01*
X47723214Y-58831517D01*
X47579890Y-58727386D01*
X47571953Y-58723342D01*
X47422042Y-58646957D01*
X47422039Y-58646956D01*
X47253556Y-58592214D01*
X47166067Y-58578357D01*
X47078579Y-58564500D01*
X46901421Y-58564500D01*
X46843095Y-58573738D01*
X46726443Y-58592214D01*
X46557960Y-58646956D01*
X46557957Y-58646957D01*
X46400109Y-58727386D01*
X46318338Y-58786796D01*
X46256786Y-58831517D01*
X46256784Y-58831519D01*
X46256783Y-58831519D01*
X46131519Y-58956783D01*
X46131519Y-58956784D01*
X46131517Y-58956786D01*
X46123112Y-58968355D01*
X46027386Y-59100109D01*
X45946957Y-59257957D01*
X45946956Y-59257960D01*
X45892214Y-59426443D01*
X45864500Y-59601421D01*
X44160500Y-59601421D01*
X44160500Y-59542494D01*
X44121993Y-59250007D01*
X44045639Y-58965048D01*
X43932743Y-58692493D01*
X43906453Y-58646958D01*
X43785238Y-58437006D01*
X43605647Y-58202959D01*
X43605641Y-58202952D01*
X43397047Y-57994358D01*
X43397040Y-57994352D01*
X43162993Y-57814761D01*
X42907510Y-57667258D01*
X42907500Y-57667254D01*
X42634961Y-57554364D01*
X42634954Y-57554362D01*
X42634952Y-57554361D01*
X42349993Y-57478007D01*
X42301113Y-57471571D01*
X42057513Y-57439500D01*
X42057506Y-57439500D01*
X41762494Y-57439500D01*
X41762486Y-57439500D01*
X41484085Y-57476153D01*
X41470007Y-57478007D01*
X41397090Y-57497545D01*
X41185048Y-57554361D01*
X41185038Y-57554364D01*
X40912499Y-57667254D01*
X40912489Y-57667258D01*
X40657006Y-57814761D01*
X40422959Y-57994352D01*
X40422952Y-57994358D01*
X40214358Y-58202952D01*
X40214352Y-58202959D01*
X40034761Y-58437006D01*
X39887258Y-58692489D01*
X39887254Y-58692499D01*
X39774364Y-58965038D01*
X39774361Y-58965048D01*
X39738172Y-59100110D01*
X39698008Y-59250004D01*
X39698006Y-59250015D01*
X39659500Y-59542486D01*
X37946165Y-59542486D01*
X37927786Y-59426445D01*
X37873042Y-59257958D01*
X37873042Y-59257957D01*
X37792613Y-59100109D01*
X37781518Y-59084838D01*
X37758038Y-59019032D01*
X37773863Y-58950978D01*
X37823968Y-58902283D01*
X37892446Y-58888407D01*
X37897977Y-58889008D01*
X37985266Y-58900500D01*
X37985273Y-58900500D01*
X38214727Y-58900500D01*
X38214734Y-58900500D01*
X38442238Y-58870548D01*
X38663887Y-58811158D01*
X38875888Y-58723344D01*
X39074612Y-58608611D01*
X39256661Y-58468919D01*
X39256665Y-58468914D01*
X39256670Y-58468911D01*
X39418911Y-58306670D01*
X39418914Y-58306665D01*
X39418919Y-58306661D01*
X39558611Y-58124612D01*
X39673344Y-57925888D01*
X39761158Y-57713887D01*
X39820548Y-57492238D01*
X39850500Y-57264734D01*
X39850500Y-57035266D01*
X39820548Y-56807762D01*
X39761158Y-56586113D01*
X39673344Y-56374112D01*
X39558611Y-56175388D01*
X39558608Y-56175385D01*
X39558607Y-56175382D01*
X39418918Y-55993338D01*
X39418911Y-55993330D01*
X39256670Y-55831089D01*
X39256661Y-55831081D01*
X39074617Y-55691392D01*
X38875890Y-55576657D01*
X38875876Y-55576650D01*
X38663887Y-55488842D01*
X38442238Y-55429452D01*
X38404215Y-55424446D01*
X38214741Y-55399500D01*
X38214734Y-55399500D01*
X37985266Y-55399500D01*
X37985258Y-55399500D01*
X37768715Y-55428009D01*
X37757762Y-55429452D01*
X37696757Y-55445798D01*
X37536112Y-55488842D01*
X37324123Y-55576650D01*
X37324109Y-55576657D01*
X37125382Y-55691392D01*
X36943338Y-55831081D01*
X36781081Y-55993338D01*
X36641392Y-56175382D01*
X36526657Y-56374109D01*
X36526650Y-56374123D01*
X36438842Y-56586112D01*
X36379453Y-56807759D01*
X36379451Y-56807770D01*
X36349500Y-57035258D01*
X36349500Y-57264741D01*
X36372509Y-57439500D01*
X36379452Y-57492238D01*
X36417701Y-57634988D01*
X36438842Y-57713887D01*
X36526650Y-57925876D01*
X36526657Y-57925890D01*
X36641392Y-58124617D01*
X36781081Y-58306661D01*
X36781089Y-58306670D01*
X36827238Y-58352819D01*
X36860723Y-58414142D01*
X36855739Y-58483834D01*
X36813867Y-58539767D01*
X36748403Y-58564184D01*
X36742967Y-58564378D01*
X36741423Y-58564499D01*
X36566443Y-58592214D01*
X36397960Y-58646956D01*
X36397957Y-58646957D01*
X36240109Y-58727386D01*
X36158338Y-58786796D01*
X36096786Y-58831517D01*
X36096784Y-58831519D01*
X36096783Y-58831519D01*
X35971519Y-58956783D01*
X35971519Y-58956784D01*
X35971517Y-58956786D01*
X35963112Y-58968355D01*
X35867386Y-59100109D01*
X35786957Y-59257957D01*
X35786956Y-59257960D01*
X35732214Y-59426443D01*
X35704500Y-59601421D01*
X30350500Y-59601421D01*
X30350500Y-54495258D01*
X42699500Y-54495258D01*
X42699500Y-54724741D01*
X42722394Y-54898628D01*
X42729452Y-54952238D01*
X42771516Y-55109223D01*
X42788842Y-55173887D01*
X42876650Y-55385876D01*
X42876657Y-55385890D01*
X42991392Y-55584617D01*
X43131081Y-55766661D01*
X43131089Y-55766670D01*
X43293330Y-55928911D01*
X43293338Y-55928918D01*
X43475382Y-56068607D01*
X43475385Y-56068608D01*
X43475388Y-56068611D01*
X43674112Y-56183344D01*
X43674117Y-56183346D01*
X43674123Y-56183349D01*
X43742434Y-56211644D01*
X43886113Y-56271158D01*
X44107762Y-56330548D01*
X44335266Y-56360500D01*
X44335273Y-56360500D01*
X44564727Y-56360500D01*
X44564734Y-56360500D01*
X44792238Y-56330548D01*
X45013887Y-56271158D01*
X45225888Y-56183344D01*
X45424612Y-56068611D01*
X45606661Y-55928919D01*
X45606665Y-55928914D01*
X45606670Y-55928911D01*
X45768911Y-55766670D01*
X45768914Y-55766665D01*
X45768919Y-55766661D01*
X45908611Y-55584612D01*
X46023344Y-55385888D01*
X46064285Y-55287048D01*
X46108125Y-55232644D01*
X46174420Y-55210579D01*
X46178846Y-55210500D01*
X50222464Y-55210500D01*
X50289503Y-55230185D01*
X50331142Y-55276210D01*
X50331417Y-55276042D01*
X50332312Y-55277503D01*
X50332948Y-55278206D01*
X50333962Y-55280195D01*
X50437767Y-55423072D01*
X50454283Y-55445804D01*
X50599035Y-55590556D01*
X50737823Y-55691389D01*
X50764639Y-55710872D01*
X50874131Y-55766661D01*
X50947025Y-55803803D01*
X50947027Y-55803803D01*
X50947030Y-55803805D01*
X51012939Y-55825220D01*
X51141714Y-55867062D01*
X51213785Y-55878477D01*
X51343897Y-55899085D01*
X51343898Y-55899085D01*
X51548600Y-55899085D01*
X51548601Y-55899085D01*
X51750783Y-55867062D01*
X51945468Y-55803805D01*
X52127859Y-55710872D01*
X52277750Y-55601971D01*
X52293462Y-55590556D01*
X52293464Y-55590553D01*
X52293468Y-55590551D01*
X52438215Y-55445804D01*
X52438217Y-55445800D01*
X52438220Y-55445798D01*
X52533529Y-55314614D01*
X52558536Y-55280195D01*
X52651469Y-55097804D01*
X52714726Y-54903119D01*
X52746749Y-54700937D01*
X52746749Y-54496233D01*
X52746595Y-54495258D01*
X61749500Y-54495258D01*
X61749500Y-54724741D01*
X61772394Y-54898628D01*
X61779452Y-54952238D01*
X61821516Y-55109223D01*
X61838842Y-55173887D01*
X61926650Y-55385876D01*
X61926657Y-55385890D01*
X62041392Y-55584617D01*
X62181081Y-55766661D01*
X62181089Y-55766670D01*
X62343330Y-55928911D01*
X62343338Y-55928918D01*
X62525382Y-56068607D01*
X62525385Y-56068608D01*
X62525388Y-56068611D01*
X62724112Y-56183344D01*
X62724117Y-56183346D01*
X62724123Y-56183349D01*
X62792434Y-56211644D01*
X62936113Y-56271158D01*
X63157762Y-56330548D01*
X63385266Y-56360500D01*
X63385273Y-56360500D01*
X63614727Y-56360500D01*
X63614734Y-56360500D01*
X63842238Y-56330548D01*
X64063887Y-56271158D01*
X64275888Y-56183344D01*
X64474612Y-56068611D01*
X64656661Y-55928919D01*
X64656665Y-55928914D01*
X64656670Y-55928911D01*
X64818911Y-55766670D01*
X64818914Y-55766665D01*
X64818919Y-55766661D01*
X64958611Y-55584612D01*
X65073344Y-55385888D01*
X65114285Y-55287048D01*
X65158125Y-55232644D01*
X65224420Y-55210579D01*
X65228846Y-55210500D01*
X69250398Y-55210500D01*
X69317437Y-55230185D01*
X69360882Y-55278204D01*
X69360885Y-55278209D01*
X69367715Y-55291614D01*
X69488028Y-55457213D01*
X69632786Y-55601971D01*
X69755862Y-55691389D01*
X69798390Y-55722287D01*
X69914607Y-55781503D01*
X69980776Y-55815218D01*
X69980778Y-55815218D01*
X69980781Y-55815220D01*
X70029621Y-55831089D01*
X70175465Y-55878477D01*
X70238602Y-55888477D01*
X70377648Y-55910500D01*
X70377649Y-55910500D01*
X70582351Y-55910500D01*
X70582352Y-55910500D01*
X70784534Y-55878477D01*
X70979219Y-55815220D01*
X71161610Y-55722287D01*
X71254590Y-55654732D01*
X71327213Y-55601971D01*
X71327215Y-55601968D01*
X71327219Y-55601966D01*
X71471966Y-55457219D01*
X71471968Y-55457215D01*
X71471971Y-55457213D01*
X71555045Y-55342869D01*
X71592287Y-55291610D01*
X71685220Y-55109219D01*
X71748477Y-54914534D01*
X71780500Y-54712352D01*
X71780500Y-54507648D01*
X71778538Y-54495258D01*
X80799500Y-54495258D01*
X80799500Y-54724741D01*
X80822394Y-54898628D01*
X80829452Y-54952238D01*
X80871516Y-55109223D01*
X80888842Y-55173887D01*
X80976650Y-55385876D01*
X80976657Y-55385890D01*
X81091392Y-55584617D01*
X81231081Y-55766661D01*
X81231089Y-55766670D01*
X81393330Y-55928911D01*
X81393338Y-55928918D01*
X81575382Y-56068607D01*
X81575385Y-56068608D01*
X81575388Y-56068611D01*
X81774112Y-56183344D01*
X81774117Y-56183346D01*
X81774123Y-56183349D01*
X81842434Y-56211644D01*
X81986113Y-56271158D01*
X82207762Y-56330548D01*
X82435266Y-56360500D01*
X82435273Y-56360500D01*
X82664727Y-56360500D01*
X82664734Y-56360500D01*
X82892238Y-56330548D01*
X83113887Y-56271158D01*
X83325888Y-56183344D01*
X83524612Y-56068611D01*
X83706661Y-55928919D01*
X83706665Y-55928914D01*
X83706670Y-55928911D01*
X83868911Y-55766670D01*
X83868914Y-55766665D01*
X83868919Y-55766661D01*
X84008611Y-55584612D01*
X84123344Y-55385888D01*
X84164285Y-55287048D01*
X84208125Y-55232644D01*
X84274420Y-55210579D01*
X84278846Y-55210500D01*
X88295303Y-55210500D01*
X88362342Y-55230185D01*
X88405788Y-55278206D01*
X88417713Y-55301611D01*
X88538028Y-55467213D01*
X88682786Y-55611971D01*
X88834622Y-55722284D01*
X88848390Y-55732287D01*
X88964586Y-55791492D01*
X89030776Y-55825218D01*
X89030778Y-55825218D01*
X89030781Y-55825220D01*
X89135137Y-55859127D01*
X89225465Y-55888477D01*
X89292441Y-55899085D01*
X89427648Y-55920500D01*
X89427649Y-55920500D01*
X89632351Y-55920500D01*
X89632352Y-55920500D01*
X89834534Y-55888477D01*
X90029219Y-55825220D01*
X90211610Y-55732287D01*
X90304590Y-55664732D01*
X90377213Y-55611971D01*
X90377215Y-55611968D01*
X90377219Y-55611966D01*
X90521966Y-55467219D01*
X90521968Y-55467215D01*
X90521971Y-55467213D01*
X90581065Y-55385876D01*
X90642287Y-55301610D01*
X90735220Y-55119219D01*
X90798477Y-54924534D01*
X90830500Y-54722352D01*
X90830500Y-54517648D01*
X90798477Y-54315466D01*
X90796216Y-54308508D01*
X90735218Y-54120776D01*
X90678519Y-54009500D01*
X90642287Y-53938390D01*
X90626725Y-53916971D01*
X90521971Y-53772786D01*
X90377213Y-53628028D01*
X90211613Y-53507715D01*
X90211612Y-53507714D01*
X90211610Y-53507713D01*
X90154653Y-53478691D01*
X90029223Y-53414781D01*
X89834534Y-53351522D01*
X89659995Y-53323878D01*
X89632352Y-53319500D01*
X89427648Y-53319500D01*
X89403329Y-53323351D01*
X89225465Y-53351522D01*
X89030776Y-53414781D01*
X88848386Y-53507715D01*
X88682786Y-53628028D01*
X88538034Y-53772780D01*
X88417711Y-53938393D01*
X88415980Y-53941792D01*
X88368007Y-53992589D01*
X88305494Y-54009500D01*
X84278846Y-54009500D01*
X84211807Y-53989815D01*
X84166052Y-53937011D01*
X84164285Y-53932952D01*
X84123349Y-53834123D01*
X84123346Y-53834117D01*
X84123344Y-53834112D01*
X84008611Y-53635388D01*
X84008608Y-53635385D01*
X84008607Y-53635382D01*
X83868918Y-53453338D01*
X83868911Y-53453330D01*
X83706670Y-53291089D01*
X83706661Y-53291081D01*
X83524617Y-53151392D01*
X83325890Y-53036657D01*
X83325876Y-53036650D01*
X83113887Y-52948842D01*
X82892238Y-52889452D01*
X82843778Y-52883072D01*
X82664741Y-52859500D01*
X82664734Y-52859500D01*
X82435266Y-52859500D01*
X82435258Y-52859500D01*
X82218715Y-52888009D01*
X82207762Y-52889452D01*
X82114076Y-52914554D01*
X81986112Y-52948842D01*
X81774123Y-53036650D01*
X81774109Y-53036657D01*
X81575382Y-53151392D01*
X81393338Y-53291081D01*
X81231081Y-53453338D01*
X81091392Y-53635382D01*
X80976657Y-53834109D01*
X80976650Y-53834123D01*
X80888842Y-54046112D01*
X80829453Y-54267759D01*
X80829451Y-54267770D01*
X80799500Y-54495258D01*
X71778538Y-54495258D01*
X71748477Y-54305466D01*
X71685220Y-54110781D01*
X71685218Y-54110778D01*
X71685218Y-54110776D01*
X71651503Y-54044607D01*
X71592287Y-53928390D01*
X71523791Y-53834112D01*
X71471971Y-53762786D01*
X71327213Y-53618028D01*
X71161613Y-53497715D01*
X71161612Y-53497714D01*
X71161610Y-53497713D01*
X71082878Y-53457597D01*
X70979223Y-53404781D01*
X70784534Y-53341522D01*
X70609995Y-53313878D01*
X70582352Y-53309500D01*
X70377648Y-53309500D01*
X70353329Y-53313351D01*
X70175465Y-53341522D01*
X69980776Y-53404781D01*
X69798386Y-53497715D01*
X69632786Y-53618028D01*
X69488028Y-53762786D01*
X69367715Y-53928385D01*
X69363320Y-53937011D01*
X69360884Y-53941794D01*
X69360883Y-53941795D01*
X69312909Y-53992591D01*
X69250398Y-54009500D01*
X65228846Y-54009500D01*
X65161807Y-53989815D01*
X65116052Y-53937011D01*
X65114285Y-53932952D01*
X65073349Y-53834123D01*
X65073346Y-53834117D01*
X65073344Y-53834112D01*
X64958611Y-53635388D01*
X64958608Y-53635385D01*
X64958607Y-53635382D01*
X64818918Y-53453338D01*
X64818911Y-53453330D01*
X64656670Y-53291089D01*
X64656661Y-53291081D01*
X64474617Y-53151392D01*
X64275890Y-53036657D01*
X64275876Y-53036650D01*
X64063887Y-52948842D01*
X63842238Y-52889452D01*
X63793778Y-52883072D01*
X63614741Y-52859500D01*
X63614734Y-52859500D01*
X63385266Y-52859500D01*
X63385258Y-52859500D01*
X63168715Y-52888009D01*
X63157762Y-52889452D01*
X63064076Y-52914554D01*
X62936112Y-52948842D01*
X62724123Y-53036650D01*
X62724109Y-53036657D01*
X62525382Y-53151392D01*
X62343338Y-53291081D01*
X62181081Y-53453338D01*
X62041392Y-53635382D01*
X61926657Y-53834109D01*
X61926650Y-53834123D01*
X61838842Y-54046112D01*
X61779453Y-54267759D01*
X61779451Y-54267770D01*
X61749500Y-54495258D01*
X52746595Y-54495258D01*
X52714726Y-54294051D01*
X52651469Y-54099366D01*
X52651467Y-54099363D01*
X52651467Y-54099361D01*
X52597064Y-53992591D01*
X52558536Y-53916975D01*
X52537743Y-53888355D01*
X52438220Y-53751371D01*
X52293462Y-53606613D01*
X52127862Y-53486300D01*
X52127861Y-53486299D01*
X52127859Y-53486298D01*
X52070902Y-53457276D01*
X51945472Y-53393366D01*
X51750783Y-53330107D01*
X51576244Y-53302463D01*
X51548601Y-53298085D01*
X51343897Y-53298085D01*
X51319578Y-53301936D01*
X51141714Y-53330107D01*
X50947025Y-53393366D01*
X50764635Y-53486300D01*
X50599035Y-53606613D01*
X50454277Y-53751371D01*
X50333962Y-53916973D01*
X50321316Y-53941794D01*
X50273342Y-53992590D01*
X50210831Y-54009500D01*
X46178846Y-54009500D01*
X46111807Y-53989815D01*
X46066052Y-53937011D01*
X46064285Y-53932952D01*
X46023349Y-53834123D01*
X46023346Y-53834117D01*
X46023344Y-53834112D01*
X45908611Y-53635388D01*
X45908608Y-53635385D01*
X45908607Y-53635382D01*
X45768918Y-53453338D01*
X45768911Y-53453330D01*
X45606670Y-53291089D01*
X45606661Y-53291081D01*
X45424617Y-53151392D01*
X45225890Y-53036657D01*
X45225876Y-53036650D01*
X45013887Y-52948842D01*
X44792238Y-52889452D01*
X44743778Y-52883072D01*
X44564741Y-52859500D01*
X44564734Y-52859500D01*
X44335266Y-52859500D01*
X44335258Y-52859500D01*
X44118715Y-52888009D01*
X44107762Y-52889452D01*
X44014076Y-52914554D01*
X43886112Y-52948842D01*
X43674123Y-53036650D01*
X43674109Y-53036657D01*
X43475382Y-53151392D01*
X43293338Y-53291081D01*
X43131081Y-53453338D01*
X42991392Y-53635382D01*
X42876657Y-53834109D01*
X42876650Y-53834123D01*
X42788842Y-54046112D01*
X42729453Y-54267759D01*
X42729451Y-54267770D01*
X42699500Y-54495258D01*
X30350500Y-54495258D01*
X30350500Y-51569597D01*
X30350618Y-51564189D01*
X30351454Y-51545033D01*
X30359010Y-51371945D01*
X30360053Y-51360441D01*
X30406382Y-51024713D01*
X30408677Y-51012587D01*
X30450907Y-50837648D01*
X31699500Y-50837648D01*
X31699500Y-51042351D01*
X31731522Y-51244534D01*
X31794781Y-51439223D01*
X31858452Y-51564182D01*
X31882192Y-51610775D01*
X31887715Y-51621613D01*
X32008028Y-51787213D01*
X32152786Y-51931971D01*
X32307749Y-52044556D01*
X32318390Y-52052287D01*
X32434607Y-52111503D01*
X32500776Y-52145218D01*
X32500778Y-52145218D01*
X32500781Y-52145220D01*
X32605137Y-52179127D01*
X32695465Y-52208477D01*
X32796557Y-52224488D01*
X32897648Y-52240500D01*
X32897649Y-52240500D01*
X33102351Y-52240500D01*
X33102352Y-52240500D01*
X33304534Y-52208477D01*
X33499219Y-52145220D01*
X33681610Y-52052287D01*
X33774590Y-51984732D01*
X33847213Y-51931971D01*
X33847215Y-51931968D01*
X33847219Y-51931966D01*
X33991966Y-51787219D01*
X33991968Y-51787215D01*
X33991971Y-51787213D01*
X34044732Y-51714590D01*
X34112287Y-51621610D01*
X34205220Y-51439219D01*
X34268477Y-51244534D01*
X34300500Y-51042352D01*
X34300500Y-50837648D01*
X34268477Y-50635466D01*
X34205220Y-50440781D01*
X34205218Y-50440778D01*
X34205218Y-50440776D01*
X34171503Y-50374607D01*
X34112287Y-50258390D01*
X34104556Y-50247749D01*
X33991971Y-50092786D01*
X33847213Y-49948028D01*
X33681613Y-49827715D01*
X33681612Y-49827714D01*
X33681610Y-49827713D01*
X33624653Y-49798691D01*
X33499223Y-49734781D01*
X33304534Y-49671522D01*
X33129995Y-49643878D01*
X33102352Y-49639500D01*
X32897648Y-49639500D01*
X32873329Y-49643351D01*
X32695465Y-49671522D01*
X32500776Y-49734781D01*
X32318386Y-49827715D01*
X32152786Y-49948028D01*
X32008028Y-50092786D01*
X31887715Y-50258386D01*
X31794781Y-50440776D01*
X31731522Y-50635465D01*
X31699500Y-50837648D01*
X30450907Y-50837648D01*
X30487745Y-50685045D01*
X30491234Y-50673213D01*
X30602524Y-50355163D01*
X30607180Y-50343725D01*
X30611883Y-50333641D01*
X30749570Y-50038366D01*
X30755345Y-50027439D01*
X30927442Y-49737758D01*
X30934258Y-49727488D01*
X31134353Y-49456370D01*
X31142163Y-49446823D01*
X31368258Y-49196974D01*
X31376974Y-49188258D01*
X31626823Y-48962163D01*
X31636370Y-48954353D01*
X31907488Y-48754258D01*
X31917758Y-48747442D01*
X32207443Y-48575342D01*
X32218356Y-48569575D01*
X32523730Y-48427176D01*
X32535170Y-48422520D01*
X32853214Y-48311232D01*
X32865037Y-48307746D01*
X33192597Y-48228674D01*
X33204702Y-48226384D01*
X33540440Y-48180053D01*
X33551944Y-48179010D01*
X33744183Y-48170617D01*
X33749591Y-48170500D01*
X110380402Y-48170500D01*
X110385809Y-48170617D01*
G37*
%TD.AperFunction*%
%TA.AperFunction,NonConductor*%
G36*
X93032534Y-76509214D02*
G01*
X93088467Y-76551086D01*
X93112884Y-76616550D01*
X93113200Y-76625396D01*
X93113200Y-76748355D01*
X93147102Y-76962404D01*
X93165619Y-77019395D01*
X93167614Y-77089237D01*
X93135369Y-77145393D01*
X90751286Y-79529478D01*
X90639481Y-79641282D01*
X90639480Y-79641284D01*
X90600669Y-79708508D01*
X90560423Y-79778215D01*
X90531112Y-79887600D01*
X90528469Y-79894271D01*
X90511202Y-79916383D01*
X90496602Y-79940337D01*
X90489992Y-79943547D01*
X90485469Y-79949341D01*
X90458987Y-79958609D01*
X90433755Y-79970866D01*
X90423054Y-79971184D01*
X90419522Y-79972421D01*
X90415312Y-79971415D01*
X90399943Y-79971872D01*
X90377873Y-79969500D01*
X90377867Y-79969500D01*
X90254500Y-79969500D01*
X90187461Y-79949815D01*
X90141706Y-79897011D01*
X90130500Y-79845500D01*
X90130500Y-79360096D01*
X90150185Y-79293057D01*
X90166814Y-79272420D01*
X92901519Y-76537714D01*
X92962842Y-76504230D01*
X93032534Y-76509214D01*
G37*
%TD.AperFunction*%
M02*
